<mxfile host="Electron" modified="2023-12-18T06:52:22.760Z" agent="Mozilla/5.0 (Windows NT 10.0; Win64; x64) AppleWebKit/537.36 (KHTML, like Gecko) draw.io/21.2.8 Chrome/112.0.5615.165 Electron/24.2.0 Safari/537.36" etag="TyRSHoXtzu1ikFf38LWH" version="21.2.8" type="device">
  <diagram name="Page-1" id="wdU2vlvLfLhHSGHgqa0V">
    <mxGraphModel dx="5186" dy="918" grid="1" gridSize="10" guides="1" tooltips="1" connect="1" arrows="1" fold="1" page="1" pageScale="1" pageWidth="3300" pageHeight="4681" math="0" shadow="0">
      <root>
        <mxCell id="0" />
        <mxCell id="1" parent="0" />
        <mxCell id="08-NsosBbDU-mmR43x8U-6" value="&lt;font style=&quot;font-size: 18px;&quot; color=&quot;#ffffcc&quot;&gt;CMakeLists.txt&lt;/font&gt;" style="text;html=1;strokeColor=none;fillColor=none;align=center;verticalAlign=middle;whiteSpace=wrap;rounded=0;" parent="1" vertex="1">
          <mxGeometry x="700" y="140" width="150" height="30" as="geometry" />
        </mxCell>
        <mxCell id="08-NsosBbDU-mmR43x8U-7" value="" style="rounded=0;whiteSpace=wrap;html=1;fillColor=#1e1e1e;" parent="1" vertex="1">
          <mxGeometry x="620" y="205" width="630" height="210" as="geometry" />
        </mxCell>
        <mxCell id="08-NsosBbDU-mmR43x8U-31" value="&lt;span style=&quot;font-size: 70px;&quot;&gt;Custom Targets, cmake modules: The clang-format use case&lt;/span&gt;" style="text;html=1;strokeColor=none;fillColor=none;align=center;verticalAlign=middle;whiteSpace=wrap;rounded=0;" parent="1" vertex="1">
          <mxGeometry x="-530" y="77.5" width="1077" height="382.5" as="geometry" />
        </mxCell>
        <mxCell id="MFZtFx-qUxBc-n4n6ePM-1" value="&lt;div style=&quot;color: rgb(212, 212, 212); background-color: rgb(30, 30, 30); font-family: Consolas, &amp;quot;Courier New&amp;quot;, monospace; font-weight: normal; font-size: 24px; line-height: 32px;&quot;&gt;&lt;div&gt;&lt;span style=&quot;color: #d4d4d4;&quot;&gt;clang-format -i --style=Google person.cpp&lt;/span&gt;&lt;/div&gt;&lt;div&gt;&lt;span style=&quot;color: #d4d4d4;&quot;&gt;clang-format -i --style=file &amp;nbsp;person.cpp &lt;/span&gt;&lt;/div&gt;&lt;div&gt;&lt;span style=&quot;color: #d4d4d4;&quot;&gt;clang-format -i --style=LLVM &amp;nbsp;person.cpp&lt;/span&gt;&lt;/div&gt;&lt;/div&gt;" style="text;whiteSpace=wrap;html=1;" parent="1" vertex="1">
          <mxGeometry x="650" y="250" width="560" height="155" as="geometry" />
        </mxCell>
        <mxCell id="MFZtFx-qUxBc-n4n6ePM-2" value="&lt;font style=&quot;font-size: 33px;&quot;&gt;Formatting your code&lt;/font&gt;" style="rounded=0;whiteSpace=wrap;html=1;" parent="1" vertex="1">
          <mxGeometry x="660" y="120" width="510" height="60" as="geometry" />
        </mxCell>
        <mxCell id="MFZtFx-qUxBc-n4n6ePM-3" value="&lt;div style=&quot;color: rgb(212, 212, 212); background-color: rgb(30, 30, 30); font-family: Consolas, &amp;quot;Courier New&amp;quot;, monospace; font-weight: normal; font-size: 24px; line-height: 32px;&quot;&gt;&lt;div&gt;&lt;span style=&quot;color: #569cd6;&quot;&gt;function&lt;/span&gt;&lt;span style=&quot;color: #d4d4d4;&quot;&gt;(add_clang_format_target TARGET_NAME SOURCE_DIR)&lt;/span&gt;&lt;/div&gt;&lt;div&gt;&lt;span style=&quot;color: #569cd6;&quot;&gt;&amp;nbsp; &amp;nbsp; find_program&lt;/span&gt;&lt;span style=&quot;color: #d4d4d4;&quot;&gt;(CLANG-FORMAT_PATH clang-format REQUIRED)&lt;/span&gt;&lt;/div&gt;&lt;div&gt;&lt;span style=&quot;color: #d4d4d4;&quot;&gt;&amp;nbsp; &amp;nbsp; &lt;/span&gt;&lt;span style=&quot;color: #6a9955;&quot;&gt;# Find all C++ source files in the specified directory&lt;/span&gt;&lt;/div&gt;&lt;div&gt;&lt;span style=&quot;color: #569cd6;&quot;&gt;&amp;nbsp; &amp;nbsp; file&lt;/span&gt;&lt;span style=&quot;color: #d4d4d4;&quot;&gt;(GLOB_RECURSE FORMAT_SOURCES&lt;/span&gt;&lt;/div&gt;&lt;div&gt;&lt;span style=&quot;color: #d4d4d4;&quot;&gt;&amp;nbsp; &amp;nbsp; &amp;nbsp; &amp;nbsp; LIST_DIRECTORIES false&lt;/span&gt;&lt;/div&gt;&lt;div&gt;&lt;span style=&quot;color: #d4d4d4;&quot;&gt;&amp;nbsp; &amp;nbsp; &amp;nbsp; &amp;nbsp; &lt;/span&gt;&lt;span style=&quot;color: #ce9178;&quot;&gt;&quot;${SOURCE_DIR}/*.cpp&quot;&lt;/span&gt;&lt;/div&gt;&lt;div&gt;&lt;span style=&quot;color: #d4d4d4;&quot;&gt;&amp;nbsp; &amp;nbsp; &amp;nbsp; &amp;nbsp; &lt;/span&gt;&lt;span style=&quot;color: #ce9178;&quot;&gt;&quot;${SOURCE_DIR}/*.h&quot;&lt;/span&gt;&lt;/div&gt;&lt;div&gt;&lt;span style=&quot;color: #d4d4d4;&quot;&gt;&amp;nbsp; &amp;nbsp; )&lt;/span&gt;&lt;/div&gt;&lt;br&gt;&lt;div&gt;&lt;span style=&quot;color: #d4d4d4;&quot;&gt;&amp;nbsp; &amp;nbsp; &lt;/span&gt;&lt;span style=&quot;color: #6a9955;&quot;&gt;# Create a custom target to run clang-format&lt;/span&gt;&lt;/div&gt;&lt;div&gt;&lt;span style=&quot;color: #569cd6;&quot;&gt;&amp;nbsp; &amp;nbsp; add_custom_target&lt;/span&gt;&lt;span style=&quot;color: #d4d4d4;&quot;&gt;(&lt;/span&gt;&lt;span style=&quot;color: #569cd6;&quot;&gt;${TARGET_NAME}&lt;/span&gt;&lt;/div&gt;&lt;div&gt;&lt;span style=&quot;color: #d4d4d4;&quot;&gt;&amp;nbsp; &amp;nbsp; &amp;nbsp; &amp;nbsp; &lt;/span&gt;&lt;span style=&quot;color: #569cd6;&quot;&gt;COMMAND&lt;/span&gt;&lt;span style=&quot;color: #d4d4d4;&quot;&gt; ${CLANG-FORMAT_PATH} -i &lt;/span&gt;&lt;span style=&quot;color: #569cd6;&quot;&gt;${FORMAT_SOURCES}&lt;/span&gt;&lt;/div&gt;&lt;div&gt;&lt;span style=&quot;color: #d4d4d4;&quot;&gt;&amp;nbsp; &amp;nbsp; &amp;nbsp; &amp;nbsp; WORKING_DIRECTORY &lt;/span&gt;&lt;span style=&quot;color: #569cd6;&quot;&gt;${CMAKE_SOURCE_DIR}&lt;/span&gt;&lt;span style=&quot;color: #d4d4d4;&quot;&gt;&amp;nbsp; &amp;nbsp; &amp;nbsp; &amp;nbsp; &amp;nbsp; &amp;nbsp;&lt;/span&gt;&lt;span style=&quot;color: #6a9955;&quot;&gt;&amp;nbsp; &amp;nbsp; &amp;nbsp; &amp;nbsp; &amp;nbsp;&lt;/span&gt;&lt;/div&gt;&lt;div&gt;&lt;span style=&quot;color: #d4d4d4;&quot;&gt;&amp;nbsp; &amp;nbsp; &amp;nbsp; &amp;nbsp; &lt;/span&gt;&lt;span style=&quot;color: #569cd6;&quot;&gt;COMMENT&lt;/span&gt;&lt;span style=&quot;color: #d4d4d4;&quot;&gt; &lt;/span&gt;&lt;span style=&quot;color: #ce9178;&quot;&gt;&quot;Running clang-format on ${SOURCE_DIR} sources&quot;&lt;/span&gt;&lt;/div&gt;&lt;div&gt;&lt;span style=&quot;color: #d4d4d4;&quot;&gt;&amp;nbsp; &amp;nbsp; )&lt;/span&gt;&lt;/div&gt;&lt;div&gt;&lt;span style=&quot;color: #569cd6;&quot;&gt;endfunction&lt;/span&gt;&lt;span style=&quot;color: #d4d4d4;&quot;&gt;()&lt;/span&gt;&lt;/div&gt;&lt;/div&gt;" style="text;whiteSpace=wrap;html=1;" parent="1" vertex="1">
          <mxGeometry x="1500" y="190" width="870" height="560" as="geometry" />
        </mxCell>
        <mxCell id="MFZtFx-qUxBc-n4n6ePM-4" value="&lt;font style=&quot;font-size: 33px;&quot;&gt;The custom module&lt;/font&gt;" style="rounded=0;whiteSpace=wrap;html=1;" parent="1" vertex="1">
          <mxGeometry x="170" y="1000" width="510" height="60" as="geometry" />
        </mxCell>
        <mxCell id="MFZtFx-qUxBc-n4n6ePM-5" value="&lt;font style=&quot;font-size: 25px;&quot;&gt;Executable&lt;/font&gt;" style="rounded=0;whiteSpace=wrap;html=1;fillColor=#dae8fc;strokeColor=#6c8ebf;" parent="1" vertex="1">
          <mxGeometry x="990" y="610" width="200" height="70" as="geometry" />
        </mxCell>
        <mxCell id="MFZtFx-qUxBc-n4n6ePM-6" value="&lt;font style=&quot;font-size: 25px;&quot;&gt;Library&lt;/font&gt;" style="rounded=0;whiteSpace=wrap;html=1;fillColor=#d5e8d4;strokeColor=#82b366;" parent="1" vertex="1">
          <mxGeometry x="990" y="720" width="200" height="70" as="geometry" />
        </mxCell>
        <mxCell id="MFZtFx-qUxBc-n4n6ePM-7" value="&lt;font style=&quot;font-size: 25px;&quot;&gt;Custom&lt;/font&gt;" style="rounded=0;whiteSpace=wrap;html=1;fillColor=#fff2cc;strokeColor=#d6b656;" parent="1" vertex="1">
          <mxGeometry x="990" y="830" width="200" height="70" as="geometry" />
        </mxCell>
        <mxCell id="MFZtFx-qUxBc-n4n6ePM-8" value="" style="shape=image;verticalLabelPosition=bottom;labelBackgroundColor=default;verticalAlign=top;aspect=fixed;imageAspect=0;image=data:image/png,iVBORw0KGgoAAAANSUhEUgAABT8AAAJ2CAYAAACZwPYQAAAAAXNSR0IArs4c6QAAAARnQU1BAACxjwv8YQUAAAAJcEhZcwAADsMAAA7DAcdvqGQAAP+lSURBVHhe7J0NQFRV3v+/ggzCIPIiQiKKIAaaoiZamoW6i6ZmG+YmmW9PqKVZ5lOarebj6q5v/dUy2XxpTc2wXK1822RXpUxNMRVNIQFFUQNRUWRQxqT/OfeeO3NnmBkGGBDw96kr9577du6Zc8/L7/5eGoSFtf0dBEHUaho1chVrBGHKnTslVD+IcuH1pKTkjtgiiLqDq2sjauPqMdSHEZWF1x2CIAiCsBcn8ZcgCIIgCIIgCIIgCIIgCKJeQcJPgiAIgiAIgiAIgiAIgiDqJST8JAiCIAiCIAiCIAiCIAiiXkLCT4IgCIIgCIIgCIIgCIIg6iUk/CQIgiAIgiAIgiAIgiAIol5Cwk+CIAiCIAiCIAiCIAiCIOolJPwkCIIgCIIgCIIgCIIgCKJeQsJPgiAIgiAIgiAIgiAIgiDqJST8JIgHCfdANGzVE65+/nBqINIIwvdpNIlsIzYEDfzh+uQzcBWbBEEQdRsXOHkEQtOmJzSNfUQaUXdhv6d3F7g9PgpN2lr7PX3Q6MlR8GzXBQ1dXUQaQRAEQRAPIg3Cwtr+LtYJgqilNGpURRGUe3c0eeYZ+DZzM37x+L0QBf/9GNfS80QCURe5c6ek6vWj2XC0eIFNDq8cxa87v0RJoz/Ad+Af4N04G5eWLcNtcRhRd+H1pKTkjtiqCkGIGTMYbdzEpgWKsrZi3a4csUUQVcPVtVHV2zhf1qY98zRr08Q2o/ROHq7+exkKL1ILdz+pfB/WBk1Gvwo//puy8cy1HctQcO66vEvCB659JyGwnac07rmT+g9c/D5T3kXUC3jdIQiCIAh7Ic1PgqjvNIhAkyF/hp8QfJb+dhel/JNHA7btfFc6hKg4Tz7UFAse64h/9OqCD3t2QmxICzRoULfVaRs264Kg0fPRZhgXfIpEhxGNYa++jMGRYrMmiRyMl199Fa/er/vXK3zQMrQdIiKsL6FBldeqW7jnPE5uHCu2iOpm7MaTOL9nodhyJL3x7LNBYt2cILavt1ivAdz/AL8hRsFn6V3WB7K/Tq5uaPDbb3JiDdFp8Mt49eXB6CS2CQfRwBO+AyehSYCi3emChk8aBZ+1B8f2g1SfCIIgCMJ+qqD52R9vJTyDELEFnMXWCafwSMJTuLZsOtakyaltR83D5GbfYcIimB5/MwVLp3+KM2y1/9vz8NB24zkybTFm3huIaiI2UYgU1XX7v70cg1vL66b7LOXr/+Esz0d3T5HGUr+ZiPd3iQ2CqOVURevFqdMUBPcKlDUffl6Li3tPsDffH64hPijJ4i+NG5was3ejKE8WihJ28Uq7EGQWFiHrpg4xQf6IYDPrT9KycfL6TXFEzeBIzc9GYtOIIzU/+aQvFMUHPsHWVJFUQ0THvYpQ3UF8svW4SLk/3M98OE7z0zFwIecLoWKDkfllK/R9W05/+spcdBi2SuxxNGOReHIGehiHA2wIcQBzO8Shuu5YLvGJODmzGf7dqi+miqSaggs/ZzT7N1r1ceydu8zdjY1/dsXeOXEYv16tBRyEkQmJmPGHEnzxQl/MPCaSbVBVzU9Nn7lo2Z6rKt/Fzb1LkP9zHuDSEY1aXMQdrinYwBNOHg1RekutNUjUFA7R/FQoyUPeVtZnBU9Ciyh/NBTJHLs0P/mHsh6B0IhN6C/h4CdbcVzqvyLgfSMN/0hMFjtViPN06f/Axr0izSKV6we5kPNR/FSpvqPi/U4nDH75cbifLe9ZGL2H4dWQYlFGNQ9pfhIEQRAVoWofRLkAc8JETJCW/4dv2X/vf3MVUSNHoy3fHzEaY8J/wdJF30qHq49fmv4wJr/dX04vgyz4bJv+gbg2W5b9graT5mFMhDhEEniKfep7csrkS4YLPOVrpcD32f+FtbsTRP3BBW6tZcEn7mbiavIJKbVhr1fg2Uj52tATvqNfQWM/sUnYxT9/ycZ/L17BuVs6HL1agHu/A40a1i4dE8KI7tb9FXzWH3pi6pqt+Ppr1bJmGnqIveWzELvPn8cL+AKtWrUSy1xceTQRNafvWYgDc5R7s+V+Cj7rKUdnjMbc/wK9Z36KDw0aoEF4dsmnmPEHYO+c0XYJPqtOBLSthI+GgqMo4IJPhtuA5+CqE8JOv2fQfPRw2PDkQNR2WP/LtXnh6g//5+eipSL4VNLtQNKi7OGH/AP/wD/+IZaz7gg3KCnroXcPtai1Gd1OJTAlCIIgCKJWUjXNz3kB2Cq0N9VwrcxHTkzEzx3lv7KGpdnxEaMxb1Aupi/6tqzmZ7//RUL0NYNmqAGe3vEUJpQ5h2t7tsfPkqDTcr64Burg3OkiL1y4OgZYZ65tShC1k8prvag0I24dRfanG4DHpqJFZ384/X4bN1PT4NbVqPF3c8//Iv+U2DChGb4cEoJrR3PxcJdQSIoWxVn44N/Z+Ezaz/AOxp4+Yh+u4JvNJzGXrb0U+RjeaJyLI41D0dVdTs/maW200pHIO4moH65Iq9KxSjp0OLLnR7xawNct3F91njkm1xH5DH6iL/rcOolfmndg+eA7yrm++fPZYHBwc0Q398OadNL8lJE1RwLFbFB/iWudeJlovPCJ5uPKAShA2j82QtKnkTRo3JGVzrqJcG9pr3y+IrwUGjjSOjuPHxeQa1kbxywfZbR4RDJU2jxSvrT5uOQeyM7j+cpFAM/3JR0CA8VduXYPhuFVkT9pW9GQMdMckveZ5UP9vDWE4zQ/tQh6pA18DM/C0F9H5s857I0qn/I0O033c0HpC6wVkyk8qE5/Gle+/BmP/LkHJCXOrC9MtBcljcbHZfXOwoNf4Of2TwMfdEDcaq75+bpYl3aboD5PFpIqx4l7HryCHo+3kfLyIV7HjGY/44BfD1mTVNIg3YM+imapmUapibarsm/Rbpz/szHYmPEZ1ZiWg6Ql+4usLfrzwWYsP9LNpLzu+YOSf3XerdybrZpofkoaqD0Ak3JW7mt6Pfswanl++/br2B39IRYNtKQNapuqaX7+AX6TnoZkRHTh38j85r9o1G8uAsLc4KTPw9VTt9GsS7B0JH/G/C9m46albkW0S/mXtKwd4JVfj0usLbvQSmnH5G1Fm89a+ya3L1lye1NuW6fGtM2S2pXrZc8v25ZlIQ0RiPCSkkzbqlqCQzQ/2fjm1/RA+Km1PbkW6IFLaNJb7ttsan4qv4XVdpmXfwDrB7TwM9fA5Od2BfKLA+Geq5Sv6e9l/F15urEf5FqZEV5m9UOpN2a/pSXNT5P6ZHJPXh9/Arpa6nfMj1NroZrmW+ozjwCPSkJhcRzX9gxn5cnKopHx4velbpHmJ0EQBFERqqam1CQKkxOWI4Ev84yal99u55qVyzEY26yalvcfFAVcOSu2TGkb0BQ30w+UEariwjXc9Akwangq9GuPkHOnDBqe1vJlIKIHS/sF+0nwSVSYxzFp6Rp8uvQ1tqZgI+2jN9FXpNwfbqNUL1YFv/24EBdPFeLWvhm49uM2XP40GbfYpO/azsW4VualU6NFVzbg/efm3Yhiyze3QvHGE83Evmb4sk8Aftkj74s6Cjz7dDBeEnvhHwD8yPedxNzWHfBG81x8IK5jEGDy9DY6fKOk78nFw306YIa8l6G+/0mc8++ALw2uL4xIgk/V9b+5LHYwGrcJEflgy1Edulq9vvnzWefxAF/0DWwmCT1/LigUqXUE7z/AexCbPPZsY0VrxR9efP+A4WjkIZLKRRb0+eUfFNozacgXe4x0QkttPg4K7Zq0G96IiIsW+zhsmws0+X42eUXgo0Lbhl87AmCTLPnauQhQJv0WOY6tn/DryxOzf0iCT/kaWjYZla/B9iMCLw9WeU3z8gOO8H3KRFiDQK3IT3oBvMNfxatK/qTtYWzKKNOplbtRc8iwz5gPPgk2XreeoPFBmy6RiBRLeJDyAcOchXg0tBA//9dcuGeFRY8CXwrtzDkH2Mv2OhLjxT54okd/4ENJe/MLZIa+gN2LxK5FuzGj/c+YKzQ7P8TTpmbu1uDnPX4FX4jzWs35GY/M3M1yrcDu2ewnaZ9BQBn6CPABP34uDqAHZpznglXj9usG/6Xs2Q3arqp9b/eVnq0QmdJ9rQk+1eVglM21wSPs6Xj63INAj5nn8bp6+w1Fm9bKvU1g95nZA1fYfeQ8cCGx+r7mZWEPOVg3IQ5v72BjvsU78eFANj58u2KCz6rD+kAz19Z3ds1AXg7r875eiMLDG3B25wmU4BLyPv0Yt8o2Viq8JcEXf7cP8mapx6uSQMqw3VXxvVhe+6bGWlunRhZIGdo9dlyx2GNy/j8O4pK7eVsWgYBc43na8Prr97jkxyW4mFooa3r+Xoj8rUtwy/L30TJ0auUHzY3cctvlwq1Z0AWGG9p7Dtf6RP4F9g6r6M3GPKrfy9LvygWXEe6XWD0R/UHvYXjcT1VvzPslm5j3jVxQaanfsXScuIREMjbyesTGjYY+M3UrfuKP0I4/NTs/xJvt24g1Wz+R+jhJQMquVduE6gRBEARhjuPM3i1ogJZBJZTkgtHpa8s9wwaeiJokBJxCG9SAlXyFPCuOHwmssSe/BFHnuYSSXKG317gNGotgAL8d+hjXMtk6myCU3jqKG99/h1sXL5WZJJqiw5EfjZqQc09l4Za/vyQ8fCkyBK3zzgotSsa5PJxzbwxFnwbqfTdu4ZZ6n4QW/whvhnNHZW1RiYJs7Mlrho4GAaf6/ldwIg9o6mkuZNGiZ3OY5jPVuH4r86Qqj2dxpNja9U2fzxoxLfwRFxqEE9dv4vMzF/D775VUpL9fFPwXN881hLaFtaAQbtAGN8NvJ7bgTpFIKo/IlvBj9e4ng4ZKMraW0WRik7JEo4+w5FzlR1EoQJrQeEHqBeTrNXDnMXR6hyOQXTvdMMliEzU++VLgGjhSYCMbwY3ENYz5Y1c5zWZ2fi2F4IJxI8tsQqjHpdMiP3tzWe7Mt7XwFPc6vnWj8VxpX32jE+L+dw5mv2d9mTbc1oT9CnLs1R58u6/kB1Ri9R78bCJdKMSBDxStyqn4KQtoFsQFemOR2L8NMr81alyuGvYhDpic6ykJCs+fF4sU8Eec96XK7+bqOPw7qw0eVYSq/J6fm/nGzPq30IZchT2n2E3Mtj2bhfENxlT0NWimimPtYdGjaJP1haoc4hCnrCMT/xbC0lX//VkSoJpsezaDfPfy7h0kCTqbHZxrvM+iYeiBA9hoUv7NEGQQPtcVTqLkqlh9qCO0ktY/cPs/H+NWAesD715H6cXDuPp9Mm7fKs/vdQGyRLtx/Hw+awXMtjXukBUsy2vf1Fhp69T0DpB8TRqES6lbsdXQBqrO5/c9WwCNSVtmel7WDQ38WtkrUKtr3MVv3y9E9qeLcfafC3Ezt2IBHfW6G2LNFsnIveGNUINQMhoBXsZ6YGDvRlW5899VrCu0GobHA3VIM/jKFELFs6b1RqMVKrvlchyFxWwE1Li839be40w5vvUnXOIm/4NZ/1msqlMEQRAEUYeoBgd1bTFmZBSufTMRW/EM3uonkjlqoaRaWGnGmdyraNLMGLLIQEtfNLmeK4SWis/PbTjb+imVL1DryD4/P0AKojBYnS+CsJuDWDZ5DEZP/oitKdhIe20JdouU+4X+2FHopAmdJ3yffxf+XJOvfzxajn1XREa9hJLUZPxWUeuhgmIoc0oJ/w5IGdJXLB3QGloIK2FTCrLRh2uGiuOMwkUdrpnNPbJv6SwIOGX4vrJo4euuwyW7JE7suFti1RLmz2dGn8BmGNTqIfzn0hX8Mz0bJaX2eharXZSe+hgX9mbDYszj3wtxbccyFFysgOG7jzs0xYWGCZxVuOmcIqgsR3uTT9YM2Lo2m9x/IrRmymq0qDC/RmohdAbBRVXhWlqKAFZlPlhv2I+FYwbjT3+yvoyZv18ca4mKCNC49qEipDQLUmRGxhW1QK8QV34RqxbhJtxCo5EvBsFg2fP4dWWhatWRIqsLgavRtN42Y4OaofBKhtiqPDbvHdpDEnR+aK516sk1WdXl74lmD4t9diGbvS/iGp9TBuB1rgG6KBErRliLAl8dFKLoeKbcvrkEwn/4X9CM94EDX0HwmFfgxoWhJWm4nXrUchtYWexu39SYtXWCTo21dgrmGNeLYS5nU3NDZ2tvfeA2Sm9dQmlxxZ212CtoVH8s6zQ4FNpL6VDEz0a4hqXSD6hNzzkayYUK1540P0+yKlDXG3dPoyC7HJITDyLf73HpXFsao/YeZwoXrHPXL1AJ2wmCIAiibuF44We/ZxB1XTZ3l83fKxFYaNc2pPg8g3mjVAbr3Efos02Rst1caPot3ufBkNQBj2xyBmumbwMo4BHxoFCwDflH8uSJXQNPNG7dBk1a+qAhW/d+qr9JNNQK4e2OpsW3kC02b2X+KJuTGxbFn6YFzp2UjzExj9fC12zuEcwmfVcL7fEkqMaK0LUM7LjGZQWuBsyeT43WpSF6Bvgiq7AIx68WoIW2EYI83KT0usddlP78MS6miDqioAg+eTTkilLehE2JEKsIKtXam+Vhdm0uGKgw5vmL9IRWXww7xQs24IJP7s9NEcCm1UPNz0jEz12OZcvKLlOfEYdYhWtoeuKRP9gjTOSCzxlo9q0ipJxrpr1pC3MhXRia2SVrLCvcC2MnXskxEwpWAoNvTSFwnXvQ7odRaY9WjnLvnfUFvsjvgRmSBqwK7kdVnKMsBs3QclH7+xyN1785hW/eHI23d5Sg98waFoBmfoHczNuSObRTIx948j4wwBNOrsFo2rO74wfCVWnfrGC3BmA5H5+8tBoK/mYBSXPXK8DEnN0qXIO2OBDhvaMRHqgrq/UpCT7laOlyPyCbkRvR41K6JRcE3P+mco5YKhRFXTZz5/fjws1hhkBN5th7nBqumapFwQ2tDRcOBEEQBFG7qdqYT+1bM2EexvTjAkpgq6LVmfYp1hxqisFWo7orqEzY2fJWPy6g/ABnwt8wpCVM8sV3E6wEKOL3UUePN89XGa1QHpUeGDxvtNgmiPrMXcnPZ/bGLbhyKhO3Cm6jJP8Srn3/D2R/sa0C2i5adG2v+MDU4h+PhQKX8yUz8c8u5AJtOuAfFVVzM5jA67D/sg6tu6g0Qb2D0cf/Ck6cE9s2mPFEX+yJ5EIwbg7P8vmY0d/ojEjjOvf5qVz/pcgO6Ipc7DfMS60/nzk+ri7w0mgQ4e2Jv3SJMCy9ApqKI+oavI4swcWj1w3+0iok+JTMzYXfS27qrQnEoyqzwMFm2iWSwFI1QY8OsLPiiGsbo+/yyadlb6VWKZM/dhXhs63KIgEuRGV1uVDROOXmqmK1/nAdF7JOIy2t7JLJmoHymPo59905AydNfE6OReIe82jvXGCp0sSM74NH7BJgymbdbfobrzd249OGYEHWEef9WeXXMj4RT4dm4ie7BX7W4UJUowbnWPRpb+NheBCkk3L+JfN1tT9TlqdEgxm+fdhz76l95uKA3wvCBQDj7Z9M/ahWkC5zjVHdX/9G8fGZIwlAlSjwczqL5GrnOu78ezayv/ov8s9cgq7oNm7npuHKzoXI+c8hu6OB20ul2zc1qjZVFsxFGIVUbN9gQxtoaoI9LNwbBbkqzTyvUKOArfcwKbhObj0yWf799m38doct7K9F7on9fLGl9Cq5BPBGhNKPKbAysyQc5Cbp3uER8LboJ9QL7ho9ipXuk7uCMe+mrm/FJ+k6BPZQBKDHcSFf7Te2KlTCBF7dh1ug0+BHEVichY2JWShQ1ymCIAiCqENUIdo7QRA1RZWjeVcZEQ09U4eubYSA0DzaeusOSOmiChAk9svR3s+aBDYyHqeOuG4e7d0YMd5wf7Nj/wcn0SdVJwk/+9z6UVrn8O1n/aVVQz7kY7JwtU0oZDefFq5v6/lqKQ6J9m7ABQ17xqPx5S8qpvHJJ04mkXJNI8bKUWAVrUhuji5rxihyy4IbbCKJXNMIyKqgQDwiLg/aIfkZk/Yr0dQLyon2LmNyvoRp/tQRlk2j53LU+S5/WzpfeTD2XAVeQK7yLIa8K1F3aw7HRXt3BKbRy2UzdDmSOI9Kboj2ro6EXpiJTPaeXpGitPPzn8YVVfRxrt3Ig/0oAYPU0c0rH+2dByFSfIBavqchUnq52+pnLkQm91F6pWx+pWjvOcNwvv8VY6R4EYVdzpUoK8jR3v+t5E86xtq29XtbzKMSDd7kvgyz6PW26Y1nn83ENwbBp5ogtq8N22efFK5q0d4dhHm7ZHPbevtm0r6YX4NhaKuUSO4m11faPRGhG/Ixxgj0ltqyfFxyDxR5EedZcwdyn3BsH1Y1TNpvjiHiOm/nA4xtufQbPwocMZanST/DtX8Vdwd61g9Ai2LpWMv9hRIpXY7+Lp/GUdLL5IvB96U3VurTDZM6p44Ub6w7vN9Jh6el48zropJ/HszorDseD4exz5L2KdvGuq7ktSahaO8EQRBERSDhJ0HUAWqN8FMlfKxrmAtITam7z1ebJo73Az4p5BGXlQk/YZnaJfysabhQj9USgyCTqEvUCuFnbcSC8FSNLPxUf8ipnTzofRhReUj4SRAEQVSEagh4RBAEQRA1AJv8P8ot1s+T4JOwzsI9L6BN1k8k+CQIgiAIgiCIBxQSfhIEQRB1BG4yqIqG2yMQuvTaZ8ZJ3F+4KbcS2ZwvL/gdwFxhik4QBEEQBEEQxIMHmb0TRB2ATMIIa5DJIGEPD7bZO1GXIbP3+g31YURlIbN3giAIoiKQ5idBEARBEARBEARBEARBEPUSEn4SBEEQBEEQBEEQBEEQBFEvIeEnQRAEQRAEQRAEQRAEQRD1EhJ+EgRBEARBEARBEARBEARRLyHhJ0EQBEEQBEEQBEEQBEEQ9RISfhIEQRAEQRAEQRAEQRAEUS8h4SdBEARBEARBEARBEARBEPUSEn4SBEEQBEEQBEEQBEEQBFEvaRAW1vZ3sU4QRC2lpOSOWCMIgiAIgiAIgiAIgiDshTQ/CYIgCIIgCIIgCIIgCIKol5DwkyAIgiAIgiAIgiAIgiCIegkJPwmCIAiCIAiCIAiCIAiCqJeQ8JMgCIIgCIIgCIIgCIIgiHoJCT8JgiAIgiAIgiAIgiAIgqiXULR3gqgD1Ppo711expw4Txx6ewm2i6RK0W4o3n7GHd99sBaHq/LIwf0wckAbeIjNshQhc+daJGWLzQoyaPIidL+ZiJlrjooUojqh8iYIgiAIgiAIgiAqS+WFn72mYvWETtCKTU72zhcxHX9H4oBgkSIjpa/naz0xbeVEdGosJavSh2Ne4kAYzrp1HB+NW4j90oZ6nw7HE8ZiwT5pgyAeGB4Y4ScaoduoqXgu6Dy+er8KAtAuYzF7TCf4iM2yXEfqmplYbVOWNghvLnoKzcUWcBnfieerfmFcF7z8f3EIVzewunQk/t8nuG/iv8FvYlGXwvuSBxJ+EgRBEARBEARBEJXFyV2sWMYdXj62j9D9tBxxcS9KiyzIlOGCTZ624zwQPODveImlvTSfCz6zscMsHb0CcUMcH7czG2jcCWPe6sl2cGHpQARzYWjcchy/pUWnEVNZKkEQ9ZM7OLx2Ib7KaYVnpsShWyORXFGOrsKsSRMxyepSjuCTC/oWPQXsextvvy2WxEKEjekiDqgJ7iA9UXX/+yn4JAiCIAiCIAiCIIg6SoOv/9/Lv8/6eB+KRYIRdzw56e8Y0eo0Pn5rJX4SqQaE5id+Wo7492UdTYkRsuanotXZ861VeO1R4HhCMrwmDETw+R2Ie2dDmeMMqK97qKfJPYzXIu1P4sHCMZqfptqEd05zTbrmeHNRdxSevo7wdrKO4+V9b2MJ3sSiXqrtrdKq0PAMhyKTNOwz0fwU94FRU5Fr7j0VKJ0i7lueGK8Rur34Jp4Jzsa2xYkV1wB9chrWTOkJb7HJKfhxAcbMV7VVVuEan6xMEmfiEyvZNNFEtFYmynX2ZSO4l9h/6Tu8vdSoG6sul8v7vmPtXxgyDGX4HLDVch7U57EzDRqpyu+QfdqH/Z6NpLx85zsHcU2yke4VLv/2kgbpMXRW6oKJRqmptqvyW3UZw67BrqdgUicUuMBY1BklT5f5eVW8N8ekvMV9TOueUv6qsiAIgiAIgiAIgiAIhtOv4SMw+5VeMNXvlAWfw1qdxvr3LAg+VWgfnYjExM/ZsgrTeolEFa2b8hluPi4hEH5sTXfV1Mmen7+pHudLA7kpvQ4Zh/YDwV6SWX1+nlpgoYWXqVU9QRDlIgskg88nCk3C72B8ExshvEmGnL7vMpr3WoRFIertNzFIHNkl0hPZijai2T6FQZPjEH7jO4OmIhecPQW2Ld03Edmt4vDmYPlY69zB4c+XYFt2sKQBWmF9y58+x4K/zsQs1bJgw3GxsxwGh6G5LhvHZLlbudguE1a2LPNfSc/+HS4HPmV4dtNyeRsZIWoTe+tI53mlI1Gc9/Y+4Kn/e1lVRs0RjK+kfQYBZSBrNLfy4xORjnDELeKCVeP2c4pGK3t2g7ZrYjrQ7jm8zHYdXTNTejZJWKm+roIkkAS+E3lKPF0odjCqeG8TuKCzl4+kEWsQMMcFq8rfvCwIgiAIgiAIgiCIBx2nxe+uh6kA1B1PvvJ/kuBz43sr8X1ZlVATjGbvptqYwQO4QPRzDGzF/XS+i89EunW4iTs/npvMk2YnQTiULp0RjHR8ZdC43I5PDOt3kP690JXbmoHLZbZ94C+kSUfXLDFqIkr7TPFXBHMG7cZBeKodjNfDURw7fwc+vhUQTzlpxErVcPVrg8gukWKJQBD/smKNG3lCG7F8bJcJK8utimbjdmRcgnh283Jhe5d+Z3ZuI4THLcKiRWKZzEWq4jzDNRlbv2O/bDA6G4r0Mg4ZflvBpUMij3L5m283aiLErluXGAWbR48hWyfWy2FQCNfENGpcHl3ziVH70mH37ow348JxfZ9RG7bLmO5obrgeg5e/1tMuITJBEARBEARBEATxYOCE4n3gAtALbYdh9it90ZcLPttk2iX4tIXi89MgFN13Cfnsj7apqdqmrNWpBELiglKVGXz2DfD5r6l2qA43KhmhmSAeWFp4olEFBHrW4abJikDOXFOxOcLNBXMSpkI8bj5tEHhZRTZ7f67NFWx7f23F8/3oi5j23hzMtrpMQ9yj4lhLePlXQHvQVpmYcvmm2n7/OvJsPpiZz0+DQNn8vKPIu9EIni3EZpXgGsLKsxhdJNimC/y97qDwotisNLbv3ahdOJpf+q6s1mngU+IcvvDyNwrrCYIgCIIgCIIgCMJJ+rd4H5bN2IgLbV9yiODTMhtw6jz706q9HPyoPReCZuMUF3SOGChFgC+j8blvPzJuAdq2PcH/e6Itmw3fysAPpBVKEBWnQgI9S3AhH/eFqQjkzDUVL+O7fdcRHmduCs/9MKqEeCaCPEsYBZ9fLfykchHfv1+AMX8ajD9ZXUZj4ffiWHMk7UG1JqUtyisTW5gJ6br424hOr8ZcuOdI4WMcPI8qz5KIdDs1P/lvVjXha/n3vnP6O6R7PYU5ZkGnuG9QQ72SFuu+WgmCIAiCIAiCIIgHD1n4yeEC0CljMPatigk+jT4/P8dqKUK7dT57ZweyEYyBZubwPf25N1CjqbzxWvuxYP1x6Bp3wmuJIlL8uIUslSCICiEJ9FT+FTEIL1c0crkknFNpHXLfmGLVwNYlSDztg6cWKQJQburdHE9JJtv24ADBJ6fLWMxethzLyizTzASzltiO704D4XFzTH1OdnkZb5qXmT1lYhFeLo0Q/qQxN4OeNAZNso44b7DKr+XgpxDOWlZ7fZRapzk8tSohKneVYEPzkwchkgWRsvm6iW/YMS/bUc5q7Ln3ZXzyf9/hers4gwD0aGq2Zd+gBEEQBEEQBEEQBCEwCj8ryr6FiJfM2o2LFPV9/bvSukkEdwMbMN1wvFHLc//7Yw3XUBZDBHmT+9jjO5QgiLJsx5K3ZcGRYh7sea2C0rKjn+ArSbApTIxDuDiqLDw4zndc4LlIFh5uX5ooaewZTZPNhIpqHnkOfUOqKPjkXL+ArLTTSCuzZCJPHGILOcAP12JV8syWwcB35r407SwTS5iXS9hZ+7RGty99G9/d4IGDxD27FKoiplcFVkfUzzzYE9fV2peSb1H5vuYBq3h5yUJv+dy4VvaXg0w59zbAjpOCIbF6zAXqrPxnmv9OdgvaCYIgCIIgCIIgiAeBBmFhbX8X6wRB1FJKSqoiCSTqBDyS+WDgK4cIMgmCIAiCIAiCIAiC4FRe85MgCIJwEF3w8uBw4PwxEnwSBEEQBEEQBEEQhAMhzU+CqAOQ5mf9g/vMfCpQbHAufVdOICiCIAiCIAiCIAiCICoKCT8Jog5Awk+CIAiCIAiCIAiCIIiKQ2bvBEEQBEEQBEEQBEEQBEHUS0j4SRAEQRAEQRAEQRAEQRBEvYSEnwRBEARBEARBEARBEARB1EtI+EkQBEEQBEEQBEEQBEEQRL2EhJ8EQRAEQRAEQRAEQRAEQdRLSPhJEARBEARBEARBEARBEES9hISfBEEQBEEQBEEQBEEQBEHUS0j4SRAEQRAEQRAEQRAEQRBEvaT+CT97TcXqxL/jJbFJEARBEARBEARBEARBEMSDSYOwsLa/i/X6ARd+TvBCcty7+EwkEURdp6TkjlgjiJrBPdIf7R5/CM28XeFk+ExWhF/+eQoZv4pNA07wHdwe3Tu4Azcv4tDqS7hGVbZiNHFDUO+WCA3zhIdG9V3yXBq2f14oNuo3ThGBePJPLeCBYpz9+hROp5WKPQRBEARhimsrX7T9Y3M093OHi6rbzN15CEeOiQ3i/vGQLx4fFgLfRndx7fs0HNxfInY8ADzkj+j/CWbjGVOKjhxH8q4HqBzM0bgioHcg2j7iA89GziKRcTMbyR/lsVkGQVQvFdb8dPdpAja9tYE7vHxsH0EQBEHUXjz6tUefQcEI8FULPm3hgdYd3KUOxalJC7SOkFMJO9F6omt8R0S29zIVfNZJXBAwoA2efDsCYQ+JJDtp1rkFPKRK5I6QzuZThrpG5cuBqByunQPR7ZUueLKfq0ghah2N3NDqzw+jzzTWv4ikuo5Ta190Ye33gD97ipQHk5ouB5fOwYh+qQ1a+ZsKPonag0fHAPi6sx/HyRW+ndn4RqQTDyisHoS93BFdu/qZCj4fIKi/uP9UUPPzUUxaPB4tz6zHrI/3oVikGnHHk5P+jhGtTuPjt1biJ5Falp6YtnIiOjWWt3Q/LUf8+8GYlxiNGz/lo9OjwVJ69s4XMR1/R+IA1fZ6aVVoeHaCVmwa9plofor74Dg+GrcQ+9nul+Z/joGtpFPEfXkqQdRuHmTNz8bNu6Bbj/Zo48s/qtzCqS2f44d8ed/9xQORb7dH0CWVZh4bjA8a4O+YL7tWvhqX6ktQXFCAC/svIzvtLhyuG9fEFz1fawNv3MW1I2dwdG8RSvRin1VI87Mq+MZ2xeMRbCBYmIejWy7g8qW6rPHoia5/iUCAVS1h69Qvzc/KlwNROQJe7I6urUmzplZj6NfycORv2cgVyXUZ/rEwuivrqR8gLX1L1Gw5iPGXphTFGRk4vPUGimjMUft4kDU/zaD+CXB96mH88Qkv4E4Bftl5DlnVMYep5VB/cf+p4Leyn7Bsxnr8Gj4Cs1/pZaYBKgs+h7U6jfXvlS/4DDuzHHFxL7JlBzLEHkCLTk1Pyek7sxE84HMktldvG3159uzuhYwEfn7ZfQovzZ+ITtd3IE4IPnu+tQoDwbal+y5HRtuJmDdCPpYgiFqES2O07NwXQ0aMx4vPRAnBZ23DCS4aoKTwrthmnVoz+XNM8U1jmqNx0rjCwz8A7WK7oP8r/vBkeXAoIY3hzf9eOodDu+wRfHJKcW3rSez82yHs/IgEnxXDFT7N+RfwEpzdnl3HBZ9VozTtEpLnHcL2eSfJ5J0gCIKwzENaePOxT/FlHPuSBJ+1ll+v4eCSFNanH3+gBZ+EjHegl/T3yv5MZDyAgk+idlBxQ4HifVj8rrkA1B1PvvJ/kuBz43sr8X1ZlVAjvXoiDMexxqBxuQELDOs6HN+xQV5dfwrZZbb9ENhL3tz//rtYsE9el/eZEsgFnT7H8dE74nwMx6BHYbwe9uOHMzr4+fcU2wRB1BYadxqAp7u1QVPWwOjz0/Hdd+m4JfbVGh5yk7Qy7941dt8uLi7S39ISB3bp3A/O3w5hu1h2fXQCR44VgN/CyTcYT472hSONPF09xdX092hgUiO4wN2N/72LuzSBIwiCIAjbeDWSxz13f2M9J0EQtR9nuApTNofOkQiiglQ+4JF7L0yaOwwtz2zBt+iHIW0yyxd8ckb8XdbmNAglFYbLZu8JY4VQ057tgZAN4jnZ2MFN3Q3m8DocNxzLMT9ecH6HhbwQRO3igTN713TEM7GBuPT9Dzh6+Rbg9wRejG2PxrXJ7L11IP74Ygvc3J2Cwz/KHbls1uIgM1fFPNCKE3Du76rPAH+44B5yvj6C1FNih8D1YT906B1oCFhUqi/G1VPn8fO3hSi2Me6oiEmGYsZjii1zRleEvdYJDzeRj7kW5ofIvkFo5usCJ5Ti7rUrOPnVeVzOE4eb4d61BTo/3gxNPOXjS+8U4dKP2Ti9/7bjJkAaF3hHNUNYBz94s7KTfImV3kNJwXVk7T2Ps7/ck49zGPaaRytlZyWYg3C5YP67mdTJ37zQ4dmWCPJzY3WClZ+uABn/PocMG8/k5O+J0L6BCA7ygGtDXpHuoTg/Fxn/+RU558V5yr3toEzerZxbbsAKJ2f4PtkK7R9VnObL9eHKz5dw+j9l63hVy8EuqlIOnCbuCBnYCqGqsub1Lnt/DjJOOn6KXyao2W+3UfDLJZzcew2FN+VjZEzf21yNK5r/KQQdQj3Z+yHKbwcrvwwL5cePHRCMtkogL+mZ8pG+4yJyciwczzLiwd69tuwd9PVtJJcDbxsKC3H5YDZOHSlRfZRR3h07sNKeVbadrBA13aawd8OT/a4duihtJX+uQlw5wd6Nvey5VNr8Nk0xy+mDytRXqQ2/hrMHLyEr1fg7GfqUcrHSBlbgvTC+5+m42T0cXSM84FR6A7989gsybnigw5gItGJtaGn+BXy/mj1TpX5jY1tcLpbKrhL1waT9ymNt3x9bI7KTN9xZefDf9tKeTKT+ZKGNcHJBsz8GIbyjLzyt+ZO28G7Y915UsRyqgtLW2nvdCvYXhrovysbJn/UZz4UgkI9V2G9VfCkHxzbnoUAnjq80lWhby3EdobzTpn2M6X3sG3tV5hyGIX+m2DT3Fr+ndMx/StF8cAjCH/aU6jfvl64cZ/X7P8XSR/8y+Hki7I+BCGnFy0ykmVHueMJeKtC2mmOzrVVT0fbBpK7q4B3dCh2ixPteeheFWWdx5OsblvNWk2Wnai/svSZ/79o/E2QMaMaepyj/CrJ2sfGnhfFDxdpJMX7gbcgaHVqPDEcrnwaGvqEkogV6Dg5k9fgeCg6fxP7dpr+ZUyAbG/d8CIFBjeEh/JfydvJmBmsbdqrL+z62k4RFnH19ff9PrFeMuxdweN8thA8dhb7eJ/C5PYJPTmRfPB+uQe62/cgRSTId8Yfng3EnZRv2XyhvWxGEjsabizdj8+ZG6Pp8M+Rv3o0TrXpicNQd/GdnMZ58sS/ceBo/XTpfg/1xEzBrMz9HLP89Ke0liNrMvXu/ibUHhHt5OPNzJn69JXoPbUt0iGjGuhA98tNO4oI9bU21wDuxrujxxxZo28ETDVmKNiQQbZ9k22xpLtmLa9C0s7zdNugWzpyspKlPYw8Ed/aCpuQGsg/r2JObUpqrw+/tH4KfuxPcf7+JrDTjER59I9A7JgCN3RuiQQM5rYGzC7QP+aF1+99w+Si7nvLZiw+c3ngEj4hnCG4u7Oi9/QzPZVjMnsejg/LManS4vO+Glc67IXy7BaBpIzZw8PVG+97N2bzWGXIWG8DZ3QMPdXLD7WPXofImwHBGwJ8j0bObN9xcjcc3aOiKJsH+aMXydYHlq1LzWDMCXojCY509oWVl5yzKDg2c0NBdC792AfAtzcfFnKrdiQ/Qogcr5eonJgmqemNYvPB7Zj6uS4VpLLuijEu4bD7jecgLbcPYlW5ctfAbNURpIxc8HBMMv8Yuok6w8tO4o2k7bzS8mIf8G9LhJng81RbRf2KTHTYAb+ikVCQnuHh4IqCVHpeVeqnc2w7K5N3KuRafUUHrgcjxHdGenScLXThyffBozup4ZEPcOHUTOlUdqko52E0VysGlfStEvxSK5j6mZc3rXdOH/dHCrxAX2TvuiDrOgw60GhOJxx71hYeqjeCCErdmPvB1uorsLPXEwlj3buXeRcjIRxDm7yreD1F+EZ74PUupqwKtJ7q82h5tA92gUV4m6Zk8EBDpB8+iK6wMTL+/e8S0Q3R0M9b8uRjLgd3D2bURvNo0Q0vfQpxNV9o6VzQ3vD/lYPZecCrUTlaBmmhTDIh3oyObaRnbSv5c8rvhdtO03iltuJ4lmv7mDFt9UKA/nox/GC3U9ZX/Try+tvVAqaHdYi0b+90M/YpN9Lh2zLQOVfS9kJ9HD51TY7Tv4CX/rk6N0FR7ByXd2qKtD28vWJ3VeqFJg1zknK/MD2x8H8rFQtlVpj4o7Zc+rwCez0YiMlQLF1Ee/Ldt0qYpPG7k4dcrqufhwUXG82NZO2m4kQXM+wy734uqlUPF4IKKTuii9I1KO9vIC8EmfSZbIlke1feqRH9hqPu/65D/ux+e/HMreCtjFfZbuTTxQsu27D5HqvJMnEq0rUrerIy1lHfatI8x3sf+sVdlzmEY8meKxTZGQfSdGlav3J4IRXiQm6F+835J29wfD3lex7kzZnMh3g6NCUMgax9sVXGb4wl7qWDbao7NtlZFhdsHpbydSuH6SGt0aNfY+L43cIarb1O0Di7GueN3TMcPNVB2/MNXzLAQ8W4a2wqPMLN3li2eRWZ9kzT+bAEfNhYwloMzNHz8ycYPvk7XcVH5AC+oWDspxg8lOpSGtUZrfy7A5H2DJzQNShD8h2A0kboLJ7i1aISSE9dwU2km2bzpKVZ2zX0bQWNoU/g9+BiKlXfnBrh2uBC3a7ydJOyh8sJPDheA7voG25J+wnmTiaoNTgSg64tPomfrXGw9wMWfwzHtLU/sP+Blv/Cz1dOIiyrFycVCsDkiDvFhQIZB+NkI2e+9i6TWw/DSpMeFAPQkHop6GQP/0IgEnkSd44ETfppTa4SfFejEOBYm3HZja+IpUYoSNgBv3UIDZ02xcbDfOhBPPO0HTSlLSzqFfZvO45fvL+Fctg7urX3Q2MsbzdSDSCsDVYuYPU/RyUs4s08smb+huY0BuYxSfhp4NHOD850CnP7yZxzaehGZZ+6gSTsfaF3c4Y4rOH/OOExzeSwUT3ZtLDtJ35qGw1su4Jf9v+Ji/l14tvaCh58vPO/m4dJFaaRRJTwifNDwwnkc33EWP+/Kkcou8+h1FAf6IKBJQ7g3Z4OaAzdxWxxfGZRBcPmohQHGumdxMGpT+NkAWj8PuPxejJwdJ7F/Eyu/EwVo2MYP3m4aeDe6hTOnzOppRCv07ucHF1bPijOycPjLDJxIYr/zIVbuObfR0BcoOFks17ncG8Z6sO8WPCWBFP/6fgw/7lTS5aVMvk3OvYrfI208o4Qzmr/QAeF8oMoDRH2RhmPbL5rUB3c2SWnWxOyDQGXLoSJUthy0XujyYjC8G/KyPoOD67Nwcjc7LuUKrmkaIaC5Oxr5ecP16q/IuyrOqQK+z0Xi0dYurAlhbcR36fhxUzbSknk9v4ord1hZ/V6Ey9mWhJ8N2UScPZNzCa799Av2bziHtAPX0YCl+bqziUUjdZk7I2h4B4T5OuHur9k4/NkvSOX1x/BMWjQJdS0zcdYEe6PJ7Tyc2pGJk0k5SGf5ks7RNkZQgCsaNtOoJiElrK0xlmlhkPxecc2apDXnTcq7TDtc0XayCtREmyLjglZjWJlzAR9rK89++wsObpafKzP1Om5qNGh44xryr4jDGTYn5Fb7ICc0fy4CwV6/ozD1tFQPTu1lZczewXPnCnHPU4N72QUoEJ2APivf+DsY+gmuTXYKR9W/0T5z4XnF3wtl8uvVTIvi0yfxny06+Hdlx3h7wd+jGBmfHcNJvZckjHW7d7OS/fM9XD9szPdld/l6kgZlwlnV87DFQt9dmfqgtF+NQ/i7xtvHMzjwaRZ+/i4XRS388JC3Cxr73Mb5n26z3Mm4PtUW3R5mjemda0j9nJU1bydZ+517txGaB7vDufQGTq5IRcphVRlU6L2oWjlUjAp86DCpr5XrLwx139UTLcMaw7mYjT22yWOPjAv34P+IF1zdWfrVy1VskyvRthrGbJURflZk7FW58RqKdMhW/fZKu2yP8BOeHmji+juK09KR/OlZpH2fi2uenqzt18ClGRve/HCDPbWCC0KGR6CFFribk4n9azKk9sH4LrHfPD8T/1magRyLY4mKUPG21Rybba2KCrcPSn1o5AGvxs6svz2L/SvP4CRrky+WuqEFf9c9XXEvnbWvhrlTzZSd/R++zOprYAB6DA6AmxR4lY1REuU+hufvlm9jPOTbCO5cIJnGxgKqhrJi7aRoUzQe8G5SgvNfHkXKDU+EtmyExi284HbrAr5flo07j/B3oBF+v6rKHyvzh1rcQc7eszi2k42feL8ktSm/w/dhT7hqPOFh+LhWk+0kYQ9GcXWNsQHT43Yg/9GJSEz8nC0D4ZVXwYjr+xZizU9+GCidz4MicaP3sux/fyx2nA9mx63CtF7AZ+8sx3GfgeK+fJHTCYIg7KMEGR/JvjeTj/AhJxdsKP44TyGH91r6XBxUfHRaMLN0JMXXxTCwsRsbgHLYpLRXc7Zeiit7T+MoNxEVY9K7OTdw9J9ncY2tu0c0g6+cDPyaZ+JTVH4uBu+YVenS4sjnucMmvx+fwVkxaC7Nu4bTP8v39vSXnGAK3BD2GM/tbZzdcsboJJ09WHFaHg5uvcR+FSc068gmIzy9iuR+eRKHd15DQd49Q9mV6m4j57OzsnkZGyj5+EnJlSb3c3W5pgmzNXVdUhYLJqCVpZRdf91JpKaK8rtZjNM/Cv8RbGJjOqlkA+OnAti/LFc/ncCeL1l5XJf3QM/KPYtPpvPLTLpqhFZ+CG/FBualLA//zMblnFLT+rDlIvj43uXhADS39JGiQuVQM3g+1RJsbgdcysS+L2+gUJnd3WED/11ncDiVj+5dEBTlXfVBm68f2kdIvywyWDkc3V9sCGpWqitBwf7zOJJsTSDE716Cy9+exEElGJr+Nn4R5efirxXtEIP9TmGB7HjdRRz+NA/XlPqjPBMXMjv5omVX9luqKNp9Bvu/zENuzj3cVWYB/JztmciQmh9P+LaUUqtAJdrJKlATbYpE++YI92Nlrs/HUda2nuam58r9Cm8jdydLc8i3fxdoPXlduIuCX4pQrHjlYTe7m1OIjM/P4qwD2q3Kvxds67c8nP62mDUTJVJ7wG237/5yHux/FF2psq1ylahSfWCPVvjjCSQrQX5K7+Hy3ktyW+zbGEbLSmcEtPWU1nKTM5GjtJOs/S7cn4mTrBzg5AX/MHXJ1ex7UTEKcUTdN+4UttbcTFSdzhe12WhV+wtu81/MxiorjWOP0vO5OHOerzmjSXPZz3vV4b+DnW1rVbF77KWiMudUClY/j7Axx5ZCuQxY/b62Mwe5/LZOWjR5SDpIpoknDybPyMfJz64Z2geTd8nPG80s/a4Vpcba1qq1D3fZuH3PP/NRKNrk4v05OCu5sPFAkxZSkkwNlV3RrlOqd/M4fhHudLjZu8k7yxajGTxrh/oGSWOx4tQ06X1Q+hiev8tfnkYqDwzK2q/Q7lbqnt3tJIP3DeeycSqDvYGKJNXpd+TszUWhvgS3lLGLGjZvOrjyPDJYH1SidCdSm3IJR4/JEmZv9s4StRN1r1eDcAGoiNTOlunrlTS1j07b21ywqZwf9867bN+7+Izv2LcQ8co647N3+DHKefuxYJzxvsZ0giCIiuHehA9Ff4Ne+ZLayAWufKLGelrVh8iagbXkcmPugQAucGBTlIuHLXxZ1hXhKh988MGTehB5H8hNzkau2RzU4qTUzxNN+Rii8AounJOTTMgoRAH/6yei1FcXyiiUw/0d1DGKj2Ui45LYUMi9bVmAqQyM2YTxjFVB2P3BvY2vNAm8m5GLHAvVBeeu4hIXkrGBsV8Zf7QVLIcawQX+rfgA/h5yUgos+q4tOHZFFuD4e1a5jrs+4gNJJJJzuWw52MG170+ywb1Z26KUn7NxUKn8TsXpV1GgenUUCs7L/gW8A+2fIJRKit1OcKry+1dL2kkHtym+D3NNbVbmp37FZUvvhsMowfXLvKa6otXgCHTo6gYX+5R7KkDV3ouStDzkKkJZiUJk7L1/b7ld2FEfSk6dwvdmvufwq3j/DOOA8nCCs8Xr153xg71Utb9gtQypKy2MVa7JAz8nlclrVbG3ba0qdo+9VFTmnEpRmIOj5v4wS0tws6IRTzUNHFZenJprW21QbvuQj5MbC83aSivCO1s4uOwqjtIOFSL7oKXZFOsTTvLPMOz9buFuUemhYu1kCXIOFsofRRSunUe6WRwFu/ldXMkBfTpRPdzf+k0QBFEncYabF28+S1AivmTC11X6UsltMBR5aI1RfJflhOHnBg+pVfdDl+ndMegv5oudTrdrApORhg0C3GRhjWcrRJd5Hr7YGfDEXrhD+54t0HNSJwwwKUMH36eGkQVHdtJSCJJv3TJoENQW3JrIX/pLblkSh3DYREkaFzvDxYLWQoXKoUZwhbvUcLB2w9ok5VIxmwYw2KSkqnpGTfxlbbCivGK7X0E1d4stCEUU7XGVxpUHtzljuD/aSfUOqRYbgaF4IKaur3RCP5P3z4FtV023kzXSprjAR/JZxqaMbJJX3Vz7+hRO/srewUaeaNWvI/r9b1f0iW+FsEgRPKvKVO29uHvXvHaz68jz5ftPFerD3dsW3j+DVqQ6+M09FFyU60FAdBsEBTnJEz4eTCU6BO0C+UYhrmaoyqkujR/spKr9BaDHXQvCLkWjzWbgmgpib9taZSrT8FfmnMrwewU66JvFIuCUHzq85AtP8R3NyccdIX9ujWZ849pNyZVL1ajZtrXy7UOpiXzUJlUoO+7H07RdMC7R/Rxgf9XEBW5SO2Sjzb6sk98HTUOLYyL720nOXdw1f85CNrcTq9bgwUDDXozAH9+OMi0Du4L7EfcThwxRCIIgHgSMnX5XdJDMTtgkXen0RreSzZJaR4hjgqtdWObh31he0d2RBa4N62GjXpNfT6UAEV3wZHQgvD0dNYmvg9TiL9bODW145q+TWNPCqh4cqalki8rdxxkBL3ZBn0Gs7fQVUW6rg5psJ2usTWEXlufnNUNpCc7/8yj+81kmzl7i2kbOcPcPwMOD2IT9jRAEVdmMv2bfixqjBvuYwv9m4zJ3zdnIF5EjozCAj0ve7oKePX3BfTkXHjmLs2rhQk2+FzVE/esvCCO3kb43T5LLugS1wZOT5bH4gFc7oF2QC2ujivDLtvxyhVjlU4Nta421DzVVdpVA07BGu7LK4NI5GH+Mj8DDrbl/z/rWatZ/6BcjCIKok7ihZbisXVV0vkgepChmHVIwCdmPjuXFgb4kqxvF7MuSby+TxfxrbsVxigrCw9yhPQ/2sOsEdi1SX1/xzVlLceQoWSlzt0YO8aPqSIpvynrVrlprOpCuaCL5sipBcVUit9cYJVzBluEGdy8poSyB7rL2s6LhXQWKrskthPXycwzKfXjwIdP31GxR+xFu5Yd2PBATeJCDU9jz/9THGv2FVZkabCdrrk0xmje6ejpo6uhUvvljyflrOP1pGnbNO4T/bMzE5UI2nXb3Q+QzvlVsO2r2vagparKP8Y4JRvOG7F3KyEehXlEJK8Xda/k4/a+j+N5ca7Eejh/qX39RPg/MR1snN4T39ofTnQJcPlcIg7J36V0UnjuLgwmsnlbCtUtZqqFttUKNtQ9VKDtTP56mi0M0ofMV6zlXuFrTNG+ulS3tivQ1b2nH4xA85S9pnPJgjgc/TjEtAyVuAlFreVCaSIIgiCpj6PTn/SIPQng0RLMOL/dbpROsujDOFp79QxDCTVVKb+DcEWXAoUO+5B+/KfzbSwl1n191KOCO75v4oJk0Sak+mrYSnuNycnD0yG1jwBWORpgN3jd+g17kx8nVLCeB/ngyxhERUwRKmWuaIfSxig/2ZdMrFytmhFWj6EKR5NPKJbQZH/+WJSIAwVwioi/AVR7U4z5iXzlw/4ncRMsZAY96WTTh8u3Og5CwgXbOTdm/bRUwlN/DAQiy391mhVHu48E1I+SkclH886HwMk6qghxIsBm9UzlKXKW/yTM4l3JVRmuunazJNqXgkvCj2jkA3nZe+O4d2TywTJlpPdHlz0Hy72EnJVnXcHRLjvDDaRZUQuE39jtJKw1r1XtRFUq5diVH41zu71lj9cHJE6Ed3OR36cuz+H6RMkFPwa6Pz+LsL5bMQqv2XlSkHGqKutRf2E3xb9IzWXqHPPpGoFMrsVHfifSXxsDFp87j6OfyBxh5fH4U33+ez622HUZl2tbKUGPtQw2WXcVR2iEvtH7c0ujBBa0elScDhdlFoj+pQZQ4BKyny96Vh2vXTHPg5Gz7V6qN7eSDBpU7QRBERfEX/j2LjBonrlruW6oUperBiqNhgx/XIE+0+59OePJRnoNSFB7NxnmD6do9XD7BN5wRNLgDuvR0h7tqwO/i747m/UIQHSv7/asbFOFCGvezxJ57dFu0i3QzDvidnOAS5IGQPz2MbtFV11EsVhxc+jdFkOKSsJELvHu2QvT/Piz7Qbpv3EPRVXnC2qxrc/gKyYIrm7w9OTIYUvBlh1GEc6d4mTuhWe8OeHyAp8EnFC9z91BfRL7oJ78DZdCxwSD/64qQ/oHw9XXwMCPtihy4QuOHLv8TjOaKLzuWL4/IFnjyTzxKPX8vcnGlxkfFauwvh2s/iYjDrcLQ689exrJu5IqAP0WgO4/OXlqEs/sdoFGglJ8T+w3HifdJCVYj6npXB7xL+EXcx5e1N/8TgIAgNtBXiqCRMzwj/NAhvg1CVIFTim8If2oevmj5sBC6szbPMzIAj7/xCMLKabZu5slapK4dQtCOlZnhfmWouXayJtuUkkNX5DqvbYHHJ7RCUKixDJxY/xQwgP3eHeRthaJrciQR14hAtBL5cwr0RddxD6O5u7UC9ETkqyEI68rKTd3wsOfy7SwE2Oy6FufP+TrclPpIX7T7s9HXnCVq9L2oAsWXZQEbAluja0/bwZ9qrD40doH0jYy/SxFcg8rZjqBUVXsvKlIONUad6S8qwM0SrvDG8EVof3f5d9awd29ABJ58zPOBmdi7esr9lHvrpvD1d2Z13LEfk9RUpm2tDDXVPtRk2VWce8hJlQZP8Hi0PR7v5wF3MeaXfJK+1B4deOT9O3lI/1H+DFCjXCsR2qaN4N9ZvH8MF2VuxtJsUSvbyQeMBt2796qU+//WrQNx7pxD9MkJgiiHX3+tK5+kHYTfE3gxtj2ER0ur3Pp5Mz7ff1Vs1SAdgjFosD9KUk/gP9vlCXvzl7qjS6si/PJPB5mEPeSPaDZYt+o6u7QE1w7+gkPJt82+fHK/eZHoKpmPWuFcmqm5qQru11Ry2G3jGBlPdLUjQAM3ezWawrgi7DU5aELuzkM4ckwkK3Rm5coDoZjfW/KD1FE2B7KC6X0qCSvzJ0dbESSWFqPotjs8tA78jSWUcrTjutbyx+rC5WNX4fVoINzNyi7gxe6sLlgpH6WOcZcC5gEVWJm3Gs0GmQ9ZqUeWzhE4sffjj+z9sHSm+e+u5M8m5vfimq5WBb6lKMn4BclfmkY9rXQ5VIGKlAPX2LE6ceW/77cWIgFXlkBfPD6sDXytaN6VLaNy3ltr2PydOGZ1vpEnukyMQHNL+WJlUFTUEB6eztbzYOv8Mu1Z1dpJu6nhNsWlfSv0GhwAa3LLMmVntcy4T8gc3OnaCs3KvBfltP3cX9w69jxWpggefVkf85ilnq1sOVT0vSj7nit55abcwhrDWj9Tadj78aqV/sm87CpZH2y2XxZxRvORXdAlyEpFKL2LovwrOLPtIi7niTSJqrwXFSiHqqL8hvZctxL9haFPUNebaqFybavVd6g4DxnnGiOsvbvZ9cq5j8V3ojLnqMaQNjErV5u/p5IPs/dC641ur7dFM2tVXF+Mmxk5OLbzBoodoJRQ0ba1UuVQmfahnLqqtB0m+avhspOpSF1n7dCfO6BrmJUPsaWFrI9JK9PHVKydtDD2tlCny5afE5r9uRO6hVlqI1l7cvMOnJq4w6U2tJOERaxUe4IgCMIqGrnpNEaUdYVW8kt2GzqTiYSDKb2HksIbuHwkDclLjuNgGcEn5x5yPz+KPdvZIOhaiTH6o/rcLZY65FoMm+RmrDiK75MvoaDwrvGZ2QSu5No1nE0+iYN77ZkQlsOvefjh80xWbsZ78EFgwSk2OVpyEulXROL9guXv4L+ycUWnTPbZQCvvEo7+8ziOpqrKxRGwMucBTfbsuogrJvWITZr5PTdZH6CVnmQDuH+dNa1/juRSHr5POInT5wpRIkydeVlwX3a/bD+B3eYT2ftERcqhaHcadpsfK/nfysYR/vs6SvDJuXQNB5fxa15DoTB75ih1/bAj3iWO9DudQOqpGygy+Bzk9ylB4aWLSN14BlkqAQ/uFOLo6jSczWPtmnL4b+xY7oNsxXEcOVNOpF3pfPN6YY0aaidruE25e+o89vB3I0Nd5qUoZWWTu/8kTqaKJAVeZut+QY4hf+zY64pPyGJDnk0pxEkR6KjE5Hflz5XJfnM2kbShG1G0+xRrV8zacivU6HtRaVj/9MkJHDWr5xapsfpwD/mHfpU1lHidLi5Biepdh5MLPPwD0eV/2iNMivyuUJX3ogLlUJPUkf6iIhTtTsf+I9dQrDxP6W2pDu1Zno1Lt2tR2VcnukJkpck6eLyfkOq4qt130rjDu/3D6POyPzwcIO2ocNtaGWqqfajhsqs4rB368njZfuI3Xs95H1NW8FlzlOLKv1Jx+NgN1fvH2kfuS3nLcezefMVgEWiZWtpOPkCQ5idB1AEeOM1PgiAIgiAIouIoGmQoQsbnp/CL2RDSyccD7V9sj1ZNgLtpp7BrC+kaEXULg/br9fP4/pNcFJppKLpGtMDjsYHwwD3kbDmC1DSxg6CyIx5oSPOTIAiCIAiCIAiiHuDRsalsOnvpEjIsfDsvvV6EayK6uUtDmgoSdQ1XPBQhm5RfSSkrvOOU/FIkrFMawLmhtEJIUNkRDzbU4xEEQRAEQRAEQdQDDBGFA4PQqasqSCBDCdDSQYoKfg+5GaT1SdQ1SnnVlWj2OA9kpQqox5CCz4wOkf0S6/NxOUNKJiSo7IgHGzJ7J4g6AJm9EwRBEARBEOWi9UTXVyIQYCWomUwpitPSsG+LiD5MEHUIl87B6DPAckBBA6XFyNl6GqmnaoNv4NoDlR3xIFM9ws8WPREb3RJuYrMsxbiQ/A32XRSbFeJZTF/eHTfXvouEwyKJqFZipy/B4wXr8fbHR0UKUdOQ8JMgCIIgCIKwC40rAnoHom07T3g0cjVod/GAY0X5+Ti3Nxc550mwQdRdnPw9Edo3EMEPaeHayFmkluJucREKfrmC9P3XUHhTJBMmUNkRDyrVI/xs/zzeeD4cUvBji9xE2r+W4ctTYtMiXMgZjRZiC7iE3RPfx5YaEX6a35txMRkT530jNmqe+ymAJOHn/YeEnwRBEARBEARBEARBEBWndpq9D3kLy/sE4uKeNzFvs0jrNg7TuxzBvI+Dakj4GYZfJGFr7YCEnw82JPwkCIIgCIIgCIIgCIKoONUj/Oz2Mha83BlNxCbn5rFPMO3jY2LLFuVpdprt7zYOi0ZFwF3eaRSYSumeOLgH6NsnUNpXfNJUgMeFen2FeufFPclAH0XgaVv4qT7PqJHKEPc8d9IH7Tu4SXn5pS0XHKbheocIWZNU0iAFu77QLDXRKDXVOJXzC0xYMALt5cBsDNX9VES98neMZveUKErDp9NWIkgSWlbl3nJZmQg/zQTTJve9z9qx9RkSfhIEQRAEQRAEQRAEQVSc6on2/vMOrPxwGT5QLSu/SRc7y2FIGFoUZSPFTq3OqC6eOLf2TUycyJY9l9Ciz1uIFfuAQPRtmyHvW5sGdHgeE7rJe7jQri+S5X1s+aWtmZm7FaTzvNLwqThvIheuLhiHKLGf37M1/iXtU7RW3Tt44hfp+GRcbBGN5ZJg1bg9fYh8HH927BHXNeT3KBKmvYndF2WB5ERrgs/W2YY87T4ndjCqdm+xT4ELd/v44BQrb+nZhrxlel9EY9ErXeRjCYIgCIIgCIIgCIIgCOI+Uz3CTwtofFoiov3DYgnBQ4qqpiVu5CFFrJZHysfvyxqgnM0ZMI2hdAm7FU3Ew0dwrsgNTYL4xrP4Qwfg1G6jluKWeclm5wai7/IlWC4WWagnztu80pi/zXtwCsGIMggKL+GgmXl48ck9QmD5DX6RhJim2z5+QmC4+X2jmb+UX7Fuky6Iam2apy0fG9cdd++umD4qAtf3KBq5XTChWyAuHlbd98wluHtLBUwQBEEQBEEQBEEQBEEQ953qEX4+MhDjXp+EN6wuL2PQI+JYS3j5qzQpy4ObaytCSlvam0eRe0OsSlxHrk3tUm5eLjQh2WI0lzc/j19XEapWlS6YsEB5FrWpuy2C0MSjvGexB9v3duem8xeTjQJSQYs+yjls4e4FKvTbEQRBEARBEARBEARBEET1UT3Cz8OfYNr41/CK1eUvWGVNWMe1Nz3UmpS2UPx/KkJKc+1NW/ggQH2Pbv4sxR7MzkMXBHjdxs0csVlpuPBxBJocVp5lPU7ZpfnJMc9TRSn/3sUnk3HKy9ys/bZkAq8IiKVlmkorliAIgiAIgiAIgiAIgiDuI9Uj/Gz/PN6YNQOzyiwvo484xDrf4L8n2SVG/d3U5ySP9m7uT1ISWKq0Hrm/ULFqG27y7Yb2fZ8V20BsX2PQJOuI84aofHwO6YP2sN9HqXW4BqdKiNqtK1rb0PzkQYhkQWTZPMW+ovZBag/23DsHCdOScb3DCHHfo0g5x34ndVkQBEEQBEEQBEEQBEEQRC2ieoSfN39FTlYWMsssF3BVHGKLlI/fxcQ919F+lMqkegjwXzNfmji8El+e9DH65mwLuzU/t8xbL2kyKtd/+Ix9WqNb5r2J3TciMFq5Z7dCKbJ61bUdv8E89TMP8cR1lfbllt08CNEItk8d0EnGPE99ve33mSpj+95G2HFSMCSWj+nPSr+TSVmwxRBAiSAIgiAIgiAIgiAIgiDuMw26d+/1u1ivEK1bB+LcuUtiqx7AI5kPAb4ks22iFvLrr+fFGkEQBEEQBEEQBEEQBGEvJPyUkH1etj63XhXYiCBqDyT8rM1o4Rw8Ds37PYFmflq4qPTp87b3x7kHokkJgseflqJdRy1wIxWnV05D0R2xq7YRXoLdfy3BT+95Ymq6SKs2ojE7cSqimgBZXw3ApFUiuRyiZ23C1O6sLM9uwYDXVovUmsSYbxNupmBh3Cwki80HD29EvzwZcX0iEeStEWkcHVLeH4pZe8QmQRAEQRAVYuw7NzDKR4uZU12wV6QRBEE4kuoxe68DcJ+Ziqm2FN38RjIJPgmCqDDOXRai08h+CPQ3FXzWSRoNge+wTxH57nJ4iiT76A+/jlqpQ3HyioRfOzm11sEFn4vy0KbJbTz6VKW++xEPLFrEzPoIU4dEmQk+HyCCYzH1gzXYtG0Z4kVS9RCF+L+twIavN2B2+Y7i6zFUDgRBPCA0/w19OukQFHkFH87+DUEimSAIwpGQ5idB1AEeVM1P94AuePyJ9mjt7Q5nLlm7V4yr547iu+9P4epd+Zj7SxxavTMKD2kA3ZltOPP1pyi5oxP76iDN5+CR+Ch4IAun/zoRhSK5fOqA5qf2NyR+koce3kDhj/4YMKshlBhv1Udd1fw0Y+wy7Hwu9MHW/Ow8FWv+Fg1/6JF3aCMSlm9Eij1OzOsTfWZj01tR0LL2YcuASai+mhmPZTtjEfrAa9RWbzkY2hl7sNYWdZ+BDbN6gDWrjBxsnzAeCdnShimGumOGXo+Cy0ew7eMl2HjCet/pHR2Pyc/1RLtW/tAq3x6kc1Ox98ulWJ1cIBIZSntlA3V77JBysAu1Rr0OqcuHYvoOaYcRJe/W7qMdicUbhiFcKgMr1+AYykCP9MThmLLetGyNz6xH6qo/YfpXcrrV30mF7tBCDJ3tiF5Ai8jBYzFsUBQiHvKGxllO1d/MQ076fmxevhrJFtpYbcdBGDtiCHqGGesCP+fsD2sxZ3kyVDWh/PK00kdbqxP62wXIO7INCR9uRKq16qqNxKCxozCkewj8m4gM3tNDdzUHqUnrsDwxRZVHK1YWahzR71p7J26zd+haGvb/KwFrk3JYjTIl/qOdiA0RG1Ywrw9VKjvlA7XGFZlbmqHvigZiB0EQhGN4YDU/CYKozTijec8XMOLZKLTxFYJPKdkdTds8gSEvPo1wd5F2P2neDo352LY4FZkbl9dtwWeVyEHR10Nw+K/9cfjD2mny/tasAvTwvoeSs03xeo0IPol6Rdcg+PO/l5Px3uwHUPBJEBaI7h8Jb+ihu6lnW0GIGlxBfS2NBt7BPTBy/krMjrEkcgvHyEWbsGFqLKJUwi4J6dwoxI6fjGiRVHfQIqLvSJtCRktoX4ySBJ+6m3yswa7RyzwEqkyPAB+xpkFI5yFm9xmEfo8oKRp4NBWrNQr7XRd/inmvxCCyhVHwydE08Udo91hM/b+y+uXeA2dj5d8mIKa9aV3g54QPnIo1H8SzK1cfGjdvBPUaiXkrZ8NSddV2nIBl6+ZhQky4UfDJcdZA6x+KHiOmYnJt0uJ2Y+9Qi0gMmrwCGz6YgMiKVsgKUF7ZSaS7YvRHvihECdrE3sCnj4l0giAIB0HCT4Igah9B0Wxw7gWUFuPC/q+xZtUKrFi1Bl/8Jx23Stn+Ri0R1bW5fOz9xMsDbvyvXg+eLaKW0leHUZG32e/kha8XuJIvKaLCRHp7yCt3ikhwTtQLkmcPxYABA1TLFmRJe7imqTqdLVa05nqHcylGDnbtPAsu/vTvOMS2uSrXYjNcdzhmrUpGDj8R3oh66U1ESQcpaDFs0XwMay9LSnTZB7Bu3iQMF+cPf2MuVu9IQU6BFTMQk3uZLmot/KqXQ8XR6XTQhPfG2ApJ6rSIi+Taezqc3pqCPLamCYuCJfGnxokL3nQouKqHJqQThqiFTQN7oo1Wz/bZ+ljLtbvNnl0sjtD61I4Yh1ip7nBN+nWY+8Zwcf2hGP/2Umw5lAPdPflYA+ETMH9sFLyd2VmXU7DuPXHOyFlYdyhPqn+asFhMm2pai6oC12o0PDu7z+rkHOk+8I7CqNfN7hMcj/l/HYRQPii8p0PWjqWYMk7UrZGTMHfVdqRevA5rRktc89RwL/XiSGsLrgGrXHfoeEyZtxpJGXI90IQNwuw5w0wE5atfU+Xj/RShGWpaN6zVhwqVnYqcXVp8+CPXbriF3uPvoLecTBAE4RAahIW1JcdnBFHLKSmprdFjqo/mTz6DkPRt+OGKSBA0f2oMnuGqD7dOYfPnP+C+KmB1WY7HBrHJyI0UHPtwJkpEcll6w//1aWjtZSUIknKds5vx42fGWZnnS9+iXYgO51YPQd5vExH0XB8E+GklTdh7RTm4sPMj5KWniqPN8YZrpylo0TMSPt4a6ZzS33QoTP8B5/esxO0b8jDWtf9mdO6mHu5aQ+TjsthkyPkTGwbsMJl3ioQ2+jW06hoEj0byV7h7dwpw/cS3uJC0FndNJMlK2cnX1bWdieA/RsHXVyOdd/daFrL+NQM38kyM3VT8jg9XX8azbEaev/chdJ3Pz7JBUzaZfCkW/aIi4O+pMZriFeTgyNYELPkiVUwAzNBGYtjrE/AMeyZvSSLO0LOhvkbW/rBs9q5F5AtvYsLgrkY/kvf0bIIg7lslE0tzLATrYRO0PG5euH4VttswOTWYzJVnfqcNQsyweDzzRDsENdWamDFaNEk0mPzJZtQ/DJmBN2ONZaEvyELSqveQoDZpVdD2wMi3RqFfZ1be4nHK4MDyM5jy2XlNbcdhePOVZ9A1SGXOyepQKqvfC9ceKFOHZPNCYd58iNWltyZgCKtLWn6uvgBZ3y7HOx8bzzMePxNZT8/EsPbe7PcswIFl4zD3whAsnjUM4dyU8uoBLH11LpJUN/TuGotRz/VDVLg/q6vGeleQU9b82H6T4CqaZlszy7RA2XdJi6CYOMQP7Il2LfyhNbx/rH5n7MXaBQllzWcV817xe3pHT8Bfx8YgVFQm3cUUJC6ehS0WgqKFD5yMcc/3RLi/tXIpWxZl6gM3g/01DdvWzMW6g6ofp0rlUFUqaGavKsOhrxVhztcjEa7JQ9KEMVhqbvquHGuhDdGOWIwNceGs1cvB9qHjkSCKQ/vcPHw6lvUVbL3g0FKMm51U5r2xiL3tlVWqy92AysR63wH49OoBzbEEDP3LdrGfoeTdUjujZfnaxPIlPdcWdFszD9H+ZmbrAvm9BVL25SCyVwjOqkzfY+d/jfjQNGz/uQ0GsXc7Z+tQjP9YlKzB7L16XVvEf8DarzC2kr0dQyck2PW7DvrbJkzozGrD5SRMiV8K81cz/PU1WNzfn7336dg4fArW8YvaKk8J22bvZU38tRi5eAOG8TGoWd4N+dOzevzeFCTY6lMNWL6/w7FZDtyf9UpM7s6dV7A+ZPZwzD0k7zHBzrpRmbIrg1aPnRtz0V7jhqMf+eG5bSKdIAiiipQzCyQIgrg/XP6+rOCTc/nK/RR3jkXr977FY8rCBZYcryh0Vqfz5fU5cJX3VhEtPHssQYdxz0hBlRQXAM4eQWj95/cQGGJhAu7UD77xa9F5cBT8fGXBp5TcUAuvR/oh9LFucsL9wGMUWr2+AB2eCIKnEHxynBt5w69bHDq/vgQeQsnOlAD4xn6KTsN6Ss+knOfiG4rwsUvgY/EcRpc76BF0j01IGuPfy8rv8uL/bzbiY2QBoSK04mi8g9Bj1Dx8xAb/ZQhnk9J18zCyl0rwyRGCT8uEswngBswb1cM0gI6z6X0dgjYGU9esKRusx1kL//YxGPWcYzRlot9ajMnsHqGsnpqUnWKSuMhUq8RIACIXrcH8l03LQuMdikFT2TXNtaPY88xeOQPDutsQfFYVPtHbuRM7xWIQAIbEGtIMy0em5pnhIxbj0/kj0SPYzJyT1aGoF2bg08UjrZhmauHTdhB7NlaX2LNJgk+Oxhuhg6ey8imrU6eJmSYLPjnO3ugxcCKmThOCT07THoibGCk2OPH461/jEcOFxorgk8PqnWR+/LePJKFJnaLPVCyeLMyiTd4/Xr8HYeqKxRhmueIB7DeJfWUZ1kwdZBB8crQtohA/cwbMzanDxy7D/IkxNgSfZdHGzMDKv5nVB24G2yISw2ZaM/eu/UT3aie9zzlpu6DDNhw/y/W6/BFZQdN33aVbQhtOA4+20gpDi7i+suCTC7vm2Cv4rCtc3YbUPPaU7ftgpJ0/v/bFSPARh+5sCpKRir1n+EchDSK6l9X99HFzkVcO/YC02xqEd48Tbe8wPBGuge7nXUi4nCul+Pg7pv2vFKyPtK+2DEMfSQNYh9Svygo+OekfsjK9zVY0Ieg0WE5zPDpcuCl0N9080EZeYz/OSJE/Lqhfbafgs7agQ9L7u5Auq2Ui9Cl1f+FIrJSdJXQarP2RD+puo8sf9BT8iCAIh1H+TJAgCKIW0dSnsbxyt8SGpmX9wrddBJu46PDr1pn48a/98eOHa5Fzne/RIrDbi9IxRrTwiJ2IsOZsIl+qQ96eVfhpPjuHn7d4Dk7uyeI+7g2UfDtE3seX1SkoklK5lqVIMyymWp+cws9U+w3n2iICXrFD8JAny1phFtI/nSifO3csfvpXCq7fYZ2SZwQe7h8njlejhf8jAXC5k4usz8bK563YhWtcKdopAM0f6ykfZsazMXfgx1fONsJKe+Yj93TIOZaE1fOmYPxQ2WRr+BtLkXRRLjT/J+LYNExNFKZOi5VN3a6mY8uHilnmcEyatwVZfDJmgaip0xAbxn6jewVI37wUk0Yq95qLLRmqH6jKaDFszgRE+3PBjg5ZSasxS3Wv1UlZuO6o25UWoSAjhZXBdMPzDB03F+tOyJqbmvb9MLGztGqGFqHt/aHR5+HAx+MxlOdtYZIwh/VH1NAe0lEKUa+PQhSX9+lzkKSU98hJWJokzOqQh+TZLM2ipk81Ez4Bbw4JZ0/ESjtjO5YKc06pHIRppjY8FuPiLEs8QgdPkJ5NOpebTA6dju2SUEmDUFb3TKelWkR29IfuxGoMn31A1qoNi2a/NQ+EMhwLD8kV3r+lmXDjJtdAXY25b8tlLdXVD0V5O/ujxwvGGm5iEmzF7FFeqqght2qS6lo2zI7ZUlY76i6KrmYhhb1H0xXz2aHjMXd9qlwmbuHoZyIAVuEdhfjBodDczkPK+llSXRq+XAQk8e6KweqmSDsS4wayY9lqwYl1mCuZtA7F+DnrkCpXcejT17EyVZWFNhYzxvaQTHUNvym/B2tTtkvmpt6IGjsDsUp1qFI51CSKyXse0nZwRxA6bE6THUKUa/puRvgjLaX3hWs4XzgmJTFYXRdWBVmHVlkUdtVtUpF4hJWXJhw9R9tTWorJux6ZR2RN0ZRDmdL7aMn03cdDEeRvwf50dlRIJHiTox3RDSGaAqR+W3F9WEey60SW3FY3j8H8hMmIaWG5PTTQqw2kLoy1+amWAjxJsPflV/5XA++g6hLghaNTkJxXfcEF9isKYiJYufIV1o4kpkhJdQrdOpwWcVXL9BcOw0rZWeGL3Y2Qz1fC72CSlEIQBFF1SPhJEETdwak52ofIws+8X1JxS1qrSVbhnCLs48t2eWoqmb2r0/li0wy+gpQW4NyakTh/XAyqbyTi0oEsyc+oU7OWphqmvlPQsp0s6DrPzjn3w2bclSVCQNF+6H6YiKw998nrZfBotApmeSvNRebqibhxQZRfaQ7unp6JM/9KBZcVuoT3gU8jeZcJd7JwOmE08s8Kr4t5S3BBaFh4BLST/prTM7BY+ptzzsUuX42r3xiK8X9Zii370pEjXxoFGUlY+maSfL7GH216SckycXHowSPh6NOx7tUpWP1tljDtLkDWvkwrgsVhiJNPQvrn4zDlkyRkCYXmgowDyLxuzStYJej+puwmggtQlo7GpKVbDMF6+L22LJ2E8fMcMxFOnjMGw9+Yxcog1fA8uosHsPGdtUi5ybf8EdRFSi6LPgtb3hmDuVvliLMFyUuReEz+Abz91b9tJHq3lTUdc76dgqVKeV/NQtLSKUiSzG39EdG9iroie2YJwaC8KIJEyWxQlS4tKiHroBG9EcSL+3ISZr6RgKQMuTZI5TD7NayT6qsG4b1HWRUQFRxcitH83IvsWF0qErYIVwv+QWY+ERms3HZ9vAUFh3IhfQ/hSenbMHdHAZKFZpcpqzEpbjyms3pw4JQS3Zeb1S/FlG/lN0Tj3wam4uZazp65GDNyEmax9yhVlDd0OTiQOB1rj8hP6B9oY0J/m9W9v4zBLBGFuWDHQuw9y3do4N9GVRKDO8kCjpspWPvORhzgvw8rwZyDGzF9rSwY1rSKRD9+rCBodD85iIhSH6Rz+LuXhIQ3ZiKJf1DSRuCJatNUqyYG9kM7rl18ORWbhYm77nP23vOV5pEYEiwl2aZpKGImLsMcbqrMKPhpKzZKa4xeAZBD9uhwPUsuMwluvmuueb1zGcqGxmE0icLUMsfyZRNm14KgMznLt0lRr4OiJ2CQSLNK8ChEcWHw7TSkKCburB8/zdtVtwhEPScnmVIEHavQ2w9wIWkoIl/0xpDOIdDkpWKbJbNmE0IRa7HsdmLZWHFIFcj55B0kHJTfVU1wDCav3IQNK+dh8nNREHrsprT1l9N113FBSrBMZr5cVzzcLF6lSniHxWDCB3MQI7mbL8CR7Ybayuqyh/RRBDcv4LS5ywc7CX3OcnmbWxZUF5nXxXvmHeDw9t9m2VnjRw1ypI/HegSpG1WCIIgqQMJPgiDqCO4If7qfHOX95gn8cMKiVKleojv6KfIuqSaAnNzrkMV6pjh3DIUn+1t6YU/Zc+4zLm1aSgGi7p3Zi+uW1ETP7sEV7izUyR+Ny/gSBfL3TEWh2XklVywJeBTuIcifR01wR05aAzmpsui4L06OBi7CopATExEkTXr06T9go73FHRMhC8jYRPaHxOr9jSKfCpUnjRf3YrXa8WONonpXrYw6cr59B6vN1LssC+9s4WPb00C10wOdgrmkS4/07yxpq+mwZc9pSUiGZm1gSVdZf2I1xs0xM/HdkwNrJaFPZ7+ryWSbTSy/WGd6vp3o7onfyclFnsjXA/RK0BSV+wFT8pD0l0lmdU9nEKLIgWPsQMvaBbGqpl9bWcSdc8RSfUjHcekLiwZBbetWvPJBPdpI2pp5rC03fFTSJSJVEhrbMH1XCyTXLcPkgaGylvSpjZgzR/URhjWycslfR94JaaUesh1bjhZIwu8+I2SNOGsEDYyUPpboz6dii5zESMZertXJSsqS6TsXfl7nmrQ7dklC0tDImegUokHeMfY7yQdIaH1sGiBXEzokzRmO4Qu3IFV8EOBRx2PGzsaGzRuweGK0qRBU6TcKcnFArNYE2u5TDULIDR9MxqAw9jvd0yE9cQ7mqjTdo5sHiDXe+tdxHNT+21t21mmIHB7Vi410m9nzMYUgCMIOKi789BsEny4GpzwyDQLg1vc5OeoxQRCEw3FG8yf+hKdasCGZ/jK+23rw/gY6qmF+L7V/OK31lwfhxbmna10EelcveYJ3u9Ca7sYu6KQfVgMnC5qfpaUVFemo4vn9Jv6WhzYSgyYvxprErw0Dd3nhATDK0tJHfqa87F3SX7to5SObeeblsCeuXqICZa0q3aXTdmm+Vg0eVGk2Vmz4Gl9vU5edHNDBFno2KbKPVJy+LB8b1H8xJvcXwl0eqGrqDDYJ5RsFyDpU/U9blpaQq8Nd3LL24SFJCDI1LrDkpvbu7esWBJerMUnSMi0bZIIfb8p15Jaj1aXtOAiTF63Bps3q34gtdgbaqY14R8djdsIGfP216TOVH6ypCEUWbKoVc3+TgB0HM6UI21yAN2r+MPSQTHV5sKV4LH4+UhIY6M+nqd7pHghoKq8FDd5kki/781cbGYSebXm+2Xv2nVqMpsOuCpu+65D11VyMfnudFdN2H3YtscpRuwUwuGGwAg8MpBxrsjgyiFHVSEncz9plDcJ7WdcEZ7UHz0RKok+cPWYa+SX5iCXT92gE+YpViWRs565HQsIRrslBylazttHihwFLri3kxZHuFgqSV2P6uKEYOo5HeM9CAdf0c/OWfUR/EF/WN7JvUBk/vDWKjpXL30djynrT2ppVYPwqW1nBIQ94ZKm8a9x9i46912LVoVgpO1vcEYPYZgHmof8JgiAqR8WFn06+8Or7Oh4eOQpuni6sRRqEgHEzENqltePUSHtNxerEv+MlsVmjSPf+HImJqzBNbdpIEMR9wh0tn3oBz7RvzMb+eTj4zTakW1J5JGQair+1EKeGjtAnqBiNKnJLKZDOPEyICYd/k4rl1X7hnYpSve3JuyOwqvHmaMIR/5ExqJLDgzap2L5kF7L4XEgThJjXl2EDFyStm434aFkLt+DQWiwp16yzOvCAS81X8QqhjZmNlfMnIKa9WXCgOgwPQrRmaiyieECh6iz/7AQkClNd744jMWMlF2huworJsQjnEnh9FravVGvdauDisIFxLWJgT7Thss+bmfjB7D3L2ZEmC4itmb4rAsmh44WPXi1Cn5uK+WPNxFyH8oQbBxc0lr/f1E+y12IXd4XRoidGWQs0FvwMIlvwlRyc3mLWY+xIQaYkMLRm+i6TsicNUs29mIptiqZ4lqUPLfcH3cUkrJ49CcOHDEfCPtk3siZsECaOFSJhJa/sBZfdIVhCi3YiEFlRgWPEdzxiORdAcuGs5PdbG4rYafMRb1Zdc3RC+NkkQH436hzGstMX5jrkQ6m9ZUcQBFGTVHpY5uIfhdDxS/DIqP5oym0s6wkvDewE/LQccXFjsWCfSKxxemLays8xb4TYJIgHFne0+eMQPB3OBZ+X8cO/vsYJc0Wn+oC9ppV2UHJVns64eRjNsGoLJTfKy1s/aCVNKT30N6SEKtIAdxSlWTuEwkGjh8iBdNg0K2uHMQiRvCjBR8wQCgk+ARa8ZGmtmGErKrkWfWtpjZF6HYBivuvCJmXVysBR6Cc5RNQj75ASDEYpu4XC56cj0CL2rX4IdWb3ychBgUopWl+QgwNrp2PcfYsMnYnr0nPaENjEBEH6JW4XGXx01hxBGPW88Kmny8J2Q3AusXxVLfo+1cwgjIqRgxDp81Kwbo4SxEleDL5aHUH4ZIx6nJUeq2dZearr3tMh79R2LIw3N59PRs41ec2qVpdYTDRMazmKybtFn5oJMZCrfjlR33U5ko/eBMknqwahz72JCWphqe40cqV3SYOQqJHy/eolOmz5igfm8mblZdnzp2LyLvnh3GRW3jvjESl9xLBm+i44NFd+18cllBVsNfKwU0u3JijA9nnvIVkKrqhBUIRwDnJIaMy7tUGkNX+t2iFoI2n+63DhZ7OnZH2x5RBISgfNfcuKVQtw4ezSNxPkfkzDfocpE0zL7GiOLPRnqZF2BbCqZQSPQqR4/3LSTLWLq0q5ZWcHV3Jr7CsuQRD1nPr4TbrK5OftF2sEQdw3nBqj/cAX0DfEHbhzAd99sQ2naj7CkYO4jt+EkKZhI7NhX+BMtOvvuMFyyYULkjzOObwffCzZ1dpCySSbaja0FHCoihjy1qYPvCzlrV1/NOcf0/RZuFnJoAGmOCNfUncpZpMolQm8FRT/fMjei3eWG4MQSTTVGKZJalIuyVMe71bdzAb04YhfMFJMTM1QJkreoehmph0VPnY+Rna0dKfKkXxGjoCuYfVhcjVqXPToIiI230xF4mwlGIxAK4JBOAJtHHp3ZHfi93ljPIb/yShA+tPw8Zj7hQgOdF9IRtqvUmkjpNeEsiabrISG9Y+UysnUPLqm6IcISYOMTXB3v4MEQ3AuGe/y1Cbv3pXqEtdw9agRH2wu0JTjLgG9OqGlVPF0SE2chY0HlSBOHC0MQa8dQPQLPSXBXs6+KZg0RiXcf2YoxrydgGQLvlhSLgiRSERVBHh2lEONoZi8l0/5pu86JC3YhnSpUgWh91i18C8Z24/JZcfbrqkxlS+9Ws+htdh/kdXW9n0wsoyMRzF5Lx+j6Xsb+FSkvmi9Lbp0qQ3cLRKfiHS7kMbKiL/Tkc9bbltj3uoHKbbf1VRsV9wanBcao/6h6GmhzdI+11sO3IVc5JRnLaBLwsKd6XIb2KI3JgyUUmWO7UWaXF0R9MepdUu7URuJCW/FyO+qPh37P6+GHtRW2VnlN+G+wR1XHDIeJAiCqBXCz+GYJ5mZy4slbceeb60y7E9UmcNL6fOH46X5yj5zU3X1tdl5I/4uHW8ZWdtyYCsgeAA7fuVUORiBwQxeXla/ZQxRIN9/qnSenC9+P5aHt9h9xPHS8/D7qrcVzK4t7+PXmIhOjc3yQRAPEk7+iPrT83iC+/gsOofdm/5dx03dU1FyVRYb+HZ9DVrJ96U3XNotQLsxPeHpyJb49B5c5BZYTgFo88qneKhTP6NiaaOe0D6xHKF9eosEM65k4paUzQC0HvYm3DwkHTHHoeRNE4S28cvh1VJMuZyC4NppCdrFRkhBQ4qObEWRgxyW7j7HGlNG0MP6cibiwIWbYtDfPBJjo+Vn17bogdjJy7BpzSCL56d+JwRIzaMxYzKbQLCf1rvrMMxePR+xkiakBdhESRas+iP63cmI4b4Dm0Zh2Kw1mP+crMXmMBL3IE2e/SHmb2sw7+UYhAo/hMqzrZhedS9qqfmK2V8b9H5BFvBJ0Zxfnoc16yYg0lHCm7Y+sq9Mfp+4HojsHGl4ntrAxt1p0mRbEzwIcz6YgJgwpR7FIH7RSoyUZuc82m3lghJVjQtCM5XVhi5jES2VmxZBj8di8gebsGFgOW/IvkzkSe2DqLfi2RxPigh0oUHk8/Mw7PEg64LDo9ch1zwt2vQZJkdWZ21raP94zFu9ARM6Wz2zwgQ0kTWyednFsHoX2d5GvgSpW1OlDx2a8GH49IPJiO0lfNQyvMPY+zeR+8hdbDlaeUXKoaZ4ricieCZup2K1Ivw1X2YfEG1iJOI68xUb6NYh8YAsNdJ2fsZE+zNleSJSpAt5I2ryBqz5W7yqzrHf2M+hLeV9JAdr96ZDrwlHzy5mXwWDhyBK+mCRh6QJFsqaL0M3ygJktwg8EcePre2wvnLlGiyeOoy9R8b3QWqL2vN2cr6ICq5D5qEkaY9URv+WP2yVbVt7sL7zI0zozrf1SP/3EvbmCJJSkCk1tEEY9Ff1O8Tq1HNTsXiU+BiVvh/2xB7UrU+EXF21iHxWrcGYguWJwgct124062t5X9jjuclYvGYFZljTXK1htC3CpTwtWz0Pg4TVRtaOlfYHbqwg1svOCl3uIoyPG/QanKr5L4UEQdRT7rPwkwv6BgI7X0RcHFsSjqOspWNPPNE0Ax/x/WzZcT4YA9UCzFYD0f6UvO+jn4BOIxRhIRdmqq4ddwrtB9hSVdiPBeP49YFsfs64hSyF5W9CJ+QbrrEcGW0nmgowW4UB6/m+d/GZlKBFp6an5ON3ZssCzPbqbZXwtrsXMhLEtQ37NmA6u8/xW+p8EMSDhVe3vuiiTGw8WqPviPEYP97CMrDufF4vOpAiC/S8ItHh9c147L1EPPp8JDzZgDPviCwwcQzb8OsXe3H9Dmvg3QPQavCb6PbOt+x+bJk6Ex36hMLN6pwxEblHCiSrbJeW/RA5JVE+T1o2w1+akCiMRWvDPrbER4kALqFop0p/pL9a0Mrzth+F7AZOnqEIH71cPm7GKnQeHCEJgUvObEbaf/eK46vON8muyOcrIbfxdjnaaknJ3PyQwX1JTt0gmRVuWjkD8TE8IrEOOks/0qEl2CbNPDUIipmMFZt2YsNfRyKquQb6jC1YbdHsNgVL/i1rQWhaxGAy9x24bjZGdveH5nYWtnxSTiCPCrEdc1cly0IrN39EDmGTnXWyyaTybD7m9aHPbGxSm1YqgXDMzFyXjZWTObpvU5AlCca8ETlqnnw+j+Y8JBL+bnpWdtLOqnNsK1IkDSB2nxEzMO9v8wzPIy3bvsamNYsxQQiva5wdc7FK+IXUhg3C5A+UejQZse3lyXnWV/ZGu3U0Sdh7Ws4br3dTpXLbhBUzuVBJC9xkdVzaa42N2PqT8Xzl2eRlE2Y7bFKfisQfsqT3A96RGDlzhUl9VNc76LYhJUOuW9wP5zzJLHgDlr0ei0j+DrJnclDNw7Z9QrDNn53Vu3mLTPO1c/MGrJiuCGAF6Uux4Cv5WbRhMYifLnzUsmXDB+z9G8h95Fpzc1GBcqghYrtHSB9n9BkpqqjjZhz6AZmSkN0fEX+0bGysJmX5NqRKFc9M+1OXhFlzNkIKaM7u6t+ZC+mVOsd+YyG4sools3yx3I+ys4UuMRFHrrISaGHqLyNoMGs/+crlVGy2pv2m24zTUpvIXQQMk5Ikbl5Hplgtj7JDglDEWig3vmyaVfWPZS6N/REePZK9R8b3QWqLFintJFBwcBXm7pBWJXRfWWtbZ8h9J3tT8pITMNNEirkdCVvS5Xatqfod2oDZY6MRxB+8IAUJMzfa2eemYPlWYV1gpsGoS5qFmeJdN+9reV84Y2wMwv19pA+8lgh9TikHsyVxtuOCPIXEGq67aeViKU+hXMB4T4f0L2bhnVWmwYjiP1Ll460o8b6Z1g3764P1srPEC0/fhh9fOdsIa6UUgiCIqmO/8NOnP/yeex3Nox+Gq0gyJQBN+f4/jYK7rGhTPiPaI/j8DkxfL7b3LcQCZd3Afix4xygA/OyUWe+vOn//oQzoGnuhNd8YMRCdcBzbDdfbgOk7jeeaaJNa0a7s+Va0af54XvZlI7i9Svh6PtnMN6gOx3dskFfXn0J2mW0/BArt1P3vv2s8V9pHEASnYX1073N5DtK+TMG1IqPLx9t5aUhfNQrnjhep45JXnUsLcGbpAqQfzUHhHeP9SvU63Ph5GzL2WBculvx3AlK/TcONQn31RIu/NAenP1qLrLMFKFFFYL97LQfnti7AsY2rFDeajuFHNxzI4RWqED2Gl/NEe+biteVJyDFxJCn781v66mjskhWUzNBh45R3sPpQDnRKxvUFyNqxEGPeWG3Vr6MucQre+SQFOcqM654eBRnbsXD8JKyW53cOQ5fE8hK/ENuP5cjRdBXEsy1f7gB/g9mr8c57G5Fq4guRPVP2Aax7bwyW/3xXJFaVdOzZLSazDP1tPVvEBsdZA61/OAZN/Qiz74uprA5Jc8Zh+toDpvVIKosUbFk4BpPMJpg1SfKc15CQZOYr9WYe0ncsxfj4XbJfPRvw8xfuSEfeTdUFqoGcT97BLPMytEgOVr87CxuP5RnfP4bk/3X9LIxZdRqOqnm6pG1IkXwRMvS83rFF3Vi5eSOo10jMXmAapTp91SSMWbgFKdkFpsffZu8fFyIuXYhEkWSO/eVQE8QiKkwSfSLtkFXRJyMZe2WJJfwj+lnxtahCt4XVSSEgNtP+RPo6TBk9Hkt3pJYpA/3tAuScsl1+dYcUrGV9iClBGNJRFobmndhsIwiNDompssNKTUg3DAv2EB8iy6FAJ2tNN/FBSymhpkjG0v+3GkmsPyrTjijvxMLhGD7H3HezaFs/TkI662cM7xJvWy+mYjtrW8csLOvvOYf1teMsvn+s/uxbh+njZiHJ/CQb6L5KwK6zUm0to8HI3/Xh7yQg6RRrj9T9EsujLi8dSasWYul9+fBlAZYn3k6mJq3GrDFDMWVt9buMsVV2Jmh/w7BHee10w9H/amzUfYIgiIrRICysrd1zbueOU9CmX4jVr1b4vRC5X87F1Qv22adyAeQYfIr49810G7k5+AQvJCvalNxsXK21eX4H4t7ZIJ3/WtNkaV2Ga5K2xyl+Hj+Ha1wa9jEspZnBTei5JikXeFrMH8/bCGDNuIWAxftH40aCEizJnu2BMD5ZNnZIz8y1VifCa5+cD4IoKbkj1giCqChBsUXYPf46XPWe+OZtL7x+/2RPRFXpMwMb3uoBbxQgZflrmLXDVFLMXQ5M/d+Rkpm9Pn0d/jRlo9hDEFUhCPEfLENsmAb6s9sxa1qC0FYUaIMQ8+pfMaEP10DLQ/JfxmDhMbGPIAiCsJsX3inAwt63gLP+iHvVFQdEOkEQRFWpkNn7vRPLkPmfs5a/ov9eiLyv/5/dgk8FbdNy7BC5wLLXDYPZOzcPtxufQBONzp7+kgJ9hSiTv2AvaK9fcoApuiIIFc8Vt4M0PwmCIKqBnC0eWJfuCmgK8eybJbDi8ZSoA0T3ipR9xF3cj6Vmgk9OwZFtyBHJGme79J8Iwg76IVLSetQh7d9mgk8Oj15+4oIYH2ugoapHEARRYYL66TCDCz7hiW8/IMEnQRCOpYI+P+/i3vFlOHsw11QAKgSf+ZnXRIINpCA/st9LyUy91UCjD022b5ranyZDEliqhI0vtS9HWKrAzcgbd8Igw/WGY9CjFTOBK5M/rpHZKxjZp6xrjtpNr0D4IR+XFLN37gJArBIEQRCOZe67vjhQ4AwEX8WHs3+zbm5F1Gr0pcJMskVv/HViDMJ5sCiBN/ep+LePECN1pnpk/UxREghHo0XE87MxTBW4iGt9SoFDxgqfeDcz8YMytiMIgiDsI7wEn752DZ5wReaWJhhPVjoEQTiYCpm9G3GBy1MzENbNF04VEXxyzE3ape1OwomyDse5STjUx8gm4Dz6OSf7fDaCIZuu2zR755sm187Gjp3AwAqYvUuYXEMOQqTss3x/+83epfMVgSx7ruxWMOZdMfW/dRwfUdCjBx4yeycIB8AG1rsX5aGNxhU5u5riicV1w7ksDzoQGyI27ER3aCGGznaAL8/aRng8ls2PRWjZCB0m6NI3YuaUdQiYtQlTuys9uJ2c3YIBr60WG0TFYL/PTvb7iC370CHl/aGYVVt84VlEi5hZKzFZiihtA30ekhNew8KKOBEk6hY8IJwh+Iu9ZGHLgEmgVoWoPPW1bVW4h8SNuejBmtjCH/0xYFZD8vVJEITDqaTwk8MFoK+iyaUNuGqv4PM+Y9GHJ0HUAUj4SRCOIajHHSS+rseB//PE1DqiVUDCTzOaRiN+Yhx6d/SHt5tKCqrXo+BKGlK2b8QqEVU2moSfNUx9nqBrETl4LEY91xMh3lpo1FXvZh5y0vdj8/LVSL4qEon6CQk/iftCfRd+AmNnX8d4Z0+MmtEQp0QaQRCEI6mC8LOOIWlwhiHDoIVJEHUHEn4SBEEQBEEQBEEQBEFUnHos/OQm5upI6qYm6wRRlyDhJ0EQBEEQBEEQBEEQRMV5cDQ/CaIOQ8JPgiAIgiAIgiAIgiCIilPBaO8EQRAPLiEhFXS8SBAEQRAEQRAEQRDEfYWEnwRBEARBEARBEARBEARB1EtI+EkQBEEQBEEQBEEQBEEQRL2EhJ8EQRAEQRAEQRAEQRAEQdRLSPhJEARBEARBEARBEARBEES9hISfBEEQBEEQBEEQBEEQBEHUS0j4SRAEQRAEQRAEQRAEQRBEvaRBWFjb38W6bbSd4P5IJLS/H0H+4VMiUY0LXLqNQuMGZ6D7+QhKdMUinSCIqlJSckesEfeTkJAQnD17VmzVZ7zh2mkKWvSMhI+3Bs6Gz2Q6nFs9BHmXxaaBIHj8aSnaddQCN1JxeuU0FNVQlXXtvxmdu7H7nt2MHz9bJVKJuk5QPx2+GgGsGK/FKp1IJAjigSL+o52IDREbBrKwZcAkrBZbDx5aRA4ei1HP9URIUy00ziKZkfXVAEyibpB4gOg9qhCLemjw4ZRGWEdjBYIgysFuzU/tgHiEPBkF/6fi0aKb+UiECz6nIOSpTmj+5J8RNuBJkX5/eWn+51j9Vk+xVUV6TcXqxFWY1ktsEwRB1Eu0cO2fwCZXUfDzVQs+bdEffh21Uofi5BUJv3ZyKkFUBi743DnlGvz87qDPEyKRIAiCQPjY+Zj9SgzC/U0Fnw8OUYj/2wps+HoDZvcRScQDSime63EbfsFXMOP9EvQWqQRBENawW/NTO/QjtA4WG7iL67vm4vKJa9KWc8cpaNMvBC7SFiN7O37e9K3YsMZwzEscCMMlkY0dce/iM/TEtJUT0QnH8dG4hdgv9hqRz/P7aTni3y+7Vw0XfkZfLf84E0b8HYntTyHunQ0ioQJwAekELyRLz2EfduexEtcm6g8Pouanc5PW6PJ4F4Q3bwp30bjc099A3plUHDycjqt35bSa5IHQ/PSahvDXe8MLelw/nIhzexJxVy/2WYU0PwkHEV6C3Yvy0EbjiswtzdB3RQOxwwJNoxE/MQ69O/rD200jp93To+DXNOz/VwLWJuXAqAgSjdmJUxHVpJLaUd1nYMOsHvCWNnKwfcJ4JGRLGyaoNdVydozH+OU58oZCn9nY9FYUtDdTsDBuFpJFsoJ3dDwmP9cT7Vr5QyseCXr2TJdTsffLpVidXCASK0s8lu2MRajYsoTu0EIMnW2eM5G3P/dGZJC3QeiiL8jBka0JWPJFqqqsOVbuw34f3dWz2Lt2DhLMnsVQdvp0bBw+xUyLx/j74XYqVg+Zji3yDhVajFy8AcPC5YLTHUvA0L9sl9bVRM/ahKndWZthD2e3YMBrVdAxHLsMO5+zUNqiHPZ/tRartpqXnQrtSCzeMAzyI+mQunwopu+Q9phgWUPSMobft5y6yFGua61O1ChKfh9ozc9hWPz1SKk+6DK2Y9WitUi6+KCpuyltiw4p7w/FrD0i2YFYayP0twuQd2QbEj7ciFTzYjfUT+tYe4+0HYfhzVeeQVeztjWVjb+WfpIMdUupvJNW+zEr74k9bYR5/qydo7+Zh7M/rMWc5aZ5k6hwOajadjWsjdQXFSDnxC6sW7URKVdFujna35D4SR56sM658Ed/DJjVkPXQBEEQlrFb89MUF/jETENAhC+cI15HcIxK8GkPXMCYOBDY+SLi4sSScAPtDVqaOvZfJwwaITZV9HwrWiUwJQiiftIUjw+MQZdWRsEnx1njheaPPIUhLz6NNopggHAsIS3hxf9e2ovMb+0RfHJyUPT1EBz+a38c/rDmBJ9EfeN3rJh2lb3bzmwS44vRNgSf3gNnY8OaqYjtHmQUfHKcNfBuEYlBk6ciTiQ5guj+kfCGHrqb/IUIQtTgIHmHDYK6j0KUWC+fcIxctAkbpsYiKkwl+ORo2DMFRyF2/GQ2TbwfaBH5yjKs4XkLNk7OORrvIPQYNQ8rZ8bYnOwaYL+P1j8cg6auwbKx4SKR0wMBsmSZXTQEnWLNrjawH9opk2M3D/iIVRO0cYjiUqGbfAzJNsN7IlbeU/sQ5RDzyjx8ungk+/Uto30xShZ0sWfiv0NEr1r7RERN0CcCQbxtuJ2KxDcSHkDB5/1F4+aNoF4jMW/lbMTY1eCVT/jYZdgwfyR6WGhbo4ZMxZoP4q22D/cLTRN/hA9kefuoGvPG2kh+n1BW3rPXbMDsgUoHYYauIeL+ryky9ffg+dg1rHhRpBMEQVigUsLPUq4r2sAdTdnk4+GBbeHG5ycsrVTaWx7DMW+AH44nvIjp60USZ99CTFdpP2acyUZw++FiS2E4Bj2aj+M/mXb2XHsyMVEsK6fCoqG7JHD9HPMUgapkxq6c93e8JJKtIh1vPE59T8m0nl9/Qic2NA3GQCXN0nEGuIbr5xjYig1nH50o8sC1Ws3zuArT3rF8bYKoz5ToriLz8L/xxZoVWLGCLavW4Iv/nMJVLnto1BKPRjaWDyQcinMTMaIvKbKzTScIx9Bj/C30b34PuOmFD21pb/SZgY8mRsGbTxRv5yFl/VxMGjkAAwYMwNBxU7B0fTKyChypGh6N3uH8vcjBrp1nwZsg/45DYEv8qdexcUrTSMQ+Z88MWYthi+ZjWHv5WF32AaybNwnD2fPwZxr+xlys3pGCHIc+E9cKkq9vvphrJmljpmLG4FBwmQvXNls6bqh83Lil2J4hj8e8H5+AOXGWnlV9n6EYv3QL0iVVIQ1CB47DSMMpGrjwEenNAhToNQjpPMREmDqoRxto9WzfTZFgAe2LkZKmqS59M1Ly2IpbBKKek3aZkDxbzr9x2cJyyeGaZOp0tlRF61MN1640XHc4Js1bh5TL8pclbXgsJo61VJu0iIuUngint6aAP5ImLMqiQHf1a6o88+X9FEkAbOl3vu8anETl8W8sK5vo9bguJRDVCddQNLw7I2dhdXKO1P7DOwqjXrf2acv+tpX3ZTOfk9tWfXYSlr4xXD5O1bZqwmIxbar9n9GsYdJGWGkfrLUNXMvUcAzL25ZTsr6nJmQQxo2w1sdVoBwkTNvf4W9Mx9LNqci7zXY5eyNq4mJM7S4fWYZ0V8zczj/bl6D980V4y1qWCIJ44KmE8PMsLu84g9uSAJRdQBJ8FuPqjt24Ie0vhxHtEXwrAz/sE9vWOLQDx32iTXxsSlqf50/hB7EtMxztsUNokC7HcXTCGHPhIBcimghch2PehDBksG3pvJ3AQGtCUwv0fGsVBhru+aJssr7+XcQlHGdNNzffl9MsHmdgPxaMexE7zrPm/qflbD83Z9+A6TuzEczyy/Py0sBOwE+fYsH8stcmiPrNVaR8sxm7j13ADXl+CJTqcePsD/ghQw6m5qxxlf4SjqWhq/1CZc+XvsVj75kvy+Ep9pelN/xfNx7j3HYmQiduRTdx7qMTl8PL38rXfWjhHC4fHzVD3GvGVrTr4sBRbpfl0nU7DOjHOree8By0Ch3eUe61GeGDRln0gSqXw2b4N2cbTpHQ9l+FyHfl87q9k4hWXa30LvzYPqvQbio7jt+DLVFTExHaf5QsCLIEzxe7fjslX5aWl8aKgxnN5+ARdZr/RLRSypyVY+ToOdB6yLtM0ERB+8QChLFjHzWU97foPHEV/MIjxUEKY9Ga7399Dlw9RiHoNfl5ol6ZCVf2HM6PLEEHfg22hP+Bla1FfsPb/fgowhWnvtbCulV6ECYME+bnN1ORMH4MZiUeQJYwidNdTEdS4kJMGj7FcWaxfXrLWodnU5G4/jDO8japeSSG2DBDuZuWinS9FpFPs/IQadbQPjcDQ9rz6S9QcGgpRk+Yi437sgzmhAUZB7Bl+SyMZ+k1L7YKwqjnZRNG3YnVGK3SNtNdTELCG6Ox+gTf1iD86TfL0XTVISdpNaZ8eEB+Nk0QQsu8GplIYwWsCemEIYZXOxY9w7XQndrP9nI00JR57VWCwn0bsStNEhUiontt1JQsQBbL46z4d5AkBY/TILS7BWG6Ng6R3OT05mnsTdwF6ZGsCHTrEtx9wuyEDfh6207s3Ckvm9YsxuTBrD0Ux1QNLYJi2D0+WINNm4332Pn1JqxZNAHRTcVhKrh5786dmyQfktrHJ2Dxmk3G8zatwOwXrOctfOBk0+PLLPJ1HYKHiyQosxttJIZNX4EN6nLYvAErZo1ED0sPxE2W+TEfxUub3tETsGzD14ZzN62cjViVqh83D+fpy8ZqETN1BTbx33TbJlmrWxuDqavFuZuWId5cRbBpFGInz8MKdn11Xfh6wwrMMC9v7j5C7N9pcKehRdRbxvOUZZmq+3MoV1OwZeEUbEmXB6XeQbZNu8tH1ZddTsI7E5YiKUNu9eW2ld0rQ76Xf484DJPW7j88b6vfXooDUp+rQVCYvbPnilGQkYqkT6ZjzF+2IEsqBn/0eGGk1TI/sMIDe/OcWbW4iT+NsS+WM0EQDx6VEH7yQf2HyE46C1kH4S6uJy1Abhr/NGMn1y9Z8OVpzn78cAboNFDR/uyJJ9oCx3eY++LcgOkG/5z8HHlQbqQn5k3ohPydY7FACFxlIWqyYRvrTyG7sRdai83y2J+XD/gElisstfc4E9a/ix3XO2HQW1MR7XMca0jQSRAmuLo2lP7e05dIf4kqogjHxCL5z+SEDDEK05RFLVSrEgHwjf0UnYb1lIIqKR2Ri28owscugU8ZYVwEPIcl4tE/y8cbBJBOGojq4FC0TZ+A/4SZaNclyGh+7KSFV5c4dPrzWCsdpxbuzZ/BQxMWoEO3ILiJfDlpvPHQgGlo3dFMtOExCq1eZ8c+EQTPRsbO2LmRN/y6xaHz60vgYV4OTv3kfLHre1ZoBszwaglt1+V4dDzLo1Lm7B+3llFoP3omzD8leP55Djr0iYQvO9YgiGV/XX2DEPrnBWj7hCUxlwZNX4hDoI/8PM7NeqL5U9MQ9qcIaHkCW7zYJM5X8qtgxovFkOTY+Y2x9nM5ySLdR6FnC76iR/rOudhuzQ+YA4nu1U6acOWk7YIO23Bckn76I9KW6fu9H3CYH9eiJ0ZZ01aR0CKur5joswnwnNlJ7B61iM5xiJLKOwd7P95iIW86bPl4v6SViKah6N1ZSrTNoVyhteaCxr7SCsOHW/dL/LAvDXpNOKJeFG1R3BOIcNPh9O4E5Eiu5n3gb16miqBQl4mUPUDqd7Lw2JqmZO0gHcdzRIlqvcv4RzVosp5NQTJSsfeM9ES1VKBrD1xAtsai+wTJBUAcSxfbVaLPVCyeLNxHuIk0jkYL//aDMHXFYgwTVcsULVoOWoxPZw6SggkZ0AYhatQMzLCgxc1NludPlIMPVQ/cv6VKuKf4j20ShanqdL4kzjZ1ixE+Eos/nYeRvbhrEJHG4abb3YdhxqeLMdKazbJ3EGIlVxeDEOpt7Gy0LaIQP3NGGfcbmtAZGBvN+kv+mzprERodh6lzJiC6uThXG4pB40zFd/H/NxvxMZEIYte35Erjo7ccUhscjA4XbgoNfDcPtJHXKkfwENG26pG6YylrDczJwerPj4gPRSGIrFUfPVKQWyivuXhYdELiONJXY90hWSjMP4o9I61Zwgkzd/OP9/cQ9NhtvCAnEgRBmKBMaSrMvRPLkPHxAqR9PMsQ+Mhu7BQI7n8/Gdmt2sum5iMGotN1lcBSBdewVEzLX3vUdACifbQTgs/vMDWx57QaaDiH+x8Nhh8C7Y3kvv5dfHQmDK/xc21pjNp7nBmf7TgOv0fDkLHeUsAngnhA0XihZbdn0DeEDaZvnkLyT7fEDuJ+UfhZf/z4V7GsTkGRSC8fNgl9JAAud3KR9dlY+fwVu3CN+wp1CkDzx0xbS5fe0xDeVgOn0gJc2roEh+eLey6eg/QzsmaEQwmOQms2nted2YZjC4ewe8Xh2J4c6YOfS9v+8Lei8efXfyJaqc+bOw3pkqBMA/8eL8I4v4uAV+wQPOQJlBZmIf3TifLzzB2Ln/6VguusHJw8I/Bwf1OvlS7Ro6V84U4OMpRz5k9EqsgbSnORsZylWQr85BWF9gNC4Vyci3P/mimfu479ZqXsXj5RCDCP0P+bDteO7sLJFW/i8Fx2rFTeS5BxQS5vnydeRBkZtWckAgN1uLQxDj/9IE9W/Hr2hldhKlLnL8A5yTwkAJ4WAijM6C5rdOenNcIX0pplgrqHypoyt9Pww/qaEBMqJu95SNvBDfF12JwmG+SXZ/q+cXcaO9obkYMHiRRLCKEdI+vQKgsT4PtMlyD48795WdhvIcCTRPZxXJDM0b0RYIcDOO1zoawWcAqQa3hgH3goApqv9iON/bShkXGspdBiZFQINFdTsd1GYBNFUKjPSoEU4ujQD8jkeaormpKld2VzWgOKJqsemUfkoE0phzIl4XPtFuhaRxs3BxOi/SXNRV1GEla/J5v4Dhg5CXNXJTnQVcVdFF3NQsrmpZguzIgHDB2PuetTZUGSWzj6TTTXXpfxDw9nJa9D+uZZktuJoe+sQ6p0khaR0WZehLUjMW6gbLJccGId5kruIIZi/BzlHPbrpa/DUJZWHUF5bBOOCa/HQmq6dFnY/qFwoyGVQwryeGXThiN23DD2ZBbwjkI8d3UhuRWRy2L48hS5/Ly7YrBZUQR1jIT2chKmj9wISTGSnR/N2oKcHdMx/CvZqYTmoQhToek9HXKOsXowbwrGD1VMnZci6aL8Jvg/odJ2XDVJ/h2lxYabCrZUOJhdhQhHpyC5xPQFF5AqrVWSvqFy24ocZH0lrZTl0GlckHSLNAgIKs+GoAbRxiJUzjwKctPklWok5Yc0IQQOQoQNLeqcfzXCKV59/G7jT0/KaQRBEGoqLfzkg4vSWzm4d0t8+rEXScsyDE/YJWjcgO0/+SH6reGY1svPgtanLPh8rWmywbT8IzN/oLqfuPn8wDJ+MmVTc2H2Li1GzVB72P/+WPl+XLg539w3qRF7j1PDzd3zz+ej0wj7BaYEUS+JeAbjx4+XlzEv4OnO/ii58B2++PIH5JFDSsdweSZ+5oItsRw7LNpQHj1dlS4tjoymficLpxNGI/+s8OyYtwQXJPNZwMNEEheH5t0DWGelx69b4pFzfBf3gCBTtB+3bzhqwmxK0eElOLlxOUru8DwVoOSHyfhFmtVp4RveWzrGHCfWoxYeUJ1Xmoobe1JloXDTlsZJZvBotApmU+bSXGSunogbF+SpHEpzcPf0TJz5Vyr4fMclvA98Gsm7gEh4tpVdAuTvmYxryjn6LNxmecvigimnAPg8bGWCxHv74iykfzwaeadT5LTs+bggCbQ0aNzctLcp3DgEGduXQJeXhlLlXSvahWvrdiGfr2sCoG0mpRph9/j97Le4dKYAd2/Iun1OTux32/NX3NbvxW2rTuruob0/L9tGyEmzPSwJ9RYi17wc7JLXqhcl0M7lVGwWwj/d56ny5Lsc03fsSMDei6zGdH4GE6wd14v9ZtKKDtezVOMXEzNPZVkG2RjVEYQitsz1+WJqotujudDqKbxuY6KfLDQyNXCx5EJBQRuEHnGz8dEoWdNVn7EficfkXQbYe1OA7djPrXhCIhHXdAg6hWiQ9/M2iFprgSCMipIFhWmHlBjwydibzsuzNmtKRuGJULlV0GUfxwFpTRA8ClFcKH47DSmKYGTPXpyuDoGuJS1CsZQXHdp+ovDm0+GSoFB3ZClGv7EUW44ICeHVLBz4aikmOcqtw565GDNyEmZ9koRUYUYMXQ4OJE7H2iPyO+YfaE2rsAApS0djyieyoE93YiPmJou2tlmQqfBucCfwb7Hcn+vadzbigOQOQoecgxsxfa3sU1HTKhLWHH3Yx2pMUgv3hCDR1IesWNQR+weOQm/exyAPSTMnIeFb4UZDKodZeG1tqpw/1peNstY23c7Clr9wtyJyWRTsWIi9Z/kODfzb9OArKnRI+XwpUq9ewC3FEPDqEaxenoqCrOvSvcxZ/cZQjP8Lqwf70qEoQBdkJGHpm0myv2eNP9rYq5RSA3iHxWDCB3MQw93bsBI5sn2jlF4Wa22rqUl+pK9oLG9eF+48LJELnQgg6eEttH7vK1oEPT4Msz8aiUipEc/C/i+t9Qz2lYNd7FOsBbTwsWWmqXNBjmQNokPQI1IKQRCECVUQflYWLtAEOk1YZeLPk/vlnGchkM/+QxnAowPRCZb9hLZuqoXuqqKOwE3jDdNLQTYWjNuB/EcnGgSg8jVHm96/klTcBF4OdGQIamTOiL9joM9xbH9nh+S/1FLEe4J4cHFG4+Cn8PyQp9DSXSQRdZL8PVNRaKYqWnIlV6ypCGwnm3gXp+HKaUtTqGrgRgoyvjUXrelQfFEefns0tWzsVvLzKpz+r9l5ly/IEz9Vb+vSpiW4ktu9M3tx3ZK67Nk9uMK/Kzr5o7FdwgcfOElRMGyRi6yPJ5qVuQ4lV0WZNuSFbAelehEIix1fxuWAHpcPrDINlHUtBZd/Lu93+w3NJLmuBjnlSDTb+Ik+nuWjJmqDFGiH/c1jv5UhAJMuEamSEKAc03d2xlo2sdcjCD3jrAhbXBQffteRd0JaqVVonOTc6a5bn57bRjUB3rQCM0ZEwZ9dUn85GQnvrjaWqYJOFrJu332a/b6hiHyXC5jykGoywTabAAc/g0huPqo/i1SVBlXyPn4N9gy1TlPSG6H94zFvzV/QQ/I/mYf962XtToWggZGSVrH+fCoUcW7dEOhaoXNvhErPmoO9/7x/rh3098SKysxaje7IWsxKMs2dzorwziZajRyY6D7Ro4v8sU2fvherLKiT674SgnTWhrV5XEoyIw9Jf5mE1Sbn6pCZL5eE0i4YuLwfq020W/VI/88SGx8sbKDTs7M5rAzvZyEytN2nGgR2Gz6YjEFhrFTv6ZCeOAdzq6jN6+1m60uRwgHkCvn9/ST0OUVwuQkrZo5EFG/Eb+chOeEdrLZmEVBd2JRcNMCRS/LkoIm/8rITBEEYsVv4+fvtYtyVlts8sLsFinHPcIxsvmYNSRtyZz46TVDMztkygg12Lfm33LcQyeeBbPbXkgn4Z+/Igk35OqPhdd3SEGUDpiccB/hxXPuSXSve/P5qrUwTk/iy0dXVZvaJA4Ad40TepLwaI7JbPU4FN3GX8sWjvSuBmSRz9/1YsP44/AYIIbHZtQnigSBtmxzpnS//XI/NO1NwoYjNW3zC8fTgx2EhbgFRRygttXM66e8jTeJw5YKkDXk/KZW0QBkePhbnzneLLak2rsI5SXN2IhQ7CVcvWYB3u/CC9Lcsu6ATwQScDJqfqSgWgWb8+iyFb0uhBcIDE/V5D60D+UYBbvxSRpwk0OGuBUFrybfcrL8/fv52r0gROEXC7YklCJ+sCjAlLUOEqZ4l7uI3oaVi4GaubJJvC1Ycss9RJ674Z5PrRULtl02+5VKsTgahp/RBtQBZ36mFbzrsstP0Xbd+j2TC7d0lll3NFj7sWmKVozbzNETmLYsScMTSsmmWuWc+NdYi8Vo20dX6Vcm7nQkFhxIwKX4hTGRMfYKEKbxgz3aksncgNDwcmospBq1bA6rRq0FQePY4tslJMntSkMnvURtM3020Kzdg2euxiOQChHsFSFk+BUtNhExBeCZSeiKcPWbyREg+Ug2m75a0CMWyRRLyOwDFfQJrD07XgLDEEFTpa9N3Ymr3clqNe4pZgR0czJR93bLfdtT8YejRgl9bDra0+PlI6aOG/nyaBQ11Mz+eJotjtLtbesvPefem+PhWhqRytLWLUGRBaJo8m5v2W4jWfafI7EPGXdy6ZK3VEmgjMWjyYqxJNAZUkhcloFEtRMfazb+PxpT1FgrHgPUo5xU3ye+BANngo3ZxNQUJb4zBQrMPBaY4shwU9Cgqz8+3kHl6+pDwkyCIstgt/CzePhW/fMSXf8CyaPN75En72bL9e5FmAx4dXW12bhAM8ijopibon72jRGmX4cJTY8TzDZhuuM5YTH/HuI+fZziOCzz5MUpwJPP7W0tni3QN6XwekV0Ibw375TQFfk/lHMvHyVHeDc+j5Ivvl9ZVz262rb42QTxw3C3G1Zyj+Hfibpzj0pQm7dHFYSZ5RK3HYOteCyguUsbXlcLJXi1LM24nfYu839hKoyCEjV4uCyPfmSMFTeIKMkWHP0V+BV1wW0QKrLQAkX0i4OWpCjBVXfjZH5k1VycmW97+1e8WZmBPtOEyhJuZ+OGQnKSQsyNNFnyUZ/qO7Vi7jx2pjUCfERYEL4fyjMF/rEuV7xvJl4U2diMPG0LeGARJgYssTUyVCfBwzBI+F727T8D8WTHlCK9TsCtNVnnKSd1mEKwommdGFEEhOy5ts5mgZztSpDDBtVBT8nYBcg5twcIxrFx2mKl2KZqs7KlPbzF73h0pyORfgepa1PfqbkNU8CBEhqBKlWtq7SM7AYkH5d/Ou+NIzFjJP0RsworJsQjnAit9FravXGf1w0V14uFcnQ/uALQxmL1yHibEhMO/Se3Nq+7QQklYN3Sc8EWqDUXstPllI9dXAkPb2sTHRuCkAGjFB9DreZXSo3UIWV/JQsvh7wl/tk2jMGHBbMTYbsQdR4zycawABTWtaUoQRL2iBocjBEEQDqD0HC5JAh5nuJqHqCbqH7+xn5z/9QqwYEaoRUP3mrOLc20mD7/vWdTwtJ+SG/J02M3DRNdNRT9oJbVmPfRSkCCOFm79+8O/oR7Xz+SgUCULvnstB1lfTsPPZUz1K4dTt+elwE0o1SHvW1WAKWnZLAv9HEl2A5RIK6VoVM5k6kBmnmwS2aQdeg+UkqoNxeTdok/EhBihAVue6TuQ/slepOs1CO81qqwAUXcauZL5qQYhUSPLEQiWRdHEsrSU0c6qDIrJb/NQ9LOWue7d0Ib7RQWrh0lSigUKkJI4HXO25ki/n3f3sZhRzu+XMk8OVjN+eVltZg83UZIGQSE3zSyrBRvfURas3HfTd3PtyiHDMX72aiRb0GJSNFkllwGbTJ9n5854REqBoeqY6btSj9wam2r4OpxBGBUTKmtd5qVg3ZzxGKoq94WHHCiKDJ+MUY97s6rN6n2e6rr3WLt5ajsWxpubjSuY+fE0Wdg54qiqkCms4FyaWCttWx8sqp+g0UMQJWk06pC1YykmjVSXgRLQqPagu8h9kSYghbfVGvZeTplg42OQnZxX3CkEsbZLWinLwCi0kd53HXK5H2QVHt6Wg3YZ3NHY9CVaOQqObMT0OduRIzXiURj7rm17Bkcx6Kl2ct948wIOm/uJtkLhdSu+LQiCeKAh4SdBEHULp9YIlAbtN5B7UUoh6jMXLsjm4j6haGwwAZdx7rIQ4Y/UkNaI0xA0bSdLf66e3Sr9rSwl7Jm45qhzmz7wsmRy2K4/mnuyv/os3FS0HJxeREBHdv/CVJzfOBanVQLJn5aPRX669XA0FcUjOEgeHFzYg3OHVQGmOBpNWVefVcYZVyQBoB5B5UUH2XoYUgB9NhWKfLE6NU8Uk/fyKc/0Hbp12HOKTVxb9MQoyT2BmmRsPyaLkzXh/TC1xlRp7EQxHUco+k2zpK0ZjvgRXSEpuqWnINF0fl6G9I9X44gkbGG/37MqAUJr4d7CTpTgH0ZBYTnUGU1JoyZredSpqO970mSBiSYc/V53gNqcNXp1QkupIumQmjgLGw/mCAETRwsPB3YX0S/0lD6A5OybgkljVB8hnhmKMW8nWBRs1xTJZ+SPDJqQ3phgobi1cf0RyT9Y6M8izeoHi+qjX1tRx7P34p3lSchSl1VTjSS8Lh8XaKSPLjWELgkLd3IfzowWrFyr+vEtSWlbNYj44wTWkpoTzu4RIbeLV1OxXbgjuSAE2/5telpo+7SI7SMEhddyKudztTzSE7D6kKzxbDOYn4PwHjgbcZ3l3iHv2PZyg6J1CJDtU2/mkfCTIIiykPCTIIi6gcYdTYO64OlhfdHahY3Zz/+E1FtiH1F/ubEH1yRN3wC0HvYmXLlqoCYKHv0/RccBoXCujqj/Gh+4+Stex7Rw8o2D//+MQhAXVN5IweWj5Uh4yuP0Hlzk/jc1QWgbvxxeiv9OpyC4dlqCdrERshn7ka0oUp7P0weuvMf2aIOm7XrC2SuSu72sFkoKxfMFdIKvv3A41qgntE8sR4epz0D69uBQGuLUr/xh7qBNZDkOBXQbsfJbeWLPNU8mr16Gyc/1QJA8N4K2RThiXp6NFRsWV8133nM9EcGveTsVqw0aSWbL7AOSGTc3fY/rzFess31rCvLgjcheZTWxUpYnIkW6kDeiJm/Amr/FIyZMlDtLC/WrIQG/RYTZPkPbdQI+mqX4NmQ5C5OjH8dKIa/zcOALe0x8U7Dk3xYECJUajQZhSGd5+p/37Xjj72KyDMXGdEkMhIhew6RjazXBQxAlabLmIWmCpedhy9CNkB7JLQJPxPFj6wIb5Q8ADP/+803ruDYIPZ6bjGUJM0yjqVeGo9chuzbWok2fYXJEaogAU6s3YIIQojiCgCay1YF/l7GI6RyJyPZBstCpNpAo+xrmfcygOcswoX8oKwUGK+uYlxdj5Yty5P2Cn7ZiXRW7s8pw4aa4KWs7x0bL9UDbogdiJy/DpjWDyvmgkYIcqUnSIPL5eRj2eM2Vu259Ig5I9zb7eFMptmNLivjwFTwIcz6YYHgnlLZ1kBSxX4/0fxuDRyUdkv3+osUgzP+bsT3mpuixUxdjJP9Iys/Zn2hHe1w5Uj7cJrdBrAR6j60O7U/2znaOQfzf1mDNxCi57hakIHF5eeJcPdpI0fgbI/NHKYEgCMIEEn4SBFH78HsCL44fj/HqZcwIDBkQhZaN2fAm/yh2JmXKE2jiPjEWrQ1BcNgSHwVZiTEU7VTpj/TvLaVWnhTk702Tgua4tOyHzlM3S34uH+kWAJc7WUj/MkVMdh2IeyjCxwufmu9tRreJo9C6OZuE3MnBmY3zhYl2VdiGX7/Yj8JS1gl7snsp/jtnrELnwRHwZD1zyZnNSPuvKgjRja085hM7wRtBz89E1OsL0O0dYzk/NmMrOoxfAi9FWFkFSo4fl4Wu3Lfo+ET5+lNnokOfUDbl00Hn8AIH1h6VI7R6driNSdKaddI/noIE4WsPTUIRM3YGVgjz4E0rF2PykCgEeVt3h2CMXGu+GIONxHaPkIQD+owUVbRtMw79gEwRMTnij1ZMEBUOLcdeNlvUtrAwUdclYdacjZACebO7+neOxeQPNog8bcCyUZH3VaiS/uECbMmQBYj+3RXfhqrox6xOpCcuwEIzv6jW0CWuRPJlvlZWgKDLt9NQk/s0DB6CSGmim4fUrdYDfW0Wwak0Id1Q28WfQYMjZXcKl1PLBnlS0G3GacnqgbtKqAMCXcH2v69Ccp6oR+o6vmkFZoyNQWiZd9YsMNBbUeI9CEWsKt0ksJduG1KkugrJD+c8qV0QAaZYG66/qXPYuGHbvjRJuKRpEYPJf5uHeYtWYJMqXzs3b8CK6YoAtqbZjrmrDqCAf0vShmLQ68uwgeeJlfXkIeHwduZt2xbMmeMA1xiVIClZ9v/LhbMxU+V6sGnlDMTHiD7GptQuFYk/ZMm/o3ckRs40LfdlY6WDqokULN+aKv3u1rU/TeunejEPQpeykLWtsikDtGGDDO+EsW3VIy85ATPVKvU7ErBZfEjw7mxsj3eum4346CCp3+JB5UzOYcR/pMqLPe+SLfhHyD3io5hV7U/7y0FGi6i3lGPYO/u3yYjt7C89j/7yASS8Mcs0SJ4FgkbdQXt+Qr4r/n1UTiMIglBDwk+CIOoGd/W4cSUdKds+x5otKcirDo0/onZy+k0c35iCa0XC/2epHoVntiH1w4korAZBHL+Junrdu1OA/MObcWzpWFy/Us7o214uzcHpj9Yi62wBSngQIwH333lu6wIc27jKLKhSGm7+KE+2eeZKivUouaPKJ49+7h+B8LEJ8A+s4mz78hz8/Nku5F/TG65fqtfhxs/bcOz9kTh/RSQ6kJy17pAUarVFeHqUnGYdHZLmDMfwhVuQkl0AvVqawTYKslOwZelCJIqkihOLqDBpyoW0Q1ZFn4xk7JUllvCP6Afb4k8d1u0Wv58l0tdhyujxWLojFTkFpuIZPQ+Oc6qqz1QV0rGaR/bdnGKaN+7bMOMA1r1TXvRjc9Kx9HMRwV4IEILcLIacLkPBbaHX59PSPkEhQ/d5quxDUBOCbrVaUzIIQzrKnmTzTmw2i56tRofEVNkrYl0Q6BrgZsNjWD0yr+P39NDlpWP7iqXlmrSWTw5WvzsLG4/lQadqQPUFOTiwfhbGrDotfUhzBLqkbUiRhPgM1u7ob7NF3Wi7eSOo10jMXhBvwaS5+tElzcX/Z+9O4KK6zv6B/wQZhEFkBAQRREEUV9zQuMaYFKPRxGg2JTHxjcbWmja1rUna2LzW9E1i39em1fivS2ti4pKYmM0lodGYKFGDG6KCCyiOIggIAgMyCP7vufcOzAwzLMOAgL/v5zNw75nlzj1z7p2ZZ55zzgt/3IAfxTnSqi4SPl2G2b9eJx2Jd8ieN7Dg3TjLdiC9x4ixUt/5xXP4Romr2aX/1yt4/f0fq50rm4Lhs1X4Rg5YOiP7Uzq3LhDHRArMh40V5GNi2WzMXhZn9b6hx5bfv1D9fCyR2/n7r+KFJdb3cb6Uf7yvjIHaWNmfJeL9RbzvzUPsnDewvdZhJG7jtXGiO5gr9Ac98JFSSERkoU1ERM+6T7NKRHdEqYhy0B0XFhaGtLQ0dY1ancHv4p7J4XLX9mP/WOyEDE8nClqMfv81Cl7IQ/qH83FV+kJroeMMhDz9LLr4AOWnpS8ln9yZMFlD3PdSPt6bWADc8MUbs7VY29jf3oiIHBKCOX9fgWkRGhjTtuP1l1ch0fx8JbqX/+LPmD9eZK5lYe8fZ2NZHSdqobtXzJ+34qWhWmTFLcTsd+5YaLpFCplZgN3P5sNdfH54Qvr8oJYTEZlj5icREVEz5z5gILzEO/bl/dUDn8L1L1Gozgzfpm3dsuiam+/e8cZ3YpKCDrn41au3GphRQ0TUWCYgSs4ONyB5l1XgUzDoEXfikpplqoGmZZ6SqYnFJSvjWQfELMabM9SxLv3CEfPSamz8+53JIG4RIkvx3ox8uMMDR7cw8ElE9jH4SURE1MxV3FK7twWPR/dhE+AqJn4y8ZoA78nvIlwed8uI7LNfy8Utjwue+x8/nJd21Ts6F+/NY8cUImrOtOj92BI8NUadUEgwTeA0Vx1X8cZ57N8nX0NUs81rsF3uUq9D1DNLlHFaN6zASzEh0OkC0bWBI9q0Stpb2PzfOeihcUXBQR1+VdNINUR012O3d6IWgN3emwd2e2/+3B/8FIOG1fMbQtqnOPjh2ubd7d1rLrrPn46Aduq6HYbTm3H6k/etxgttWUImGLBzYS68RRbHen88ukW9guhOGL8EWysnCKmrVGyb9CLWqWvU2mgR8/oavDS8lgnmjFnYu2oBltU2UwuRiTYKT/1qPqYMD4FOJBeLsZVTvsPa/16FH9mMrNzGshXX8GTPUpSmBWDeL9xhNk0kEVE1zPwkIiJq7orW4sI7b+P0T3oUFBtRbjYjU4XRiIIriTi34WUktfDAp6D/RotfreuI7Gwtdn6lFhIRNRsGxC15Aa/+Mw4pWQbLSdckxhtZSD20DcvmzGbgk+rHkIgtb85D7NRJmDRJukx5HLN/z8CnbW2w66QHCtIC8PvfMfBJRLVzPPNTGwK3Tt3R1nAWpdmZqGD+KFGjYeZn88DMTyIiIiIiIqKWpf7BT+0IdJz+KAIDPKvSRm8XIHvXP5B1KlMtaAJjFmHd/AicWzUXb3MsHWrlGPxsHhj8JCIiIiIiImpZ6hf8bNMXHZ//BYLUIW4qbpXhtqsbXNuU4fo3byDjRK5yBRE5FYOfzQODn0REREREREQtS72Cny5DX0bkfSFyxmfx8XVI+89x6REC4dHDFyXnTkmlnnDx9gYK2Q2eyJkY/GweGPwkIiIiIiIialnqEfx0Q/sn/4bQrtJi2Vmk/f0fKJbu6Xb//8A/+w/IOCFu8yCCfj8WNzf8AdezxLotsXhz8zjkH8nGwCHd5JKLO2fiVfwPNk8yW/9AXlS7tw+snGWz8jq53Ad7Z/wBH5oec+c5RExSb5u+AzNe2SiWqhn1u7VYMER9xMLjWPnCMnR/axPG5ezAuZ4PYWB7cYUBx01d6k3b2gk8pD7Hmh6fyNkY/GweGPwkIiIiIiIialnqMdt7d7j5qIslN1AmAp+jX0PYAG/4jF+GgLHPIuz3k9ER3giatRJBA9Tb2qTFQL9TmDFjJmbsvIhukzZhc1/z9f/B0+otRw33wblVUrmN6yxJjzkGWC9uN2MHLoY+hDefUa8yIwc+e57DSvl2M7HjrHqFRDtkHPCBaVvZGDjffFvd8JDpOc54F8c7PoR1vxulXkdERERERERERETNTT2CnyWoKFUXVWX730DaiQLk71mErH2fIX31buSjAFmfv43MZPVGNhlwfIeaNfnBKVystu6PLmOU1fj//UPVhEbydfZIj/HBMsTLyxtxKh3wD7AOTo7C6J4wux3w4f9WLRuOvGe2rR04XtgNfSsDqBexozLTM1663UVoe46SHpGIiIiIiIiIiIiao3oEP/UouVqsLHr3QocgN3mxLP4fyDorLd8uQHnBYeTu3o18vR4VZfLVTiC6tG/CZvnyENRO57W6kGNQl8x1g0/7bFwxBThrFI8r19VFWy7mw9YWiIiIiIiIiIiIqHmoR/ATKE04jEJ5hFBvBM5cguBHf4WgKb9AjwVL0FEOhupRcnQ3ypw2PKE6lqep27vozq5e47iqrNKajUKXjgbk29tgNx9or1+pzBolIiIiIiIiIiKi5qVewU9c/wwZBzMhJ3W28YZPj57o2M0XbtKy/wOToeSCOtGYLvCHWabmM33rnPlZZRReXrNJHf9TdIfXYuAziyq7qz/9u6pl7ZCHqsYa/d1zGIhz2F+ZJdoN4yrH+IzFm5O64eIpTnhERERERERERETUXNVjtnczncZCN2ggtMHBcL+Vi4Kkz5B91GzmoBqZsjnVmdRrWbeYmT39Ii6GAqfEDO+2ZnuvfAzlfrPxHub8L/Dyml/CZ1/VDPJPv7UJD0mPI1NnbRdl43KOI3vIQDXAehE75MeWqNs6d8QfA9XnYjjyrvTYzPukpsHZ3psHzvZ+57n07oKxU4PhhWKkfX4Kp5Mr1GsamzeG/rE3AlGEM/8+hXNX1eKmNKgbJk8KUFeqZO48hMPH1BVrnQMw7r+6SfVlqejwcez9xmogb6Jmxj3UFz1/FoQgf0+4mf1cb6/N1/n80MqPizt3nnSiytcoC4f/chGZajE1kc6+GPFUGHzblSH3h2QciK/jcaFxR+B9XdCzX0d4t3NVCyU3LmLvyizpHdSaO0L/qzf6d3ZD6dU0HPh3ro3bNA6vCX0xbqh0FriQjO2bCtTSRmB677ZbB8KdqwcioruFY8HPVkgJftoJaFoEWomaHoOfzQODn3de4MzhGNpdXWnsLywWGPwkakpuUnsfL7V3W72K7LX5Op8fWvlxcefOk7Vo54HQh7sivHspTr9dS0CTwc87qjIwKNQYtDPj4o6IeQPQq6ONjoX2HsPiWGza99dmFfy8g/XQGFy6+2Lg/V0QWHAROz9uJucfIrrrufr6+v63unxXG/DAdHQrTsCXP+rVEjOho/BwdDtc/HQ3TqhFRE2pvPyWunT38rtnJp55aCSGDh2Kob08kJ50CeoUbE1Gp9MhLy9PXWuFOvhi1O8GINwzBxdTy+Ui8eUg5qkweBddQYYzvn2KD/i/7od+Y4PR086lpm0VS4dC517e0NwuRtreK8jOaarf79wRNNZf+mJiRO6xbFy/EykZmfk4u++KesnB7ahA+LWTviadq+G1KTLgYuV9rqAgJBhBOsAo3cH0GjubS4A3ejwShiEPdkef+0Kk1zQIPYZ1kI6fW7ihvwkjT2dUKy/0f6Y7dK4VKD53FvHvpeLkd1XtuMHnhztwXDSlO3eerIW/LwY9EAitiwEZ+/JrDqa190K3QT7QoA63JaczFlfAt5cPPF2l97xDl5Gmr/24cB/bA8Okz2e4mYczXybjp22XcMZ0nP1kkN49bSi6hdsROgS0d0HpVT2S95XYvl0j0PTohG5BGiA/B2eTGvFHj84+6BnhBZTm42IzrIfGoB0ehv49tWhT0Mh1S0RUD/Ub85OI6E7wicb9/durK9RoPNvKWVbFN+SRnWVeviIPoRTF+cr6nVaRfAV73zyE7W8mtcyunK2c94TeeHBOb/Tq7g13jekjhgtc2nmj06BeGDfNWy0jqkFnLXQa6X9xBo59nI+iOnZ+4PlBwXqgBruaiwN/S5Da0PE6d3nXdfGR/1+LP49zyWWoW8srRfq/j2P7XxLwn7u6qzfrgYiosTH4qfrwlZn2x/Dctwxz2OWd6A7xQfTPBsPHpRwZGTlqGTWKQA+5y1VFqekriwvcRAACZShz9sgLovvXX6Qv5zYudrtwU7PmdX9fjB3qLbWaCpRevYgD6xKwU31Nd644IX2BzqwliCWGFhiOyX/shkC1pHaO3IeaPZ92cBf/y24pk2wSUTPnCnelz7bZZwgiIqLmg2N+ErUAd/OYnz7RT+LJwT4oz9iPTefD8MzYIKDwFD7dtB9NHQpt7WN+utzTA5Pu90LapuM4fUGUuCNiwUD06uDEMddM41rVdQwxwYGxLpUx79Rxs275oP8jXRHi7wEXlwpUGPJwbtcFnDtjpxufxh1Bk7qhZ4Q3vOTsRek+N6XbtnODi/SMnTUWl0sXb4SP6owuIe3hpU4MUWEsxo1zehzbmY/iGvu8mV6bWsb8tGIaC9DpYxu202HYb3qik1RdRcdO4IedJXXM+jFnGle1Pu3NkfvUUwdPhD0UivAQL7i3VdpDWW4u0g5cQWpiqe39tL5PRTlK867jYrwe55Kswnm1jG1oes2qvc7qcWF6Ld17BSBqYgg6aaW2VFGGgtQ0HP5Eakd2XgjPqAD0GdEZnXTu0nEhFdwqQd6ZK0j6LhcFN5TbWKi2T2UoupKB07sycS1bvY2z1GWMPBMHzg/W6nVcOFIPjrSh+mrq82QdWYwdWSOrc6vpuChIx94VmagYGoqh93WCtzgn16V9Dw3GoBGd0MFbnLfFObwIVw5exOn4EqcG1N17+aP/fV2qjiPx3NKv4OzuLGRmKbeppL5GxUeOY09cBTo9GIo+fXXK+0yFdPwlXsThrwtgM3Zo/b4kn1OykbLjMvQ1dUl3cYW3dJz3H2yqC+muxgJcO3EFp78rsHyfsRh3skrd3i/q855UdVsLdTneHawHW69TaYWrcjw6ccxPlwAf9J0SUjVJm3h+t9pA7glRbf8cqweL4zbLFb4/646ogTp4SvsiXtsre84j8YjtVu7QcVGnNmRnX2yxs3/V6046t2ZfQ+o3V22+tvWrBxcEzRqCwSEuKEs+hW+22apdF4Q8F42oLkBB/FH8sNeZZwoiag445idRC3DXjvnpOQAPxkTA61YGfvxqPzJ8emFoaHvAmI1kjvnpJCJ4NBCDxwYjIsxTWm8LXX/T+JvKmJJi/L0gdTzOILPxQB1iGsetprGvrJnGy7JS01iXXtI+BOnaoqKdG3rFdIN/eze0aSOuaYM2Gk/49dGh7eUsZFt35+8SgLG/iES3gHbQuMp3kEj3aesq/RWcNOan9CXz3tkRCPKVtiMHQxRtXN3g0ckP3Qe1Qe5PBSix+/NkW/gOq8OYn1aUenH+2Ibuo7tjQKi79MCZOP5BDooc+lnVNK5qfcb4c+Q+9SDaw5xeCO7ojrYuVe3B1VMLv55eqDhfvS249Q3FuKfDEWR+nzYuaCvu0ysAwf4FuJxsrAp41TK2oek1q/Y6q8eFxnADmSHhGP9AJ2jFF2yhjfSl3tcPwYGFuHCqFBYvh4s7QmdH4Z4hvvDybKseF6JctL2O8HWxcYzbqgdpG5oOPugiPffbF6R6KFSKHVN1HpLPPabjvZ0PupnKTJeoW8gwP3c4cH6wVufjwpF6cKANOaQpz5P1UDmuYq2szq2m4+KmAaXdwhA9zAfupnOyqX13NeDSiZtWwWNXBD4RhVHDdPBwN523xTncHR26BSA0pBCXkpwTcBaB3fsfCLA8jsRz0/kgKNyqnQrqa+RWJh2TI3shKkxb9T7TRjr+Ovujq61jVuuNwb/oi55dPMxuL84pXgiM8od30TXpNbZx0tV6IWreAAzo1cGsLsRTdIdXkD88bli1jcpzkSV7x4VpTHDl2DR9XpDKI6yOWeliOZZ31fuXhdo+FzhUD0p7GDNGep+wep0qj0cnjfnpdX9v3P9wF+i83FD18UF6fqaVavvnWD2YjltjVh68H4lCVLgWbuq+iNe2Qw8/eOVn4eo187pw8Liocxuysy+22Ng/r3t7YtzUYHS0qDvp3OrlLb+2vi7XcTndsg3Wrx5uo/CWG7pHSsdfhwrkH7wBg3VTkd5vIif4QluRi1Of5Ei3V8uJqNVg8JOoBbg7g5+eGDD5IUR6lSPjwJfYn1EG+DP46Xym4FHdNDho5kjw04GJfpQPxW2g9Zc+6N4uhn5HEuK3XsKZE3lo28MfOg8NdO0KcVb6klnJRfqQP7cnOrlVoDT9Ag5tOY8T31zG2firuHChDL5RPvCQnrFTgp9SPXQOvgn9d2k4tvMikndL+yZt53L2bfj2EuNlesOrTSb06dafzk2aU/DTBUHjwhDoLX2nOZmGpDOOnq+aW/BT2q9He6Obz20UJJ5G/MYLOCUm3ZHbQwHKvTUov5iHPPONan0weGY36NoqE/Uc+CAVSeK1TbiGXE07BAZ5op2/Du45V5FlSl1vYPATuo4I7eKOihuZOLYlGUd2XEZ6sRu69pDavq8bbp7IxQ2zZu77aBSGdHcDKoqR8X0KDm6V2t/eKzh/NAfXbkrbu12EjItmbcPFA33+qxcC3S0nHzp/9DoKfdujs58WfhFA9k+FuGmvudaqHuch63OHIxOBWanTceFQPTjQhhzVVOfJejKmZlc9r/O3ECS3dZHlfApHK5+vuFidV03HRTtv+Pm2RdnVi/jpwzNIjLuC9BK1ffu0RYlV+3a7Jxxjh0qfE8wn3ZHPrWXw7u4DL39feJdl4cplhxurop0OA6d1hlY6XtI+O4kDn0vb+UHaj4RMZF43wr19BXKSii3f40zHrI8P/DxuW7SjyxUeCO7mKR2zXnC9lIXsyuxrV4TE9keEr4tFHVSdU7ToEO6OkmPXUWCRqOaG0NnS/Tq6yHWR9vUZHPg0XX6O5xOv44ZGg7b5uci+pt5cqOdEYHUPbFu3w3Jc/6lqO2eL3JR6qfFzgWP14H5vT4wZJD12RQHSd5zBoS8uIkU9393w1SFIaltOCX72DsV9P/NF24pSZP4otTvpvCof66I9uHohNNjdxv45Ug9Vx237MH/4eoq6PYsfRTv6PhNFwf7orHND+44lSD9SIm1B4dhxUZ82ZLkvGZ4+StsQWbWr0qr2UVys961LIEY+HCh9vipD7mHpPWmzcp6sPLf6toNncDuUJkvHeol6H0m96yFbOi6HBkjnNA9U5GYgyypT331UKAZ0lU6aF9Nx5FgD2wMRNUtV6SZERM2IZ1QMRnSSPk5lHMDuU00d5rybFEhfQtWxNuWu7uJLqTr+5srzkEO92efxH7Ws9q5vddShG8bJYzVaX5w8dmNFEc5sSEJiojr5wo1inD6ofuLtpIxxauI+pgtCpM+9yE7DDx9mIy9XzYGoqECZvgRO/Sh8NQsH1qTjXKL0uAa1TNpOcfIVHD2mtHddgFb+3/y5oZ1akXlXzb6ZtHhu0HqLj0llyDtThGLT6CNyeyjAuU1pSLMa/sD73q4IFLGAK+ex7+N8FJhe25vSl7pvzuIn6fUWjxsSrXPeBzAXF+mL3EX8sCodGVeUNlt65CrS5OCJN3y7ykUKX3/07S2mNSvCOem4OBpfjFL1W2iFoRR58ek4vNeypbtEd0GYaIrqPpnGba0wlCDj49NIFHWg7YyuvZRyx1Sdh+TLTrW/sOgeaV4uLrV1i20kjtVD/dvQHVGP8+SdUHbhDPa+l4Xc68p66WFT+/aBf5hcpPJAxD2+0v8SpG07WzXpjnxulc65X16RzuMu6DTAB/KYsg2h08BTvLQ3b+DqGWk76tsFbpajIFF6H92UXUM7rUDB4RPYY9aOiuPP45g8xIAHOkWaPbtQf0R0kTZkuIyfzOqg8pwiAtMuvug6VBk6pVLfIET6S/czZuPoP8/itBhewfSWVlCCzJ1SWZKy7qiib06ZHZvHcUYN2Ipu7xbHrHSp6xAUdjlUD16IHCYmYSqD/vNkJEnn3zKz812R2eSODeOK0DGB0tFegbwfT0nn0OKqY120h9xGel+UqqPg4AnsNbWjinJkfHdFaXe+7VHVA93B46IJ2pDYiaD7Q+RzTHFiMg58U3WerDy3ivc1Fx+ED/dQrrBW53ooweUz4rVwRUiU9eSLbujSW7SVcugTnTMEAhE1P9LpgoiomfHsi/uHBEifVzNwYPepJs/wvDu5ob34hGi8XTXuU8d2EB3hkV/m3MBfEyo+dh7nrqgrJpklNr+U+oaoM9WeyLuz+3tb/XbRVvnX/Lmjg+nbhfrU60KM12UZ+BZjdwoB6iRGZpeZyhcVR+7juFJcFxnn0v6FPtwb/Yd6qBOA2eOGgFDx5Uz68pSQV3Ucmck7dk05nwV4QyeXOEHxFRxYk4Uii7ovRaEcHHCBi1k7cu/XEXKt6DOqHxd2+IUqzzQzydY+lSPvijiaXKHr2uBwUrPmWD3Utw3dGfU5Tza9bCRtybcaB9PUvq34e8NPBKgLruGS/GOelXMFyg96/u0bfvxlGZAnAi2eXTDshWAEhUjHmnJN7W5cwlEbPyTmXFbGF/DyrWpDnj185ffh4pQc5Nk4v+alK/fRdbH8scy3l790RpLud+oqMkw/wrRgDtVDFy/4iuOtOAuXkpWiRuHSHv7+YiEPlw7ZOvM3jtJTp/DDbqt2dFU9bqXGWNkeHTwumqYNeSFQBLVRgIsHbAWJpffTpFx5yTPY0+aPFnWuB0nBoavSliShHRFofoWvD4JFfNhwGRdOKUVE1PqYH/ZERM2AJ/rePwJBbuXIOLQbTPpsKu7wFD+9l9ysCvx1dJc/aBaZ9yl0FlsZXfLFuZPWVNS5Z6O76LEsKcYNfT0ieA3gEuCNiJm98bPfR1sE7eo2OUhzUoZi03Hayj5V5H5+CklXpS+z7bwROmEAJvx2KMbPCUVElDpphgX1GEIJim0FZoQrxcoXL00b+UulU5SVocxGk83cpBxT5hlXHaQ2JxRlFdcxTu2GDr7KjgY+aBZYbtHt1RGO10P92tCdUffz5J1QUZVVWZtADyW47x1qp2eB6ccSJ6goQuKW88i9KbUO3y4YPCsak14egFFPBKjBnPqrKFWHDPFyqwzyeIn+vBLPIQNt7I90sTHJlWivHQOUDMiCVpKN71A9dFJ/wM02KMG9xhLgrmRHFxQpAfEmUlZia4gOUxa92Wcph46LJmpDHdzgIR8u0vumEuOsLsOgBDI1bW2+b9a5HoTcXFwQP/S4+KNrdNVx6t7fT66jguO5yns0EbVKzeRjFxGRwrP3/RgW5Mru7k2kKpOuL0JEhoR5d/QH5VQGeA1Vv2wsCLjj3R8bXz2+aDeA26Bu+Nmc3ujVXYzv2dLfim+hTP3C5+1vKy/DNlNwruqSrH5JMRt6wXRRZ+J15D4NUlGK9H8fxX8+PI+0KwUogys8AwLRa/JATPp1GEKUQ0TlAtdmnq3rYja5Vt1It7fqTXt3akA91KsNUYM09fF3JRcH/nYYP+y9jGu5Zaho6wFdRDcMfW4Ifva0TukW74ji8sofIet/zAqt77h1rB5UTfGmLtxupr8iOHRcNFEb0rRt4qZagSvJIsrqgk69Ooi9lLijaz9v6apcnD/YdJm7RNT0HH8n0YbArftYeHQKROXklUREDdQ1LEieadQ1aDSemTcP88wvY4OUG7Xvi+lq2ZTeShFRw0hfjuTkAU+095MLLGndbGYcOMYDEfcGyI8nJm448M8Ei6Dd3sPNo7Np3ZXhepaSeeEZqVMyTFqZ0vRcnH4vGd+8eQj/2XIeGQVSe/H0R9QU38oMLbkrrjzTtwc8lREUquviqdRPcd2HknBmdmBRrtK23KX2XDdV3YttjeNnfnHaeMDNUsProW5tiBrE1FXfbs8C08WJPQwqylEQfwU//fModv71KOL3ZqG4wgXuoT0QNaJ+YR2vTkqX7bLiqknjTMds0eHjNvbD7GLxY09Ve3X3bh1RUIfqwVSNHaRzsrpozs3DSe/q0nbk8Gp7O9vxvMNjXTh0XDRRG8ouUYe2cod71eCcloK0yg/vRUanDINVkZAJvRj7NcQXXcQ476E6hEjbLjuXiYwmzNwloqZX/4/U2hHoOGsZ+sx/Gb0eewLhz76GPr/9HwT0deoUFURE1AQqM+neS5c/VJYlV01goEyAVIxz76m3uUMTjTQNUwDPBb7yuI1mXNwRMSsMYjgopzCNvyXV7cVvspBrmlhJ5eLqxGhXE8lNzpZqUKINwcAJrTuUU5qai6Pb9MqXsADzyRTE+I6iDbkicIiPzWC57/Ag+ctxmf5GVTfM4ltK3aEt3MQXMTNe9/fGwFB1xQmKLhXJ23LrFYgQyyEC7cq7ooyl5xt+N3Rvt8+Z9WC/DbVypiCRjbbuFFcNyBNBjQ4d0clpJ+x6MJYhL/4ifpInrZPeS6zG4ayRiwe69hZtqwK5F6reaU3HrJfoJaAU1YmpveoGBULX8t5SqnGoHi4VKufZju3ha9XeRO+LYX2d9F6VbcAN0e5cfODXXSmq1CUAI8Y6bYRnxzh4XDSkDVWYAs8a11qCDQZky3Or+aD7CFuvhxtChyhPuuBikXr+aKCKIlxKFj9S+aL7PW7w7ttJel8uR+ap1vsJl4gU9TuVtemLjjNiERTgKd+x4lYZykWGfxsPuLoqH92J7mb3BXfC8jGD8a/778H/GxeNxyNC0aYNU6PrI2XHaqxebefyQ4Zyo8JT+FQt+6oxB7G/m6hjY5UaTOdyV7jL3/ErUKHOjtra5Z5RAnju/cPQp7eb/D7n0sUHUfMHoFdHacUpn7oluaVK0APtEDDIE+7qO7FbiDf6/NdAjJXKWpzky0hKV4LH3kMHYNwTvtCpYyQKLt4eCJwQhnHTWlJeqDeifhGGiKGe8JRn7Fa1c4PvIGXyDeQWQp3gWJZ75LL82rqFRmDMEz7wNsU+2rkjcGpvDBczrUtfvNLizb5k3SgVCS0SX4Q/qLYHjbSNSb0x9h7ven5Qq0XyNejFxBUuvoh6oSf6RJlNwCPtl25UKIaOs/wCWnr4Gq5Jbd+tV2+MF69rQNXELi5ad+iGBmDoL0LRSS1rrRyrh/q3oVbNFCSS2nofqQ4rjw+nEUENMT6hdC59Tm3fpqCXi4t0jvVC2NReGGbVxh3SPxTjZgYgKNzdIpDr4uuFrt2VgrwsO7PEuHnAy7z9SPeJeK43wkR93LiEFPOZ0c+ox6yvdP78r0AEhrhWZYO3c4V3b3/0n9MDYZ3VMlXpIaW9QhuMEfNDERIuvaep93PRSufjSVL99FfWWwRH6uFGAa7K40gq7c1LvCzi3DqhJ8Y9GAA3p3WHL8LVC+L9zx1hD3aBr/i8ID05r6FSG5nVTWqNztqOoxw7LhrShoozlGA1unTH0FE1TfQmZldXBvv0GtIXIyZ4wVN9bi4dPRH2dF/0FzPO38xCihO7pOclZcrv1d4Dw9C/l4cy0RG/TxC1em0iInrWeYASl6EvI/K+EPnNuvj4OqT957j0CIHw6OGLknNiajRP6QuO9MWmMLOZD55O1DgWDOiJc9KHrXN5RZjYLQh9fb2xOikViTkNG2q9tJT9MGS9pyhd30Xwc9N+5KjFTSUsLAxpaWnqWuvieX9fjL/HC9d2J+Cng+LTrjt6vTgQEd5iLEUndhHsHCB9cekGL9H9qo6ZpGJc0qHW2RTWrB7PdB/RRa5aN1S7z8ENoS8MVD5oW6hAwcETOB8wEIO7F+HMv0/h3FX1Koe4oNMTAzEswlZuYAVKb9yESwdPuEmfxM278DlSD14T+tZhQhonvcYiQ/aFAehlFvSsxmqfLHljqDzxQn2ejyP3qSvTY9tRIbWFDVJbsJolW2Rr2g1aVpQi4+skHD2mDBNg4iUdf+Ok46+a4iycu9AeEX095e7W5pMXYVA3ZZKPehxLsi6+GPFUj2qZUCa2jhmRJTVe2pb9TqJOrv967FtTHhf1rwfH2pAjmu482TB227q0BYtzq2n7dtqW6blXOy7EeWie+MHK/nnI5v7Wl6mN2nNdqrfVUr2Zx71qu8/NXCRuOA+9nAlnpksAxoogmt1dsv2+5NY3FGMeDrQ79qh13TXs/UKq9wUD0auDjdfEWuVrW7Nqj+NIPfQOxYRpgdWPWencenh7CSKfkJ5Hje9LdeTri1Ev9KieIVlRIB3jV9HhuV4ItD6WHKyHGo9bexw8LurbhqpI2/uFne1VO6e4IvCJ/hgaYedHCbkOk6udJx2qh0puCPv5YPRRM2EL4o/ih71M5CJq7eyfAatxgzZcCXyi7Cwyvz2ulI7/FXQeIvApjEXgvF/Bp8af/wPxRexY/KtHD8THTkKSuEztgWfVa2Udza6LHYwlavGzQ8ciaXwP/GtqVblcZrrt+KqPlxblYnviVziZje2b3c+axeOoz3PJ+EmIHxqoPg9xqeXxrfePWq01p87jm/RMpBUU4fC1XNyquI12DRmknaiJuLgp7bSi1PRNzR3tRZJewU2zD6itXRnS1x3H0XMF6uzZFagw5OLMJ9KH4t2lTszdqMC1TxLx07F8FN9SH7WiHKW52Ti97Th2f3oNDfxafmdUlOLcPxOwZ7v0xTi31GwG8gqUFRcg83Ay9m6r6QumndlZa+TIfeqqAEnqJDWlxqpXv8JYjDzpXP/DKttBq6Ldydj9SZpcB5WJRRVlKLhwEYf/LbUvq8CnULQ7BfGHc83aQ4m0jTPY8+5FXCmp2rZTiElaVojnkSsd3lXPRdmvM/jpu+qtr+zYRfxnXTLOXJDqwvQcxfFxU7rPOWm/3rvUCPXf/NS/HhxrQ61Z0e5T2PPNFeQVlDnxnGpGnIdWi0CG1TakY7A0Nxdpe5NwwEYbr7dEvTrRkdW5riAf6XtP4D/WgU9zFhmHov0o58c9K2wEPoUrWVJbOYHEU/kosmhHpSi4chmJW84i1cYPcmWn0rFnVRJOnzO/n7q9+CQkJapFLYUj9ZAs1cHHF3HNoJ7rxLn4nHJuzXTmhxupbcWvOwO9mPhKrEvv6cX6iziwSgTtzF/vO8TB48LxNiRt718ncNTqtbKtHJkfH69+Xrgl3gfFebJ64LPhynDxuGl6+QJcTmLgk+huUI/Mz57oOO9XCJK/DCfgzOr3gdGvISw6EK63i5F79BS0w6OVLjyS698sQMYJdcWCCA4ORpjhLP738/OQHkUOJk7DUfTfIz4yiut7ImfXD3heDLTcYzCS+hXIt8XQsfhdL+AnG9eJx6kkyocD2zYexetiXQRTJ3rjW3ndevvKOg7txCPSJsyJwOfvgjOqnufQHkg7fB5h4vl2LrJ8HpXbq23/6G7xaHgw7g8JxNqTzPxsLVpz5icRERE1onpkNBNR43If1xs/G+UN6M9i54a8qqArEbVa9UhJKxE/Glko2/8G0k4UIH/PImTt+wzpq3cjHwXI+vxtZNY4bkYRfvqhKmD5+vGzKOgcpGZy9kTY1bNKUFE4n4E0rTfC1FWYX3e9AAXm18m88K9+gUg7pAY+hevn8e3VQAzsoa5bbD8Tx68Cfj7WnQ68MDYYls/zcNVywZmjZs/xLH4y2Ht8y/2ju8OoIH/EdO2M49l5OJGrDBhOREREREREd5BWh6gRIqOrBGnfM/BJdLeoR/BTj5KryhQN8O6FDkHK6Cll8f9A1llp+XYBygsOI3f3buTr9SKLvu6uF1mO3dd5cFVXc5FFCS8EV3YrN3P9PEYdAqapt6sKLkqPZwpMqkQ35OoBToW4rjov+GmLcNnqcWyTbldTTz7r/aNWbWJoEJ7u2Q3Hc/LwYcpF3L7NAXCJiIiIiIjuJPdwfwz7eU90cgHKktNwOl29gohavXoNRliacBiFchzHG4EzlyD40V8haMov0GPBEnSUg6F6lBzdjbL69tDt6AU/QwFMnUkLzvyA/ht3ml3U7uW2nD+q3EYEQSvH1pQezypYGubthZz8+nYwsRN0rUa6nXf1gGslq/2j1utnXTvj4e5d8I0+E2tOpuJmefWx3YiIiIiIiKgpiMnnhmOydPnZU2Ho1A6oyL2I+M85+ATR3aRewU9c/wwZBzMhJ3W28YZPj57o2M0XbtKy/wOTa5j90poXhg00TTLkhX+N7QlczpS7ib+flgH0Gmw2gVAdVXaBL8IPl4sQNtwsE7RjDzzQORPHrcb0tEWZzEhkiIru8NLzHFs1WZEY89O07N2rZ+XjPzt0MIYhAz9UBj/t7x+1Xlq3thgT5I/UgkIcy85F1/YeCPX2lMuJiIiIiIjoTqmarGn3mhomJSOiVqkeEx6Z6TQWukEDoQ0OhvutXBQkfYbso2fVK2ujTmh0pgjDeqkBwqtWkwHJEwiZzcCuXi9PQOR9tuq2Frczm4BIIt+2l6mbe2bV5EfWEypJxG1fwFGMOlwkBz8fKPhBXhbkyYo6y4uVz0O5zVnk9Oqpjjdq4/Fr2j9qlUSg87cD+8BLYxns/PS8HjsuNmyaQk541DxwwiMiIiIiIiKilsWx4GeDVA8+tjTWAVJLLX//qPlh8LN5YPCTiIiIiIiIqGWpX7d3IiIiIiIiIiIiohaCwU8iIiIiIiIiIiJqle5At3ciqi92e28e2O2diIiIiIiIqGVh5icRERERERERERG1Sgx+EhERERERERERUavE4CcRERERERERERG1Sgx+EhERERERERERUavE4CcRERERERERERG1SpztnagF4GzvzcPdM9u7Du4DFyJ4VBQ66jRwrfyZzIAL66YjK0NdrRQCr6nvoM8ALZCfiNNrXkaRvSY7+F3cMzlcXamStf1BXDiqrjSmyFLs/nMpjvzJG4tS1DIiIiIiIiJqtZj5SUREZrRwf3AVoh6Ohr+veeCzJg/Cf4BWfkNx8YmCfx+ltNkRgc+/ZqFHhxIMuZe/+xEREREREd0NmPlJ1ALcfZmffhg9czr6tldXbbn8PVbvaNrUvbsi89PnZUT+6j74wIjrP23GhT2bUWZUr7OrHpmfFu5DwK9eRnefJsj81N7C5n9lYaQOKDgYgEmvt4Vevao6LaIenounJkejd2cdNK5qcYkBWWnx+PSDtdh+wqAWSuauwM5Hw4EbCVg243XsVYtrpY3C5LnPYvrwMAR00ChlRmkb577D+2+vwt4cpUgxDks2L0J0B3XVXEke9Cnx2Pw36/s4aPwSbP1dtFQLVoxG5GUcxlf//Bu2mO+/as7KnZgWpq7YlIptk17EOnXNgt84zPnlDNw3IAA6D7UuyqXtXU1G/Cer8H6cHvIWTXWdtg2TFth6pKp6Sv1sEl5cq5a+vhWLhlfbIxiluss6/BVW/WMLEqvvksR2WzDeyJLr/NN311Wr8wbVQ33Ye53MmNdBFR3GPf8SZoyPQojOrK71dl5bB9pDZR0YU7AldiE2WFxt1pZLErFu+qvYplxRRTsLyzc+hUj56RmQ+O7jeHWHfI2F2uu6iuHQMjy+pM5Hpx31bw+CbtwcvPTEfYgKMbtPnh6Hv1yFv32UqLRtlWmfbL92ksrXw7Id2asL8dzS9r+Ppe/uRZ5aVo2tc5HUJgw5eiTGbcC7mxPM7lvDucjE5rnQsbojIiIicgbHMj/b9MbA8Dfwy4n/xh8fUS+TV+L5vo8iUL1Ja/D0W5uw7nej1DUiortAWFf4iP9XvsP5r+sS+BT0KPp8On7684P46R91DXw2rd+9noeRunKUpvnhVzUFPrUxWLRuI978eQyigs0Cn4KHFgF9YzD/hRlqQQP4TcaS//cm5sdEVgUbBI3YxmQsWr0CcyLVstp46BAySLrPOuk+3dSyxqDRQNdtJGa9tQZLYmoKudWP7qEl2Lh+EaYND6kKfAqu0vaCozD5pUVwQo3bpBF1N2YW3lyzBNV3KRKzlr9nsy1oOgQgfPg0LPrvOWpJC6GNwvy/r8ei6dFVgU9B1LV4bf+yBq/V9bW12x5GIlCnLmrCMHCa1eM9NAF9TIEzDy90VBfNaWdGy4FPww0RFtSi95hpyhV3lCPtQYuon6/A+kXTEN3N6j66EIx89k2sWRwj3arxiOcW+dAirF85R9qD6rQD5mPFBhvnIqlNaAPCMfKZRXhpvFrmsFZ4LBEREVGLUv/gZ5sxeGjs7/FQvyD4iM9IxjLcLCnDLXgisMcAVB/JjYjIUYU4tW01Vq+2cWnirM+7hWsH9Wt4aREqlKWW734Dno0qkd6vfPD52+74Ti2uLhqLVr6EcUHymxvyTm3HO7+fh8cnTcKkSY9j3u/fwYa9KcgrUm7tuEjM//McRPtJiyVZSPjgdcTK24jF6x8kIEt6qvAIx7SXF0nPqDqRETZJvr10mfUi3hD3EUFqTThGPRGl3MgZRPaWaTviua3dC70cDNch+unf2Hxugsiwq3x+Fhcb2Y7jX8PKX0ZDJ4Ihcl28gRdnKbd//IWFeOeDvUjNK1Nu6wQWz23W61i3Vy+90hJdNJ79leUeaZ95AdMixfFgRNahDXjj17HqfZW2sO2QHoZy5ba21KseGsLidbK8WGYOahHz8muYHCG173IDUne8g3mPi9tJ+/POdqTekG7iqsPI+UvxlK1oXJ3bgwZu4tPljTzkGTUIGzTdIrg3eWQPaI3SdWJ7NmkxI0p8mjTg9JdS25aWNBHRsBX+XLegal/ly/8mqFmUIivS8rqGZn060h60MYvw2sPhUo1Ie3NOOp+88LjyXF54B9vPKc9UN2I+ls6wVeGOMT8/iO1sO6XkbGrCJuOFZ6y2020O3vrzZIR7SMtqm1ioPkf53LJ2OxIvX4e9I9DiXGR+scr6bOixRERERNRQ9Q5+BoZNx0A5LagMlw//FW/vmof/i5uHt3e8hi3HUy267hARUcvS1r2msQYseT/9Ne75k/XlXXir1zuXDu7D/obIl77EMHVb0Ys2I3T0FJglEdlwG/+YkS89J1dkx3th0UW12IbIX83HuACxZJS+1L+C2N+vQtwptbu19Fd/Kg5bli1E7CsNDF099Czu6ybCIVmI++NsvF7ZpTQPCZtfx+w/xskBHwSMxAzrYIW1nFT8KN1ns9rt2KtDiPzf+aTn9tkyLPw0RQkW+oUgusHxmhDMf2qk9MpKbiRi1TxRFz8iVe36aricgrjNy/Bi7ELnBgtNchKwTXo9t6XIewRdiGXX7hlDI+WgFS7GYcGSLfjxnKnjr9IW1i2Zh8d/3SjPrHF0exbTh4o9NCDx38/hxXfjoJebjbQ/cavw4px1Std/TSSmWAWCq6tLeziP5DQjNGEDMb3yumkYFamF4VS8dK2gEcnOlrQzECW6b984je82f4NkcTB49Eb0o/K1d0z920MInn1MaVOGE+vw3K+l88ll9WxyOQ6rfv0c1snHrQaRE+3/mNAQYjvrfv8OfpSPKQ1CIix7M02eOwHhYqeMemz/o9ImUtTnKJ9bPluFV1+Yhzf2KEWOanXHEhEREbU49Qx+DsGQEPVr7bWD+PRKMm4pa9L3ywykpn+I4+qqfbF4c/NavPzMIqzbvAmbxWXNIlh8HBtjdt3m/8HTavGo363F5rcW4eU1VeVymem2b8UqN5RYlIvtjVGvsLV9s/tV103dnvXjEBG1AkFL0c8seDlomBqJCJteWVZ5eXqucl2T6w3vp95H1IO94eOtqXzjcm2nQ+fxv8RA6XnZDYAOvomRIeXSl/v22LWipre8cZgxQo58wnBiA15Z23iZxU/d31sJiBz7FO/Y2kzKO/jqhAgpiay5KUpZLbw0bvL/ohv2RzJ1BsOVQjULTAOvnvKC44Y/i1HBYsGIlJ1vYPsdGe/PgEs31Lw2Dy/0UJYsaTRorJByU4p6IlrZj8vfYdVnaoDLnGEbVu2Tw+7Q9bwPdckhtt0eOooqk+3flwyjJhLRM9XzyozR6O1hwOndq6DPFQUdETBcvqaSdmaU3IvIkJaAvUjEd2dFoEyD3sObQ9d3SV3bw6AZiJbbtx7f/XOb1NKsGbDtn/HKDx1+4bhvkFzYCBKQWaAsuXmZDTKgnYXxfZXXJe/QOqyyMY6v07WSY4mIiIhannoGP3vATx2nqeh6Mhzv+afFwDHA+hkzMUO67Lg+EAsqA5CxeHN+BM6tUq6bsRN4yDw4GhoBfCCu+wM+fOZ/sKDnOaxUH2fGKxuV24jyIdnYYSpfdQ4R86uCqJbb34GLoQ/hzWfUq6xoh4xTtyc9z3Tpfg/VFCglIrp7FHz4IA7+Wb2sS2jAe0LNXEe+jMieGrjczMSFTxYr23tjLo58koDrN6Uv9GHTETayt3prS4/E3IS/WEhrhzU1fbcfMxo95Pc3A07H2QpUOMtI9AiQU62gP7ldKbJhW6oSxNToutYYhNIGj8S0Rasxa4D0mMZUxH+cqF7TOCL7dVWyI415uHRMLnJYyPBwJeuzJBn7P2iCwItNkRgYogSAjHmXYF5735xIVbIag2Lw1qqXEBOsBvBaqOguSnA/63y83TFv9ScvKW1fFwjbR5Ql2+2hI7xEN2rhs3gkSw8YHjVDup0Ws6LDoMlJxHa7mYSmLu9GnD+sHB8Jh87Lz8le1/emUu/2MDgEco1nScelvYzzi8dxSe7+r0NgXcf4rS/tNIQrLz3yMpOVBSGmN8LkIHUWEjYnyEWNpbUdS0RERNTy1Lvbu3MYcPyDZYhX1z7ccRyG0L5qJuc4dEvfi7f3Kdfhg1O42N4H3dVVmF93MR8G8+tko/DymG64uPMP+FAtwb5l2JveDX0rA5zm29+IU+mAf4DtiY0MR96r3N6Hp6RPrx27WGapElEjao++0+Zh3jzlMufZZzD9wdGI9K25ozPVQ8ZinDQFMKXLsZ/UIFTap1WBTdPlQ1tTDze2Keh0T6D0ZmWA/pNfIuu0+iW9Qo+y04tx9vNElEqrvgMetpn9OapLsfxff8GthtndJT0DlEAcMqE3C8yIWcJ37txpedm8BOPU6+uvDwLkDRlw/bJcYFvqdTngg3Za9XlVCX+06rlsXfMa5owLQVnaXqx65UWsq6Fbf4P4hSPmlyuw9EElipJ35EtskZeq0w5fZFlfpotVvYXrvJSFLD2+UZaalC4iBvP/vhQxQWItD4e3W+6R/l+vYNUBpXuuplsMXlqzFRvXvImXHo2u9prYUtd6aLAO0Vhkazs7V6BqCpmRCBRjzEqKcmsIkO/RS0eAROMG9dWxrS7t4aZBqtXtiD8rteSwKMzwm46BYRpknfwKdkNt3Z5FtOjyXpKMhM+UIuz5DqdFgPAOd32vb3sYGaRmWRZctwiqW9qrZsBq4FZjhTtCi5ART2HJylmIErFG6x9H/LykrUpuXMJpB88b5ucii8tKy8mLGnosERERETVUPYOf55GjDlDv1bF3zR+M62PfFWSri7LQh9Ru5uLyELrBH11sdTfftwxzRGaofDvzzE4D8q0+yF3IMdgNcIrr6kQEW9VFImp6ru084RfaF/c+NgtTB9R9bEpqwToNhK94syk4jZw0G2fgs+eRL/53UjPQLJQjJEDMouEJfXIbpcge07uhoUgJ/jS668g0/ZDnBNqwcZjzu9cwWQ1wOYV5UG3DCrz0ULhcx4ZTW7B0acMmjxF6+KuvWIWxyd5bzQOSG//+EiZHSM+h3ICUzUttjGtoQNzSWMQu24ZEdRxEMft8zNwl2PjpRiz/5bgWFLhRJyGS9un6Bbmg/urbHgxK0G/77tPSVsMR9YeBCNNkIdEiO1mLjma/YIc8FCV3izamJ2KbUiTZi+9SRP3f6a7v9WsPGhel77/hujK6aVOpCkhuxerFsxAtMs1LsrB31SsWP46MCwpUl0SebWNrTccSERERtUT1DH4ewRG9OnBQp3swvUtvtFXWgDZBCA99GgPV1XoZ0wX+hfkwfR43HHlX6a5eeZlble1p7YM/KLex6B6vhU83eaFSdz8tsrNMuaZE1LzlYP8mq9nd//0BPt2ZgEuF4noNAoZPQrQ8+Rq1aoGB8BT/vaMxyHoMUvkyXelaatNt9b+kcoDqWmi9UBUSAPYuUWc+FpfPUtVSZwhEyHh1sZ6sZ3t/59NEeYZ4TdBIzPnvOY04pp5B2vYbeO73G1DTiKh2Zzm3mgH6epEacnHR2AhcNxFDKrb9z3NY+IH9Pcrbuw6vvvC4MnP2oVTkybPx6xD50CKs//sc2OutXNd6aDC7s73bmlVei46iV7lT2GkP40MsjiHs2Y7EHCA8MhKaywn41DrLsPKTaAimRMmhT6Qd+0opUu093Dy6vgv1bQ9af5sjyTadnASs+vVsLItTgo4mqXlVA5UoYdr6szvb+wLbkxc5eiwRERERNVQ9g59AZtqnOC6n2bgheOjv8fLE1fhtzGq8/NAbeGqgkgVQO/OxM0fh5WcGAmfj5W7o8YfOAUOeq//EQpVd4OOx/6wB3SaZZYKOWYRxoRdx6gN1vQZPv7UJ637Hju1EzU5ZMXL0R7HrkwPIqpDWXXwQ2Fm5ilqxtg68UZlpV9dv9elqN3N4oWOjTTwinMd1uQeFGzTqGNq2aHsGKu+nhjzUGHLNSUXcv17F7GU/Qp4WJmwUplv9+OcwU1Dt8Xl4J04Po/SMwh9dhLfmOidEkWlQgzG6gCYbTsYUkBTBl7jLRqmiwzHt5bcwpw67JM+cveRFxE6PlScGEqFbTcRk/HJuS5jCxdS9WmrhHjU83xg1cFlShOtygRmH20MCvklWujzrE7+qHH7ifLZlMA7dpiBKnSDo9Dar63Yk4LwcKLvzs76b1NYe9maoOeTtvGr4QSIGIb7ivxFFTprwyxSQjP3TBiSKaveLxvy3lyDG6gO63qAGPzsEokcT//rQso8lIiIiaonq/53y9j7s+OGv2HEyA/nypxU3tPNwQ9vyAlxOOVHzl7RKBhzP6at2a/8lBl7fgTn/q2Zlyl3ZszFwvqnbu3SxNxv7M/9TdRt5kiRlnM/4/52LlUf81e7w4jof7BUTJCn3IqKWzJiFHGUYR7obZF5XJlLKT8Ax6zFILS6/hNovwUwb3BTvU0JlNwU74tWxDhGAqAej5aXGkVA5xl+PAfZGftRiek8ln9WgP17zWKUmhzLVYJUXdGLMRGcy6BH3zkKsOiwCUhqEP/obzHdCgPXH80rQAx364L6H5KK603a0MxGUKdptwPUaPpCI4Ms7v1mFBBGI1oRj2sL59ciYzcP2N/+EvRliWYOQ3i3jB1NTsDGg5wQlsG5D9JAeynVXU+2Pw+pAe0h4M1YOyM17t3prNgVjTV3eAen12Grqum26zEGUPIlSM5r1vZKd9mAatzcoHBPsVfjwYepEa3qkxskllbx0dqY6M53LblxHTR3q8w5vwatLt0MvDjJdNOb+YbJyhclRvTLTvFTrUc/dqaBjyzyWiIiIqOVxLKHmdjKOp76Gd3f9F/7yhXrZ9RLeP/NZ3cdKO6R2VxcX0yztJqau7FbXi6CmxW0tbmfZNV6+beV15oHPjXjVxm1NwdcPX5lpc1kmArMvVE3URER3QKcIdJUHHC5GgToGMbViGadRKL68+/SAt5whVR+uyJYTzoqlL9VmXeBtMWxGfIoSKdUNn1WnTEDHGPBNshIA0g6agfk2tqONWYQJkSKIl4fEr+vYQXp4IJTpVSwnbHIeA+Le/gpKFYXgvrlWgRRHfPkT0uTH0yJqZvXMNJtMGboB4RhlI+CmffQ+9JGDSVI9HJKL7DPEYdnOFCUAG3wf5tc3AKsqK6qWI9ksmbqOI2wCFtmq7Mg5mDVcjLxoRMqhzcpt7aqhPXTvaDe4aouXTvTDN3V5r11z6Ppek8r2sCcB5+VKDMeEl2Ns1Ekk5jwzFHKNpyRgs1rhl64rCwE9RqnBYHNaTBvfR3msXL39iaNMUlZh3SEl61Y7aIplkPrYd0hWop8I+dmiRjzn1V1LOZaIiIio5WlIb0Iioibj6umHroMmYuYjfSGmOjJeTkCCnC1CrduXuHZaBAN0CH/+PXQeOAGu7dQwgksIXLvOgP+09xAx/j6lzMruC8rEWCG9jDYCCeYM2LJmO1JFMEdkAv51K1a8NA0jg9VtaUMQqXV0ZDxL+ve+QaLYJU0IJi9dgfkPhssBELGNkTOWYOV8ZQZkY8pX+FttATxxn0dfworfjVTvE4/NyjXOZ9iAzT8q0ZJqgRRHGLZgzdei+7REF42X1q3AS4+ORIipyoMjEfP8EqzeuLxq1vI4U0BJqrs/v4mnRoSoQSUdoh9dhOXPRsnrcj2owaSaGD7YDGWXtIh6xDz7cxxeW7Meyxc9hZhB6usj0yKkbwzm/PUtdZZ4A84fskrZa652vI94+ZypRfT8lVgyw1TX0rH14HysWDoN4aKJZ/2IzR/UpfLstAdHPll2m45ouct7FuLmq+NGWl8e36IEWz16Y/QMcdum5Eh72I7396n1M3Q+Vr7+VOX5RBcRg/l/X4ppYXKF48ePNlQGm+MOqUHq4Ml46y9V9xHd16ctWo5ZA+QWjpT42gLUioR/2PvRIgHvbk5QHkOc8/6yHm8+H4Nw06RpfuHyuWX5+tV4zcHxiRWt8FgiIiKiFqdNRETPWtJhnC0Wb24eh/xVNUxiREQWSktvqkt3i0hMmXcv5O9DNhgzDuCzHSeQL8b+bEJhYWFIS0tT11on9wc/xaBh0pfrtE9x8MO1aqktc9G9xsmGFEU/vY2TX3+nrgHeT3+NPrV1yxZd3P+xGKXqKlwmIGD+b0RCmV3W26l0TzEOL8mBP7zxxTwf/Mp6shUrIuty5fxxEBMk2yXGPjSftGbuCux8tOZZZMRYk48vqcri1Ma8hjUvjoTOVS2wYszai1ULlqFqjpJxWLJ5EaJrGCcUOT/inV+8YXYfB41fgq2/i4bWej8F7TS8+d4cRElNxHBsFR7/43b1CmDOyp2YVuNrm4pt1Sbh0SJm8Rq8NKIqJFKd5f1CZizH8mcipXvakZeAd1543aIexr2+FYuGa6u9DoL20Tfx3lwRNDUg8d3H8eoOUVqH+pbkHXgHLyyNswhCOVYPDqjpdbIncg5W/GUawuUu5DYYUrBl8UJsMJ/BqL7tQT0ebNW1ucrX5PA7WJgzA6sflM4mGXGYN+cdO0M9aKW63SrXrTFlA6Yu3KKWmzE9V2fVcSVH20Mk5vz9LUyLsHdCMSBl82KrCbdC8NRfl2NWX7stHHmHpO0ssd3uxJifL1qduiN/tR7LRf1KNbt9/jysMjsPRkqv11vS62X/lGdAwv8+jtcrM8rrUBcWbcXxY4mIiIjIWe5A5mf1budERLUqMyL/8il8/9l6rP+q6QOfdAdVfIOsVS8jcU8y8guMqHzpK4wozdVDv2ctzuyxEfgUDnrgR72IMBZgZGztjcYQtwyz57yODftSkXVDTpeqZLyRBf2xOKz7v3fqFmiqgSHuDbzwx1WIO5UFg9lmjHl6JO6QnsNs88BnDcqNMGSlIuHTZYid5YTAZ20M27AqLlXO1nRK9icMiFsai9hl25BwMQ9G8yqXVvIuJmDbO8sssln1mxfiBdPty9VCoSQP+n0b8KpV4LM2hs9W4Ru5/7159udevPN/6xB3TF+tHaDEgKxz0vNaJj3vlhasSVmHF+ctw7ZDemWmbRNDFlJF3T1nFfisjY32EOIhj0tSq7wSZcIdbce+mD5A+Rkl68SnNYxxa8DmRGUgV03YMDwlLzUVR9tDCtaJmdY/TYA+z+x+5eI+P2LDK89ZBT4FPbb8/oXq95GI88OP779aLfBZm5R/vK+Mb1st+1O6bu2LiH1FPReZtwn53JKCuLXL8E6DhtJopccSERERtSh3IPOTiOrr7sv8bJ7uhszP1ihkWhF2z7sOd6M3vvi9D35Vn+AOERERERERtWgc85OIiFo1/TYvbEhxBzQFeOQ3pbA9OigRERERERG1Rgx+EhFRq/fGH3zxY54r0C0H/1hyy2xiGyIiIiIiImrN2O2dqAVgt/fmgd3eW7jIUuz+axZ6aNyh/8YPo5fbmW2oFTBNJlMvadswaYHzpogham54XBARERHdnZj5SUREd4cUdzz3Zifo8zzw487WG/gkIiIiIiKiKsz8JGoBmPnZPDDzk4iIiIiIiKhlYeYnERERERERERERtUoMfhIREREREREREVGrxOAnEdFdTHTlJyIiIiIiImqtGPwkIiIiIiIiIiKiVonBTyIiIiIiIiIiImqVGPwkIiIiIiIiIiKiVonBTyIiIiIiIiIiImqVGPwkIiIiIiIiIiKiVonBTyIiIiIiIiIiImqV2kRE9LytLhNRM1VaelNdojspLCwMaWlp6lrr0Br3iYiaGy2iHp6LZx8dhTA/LTSuarEk9bNJeHGtuuKIuSuw89FwdaVKgx+XiIiIiFoNZn4SERERUaOJnPsWlvw8BpEBloFPIiIiIqKmwMxPohbgrs78dGmPoKjBGNYzDLr2mqovzpe/x+odKepK02DmZ0syDks2L0J0h3pkgI1fgq2/i4ZWXbUtFdsmvYh16pqJbtwcvPToKPQJDYBWoxaW5EGfkoCvPlqL7ScMaiEwZ+VOTAtTV2phOLQMjy/Zq67Vk739MRphyNMjMW4D3t2cgDy1uJJD9TAHK3ZOQ7X8u3JpWzlp+O79pVi1t9qW7GbtmbP7+vmNw5xfzsB9AwKg81ArXdpe3tVkxH+yCu/H6SFqfdzrW7FoeM17UyltGyYtsHx15df2ifsQFaKrPP8Ypfo7/OUq/O2jRHkbVRypBzv3sWBAwv8+jtf3qKuCo3WnjcLkuU9hSnRvhOiq6s2Qo8fp/Z/inX/trd4mGuQpLP98FiKlTRnObcfav76PuMuWteY8Dhz3RERERNTqMfOTiJot16BoTH9mJqYMi0SAj1ngk6jZ0CJm0XqsXzQN0RFmgU/BQ4eQQTGY/+oijFOLmgWNBtqAcIx8Zgk2bliCyX5qeWNwFduKxGSpjlbMjVQLG073kPTc1y/CtOEhVYFPQdqeLjgKk19ahBlqkeO0iPr5CuW17VYV+BQ0uhCMfPZNrFkcU0uQWNVI9VBvkbOw/L03MT8mqirwKcjPLxzR0xfhz3PVMmcZ3xshYlMlidj861WNGPgkIiIiIrKNmZ9ELcBdmfnpPwIzpw5AexfAeP08Eg8mIiUrB8VG9fo7gJmfLUnDM8BMGZo1Zl8Ofw0bXx8JnbQoZ7Wt+Qrxp5SMQ13ESNz30GOY3u861s55A3bzNyszLW1nlTrM9Lg3ErBsxuvq9nUIHxSN+x6bgcmDAiCHv7L24vXZy5AgX19dneqhMnvRfB+0CImZgd88Ow2RooKMKdgSuxAbzGNfpuxFi+dYi/FSnf9OqXOUZCHhk7XY8J8fkZojbTE4EqPGPIwpkwORKG3Ldl2anquNbEoz2pgleO8lJQPWPGNRGxyDZ38/F5MjxDVGpHwQi4WbTTvlYD2YqcxUtZGFaqHedafFrOUb8ZRIwTRK9fZRVb1BG4LIMRMw4+EJ6HjscedmTM5Yjs+fiYSmPq+xw5j5SURERETVMfOTiJohTwwYrQQ+C09+jvVbd+Oo/s4GPolsGRnTWwnC3UjAWpHVpgY+hbxzP2LbOwsRW1Pgs8nlIfVYHNb9cTZe+SwV8iEVMBIznqljt/B6MUAftw4L//Gj0o1aE4LwUfIVDRCC+U+pgc8biVg1bzZe36wG8CSGyymI27wML9oNfNZVCJ59TA18nliH58wyFg2X47Dq189hnTyUgQaRE3+DaPkaexqjHhwxA9Ei8CnRf73Aot5g0CPl63V4fb6TA5+Cl5sSZK8LbQhinl+CFeu34vOvdmLnTuXy+eb1WP7Lccrr7jRaRD35GlZv/LxyOzu/+hwbVy3BnHH2t6Qd8BReW7Wx6vlJ99m65k3MGtEYxxAREREROQODn0TU/PgPRr9O0v/8o9gZn6WUETVnGg28WljsI2XtBhyWg18ahA2aIpc1ikOZuC4vuKG9r7zguOHPYlSwWDAiZecb2G4K3jnboBmIlrejx3f/3FYZ0K5iwLZ/xkM+O/mF475BcmHNnFkPDaRpF6IuNQaR/aoGBsXFNC5ph2gsMi8Xl81LLIaEGPe75XhpejTCrSZG0nQIQORDi7D+r0/JAemG0yLm9TV489mR1br/67pFY9q8l2wOVaGNeQ1r/jILI82HQRBDBgRH4anFa7AkhgFQIiIiouaIwU8ianbad+uC9tL/wvRzyFeKiJqlH+OTlWw+jyjM+X9v4qmhzs1Na1wJ2HNOmdpG07l3o41Lqn00HIHyUh4yGzhHWcjwcLW7ezL2f2Cn37gzDA5BgPiflYr4i3JJdReP49INsaBDYB2G8XRmPTjmGySeU9LnA2LewuqXYhDS3GJ1FUXIO5eAbf94FS/OmoRJkybh8RfewIYTajvtOwG/rEuguTbdnsX04aIl5SHxgzcw73HTthbinU8ToM8rU25nTjsNr80dCZ0r5GEQ3nnhcfk+sb9+B9vPibaoQ/Tc1zCN8U8iIiKiZofBTyJqdgJ8feT/hUZPDB47FU/OnoN58+Ypl/96BlPH9oAPz17UHOx5A0tN3cf9ojDrzxuxdf0KLHm+GQaWbPgxU8lFRIeO6KEsOY82BCNnLMHKZ6PkbD3juXhsPqZcVY2trED5shVLxqu3kYTrvJSFLD2+UZYaxcigjspCwXUkKks27IU+V/zXwE19WjbVpx4cUce6E1ms6/6wCj+q2b4hMS9h9ZaNWP2XlzDNqUH7dXhxkhJMlC/S8SETY36al4uL1Rige5fORuyvX8e6rxPNhjL4EVteeR8JcqA5ACGD5eKGCQuA/AqXXELClz9Cr8bR5WET/vU65s2vPlRFyHMTECVewIw4LDYbBiHvnBgGYTHiMqQVbW+MflguJiIiIqJmhOEDImp22qrdCYOipyC6dwB8zPs/unkioPf9ePKJ0QjgGYyagZS1LyL2lVWIU7MolVmzRWBpK1a/+pQSMLlrhGOaKfi2dTVeeyYaAWJ+nYy9WPWHddCrt3JUD3+1MiuMNrqiO4/GRekKbbh+Xv5ff41bDw4zxOGNWbFY9mmiEvBz1SFkUAzm/HkjPt+wHPNrGOvyzlIyVmXOOO8fSoZePKRHFGb9P2m/H1QzimswoacyVID+8FpUT9xNwXG5QjUI6dlYOdRERERE5CiGDoio+bqZj/M/7cKnH6zD6tWrsXrtenz+/QUUVkjXdeiLcUNE53iiO89wYjve+XUsJs16HeviEqEXWWquWoSMmYU3/99raPZDAZYUqeNROl/eoVV4cc4yxNUUrbSVFShfLGdjv16kBsFcNE4a+7FmWn/n5cPWqR4cUce6q5KHvf96FfMefxzz3tmGhHN5cmhR4xeJyYvWY8XcOvThbzQ6jHt+iTwJkfmERzt3KjO4O41hCxav2ossacfl/f7VCmz8aivW/30J5sSE2GhbIxHopyyFPLzV7HlVXeQZ+omIiIioWWLwk4iarYyfPsLuY5eQU1yuFFQYkZUSh52JykigPp26yP+Jmo2cBGx751XMm/E4Xv0oRclO9BuJub9rntlgMSHKKJQoyIPaObmBUrFNDrzF4vUPEuXxUHXD5+Ot12OcEqzMNKiRQ10AGnPC9L0ZmcpCOy/YnxooBiHyxEVGFFWbeKlx68E5lFnoX/91LKbOWoUfRSQQGoQ/9EvM6abcomlFYs7K9Vg0PVqehMg84b8xGOKWYXbsq1glfqzIk/bdVYuAiGhMe2k1Nq56CSMtXigN3PiJmYiIiKjF4kc5Imp2CtTsLk8v25md+YXFyoJne3liJKLmx4DE9xdi8wmlLWu7DUOUvNScTMZ9vZUIj+HiTzWMbemIPCRsfhVLv9TLWYW64XPx2kPKNQ3x4/kspQN0hz64zwmPZ1fqdSVwHRSOCfailcOHoYecjahHapxcYkPj1IPT5WzHG0v2KrPXa0LQZ4Rc2rQeehYTwsRwA0ZkHdqAN9QJhZTLMnXMTyczJGK7+LEidqqatZ0qv+6abjGY+wvzI9Y0vqvUND4zPSfbl8eleiQiIiKi5oXBTyJqdjKuKWlUPiER8JSXLAV1UiZEKs/PQaG8RNTMlRTB0dEjG4cOk/88Qx2PNAsJXzdOwCbln+twWD6ctYh6ZH4NWZR19OVPSJOjn9LjzVzSeMMJ7EnAeTn6GY4JL9vK1ozEnGeGSrUIGFMSsFlNSLXH6fXQqMpQqAb6mtLIwV2Ver6RiM1LtuBHdUIhmdYLyiisjUjO2n4Raw8r2w0IiZb/myRckkPDCOk9y0Z7ICIiIqLmjMFPImp+ziTjQpn03z8aU38WKU8UInNrj67DpmJCpAiJFiLl+AWlnOgOmbN8I1a/Ph/TxkRazO6uixiJaYtWY9YApfHqT32lZBLeaX7hiHpwDt5ctx7z1Rm+8w5txruH5MVGkIC/7UpRsjWD78P8hmY9GrZgzddKFiV00Xhp3Qq89OjIyrrXBkciRh4zcjnmKEUO2o739ynBLu3Q+Vj5+lMYGaxsRBcRg/l/X4ppcpZiFn78aEMdXlsn14Mjxr+G1euXY9GMGERFmE3vow1BpNQmlv85BgFi3XAeCXYzWRtPYnaRstChB+57UpkZX7TXmOffxPoN8xHlzDE/n1+OjauWYL7UdiLV11UEpkNGPIX7wpX1rCsJ8n+TxC8T5cxYTeRTeO/vL0nHfNUkSfLx/ktntDsiIiIiagxtIiJ63laXiaiZKi29qS7dPTx7T8GTY4PsZPsYkXN0Jz5NUIITTSUsLAxpaWnqWuvQGvdJMQ5LNtc2SYoYl/FFrFPXMH4Jtv4uupasLsv7zFm5E9PC1BU7jOe24ZVfr7MxQ7SqcrtWz6ehat0fI7L2rcPCN7fLY1JWcqAepJrAip3TEG5zHyLx0rrliAmSFi9vx7wXVlXNdj53BXY+Gq6u2Ca6Gb+4Vl2RaRGzeA1eGlHT/Nw11aXpuRqQ8L/2JgUSIjHn729hWoS9nEMDUjYvxsIPzF9ZR+rBdJ+a2Hiu9a27uryu5Xn4ccULeMOZszKZnqeYmGnG67CbY9xNqod3pHqwWd1GiOFetVpNtfZQl2Ow2rZrq7u8BLzzwuvVJqeKlO73lnQ/ey2i5nZHRERERHcKMz+JqFkqTv4KGz7Zj/O5xSgXs7sLFeUozj2P/Z9saPLAJ5Etm996B9sOpcgTphjVeblkRiPyLici7p+vIramwOcdYLyRhdRD2/DOC7GYbR34bBQpeGdTgpId6ZSsRwPilsYidtk2JFzME1VdRdT7RdF9eRk2q0WOS8G6X8/Gsk8TlAlxTMoNyDr3Iza88pxV4LM2zq6HetrzDpatjUPixSwYStQylalNLJsd69zAZ31cXIdX/rQFiVlm2y8Xr6dU13+ajXdPiu4ATrJpXeVER+bHraiHlLhVeNVG4FNIWfsiZpvanfnxXiLahLPaHRERERE5GzM/iVqAuzHzszli5icRERERERFRy8LMTyIiIiIiIiIiImqVGPwkIiIiIiIiIiKiVond3olaAHZ7bx7Y7Z3uhDpN6GLFcGgZHl9id2oZIiIiIiKiuwYzP4mIiIiIiIiIiKhVYuYnUQvAzM/mgZmfRERERERERC0LMz+JiIiIiIiIiIioVWLwk4iIiIiIiIiIiFolBj+JiIiIiIiIiIioVWLwk4iIiIiIiIiIiFolBj+JiIiIiIiIiIioVWLwk4iIiIiIiIiIiFolBj+JiIiIiIiIiIioVWLwk4iIiIiIiIiIiFolBj+JiIjsCeyHjb+diY3jvdUCIiIiIiIiaknaRET0vK0uE1EzVVp6U12iOyksLAxpaWnqWuvQGvfJZPZjM/FIqFjKwQ9r47C8wBuL507GEBHHLEnB+lVH8YW4uib9x+DzmBBc3r0JC46rZbXQ+oXiT5P6I8zXG24ugOHYdsTuKVCvJbJBbWeoKEdZfgaO7EvAivM3YVCvrq8hoydi8XAdDEm7EBuXp5ZWJx8juhNYvvYkflDL7hZOOT8QERERUYvAzE8iImqVikqN6lIJ8qxjj2VG2AsJ+fiHYPFjE7H1xSeVgJQk+P6Z+Py30uUxZd2uwH5495lR6OWvBD6J6sXFFW4dQ3DPI5OxtI+rWlhf3pjUWyf9z0PSYfuBz0p5N+66wKfg6PmBiIiIiFoeZn4StQB3V+anH0bPnI6+7dXVmlz+Hqt3pKgrjY+Zny3L2PGTsXCQSOPS44v/24f10lJltleB7Wy3B8ZOxIJoETiyI30fpn6iV1eqe3zKY4jtqQHyU7Dxs0TsvF5uP3tP44XZo6NwT4/OCGgv3Ue4dRP52RdxeN9prNfbyPxzaYeJ0f0xNSq06j7GAmSlJmHjt+n4wRTPEUSX/dgB0NrZV8FUHxbZqab7KWtVjNJzu3oaO+JSsLWGRFYRPH7x3n4Y0Nkbbho1gFeah8tnT+Pz79PxbalSJDNlPNYgLW4TFiapK46oYX8MN7KQdPAI/nlW2je1uJK9+1moaluKECz/7RiEqWuVpNfVkKfHD7uOYnV2uVpYnY9Wh6en3I8HukivbU4CFr9/DvXe9ZDB2PhEJLRX4rFgSzouq8WyjhFY/WhHHP3iEFbnAI9MmIbZ7RPkNq31DsKfnoxC0Ve7sDRTvX0r5sj5gYiIiIhaJualEBFR61ZiwHV1sdKNQhxRF020PYdjnhz4NCLr2G689c+P8EW6uEYERzZhqrjUEPgEvBDeSQQkbyLp26PYWkPgU9s5AqtfeBiPDDILYgpt28GncyQeeOIBLAxUy0w0Oix+9hHMGx1heR+NNwJ6j8LCOaMwu+ZIXcNopOcWOhixz0/E4s5qmQVXTBw/Ee/NGoMhobqqwKfgrkNw/1FYMJTpeHgAAP/0SURBVKWWzNmmJO2P1j8U90yZhvdm98NEsyp1Oul11fpHYOKsR7G8v/0N5RvysPKzY8gSK36BGCqX1k/s4DBopTZ8JtEq8CnpH9gecOuGic9Mw+rxAdDcMqKsGHh8/P147/lx6OXpCq+O7dRb3yXqeH4gIiIiopbL1dfX97/VZSJqpsrLb6lLd4NiXEo6giNH7F1S4RLWD509ypFxfC/O5tjPonI2nU6HvLzW1RmyNe6TSblfECaFtgdKMvDd0WsQccyI8F4Y4OsK5Kfjg9OW6YtPj7kXfToCZef34RdfZ+JCWXtMGdUTQaXp2Knev2btcN9Q6fbuV3Fw1yXYHyK0HX77+AOIFNnNhenY9dm3+Pt/jmPNj0nYcuQMLl4phL+/FwypF7C/SLkHoMG86RMxNtBN2p8sHPk6Dn/YfgzvHTiNc7kViOwaAC8PH0R2u4lziddxVdzFqxOmDwiApjQLB+w8/0F9+iPSR9rnzLPYdkFNyTTdT2S/rdyNtw9Iz0tsJ9OI8LDO8HbzQFCXMpw7nqNsRzV27IN4cYiSNVuWeQJbtu3D8m+PS88xCftPXkbeLRd0dcvH52cL5dvIAkLxVHgHJdOucluWl2+uqbd1lJ39+emUHjc13giX6trVMwBDw83qTii6hm1mz8Oji1JXIkv2iU2H1XLr17kDJowMhU4OmO/AK+p991/MR3hIKPzauUIX4g7Xw1eQZK/fTXk5BvUT7agAZ6o9fi3cQzEvpju8i8/h06+v4rxabHIt+yq2H07BuesVGDDoHowO9YCrfygGeBfg9N7vsXRHErZduzveb+p7fiAiIiKilouZn0TUsoQNQ7+O0v/CFBxINu/jS2Tp8s3qgfEsQw1DSLRV/980qhmbXtB5Sf+cnQXm1wORog2jCEe+isfqK0ZcrpCvAYxGHLyQipff3423zLseh/TD2BANUJGBb6XrllZ20y7HkbMnMe/9Q8gSj+EXhSd6y1c4mbSdCyl4eXcqysRqR38MNf8E4R6KJ9TAp5hkZ+7Gk9iabazsSn65MA9b9x/Cc19lqCV3WjnSCvKwPm43XvtWr+xTo9WdtP9X9Xj5s6NKfWgCEBYgFzvdkOg+CJZel/yTp7FLLauuHMaSMhiM8l4rykqkY8OIIlM7dCKttw4LJsVgoxhDV4yb+9snsXX2GCzu5wUf9TYyMcyAuP6JUGihwcThw/HeAvU+v3kS7z0WYSM7V0xSJB5zDOZJ+92rSziWz54m3V6USZfnx2BBiO2xU+t9fiAiIiKiFovBTyJqQXwQHd1d+lpcjoxjPyFHLSWyKWmf0lXdbOy+H/Zst9t9PbNASbN06xONxSJg4q2FVnqXLLthcHjW7Zq1hcZTXazF4wNFV2bAcCoRK209GUMqdp4WgRsNwno0UmRNYsgzQPnJwQNaERhWmYJuMErP49u86uNnNmNnkhJwRO733Lh1h+um7tUaeNVlTON602FqP2WioxS5LVTXv8cArPz5k1j6xFAE3ziCrccLUHY+HhsveOHeqdPw3s9jsLSP87q99+o9HGuen4gHevtBWzkMgjKp05AJg/CoWmKhQycsfOxhzBsdDh939T4urvAJjca8Z/phrFJipQOCx43BG08NR5jotm/6dOsTggcei8Er1kNICPU8PxARERFRy8XgJxG1HD2GIUqkChWfwxFmfZKT7fr+MNJKpAUXHYY88Rg2Pt4bIkHTUFKPbLA26v+a5FxCihwdbIf+D0/E0p7tLDPgqjGNJWrE5Yv2hyj4IiNb/u/W0Rv95SXn6xXip0wAZLwBfWWvYFeM6Kp2dz+bio2NkD3YuG5ib6pSr26B/naCaw2nDfWHElotQFadJhTygE7Mx1NXPXsiUrw4V07jw2qDWCqSiirgVX4RuzZ8gtjP02H0bAc3twps3bMbz30Qj7RyVxjznJT92DECCx8MV35AyEzBF5s+QqwILP7tI7y8ZR+SMu38pOAdgSGhGnnohI3/+kgORi7+IgX5ol35DMATQ2xlckptflAI3EqzcOSrbXhOuk/s2t1IEseZdDzfMy4UwcoNiYiIiOguxOAnEbUQfhg9rDvE196sxANoLp1nqRUpzcDCdbtw8IoI/rhC6+MFN2nJp89IvD3IW8lstEejwQPDB2OAyOjLycQJpdSOAry1ZV9loLW/mHDn5zFYPj4ED7grt7DkjU5yEMyAPDtBLVl2npKhqnGHEop0IrF/g0bhT6OD5NX8xGRslZcELXTqREtZWQ7mY3sPwEK5S7T1ZTIW28rac7KDeergql4dEK4sOY+LK+7p2Q/Lp0TKgeOy1JP4uMbhJAuQckX8uOOHEZPC8YDWVrCvutjeIVJ7tT3RUaXMk3hu7aHKGee93Kv6kRty0rFw7S4sNR/ItQFix0QhQAQ+9fF4beNRrL+qTgBWUY4zV/RYLMrkW1ZXlr5Pus9JbM1XnmfS+aNYkaAEqIO7BykBeGulenyxvmpICENBFhabhhro3BU/4ydeIiIiorsWPwoSUYug6T1CmSCmOAU/nWDWJzUSYx7e2rINz/0rDgevqu1M64de4ydj5c/HYIGfUlTJNE7hi49hwegA4Po5bP3sXO1jhBr0WPjPbVi9PxX5Yn4ZaRthg6THX/AkNj4WicctMv5c1XfrIjgaW3SIeUBS7N/4UGhdymFI3os3fzCP3nWozFA0Vh9GsWVxcdbHohA8Yqq73zyJV6YMQIC7yIBMwOovM+wHJ1Vbv90tB+HdugzHgp8r414urymd1z0UI8I0UrtKw95ktayudB0aIds1AAO6isBqEVIOpOOMUlhHeuz8RF/tPkf0WcrYrNLzHSKXWEr7fh/WWyeTXs+BXv6RoQOCOylFRERERHT3YfCTiFoAPwwbFMSsT2oy+fk5yCoWwZssHNmfCoPocusRggeeGYcFNtPOBFe4ubjAqyqZrmYVN7Hr0CE89/ePsHTbISRdFQFFV2hDByP2+Yl4pbNysyodENwEWZD2FSEtbgde2JlhFZgqgUEEmCSVwzrWl5iJXXSJrnbZjqV16iLuJCWmcTmdrRz5x3bhNxvP4du6DAtwqwx5N41SG1HXa1G3iY6qW/+JVMdmY146jZ8/AuTjIA9pzho+s9SojDfbTqsOH1AX0n3kiGk7eNVnCAEiIiIialUY/CSiZk8zYDT6MuuTmlQ7kWAGlOThxKFDiF2zD2ml0rpLEO4dbZb+mXlSHscwduV27EotAnzCMXFKpM3MNPvETOqpWLxpO2LX7sWZQqlIjFM42TS5yw3kyYmWGtGj3S5toE7pDmwoQZpc0kCmgOTfPsLK/RkogxfCYh7E0v7W0d2bMIi6keh8W2aE6YFO6kABhkLn1B30+EIO3n6EpV+J8Spd4TNoIt4Y7227y7aVISPHYGK4N8quHsLKlUogeGGSemU1pomOMnA4wUnjdTZUW8hDRjSK0hLYH/nWHiOKxHFFRERERHclBj+JqJkLwogoJc+HWZ/UdLyUcSxLjcgSqwY9diars8G395D/mzOUFmD154dwRsTmOwZiRA1BypoYCjLw8jcpSvde7yAMlWOJBbgsR3vaISzcfnBxaqhynBgysy27VdeQKadRPwVkZdcwCGVFOb49tBerj4vbaBD2wEjMs9i/IqReU36U0Eb0wER5qSXR4d4IZep6gz4LdmOMDinHkbNH8eZ3evk19Rk0Dq+EKNfY1w73hivBzO8/S8W3amDZHm1v00RHF/B5LbdtMpk3lOOmvpM21UDrrwb3S0vUx64Dlw7QyS/tTRjszK9ERERERK0fg59E1Kx5Rg1DpKe0wKxPalIe0IoY540bOCivuyLcXwmQ4Za9gS1LUCQn3nlB55QZh0pgUOfh+c8FJeyv7RuFeTZSB7Wd++FnYsxH5CFJDlJKrhUqGXKaAAywFXDThmNwF7FQgDxlovgaffvdUSW46xKEsfda7uDOM0pwD9pIPFnH7MbmwRUT778H/cUTrsjBEVPdOdmZ4wk4Iven90L/UbXNPK6BVk6uLa/MqLXPFU9Hhdc+0ZGzaIPw9lwxBumT2DgpCL3U4uqycVken9YPQ0b4OaE9aDC7v9KI6xOg7jUkHGHik25BBg43zktLRERERC0Ag59E1Hy5BCF6ALM+qSl445WnYvD26AA84K2BT2AHOVvScP0GgtvrMHtSDCbKgUIjzpxuYEvsMxzvPdYP87p7oZd5BqVGg3u6R2LlQ5FKl+Erl7BDHfPx8rGTSBKZa5oQTIwdhXldpOcorjDNJD59AHykd/Sys0exwjRoZcVlJF0RC17oP2UMFpjuIwnuHIK3nxouz8aNnDPYWZdxNSsy8PFRZcYlOQhr9twNZ4/hW73y44To3r1majge6ehaGfSS63D8GLw3RZkt/o6T6rp/lxAsjX0E8wYqgdz8xINY3TgDfkpuYkV8qhIg7iLVXa3Zn3XkHoz+YmxYRyY6csDY4YPRy1sM7Cq9tr2H4mm7+3ETH59UA/b97rdqD64Ik+t+MGbL69Y8ECC1VTGGqeCj1WHe1AfxgNhPox7fxtuOYnb01VUdT9Lr+8CgUfjTaNHejEg7mOz8cU2JiIiIqMVoExHR87a6TETNVGlpMxnHrYl5Rk3FM/cEyFmfX238Hhl1nPyjsYSFhSEtzTkjAjYXrXGfHOONxXMnY0iNXXTLkZ+wC7/8oQC2e9CaHqMARzbWMFFP/zH4PKaW6FdJOr54P95i9mqR3fnuU0qQ0xZ5JvHNVhPqBEZg9WPR8kzjNpXq8cV6q1myxQz2sQOgFWN+Wk+G4+KHpS/EyJmShqRdiI0zG33RxRuvPDsR93SsYdaj9H2Y+onZDDh1qIu0uJrGu6wD0/6oq9VU3ERWwnd4eX8e8tUiWW33k4mxPaX6U9fELO/LfzsGYdXKBQ0WzHxMCeJdiceCLfYyNU3tyNZjWBoyeiIWD9ch/9A2PLe/8d8nJsY8jHn91Qxo3ETSJ9uwOF1drUaD2CkP4vGepttbs9q/Wl+nPCR9uRuLU817ANR+3OafjMOb3+TUc8Z5IiIiImpNmPlJRM2TS3eMHqxmfZ5IuOOBT2rtCrBiaxy+TcpAfqlVt/bSAmSlnsAXGz7Bc3YDn/Vw6kes/OYEzlzNQ5nRbFsVRpRdz0DS/l1Y/E/LwKdguHoSv/zXLnybnAND5f3Klfvs+RJzbc0knnkOCzdY30dilPYpOR7L11gFPmtTkYPV8UoXd+vsT1QU4K31n2C5tG+Xr99EWeVzkZ5jSR4uH9uHlV85a+rvBqqQnlNhDtLEc1q1DfOsA5+NwoiVe04o7ccp2Z/qREcVGTjQRBMd7Yo/jDMFoh2Vw5B8EB/aDXwKRmz86kss/uIo0rILqtqDqPvrehz8IgEfq0XVmLdjua0ewmqp7VsGPq2Y30c6lgzZ0vHw8Tb8koFPIiIiorseMz+JWoC7NfOzuWHm593jkQnTMLtfCQ6+vwtvKT2966COmZ9ENapb5qe293C8Nykcbun7EPuJvuFB+TutMvOz9ozXKlWZnw3OECYiIiKiVouZn0RERFYCO7ST/hYhq86BT8EIg5yY1g5eTpnwiO5KphnKK6zTeM2ZTXR0qhUEPomIiIiIGhGDn0RERBa80amD9K/wBurXSfsmkq+K6dk16HX/OCzoXDXhD1FdiMl9FjwxXJmhPCsT/1GKq+sYgRFiAq4mmuiIiIiIiKglY7d3ohaA3d6bB3Z7p1ppQ7B89hiEmc+Efmw7YvfYnqGa6m72YzPxSKi6Ukctpu6rTfxkxJmvPsHLZ9XVuwG7vRMRERFRI2HmJxERkbMY9Fi8YTcOpueZTfhDVEemyYA+//LuCnwSERERETUiZn4StQDM/GwemPlJRERERERE1LIw85OIiIiIiIiIiIhaJQY/iYiIiIiIiIiIqFVi8JOIiIiIiIiIiIhaJQY/iYiIiIiIiIiIqFVi8JOIiIiIiIiIiIhaJQY/iYiIiIiIiIiIqFVi8JOIiIiIiIiIiIhaJQY/iYiIiIiIiIiIqFVi8JOIiMiewH7Y+NuZ2DjeWy0gIiIiIiKilqRNRETP2+oyETVTpaU31SW6k8LCwpCWlqautQ6tcZ9MZj82E4+EiqUc/LA2DssLvLF47mQMEXHMkhSsX3UUX4ira9J/DD6PCcHl3Zuw4LhaVgutXyj+NKk/wny94eYCGI5tR+yeAvVaIhvUdoaKcpTlZ+DIvgSsOH8TBvXq+hoyeiIWD9fBkLQLsXF5aml18jGiO4Hla0/iB7XMKcSPBrEDoIUeX/zfPqxXi2tVeT+g7OxuPP5VVlXdSLJ++AjzEsrlZSIiIiKiumLmJxERtUpFpUZ1qQR51rHHMiPshYR8/EOw+LGJ2Prik5VBl+D7Z+Lz30qXx5R1uwL74d1nRqGXvxL4JKoXF1e4dQzBPY9MxtI+rmphfXljUm+d9D8PSYftBz4r5d1wbuCzIYpLUaQuGg0l6lIVw00GPomIiIio/pj5SdQC3J2Zn67wixyBEVERCPDWwFUNJJUX5eDC6QP4KTEDhRVKWVNh5mfLMnb8ZCwcJNI8q7LPKrNBC2xnuz0wdiIWRIvAkR3p+zD1E726Ut3jUx5DbE8NkJ+CjZ8lYuf1cvvZexovzB4dhXt6dEZAe+k+wq2byM++iMP7TmO93kbmn0s7TIzuj6lRoVX3MRYgKzUJG79Nxw+meK9gyqKzs6+CqT4sslPNsu8sGKXndvU0dsSlYGsNiawiePzivf0woLM33DRqAK80D5fPnsbn36fj21KlSGaW1WdPWtwmLExSVxxRw/4YbmQh6eAR/POstG9qcSV797NgndkYguW/HYMwda2S9Loa8vT4YddRrM62H8Dz0erw9JT78UAX6bXNScDi98+h3rseMhgbn4iE9ko8FmxJx2W1WNYxAqsf7YijXxzC6hzgkQnTMLt9gtymtd5B+NOTUSj6aheWZqq3d1Rl3dUz89Os/irbpNnr0OC2QERERER3JealEFEz5InIh2Zh+r19EeRTFfgUXL380GPYFDw2ZQB81DKiGpUYcF1drHSjEEfURRNtz+GYJwc+jcg6thtv/fMjfJEurhEBnE2YKi41BD4BL4R3EgHJm0j69ii21hD41HaOwOoXHsYjg8yCmELbdvDpHIkHnngACwPVMhONDouffQTzRkdY3kfjjYDeo7BwzijMrjlS1zAa6bmFDkbs8xOxuLNaZsEVE8dPxHuzxmBIqK4q8Cm46xDcfxQWTKklc7YpSfuj9Q/FPVOm4b3Z/TDRrEqdTnpdtf4RmDjrUSzvb39D+YY8rPzsGLLEil8ghsql9RM7OAxaqQ2fSbQKfEr6B7YH3Lph4jPTsHp8ADS3jCgrBh4ffz/ee34cenm6wqtjO/XWd1ZRofXRU4S8HHWRiIiIiKgeGPwkouYnbDRGB2uAikKk/OcjrF+7GqtXS5d/f4DP4zMgfVeHJnAIooKVmxPZklaodqA16+Je2RW+oqJaYPKJPuFwk/6Xnf8RC/dk4aBBi2ARCy3IQ6p8i9q4qF3ds5EmB03taYcXH4xGgLu0WJiOXVs+wYK/qcHVFZ/grW2HcCanBGXKjVUazJt6P4Z0dAVKsnDkq214Tg7IfoSlX51Alugh7BGKRx6LwBDlDg0nMkZNQV+xnW1HcVlkbbroMOTByGrbGTs2BvMGKVmzZZknsHHDJ+pz3IQFa3Zh46FU5JfayXq02JblxWmZflb7s3DtLnyRlIUykUHecQDmzbCqu8yTiDV7HkogXMlINJVNtZvVaBYwly4LNu3DGTm1VIOwcYMQW9Onr9JsXHZ0iFj3UIwIk86dhjTsTVbLzCSdPop5//wES3ecRln4OMQO9IZb7zGI7VkunWu3Y8GK7Xj59J3saVACU2/3yi7ulV3hpReKfZWIiIiIyAEMfhJRs+PX2Q8iZ8yYth/fp+XDaOreXlaMrJPfIPGaWNHAu71cSmTTZRvjA2YZagjstFX/3zSqgVEv6LykfzayRBvErwciO4qFIhz5Kh6rrxhx2dTGjUYcvJCKl9/fjbfMux6H9MPYEPGDQAa+la5bWtlNuxxHzp7EvPcPIUs8hl8UnugtX+Fk0nYupODl3alKULajP4aaf4JwD8UTQ5TAp5hkZ+7Gk9iabazsSn65MA9b9x/Cc19lqCV3WjnSCvKwPm43XvtWr+xTo9WdtP9X9Xj5s6NKfWgCEBYgFzvdkOg+CJZel/yTp7FLLauuHMaSMhiMZuH1shLp2DCiyNQOnaXwBvTS2XzsoOF4T4yhK8bN/c1jeG9qKO6x+QnUCPOnJStwfOInIiIiIiKBwU8ianZyrhfK/zUB3REkUvHMeUYgVI6x5CPTuk8nkbmkfUrmndl4lz/sUbP2bHRfzyxQ8svc+kRjcYgr4K2FVnqXLLthaKTgS1toPNXFWjw+UHRlBgynErHS1pMxpGKnnLGnQViPRoqsSQx5Bii5sx7QisCwyhR0g1F6Ht/mVR8/sxk7k5SAI/K4CI1bd7huGn5BA69G+eFGh6n9xMkxDyl2sjf79xiAlT9/EkufGIrgG0ew9XgBys7HY+MFL9w7dRre+3kMlvZxYrf32+4YMfURLBwfDh/TMAguGviEj8JvHwtFL6XETAGWrlWyZasyfvVYKGfQbm/4WKREREREdFdi8JOImp/kAzhxQ/rfPhJTnpuJiYO6or1Gg4DIezH98dFyQLTw5F4kKDFSIqfY9f1hpIkut6Jb9xOPYePjvSESNA0l9egG3Eb9X5OcS0iRo4Pt0P/hiVjas10t49eaxhI14vJF+7N3f5GRLf936+iN/vKS8/UK8VMmADLegL6ya7YrRnRVu7ufTcVGZ2cPNrqb2Juq1KtboD/GykvOpw31hxJaLUBWnYJ4HtCJ+brqqmdPRIoX58ppfFhtkFtFUlEFvMovYteGTxD7eTqMnu3g5laBrXt247kP4pFW7gpjnhO7vXtHYEh4O2UYhH99BHn4hD1Kpq1bSC88VJ/9IyIiIiJyEIOfRNQM5eDAxx9hf3qhdJZqj67DJmLm7NmYem8k/JCPlO82YVO8PCUIkfOUZmDhul04eEUEf1yh9fGSxwD16TMSbw/yVjIb7dFo8MDwwRggMvpyMnFCKbWjAG9t2VcZaO0vJtz5eQyWjw/BA2Ic0Gq80UkOEhmQZyeoJcvOUzJUNe5QQpFOJPZv0Cj8aXSQvJqfmIyt8pKghU6daCkry8EZabwHYKHoEl3tMhmLrSd+agQH89TxYb06IFxZch4XV9zTsx+WT4mUA8dlqSfxcY1jehYg5YrIr/XDiEnheEBrNnFUDWJ7h0jt1fZER5UyT+K5tYcqZ5z3cq+afMmQky6Pg7r0qlrgJGXp8fjz5pPYmi+2WY4jxxJxQt5/PwSHiv9ERERERI2LwU8iap4qCpF1OQ+F1llkGk/4+etQx97CRPVjzMNbW7bhuX/F4eBVdXIkrR96jZ+MlT8fgwV+SlGlwH7YKIJ0Lz6GBaMDgOvnsPWzc7WPEWrQY+E/t2H1/lTk35LWpW2EDZIef8GT2PhYJB63yIhzVd+ti+BobNEh5gFJsX/jQ6F1KYcheS/e/ME8etehMkPRaGc+oxbDxVkfi0LwiKnufvMkXpkyQJ7gqiwzAau/zLAfnFRt/Xa3HIR36zIcC36ujJW5vKZ03lomOqqRrkOjZbuKLuvfbktHksV5vADSqZ2IiIiIqMkw+ElEzZAnIh+chemjuqI9inEp/lOs3xSHU9lG6aylgV+/iXjyoUgGQKnR5OfnIKtYZMVl4cj+VBhE8MYjBA88Mw4L1CzH6lzh5uICr6pkuppV3MSuQ4fw3N/FTOqHkHRVBBRdoQ0djNjnJ+KVzsrNqnRAcBNkQdpXhLS4HXhhZwbOqCWKqhm6TcM61pvd2d6beJzHEtO4nM5Wjvxju/CbjefwbV2GBbhVhryb0vmujkMI1G2io+rWfyLVsdmYuI2hcsI6IiIiIqI7hMFPImp2NANicG+oRs7+PPXFB9h1MgfGwgvYv209PjqYJU+4ogm+FzED6hplIqqvdiIhDijJw4lDhxC7Zh/SSqV1lyDcO9os/TPzJGL/bxNiV27HrtQiwCccE6dEYoh6dd2ImdRTsXjTdsSu3YszYixbFx3umdxPzci7gTw50VIjerTbpQ3UKeNxGkqQJpc0kCkg+bePsHJ/BsrghbCYB7G0v/VxdxMGUTcSnW/LHMTxgU7qQAGGQufUHfT4Qg7efoSlX6Ugv8IVPoMm4o3x3sprVIshI8dgYrg3yq4ewsqVSiC4agIga6aJjjJwOMGJ43USEREREbUSDH4SUTOjQWS4Mi1I+cUD2H9NXqyUnxiHRGVeFwQEdVUWiJzOSxnHstQIeXRZgx47k9XZ4Nt7yP/NGUoLsPrzQzgjIvMdAzGihiBlTQwFGXj5mxR5Qhh4B2GoHEs0dRNuh7Bw+8HFqaHKcWPIzLbsVt1Oq060U51G/RSQlV3DIJQV5fj20F6sPi5uo0HYAyMxz2L/ipB6TRkiQBvRAxPlpZZEh3sjlKnrDfos2I0xOqQcR84exZvfKZP8+Awah1dClGvsa4d7w5Vg5vefpeJbNbBsj7a3aaKjC/i8ltsSEREREd2NGPwkombGE1o1sFJaUqwsWChGMb/gU6PzgFbEOG/cwEF53RXh/kqADLfsDWxZgiI58c4LOqfMOFQCgzoPz38uZMj/tX2jMM9G6qC2cz/8TIz5iDwkyUFKybVCaU2iCcAAWwE3bTgGdxELBchTf1CoybffHVWCuy5BGHuv5Q7uPKME96CNxJN1zG5sHlwx8f570F884YocHDHVnZOdOZ6AI3J/ei/0HxWKYLnUHg20cnJteWVGrX2ueDoqvPaJjpxFG4S354oxSJ/ExklB6KUWExERERE1Zwx+ElEzk4/0DCXo6dl7HO6PDICnmHJbcPNEQL+JiFYmnEZWxiVlgajBvPHKUzF4e3QAHvDWwCewg5wtabh+A8HtdZg9KQYT5UChEWdOK4FIh/UZjvce64d53b3QyzyDUqPBPd0jsfKhSHmWeVy5hB3qeImXj51EkpjKXROCibGjMK+L9BzFFaaZxKcPgI/0jl529ihWmAatrLiMpCtiwQv9p4zBAtN9JMGdQ/D2U8MRID4F5JzBzrqMq1mRgY+PKjMuyUFYs+duOHsM3+qV7E/RvXvN1HA80tG1Mggq1+H4MXhvinrw3mlSXffvEoKlsY9g3kAlkJufeBCrG2fAT8lNrIhPVQLEXaS6qzX7s47cg9FfjA3ryERHDhg7fDB6eYuBXaXXtvdQPO2s/SAiIiIiakRtIiJ63laXiaiZKi29y8Zx84zExMfvRdd26roNxvTv8dHXKbCVG9pYwsLCkJbmnBEBm4vWuE+O8cbiuZMxpMYhK8uRn7ALv/yhACIOWZ3pMQpwZGMNE/X0H4PPY2qJGpWk44v347HebEMiu/Pdp5Qgpy3yTOKbrSbUCYzA6sei5ZnGbSrV44v1+yy2I89gHzsAWjHmp/VkOC5+WPpCjJwpaUjahdg4s2m7XbzxyrMTcU/HGmY9St+HqZ/o1RVJHeoiLa6m8S7rwLQ/6mo1FTeRlfAdXt6fh3y1SFbb/WRibE+p/tQ1Mcv78t+OQVi1ckGDBTMfwwMiWHklHgu22MvUNLUjW49hacjoiVg8XIf8Q9vw3P7Gf5+YGPMw5vVXM6BxE0mfbMPidHXVXGXd2d6H2Y/NxCOhTnhtiYiIiIjqgJmfRNT8FKdg16ZP8f3JDOTfNOtiXFGO4txLOPX9p9jQxIFPau0KsGJrHL5NktpcqVW39tICZKWewBcbPsFzdgOf9XDqR6z85gTOXM1DmdG8fRtRdj0DSft3YfE/LQOfguHqSfzyX7vwbXIODJX3K1fus+dLzLU1k3jmOSzcYH0fiVHap+R4LF9jFfisTUUOVscrXdytsz9RUYC31n+C5dK+Xb5+E2WVz0V6jiV5uHxsH1Z+ZRb4vJOkc0lZYQ7SxHNatQ3zrAOfjcKIlXtOKO3HKdmf6kRHFRk40EQTHe2KP4wzBaIdlcOQfBAf2gp8EhERERE1M8z8JGoB7rrMz2aKmZ93j0cmTMPsfiU4+P4uvKX09K6DOmZ+EtWobpmf2t7D8d6kcLil70PsJ/qGB+WJiIiIiFopZn4SERFZCewgxlwoQladA5+CEQZ52Mt28HLKhEd0V3LpAJ3oWV5hncZrzmyio1MMfBIRERER1YTBTyIiIgve6NRB+ld4A/XrpH0TyVfF9Owa9Lp/HBZ0rprwh6gufLQ6LHhiOMLEp7OsTPxHKa6uYwRGiAm4mmiiIyIiIiKilozd3olaAHZ7bx7Y7Z1qpQ3B8tljEGY+E/qx7YjdU6CukaNMk+TUR4up+2oTPxlx5qtP8PJZdZWIiIiIiBzGzE8iIiJnMeixeMNuHEzPM5vwh6iOxERM1/U4+PmXDHwSERERETkJMz+JWgBmfjYPzPwkIiIiIiIialmY+UlEREREREREREStEoOfRERERERERERE1Cox+ElEdBdjl3ciIiIiIiJqzRj8JCIiIiIiIiIiolaJwU8iIiIiIiIiIiJqlRj8JCIiIiIiIiIiolaJwU8iIiIiIiIiIiJqlRj8JCIiIiIiIiIiolaJwU8iIiIiIiIiIiJqlRj8JCIi2dxX8rF/WRnuU9eJiIiIiIiIWjoGP4mICAi6hfEDDQiJuoZ/LLmFELWYiIiIiIiIqCVrExHR87a6TETNVGnpTXXp7tK+WzTGDe+HAG8NXMVPNWXFyEk/iu9/OIWcMuU2TSksLAxpaWnqWisUWYrdf81CD407zm/rhPtXt1GvICIiIiIiImqZmPlJRM2QJyIfnI2ZEwYjyEcNfApunvDrMRrTn56CSE+1jJwnxR3PrfRFAUrRY1o+3rtHLSciIiIiIiJqoVx9fX3/W10momaqvPyWunR38Ix6CA/36wAYc3Bqz1fYsScePx0+gqTU6/AIDoeftj1CfA04eS4H5ep9moJOp0NeXp661joVpGpwK6IMY4MN6N7LHYlftMVF9ToiIiIiIiKiloaZn0TUzPggqneA9L8cF/Z9iv1p+TBWKNcY8y/g+8++R0YZ4BociUiNUk7OtXaZN04ZpYWgQvxqilJGRERERERE1BIx+ElEzUwg/DqI/1m4Ymt4TWMK0rLFQgC6dJNLyNkMGrx/0EtaKMHgB4yc/IiIiIiIiIhaLAY/iaiZKUWpPJmRH/yC5IJqsq4Xyv91HX3k/+R8H+1uBznGHHkTL8olRERERERERC0Pg59E1MxcwKUs8V+DyHsnom+gJ1zlcqnEpyv6jp2KiX3aKwWubZX/5HwHNdCXiAUjQibIJUREREREREQtDoOfRNTspMQfQJYYc9KrK0Y/8gzmzJuHedJl9pMTMbp3ADx55moCbaGXg9DF6MThBYiIiIiIiKiFYgiBiJqf/BP4/JM4HL2cD6PZdO7lRTm4dCwOB9KVwuKiAvk/NY6b6kRTnQKbck59IiIiIiIiIudpExHR87a6TETNVGnpTXWJRHf4AY/OxohORqTsWI/vL6vFTSAsLAxpabZmYWqdlv2/S3gyDCj4sQv6LzENPkBERERERETUcjDzk4haFp8o9O4k/S+7gisZShE1rmuZDHwSERERERFRy8TgJxG1HG5BGP3gYIg53ovPn8R5tVs2NYZbCPEV/z1x7aJcQERERERERNTiMPhJRM2cKzzbB6D7sImY+ewU9O0gFd04hbj9TPtsVIPLECHq2qjBqW+UIiIiIiIiIqKWhmN+ErUAd9+Yn5GYMu9eBKlr5ozZp7D76/24VKwWNKG7aczPJ/94HcvGFgEpgRj9aw30ajkRERERERFRS8LMTyJq9spvFiMn/RT2f7UJ67fdmcDnXUV7C08NKZIWPHD0WwY+iYiIiIiIqOVi5idRC8DZ3puHuyXz88lX8rDsvkIgLQAzfuGOH9VyIiIiIiIiopaGmZ9ERFQpZIIBr4nAJ7zx9d8Z+CQiIiIiIqKWjcFPIiJSRJbivQW58IY7zm/rgHkpajkRERERERFRC8XgJxERScqx+b9z0EPjioKDvnhudRu1nIiIiIiIiKjlYvCTiIgkrthzxgPZCQF46vW2nOSIiIiIiIiIWgVOeETUAnDCo+bhbpnwiIiIiIiIiKi1YOYnERERERERERERtUoMfhIREREREREREVGrxOAnERERERERERERtUoMfhIREREREREREVGrxOAnERERERERERERtUoMfhIREREREREREVGrxOAnERERERERERERtUoMfhIREREREREREVGrxOAnERERERERERERtUoMfhIREREREREREVGrxOAnERERERERERERtUptIiJ63laXiaiZKi29qS61YC7tERQ1DCP69YCfp7ReeAqfbtqPHOVa29p3R/TYYYgK8oGr+KmmohzFeRdw9Lu9OJVbrtymCYWFhSEtLU1dIyIiIiIiIqLmjpmfRNSoXDt0xeD7p+OZ52diyjA18FkXnUZj5lMxGBysBj4FF1d4+vbA6GkzEdOjrg9ERERERERERHcrBj+JqBG1x+CYiYju4QdPGJGT/D2+Ty5Ur6uBS3fEPNQX7aUzlDH7FOK2rMPq1aux7oPPkZBhlK73RPcx96KHRr09EREREREREZENDH4SUSMqROKZDBSmJ+CrLevx6Q8pyKlDb3WfocPQXQQ2C09h5+f7ceGGcqfy4iwc/eozHL0urWi6YkhUe7mciIiIiIiIiMgWBj+JqFEZT3yFTV8fRUYdEj4V7RER6iMvZZ38CVkV8mIlz9B+6OqlLPsEdweTP4mIiIiIiIjIHgY/iaiZCYCfHPvMx5ULRrlE4YqgYdPx5IN94WeKeHp6Q6cuEhERERERERFZY/CTiJoXF3e0lc9MxSg0ZYu6BSF62ixMGeQHTUU+UvafQr4o99Ix+ElEREREREREdjH4SUTNi68O5iN5uvoOxpSZUzDYXwMUnsfuLR/h+1M5KFavJyIiIiIiIiKyh8FPImpebhRUBjZ1UVMwa1o0gtoBxWm7sWnLbpwX2aAaDVyVmxARERERERER2cXgJxE1L0YjlLndgzDgniBoUIxL+z/CB/85j0LT5Ec+3kp2aFEe8uQCIiIiIiIiIqLqGPwkomYmEzk31MWbGTjw6QfYdUoe4bOST7cu8BQL+TnIkkuIiIiIiIiIiKpj8JOImpl8pGcoHd/Lc84h5bq8WMUlCFG95OngkaVPk/8TEREREREREdnC4CcRNTsZhxORVQG4Bt+LR++PRIBGKXft0B2jp05ApEj7LDyFAyeNyhVERERERERERDa0iYjoeVtdJqJmqrT0prrU8viNmonp/cznb7elEKe2bcL+bHVV4tl7Cp4cK8b8tMGYg6M7PkXCNXW9iYSFhSEtjdmmRERERERERC0FMz+JqFkqTv4KGz7Zj/O5xSg3TXRUbkR+egK++qTpA59ERERERERE1PIw85OoBWjJmZ+tCTM/iYiIiIiIiFoWZn4SERERERERERFRq8TgJxEREREREREREbVKDH4SERERERERERFRq8TgJxEREREREREREbVKDH4SERERERERERFRq8TgJxEREREREREREbVKDH4SERERERERERFRq8TgJxEREREREREREbVKDH4SERERERERERFRq8TgJxEREREREREREbVKDH4SERERERERERFRq8TgJxEREREREREREbVKDH4SERERERERERFRq8TgJxEREREREREREbVKbSIiet5Wl4momSotvaku0Z0UFhaGtLQ0dY2IiIialUHdMHlSgLpSJXPnIRw+pq7cjTp4IOS+rgiP8IaXxiz35UIytm8qUFeIiIhaL2Z+EhERNZgbAif1wNjf90ZEZ7WImh2X7r4YPGcAJj3hrZa0fO6DumDYzwdj7AR3teTu1GT10M4DoU/0wviXuyFQLSJq1rTeGCqd96L6+lgGPu8iPE8SEZGrr6/vf6vLRNRMlZffUpdaMJf2CBo4BjE/i8HYEUMxtJcH0pMuoVi92p72QYMxZsIDiBkzAkOH9oLHpSRcqu1OjUSn0yEvL09da4U6+GLU7wYg3DMHF1PL5SKvCX0R81QYvIuuICNTLnIOjTsCHwjF4Ie7o+/9XdFrbDB6jvRHYIQryrINKCxsaZ0SvBD5RFf4upYh91g2rhepxdSsaIeHoX9PLdoU5OBsUqla2rL5j++DiCDpuJEOUNNxezdqsnrw98WgBwKhdTEgY18+eKg3M5n5OLvvinrJwe2oQPi1A4rOOfk9rAXxndIfvTu7AAVZOLo5GUd2XK6qo1ZyHqwNz5NERMTMTyJqVK4dumLw/dPxzPMzMWVYD/h5qlfUxK09ug66H9OfmYeZU6LRw7cud6IG82wLN+lf8Y0yZV3i5esl/S1Fcb6y7gwuoQEY+9uBGDrUH96eblVvRG3d4d0lGIOf68qMKiIiogZzR8cgV+l/KdK2X0TGlQqlmIiI6C7D4CcRNaL2GBwzEdE9/OAJI3KSv8f3yYXqdfa1HzgJE9VAqTE7Bd9/n4La70UNFugBEeqsKDV9OXKBm0b8L0OZs4ad7RyA0TO7wVu8+xTn4cy24/jmr4ew/S/S5f8O44dtadBfvw1+PSMiImooN3h6iP9OfB8nIiJqgTjhEVEL0JInPNIMmILHgq5gb/xRZBQCfqNmYnq/9kDhKXy6aT9y1NtZ0AzAlGldcOWH/Tgq7uQ/GjOn9UV7FOLUtk3Yn63erom19gmPXO7pgUn3eyFt03GcviBK3BGxYCB6dcjC4b9cRMN7DLogaNYQDA5xAW6k44c1mSgwqlfVRJ3Aoujwcez9phTuvQIQNTEEnbSuQEUZClLTcPiTfBTbiJi69/JH//u6oJPOHS7SZiuMxcg5lY6TXxfYvD00btBFd0JEf3/opPu4iSBtRTlK864j9bt0pJ0x6y5nZ2INW+xNtuE5NBiDRnRCB2+RAVuBiptFuHLwIk7Hl0hfVZ3DpaMnutwThO69vOFlyrS9VYoC/RWc2pGN3BvyzZyn2sQaFSjLzUXagStITSw1C2yb2ped+jHVr50JOSzrTnKrBHlnriDpu1wUVO5T1TZqdeMi9q7MqtaN2SXAB32nhCDI31NtD2Uoyr6G1G+uQq837z7pjaF/7I1A8TjrDeg+KxKhHdugIvsSfliXhdLewRj1cBd4oRx5PyUhfrej3U3V7ahrNbJRd/VvD1bnAY07gqaGoX+4t1QfUps15OHcjgs4d85GV1J/b0T8rAvCQsVt1TIr1V578fiTuqGnqf3Ix182UnZctl3f6lqNGjipixj+Y9xQ8dNQbYpw5t+ncO6quqqqextqAAfOk4Ezh2Nod+lZq/ex0DkA4/6rG7ysjwvz7fynAkEPhyFSakuebaUdk47Ba8fPI/E/xaj8Dc0Z6nxOsVbLOcZMfY8Lpe7U1/uWD/o/0hUh/h7S+4x6TOySjgnz9wszbiG+iJzQRb29WmjBdjtyjOk4qftjWp9bxfvmjXMZSPqPdG41KLepZGon6jEm2nr/R8PQxVe6r3TsFl/R49inWcgz3c/89t+7YdjjYVIblT7nnjuDvR8XwP3enhgxUie9ciXQf30KicfM6lCqLC/pvbmn9B7t69sO7qLNibZQUICMAxdx6rB5W2i68wMREbUMHPOTqAVoyWN+lmedRdL5qyhUg1yeXfujTyd3kdKJZHtjfpZn4ezJ87hqupO2K/r37iR9GDYiO5ljfjqX+IIwEIPHBiMiTAwv0Ba6/sHoKcbgHKuMlSbGswyS14MRZDYeaL35+mHQ/R2l17Fc+lJzFpfqGk3t7IOeEV7QGG4gMyQc4x/oBK1p0oY2rnCXHjc4sBAXTpXC/Nc8r/t7476YQLT3bIs2bZSyNq5u0Hb2R/e+t5Bx1ACj1c9/gU9G455B3tBK93FV74M2LmjrqYV/n0D4VmTjsl79eqU+r7qoPt6cKwKfiMKoYTp4uLtC2VQbtGnrjg7dAhAaUohLSTV9qa8rbwxZ2Bc9OnvC3c20HYlLW7hL7TlkqBalybm4UaKWN5Bb31CMezocIQHtoKmqQLhK9efXsw1uWIyR2Ba+w2oYj89Uv/nW43NKdTdzEEYN9TGrO4mLGzw6dUSof6HZ7au2UavSfFz8SWoT6qrgJX0RHzc1GB293Mzagys0Xt4IjPKHr8t1XE43HQ/u0nHiD69SAyoiuqN7gOhqKr2mWm9o2pSi2wPd0EE0W6k9eQS3Q+kJqd4din+q21HXalSt7hxpD1V1WJhZhrBZ/RAR4K7Wh7R/Gk/49fbG7VSrsW67BGDs7Ah06Wi6rW0Wr71UV4N/0Rc9u3hUtR/5+POS69u76Jp0W9NB25B6qB9Nj07oFiSnwdfCWG3M3/q1oQZw4DzpJZ3rg3TSs7Y1DmJ7L3Qb5AON9XFh2o70IB6jwxEZ4gE3F3XHpGNQGxSAzt7XceGscz631O+cYq2Wc0yl+h8XSt21RUU7N/SK6Qb/9m7q+4x6TPTRoe3lLGRbDRnjNqgbxj/WVW4Ppvel6qq3o/oQgdlxD5vex03HiAZ+g0xlposPbp83246LO0JnR+GegZbnVvG+KZ9bB0r1cEmqB/OuOKZ2ctuA7Nv+GPtEKHSe6n2lY9etgw+69pTebw+rbch0+4JStI3uhmCtuGUbtPX1QHmFJ6Kk56uRi9zQIdQFuT/egKnavWL6YNy4TtJDuKGtqc1J93V1bwcf6Rjt6luAtBRTS2268wMREbUMzPwkagFacuantTplflpj5mcjqkd2hMRmhlAdKZmlvkDxZcT/7QrqHEY2ZQBWVEgP4oKKG5k4/pleHrvMfUg3jHswAG7IR9LKM0g3Zed074LxM4PhWVGMjP+cxfGjpfLd3UJ80H9qBIK8XVCceAJ7tltG/QKf6I+uRRk4dyQfN7LLlU1qPdBlem9EhbhJ30kzceCv6chVb1+lftk1blJdTBB1cTMPZ3ZeQGpyGSqkffPs5Y+oSd3g264C13YfxU8HGxoU8UbUgk4oO5aBi0k3UVyghFNF5tGgJ3qgUzugLPkUvtnm4Ldsc76+GPVCD+hcpMe8mo7Eb64hU4wvJ+2XWxcvRPysPXL+fQXX1JvXmpVlL/MzNBDjnw6F581cJH6chiv6CjlI7KJ1R4eB/ugjfQGO/9J2Fk9lBl9dMn26BGLcc6HSl+cy5B4+i8Tvi1AsnYpFewh8qAcGR3hKbVJqd2ukdic3CLUNyI2mFOkfn8DZLr3xs1HeStst1OOHNXkIeKFumWh1VWP2XjWOtAfT6yTdtkIE00qRe/Q8jn5XJC15oNfz/RDR0cXqfm4I+/lg6bWQHk9/Hgc+VTLGLI6l7PP4z5pc6TFMXBHy3GBEdZEe6+pFHP48C7nXpeJ2bvC9tzuGDtXBrUJ6zf9xHnrr7DNJ/eqhAUyZa6hDRny921ADOHCebEjmp6ICxclnEL+9AKW3XOE7KRIjoqTjqyILP7150exYd1C9zynW6pr5Wf/jwlR3Mul9Rr8zBUmJ0nm8gyf6zOyLMOmYwDnpPPOx2XnGxQtRv+2LEE0FChKTcfhbtT34ignzesv3ccb52OK51cjy/crrQen8OER6/UzvS2ek/ZGqwvx9s9pxa2onaruTh7P5WnlPE+fq0TND4e1SDv22w5B22fL20qeAxFXnUfqzoRjWq41Uj9L+60UGaAX6/1Y6l7pYPb/7eyLK9wZSD+QgN6scZSLOKc4PD/RU2p315wAzTXZ+ICKiZkt8iiUiortWgfQFXhlz87Dc1V18oVfH4Fx5XglQii87allDvjR4dnBXFrINdQ98mhNf6HMv4odV6ZWTNpQeuYo0+YuON3y7ykUSFwSNCYKn9MX82nencVR0hVNuLn2xysfRf6fJwUvP3p3gqxRXyvw4CT/tzEWe9MXKdJ8KQwn0H6YpQQ6NFzr6y8UN4IGIe8SWS5C27az0/Vj6gimKpQ0WJ2fhwJdXpC+WLug0wEf66t5QBUiUXsfT8cWVX+iFMn0uftqr/IrgFqCV6qrhOt3XXQlSpJ/Bnn9nKkEKQdqvMn0BTtcYpKiHju2U55uXh0w18ClUGEqRF3/ZbuCzfqQ2dH+InDVULH1jP/CNEqQQRHvI+Pg0EuUgjA/Ch8sD6lWR2mnZhYs4dU5qn6ZUMZfb0H8nhnkoRaEI6N0xDWkP4iNjKTK+TpLro1QEHowlOHPQxv06eKOzfHBlI+nDqq6yFseSv04OKlUK9UdEF2kbhsv46T018CncLEPuN2fx0ynp3OPii65DRUZtS9CANtQQdT5PNlQFCg6fwJ5tBUpbqChH7k49MsUmXbTo0Fm+UYM02TmlIcdFRRHObEhCogh8ivUbxTitHhPopIyjXamXLwJFAnGBHke3m7WH3CKc/lIv94RxC+0AnVLssMxN6nu4fElWA/QikGheLi5mP9S106HPIPFszd6X1KpQ3jfP45pY9++C8FCl3IIc+JQ+P6ypek+rSM/E2XSx5IoOQWI6RTPS7YuO6qGX2mVxoThPSvd3KcC5XflSeyq1zC5VFe0+i/iPs6Tzvhr4FMT5Yft5nJNP+85s30RE1NqIT7JERHTXc0N7MS6i8XbVWJOmIFN+mVl2luOUmeMlpm9U9VV8BQfWZKHI4u6mYJKL6KGo8kKgCKIgF5d/spE5aShCjggEiEBmXb+gmz/nyu04yN8bflrpf8E1XJIDzlakb3FycNi/fYO/BNfItE+uzvgw4IXO3UVQqgT6fflOG6/UpkuFyBNPvXMYxjztD1/fxvgoY2pD/5+9c4GLqsz//6dBhsuMIxdlEASUiwKKKAqaWKlZXlatBbuobVpptln9yvplu5ttm+1u9tu0f2mbaaVtahdxS13FMrXSSjAUL4AXUECQUbmIM1wGmf0/zzlnYGaYYQYYEPD7fnnkzHPOzDnnOc95znk+53upxPmfza2DRepReFw01fPs52khUtei8OfKBlFWoDQfOSel+c6KA+2h9IfjyDCNwccpqRatAh1tR/JbrK7nGe4r9DdVOVfE82tBeb7oP+wdyC+erkBb2lAbcLifbCNcwLN8GWawLlq1jg7sU5rDznVRdeQszhRJH4wYr4mWIHfhm7hxRPSCHz/A0ovItXZf0pXjQiGf8YB3f2t7Wo7MD86jxMIqW1sqximSCfE5TSlF7vfm7afuVCHyWmkBbRD8GJ3YvgmCIIhuh7X7OEEQBHHT4QZPweijplHo9HETBuTa1gUmbEJtpfQ73EKkNdTVoc6KKGK0cmlwaezjAaWwiT6I+8MoTPuT5SS6QVpF5gJVYj8kPj0MU82+63hoALv4e0DF/6pCMM5sv9phWxyeLOTeQRj3/Ejz7TS4rjqBPgr0EkIiVqIsXyhpP0pLkbatBFUGGTxDQnHrE/GY+r9RSJjqC28faZ220ssVHkIbqkaVrcF4sU4UOOQ9YG7TZCWrMmv7zrmKnEAb2kNdlZWXCRc12M+tyExdo69WSQlO+iDmIV+oJL2SJ5UJvX8A/PiH0qu4ZFJPSl/Rrs5zxDDz/WrB/nUq2tSG2oCj/WRb+W87R83qyD6F08rrQhTdHORcpSjsq4IQN00JT8nyWRaoQszkAOF+W1d41YpnBHffN9kns2kwIpxgZevG7vcCzfRVlZfFK9zV3ZrCqEedlXAU2t0nhXbX1GvkepN+svaafYnbM1aNkU8MwySz+3Mz93SCIAiCkCDxkyAI4iaGx8EyDqCC+ECzV/9GQW6y6N+tHCmJEU+pYebC10Jqq6WBjbd7m37HLmxc1qqbm4wNMBfG4fZxgfBWidnh24WOtEzhSWeeHIrYwV5QurejXVFr67yV1J3Mx963juLw4RKU6+ohk6vgNzwcib+Px+1TPdsuJMl73FgrrPaio9oDqpGzTyNYv7oGheP2Z8U+ZervYxDN431yV+Htl81ElqaWYV2c7tqGOoqO7FM66rqoKceJdC4gyqCKHYwJz0vXxbwohPAYoTUaZO5qeIXQobj06MgbU2vgie7iMGFaf/j7usG1m3UXBEEQRPtDtw6CIAiiQ6gq1oquiyo/BFuLGeYsLhpdDk3il1qdzBMTyeKDMIgPQHmSpN3HsPv/TNc1xk1zAkaXSJ5IxGx/LCc7yVTswmMOBoPnqEClBhmfpGOn6e/v1IirOYOGOneDm7MscOypz/palOzOx8G3D2MHF0KPlLP2JYNqeCQiI6R1WsvlaiH+XrPHE6AQRXytXlq3s9OB7UHmgcjxashqylF8rrLREtFQh8pzefj5PXbtWbgKa0vFFsQTkjTsk7XJXqKqzkJXb0My6+EJOoz26FOs0oHXhcIbQ+LZGS+7jGJNdWM0levVKD95Cnvfbeo2LlKLM6tM9slsMr+PtZaqMmnDSldW49ZR9RFfW1ZdvQFBCEL6IHoAf63Fk4edxN63TOvgKE5ZSXJEEARBEKbc0OcagiAI4sbSkBhhfb4w+OaZZo0DCjEBUhXOrJfWMXVrbQ2nSlEiuLl5IHSqWnJNbw90uCzkm+gN9WChwCF6h0gRNgsLkXG4ujGhAkcus3vDFAeyrnA1TeJijYs6lPPf7uUDP8uMS07FGHOQneefzqPYJDkQR+biTEsfY517Iew2R5O3XIdeqmOZm0Xtckusu1uQWaqmFiU7T+O44B7rCu9g67afhuvSjNzFzvlsPJ4Bt1qTAlwRMkI8eZXntebxPTsYw3Vx6652TaE6sD3EqhGqYL3HyXxkbMrG7r9LfcjfM/DDpsvc470J2gLx5YhygMqm+NIcjtdDG2FtSNxSDzvXeudvQ3U1YhiDJnWmUCHu/iAbia86itb0Ka2h464L5dgAIa5mSVoeMtYdw07jdbH8GA5+VYEq03tOR5N3TYo17Y/+gUKJOb6+GBDEZypx5UzHt1ZjTGBUFuO4SfIwARm7P98izdugw/oHgiAIotNCdwCCIAgCPO0yH1jU6owWHS5wE4w82EDQWQMygxZZ+y+L1p8+/XH7kyEICnNtNPBzd4GKx/P6fYgYE7DV1KP4GA+y54KgGTGIS/SEp0mOFFe1JwImhWJckhB5s4GqSmk0pe6NIGOYN3dXeCeGYNzzg+zsk46HomS4IXRyoJ0kPFoUZPMEKCpEzxuI6FiPRhGFVYZrkBKh9w5CwrjWSECm1PLcTgK+g9nAUYifxzbh64mg+2MweZIzldd6FGaKgQ09Y4dg3P2+8DapA9cgdqyPBlrUYT20V0TxxW9kAHwl6y63KH/c/nB/0RLLCspx4Ui8tw98g1zgKh0TxzXIF/2E81aPq8XWLZMarI8DB2BkIqt3k++b03g8yhGDceskk/h8PG7lQ4MR04ftYI0GOb9Y31ZHcVUjWkK6xYQiOsrkempCx7UHN5XYdj0H9IavmvUlvey/PMCpSyjkxme+7Np81B/+7Pya9Q1RfRAzPxyhNuIbOl4PbeSyDleFPtEX0aydG+OZNqXztyFtqZidyC0qECFSnycL9MXIxwchwLO9KtBRWtOntIYOvC4UoojLt6Pqxa4LW53cjeBqOc4VcoFQiYgHByLC5BpyC+uDkQ+Hipn3zxThvHhaOpSqCilpmNIXwYOk0ARyHj7AH7f+zxBEmN/Om9Bh/QNBEATRabklImJgO0csJwiirdTWWkSF70L0TpyN5CE9pU+2uIaTWzfhgGDlwegzFrOTBsPut06kYNPBK9Kn9ic0NBR5eXnSp+6F552DMWG0Epe+S0faL3wA5IZBTw9jAwruOt5W92tzlHdG4fbRqmbEEIttDu8vJp3gbuIOW5/y+GCxGCm4ydngXLa5C21fNW6fZ0N0M1RBW+0JpUKLUx9ZdzOUxfTHXTPUVuNNluy0SDQixBcdKrrZ24C7/zZNEtEylOy8jmPn1RqGq1Wo6eUJzxbVa3O4wC8pGglRtuzFrLQlW3VuqEXxkSvwGhEIT4vzpJzEjmmk9WPi1LH197L1rctJrN5/b6Pem9QDa0P3x2BkhA0R2lCJU59km7hvqzBSSFZl0kaMbdfkGHic3ZEDrLSJ1uKuQtyiKARYs0K0rLtWtQeebEVMKOLwPiu8kfDMQDF7tBUM+ipcPVOIIzstrN24xW8zwjd/cWDr+mtJPbQV2/VouX8tbUNtoDX9pM06M6DycCFqRobAz/L3mt2Osa00c55aRMv7FOP11SwW+96a68K4Hav9NOvXxj3aH0rLOhrgjwkPhsC6rmyAoUaLS7/m4/gPVah1mnGllX7JFtzitxnh21B6Hj98wI7HdN+Mx2qtf7eGlfWNfXpjXVppR81d3+x+odX2gFLlYruP6sD+gSAIguic2Hy8JAiCIG4eZJIrmKFhxOWGntySorLGYnDbdrTfZSN1XTZOnatErb5xFGXQ16Ly3HkcXl9gfwBll3qUbMrA3h1scFVa2xhbzVCP2soKFB/Oxv6tFoOdixoc2HSWrV/X4PbIRRoei23/yuPIuSQV2sBwnA10t+SZb88WbLB2Zk0GfthfhPLKxu3xmIi1paXI238cP+9rm/DJ0X53km3jMiob6tmAOnb8+buPIvW9fDh3uFePS1uP41tWB8WaKpM4j6zOSy8ja0th0/PK6vznLedxSWfMIm5AraYIGR8dRUamSb2YoN13Vkx0VGlxXtk2Tu04im9tCp8cVu8fHkPGyQpoTdqedVgb+uIo9u62OEdCfL6z+OE9J4lWbaWmEhnrjiOLX0+Sa6ctOqw96CqRmy1Fsbxei9oqNpnsm0zuCe/BgzDhMYvwF0UaVq/HkGlxfoS+oegCMj87jVxb4k0L6qGt8Hps0i6s0snbEK+zT06hsKHPM8BQxq9V1jftrrJzbB1BK/qUVtBh10V+KXI1Yl/H2zS/Lhoz88sgc1fBPzEG4x5UWX2J1u6w6zZjtWX/yNqEjtXF/mP4zlL47EiE6zsbeWaxUvkzQx5+XnMUh09LlqG26MD+gSAIguickOUnQXQBurLlZ3eiO1t+EgRBOIsGS7qyfPzwYQkqLUJnuEX1w61JgVCiHoVbDyMzW1pAEN0WGfzuH4aECFfUnTuF/Z9VmFt3ymRQjglF4h2+cEUFjq86hXxK4kMQBEEQToMsPwmCIAiCIAgn4Ya+UaIL8aX0psInp/aUVrIovwVOzbtFEJ0WJYIjuD1nNc4ftBA+OQYDtOekmMToAbnNeMQEQRAEQbQGEj8JgiAIgiAIJ2Hg3soCfrf2R4Bp4iKGkKhmXij8+Qf9ZRSfEYoJotsjumt7oP+daviqTZKAsQvEM8wXcUlShv2rV3DRGAOdIAiCIAinQG7vBNEFILf3zgG5vRMEQdjHdXh/TJhqPflXA4YqFG7LQuZJY7xXguje2EvWJlBTjuOfnUZ+Z4gnTBAEQRDdCBI/CaILQOJn54DET4IgCMeQqVUIuzMQ/fsq4ObuIpUaUFelRfmpS8g5WIpKimlI3GS4hfhi4F0B8Pd2h5tcsv3kCZy011B6+iJy9lWiykqoCIIgCIIg2gaJnwTRBSDxs3NA4idBEARBEARBEARBdC0o5idBEARBEARBEARBEARBEN0SEj8JgiAIgiAIgiAIgiAIguiWkNs7QXQByO29c0Bu7wRBOJMnn3xSmnOc9957T5ojCIIgCIIgCMIRSPwkiC4AiZ+dAxI/CYJwJlz8fPfDd6VP9nn6sadJ/CQIgiAIgiCIFkJu7wRBEARBEARBEARBEARBdEtI/CQIgiAIgiAIgiAIgiAIoltC4idBEARBEARBEARBEARBEN0SEj8JgiAIgiAIgiAIgiAIguiWkPhJEARBEATRDVA9lIrRr6yGSvpMEARBEARBEASJnwRBEITTGQ/1M1yEScWAOKnIAdwmpwjfGf3QAqmEIG5uFr5cjiMv1yNY+tw84+Hhw/5UlqFWLHCAKMyMWIsvpqZiTxKfVuMJaQlBOJWA1WIbuzcVO8evxat9YqGUFhEEQRAEQbQ3JH4SBEEQxA3CNW45IhZtQ/Tk8VJJVyceqmlrEf3SZqgDpKKbkrbXAxc+lyZUoU9ELaYopEJLZLHwGLsSkc9uQ/zLSzDAi5Wp4jGcv0R4JcXOtoPwxMjleCImCD7uUhFBtDds5CH3DsLY25bhH32DpEKCIAiCIIj25ZaIiIH/leYJguik1NbWSHNdGFlPBMQm4NYh4ejtyT5fO4mUTQdwRVxqFU//ONw6djAGeHvChb+qqa/ClXMZ+P6Hk7hSJ67TkYSGhiIvL0/6RNiGW36KQoxmx2SwU+YQ3PJzeIICyEvBL5+ulUq7N9xNOToU0KYtx4nUfVJpV2YBBrySDDV0OLcuGZpiqfimw7F6ePLJJ/Huh+9KnxqZ8Ng1rL2nEm56FTb/qSf+95RY/vRjT+O9994TPyjZNp5g2+D9qVXsnAP3Jfh06nj4Q4+CjNX4W+FunK2XlhkJWIYh8+MdtNDLRdZri1ApfWpANhchL85CXzn/oEP+J8m4eF5YYoGxzswxXNejujQXhV+9hgpNuVRqBfl4qCbMREBkEFQqufh236BHbbkGxQc3QXPU5Ppy4LjMrkln1IODGPsETuk3C3Dml0LxgxHjvlSk48g7S61Y+SqgvH8zhkQKFY5qdm4zd2wX5s0wOabKA0uRtTddLDcStxoJ08KEeizdw/bjJ+N+NPbvNrG5b4CP6yQ8MnIRpvAGUboPL3y/HEelZQRBEARBEO2F8GxIEATRXrj0Ckbcncn43WOzMT1BEj7t4oKAxAfwu3viEe4rCZ9CsSd6h49F8uwpiHTodwiCILoYg2rxOhc+4YmD7zcKn+bEw/chUfg0VOYiZ/1zSPswHVq2hIt2v7w2mU12xGfvYPjzv5p9ePW8FeHTWQxLgFrO9qtCxz4o4D80WSx3EFkPORTqKEQu3IABcVFSqTkuQ1Yi5sUliE4Ig5dR+OTI5HDzDcKAGU91SUtk3xHz4CrNO4xsNvoMZBXO6pu3B4/IsfAQl5jT24e1MBFV1GSL7QTBZ6gofHLcVOHSXNspq9uNt9L3oYR/8A3GaKGUIAiCIAiifSHxkyCIdqQn4u6egvjw3myQpceV7O/xffY1aVkzBI3DpCFebFRfhYKDX+HjtWuwZu3H+PzbHFwzsOXuwYgfeVP71BIE0S35L/7vyatCjM/KNBUe2COWNsFvMvr68ZlynPvXIlQUZMOg9hGs+HSXHLQgvkX8oy09igJxtinFS3FCEFIbpyzJ+L1RZDVO1qwdFVBFcxFNh8t70lDBStwGJlgX4xrglpPG30xG2ocpKCrj5XKo734cSssn1+iVGHpvFBSs3FBZiNwty5D2hvT9NxbhyKbtOJdXBn7raIrptswnM0vsNtdDy6nV6mDwHQa/UFsxD2wwbBj6sLrQnt6Ci5fYZ88o+EiWpGb0EAcBlaXlgG80vHzFYgH3GfDtJy1rBm7Zb37s0mTD6rOB66zNOfAoQBAEQRAE4SzI7Z0gugBd2e1dPnQ6ZgYUYf/BDBSzwU7vxNlIHtLTrtt7wO3TEZqzHQf44M2EgDsewXTuzueA27yz6dZu7/J4KBJmIiA2CipvOVz5qNjA2l55IS58twqXczLF9SyRxUIx7imEjAyC0l0cTBv0evy3h1yw2LXu9q6AS+Ri9L8zHj5sW4JlL3dPNcjhxgbkznV794bbsMXolxjbsC3DdR0qcw4gf+8HqBas0STiVmP0tDAbLptGV08brsTy8fCaNhdBA/2hEL1NUa8tQUlaCop/2o76BuXFumuvVazVg5X6rq8pR9mxVBR8swF1JgqPMYyAZkcyinu9jcjEIHhAh4s7X0b+0WD4ProIYQHcJC8XOR8sQiU3E2sNxnpzgKbtQQFZ4Gz0uS0RfsH+8GhoQ+wcnd6LcztWo1YvrtmAtD3RLTmNtaWXEDo1Ht5K9l3WjirP7saZL1ab1YVIFDzGPo6QBNbG+bpSqRnWzr3XLPSZNgP9gllb4u2TbUN3IRv5O19D5SUr7ccBjPXQxO19ahVynyiHm74X1sxVYpnJz3Ma3N4bXJZLcPrNeShjtwjXiZsxYowc+R8m42KR9IXm4AloRrN6zFqOe3McD7nQolANMtbe/8jaeyWv1y1QPrEcEX56FH46A0VNulLjtWHFbdx3KaIXJULF3eZNj0+WjMBnFyCInU9DWToy32PnzrrKaU5D/bXeRb29QlY0/O7hg7g2NBHqku04vH51o3jbrNu7gn0/hX1f7KeuDFqP+Nv8UXt0LY5sS5HWkZDaq+bAQXZdJAImru+yMeuRMKEOp/fqMXBiGHSHV+L4zt3CstaGNTFnPP521xIk9MzFlq2L8L5UShAEQRAE0V5YffYnCIJwFvpj27EpVRQ+W0LxD02FT07xpY6UO28eVPcvQ8yEWPj6SsInh/3lLqNh9y/HwLHxUqEJPObg4uWIGRsElSRacWRySdC0ShRUD27GiPsT0Ydtq2E97p7KhSVnIpsE3/kbMHxGvNm2ZD0U8BoyCWGjE8SCtsLr4dkliBzSKHxyXJT+CJywCMHDpIK2opyLkGea1reLuzf6JMzC8GdWQslN/yyQ9XsFkbcFwYN/QaZA3zGz4Zu0CBEBonuwTBmGQZNnCet2OAEvIfqxZAzgorFZG+LnaDpi+TEZCy3w9IqGx9R1rC3Fw9coZrJ2pBo4HUPvX9DwWyKs3T20HLETouBlS/i0RuBSRD81F2GhkvDJYdtQBMci+vF1UAe20CrPDkvHa+HG/l5O82wifJpRViKJfP4YMHOR0LbdvPi+XENtKS/vJEhWiNV5aahFJipPc0tCOfyGtMz1HaUlqBZmXCHvJcyIDJuAQN7mDSU4u95B4bOrYDiA0rN6yILHsn5ZKrOHjF3b/dlf7VlUFgP1x3IFYdeata3MXWq7FetRUsTuAUNmCG0PiIX3UH8Yzqeh7HyZ4Dqv8OG2yARBEARBEF0Xh5//CYIgOgO9fXqKM3W1zbvVES3jug6lGbtxfM1zSHtdcl1csRJnCkSzO5+xsy2SfZjEHCzNRtb6RZLL4yykrUmBpkpazQLX8UsQOVAOmaEcRdtWNrqnrliGnNOWJn5tQQGlJPDBoINm71r8arKt43tzUe2kzXmMmwy1O2uSBbuRuWKWST2sxZkT5dBfl1YUWItzwnJxsu06yyYzq88oeCUlo6+KHY4Q41Gq79cX4Nct6YLln0wVZVXE9B0aC7ei3Uh/YzMu8mP2ikdYNHA5dQl+2ZErWJS5BERLwkcryDCeez6xcy8UcsszY1nj1NRKTA/9pVycY20h3Vh3wjFlQst2TOYZhX53xErrmiMLn46Ykd5ABauPDxew7yYjfWcueC4014GJ8DZNyDLkcQwK5W2hHIXcLZq3cZPt8P24uCXZ3F2XWxU+kAgVe1LSnd6OI2+y5Xz/2HWRc1oHg8wbAx54RRSVOW2qB04dEgfwvffE8f12Hs9qVqPgp3Lh3LmGTseIlzZjQLDY1q876CigdDFR6tsFo8u7HleyxIQ7dTlnBTHNvuu7BaHhYE2fUQatidW1aqAYl9Jw/iDKWmu53InRHs5GNbwRcOt0qcQOkthcezZNFItLD6CUxxqw4vruqpLupShExclCGLyi4cWjyfjOgNpPD83RTeLidkUBH9Z3EgRBEARBtDd2nq4JgiA6EbIADA4VB2yaU5mgkGHOo/KzZJzZsRI6TTYMRusp7W6UfrIbl/m83B8KIcagRPRshPLPNdnI+udzqCzIFctRDoPmLKqsCouzEDDKXxBDLm6dj8Kju7kHsYj2IKornJjC33cxgqO5uKND/scP49yBFNSZbEt3YBFy9zrHVdVVsLgDrp1NRbXWGCOP10MKSrfOQtExqagt9J+HkP5c3CrB2XU8xqNU34ZC1GUtxektmYLY4Ro5oYmYIJOxOti1EvX6AtRwUZrd+WWl6ShIywRKymBDp+4Yipfh9PuLoGFtod5Yd8IxLcGZDNH0UaW2YaHLn2BKDyJzFauPIp6JWof6w1twgYs98IfKxFhNGRkGF/ZXl7EeRVkHxTZuth05fMIn81UbkCVMFqwKDUW7kfXZatTWSKaY7Lqo+Oxl5HIRThkFv0ixuM2MvQ6uX6LGDSfSxKLmqN07H79+lQ3tdbavPbyhEN5OhCH4oaVQ+ngL61hHgWDPWXh1YBCb16OgzIGNtQb3eVBzK8SqbJQZXdyL9+KyDTHOKrIguEYvw8CZsYJYWnf6IMqF88tJhEdvca7qyllxRoC7z6ditMU0IE5abEYYoq2sa3v9Dub8KhQWAB7DZjggEhqTFOlx6YTRxX0fKk6L7du6ta0ehhrWxo8eRblBgT5Dx8M1NhoqfS5KTzRneiyinma97kY/tEBawxb7cPIy75D9MXb4c5ji2lx7JQiCIAiCaDskfhIE0UXwROSUSWKW96vHcOCYVXWNcDYGNjgWZuRCggwjbv2DBTGpNueAZDnnAIFsUM3FnapsXMqyP7BuCy5DwwRLMUPBXmiK2ndb1UUlQh35jHsdYRNmwdXoTupEXMODBfGn/vQ+6xZueXtxifu3ytToaSkqFR3AZbMYpXpc/H6FYCHZqZHalcxWOISqTJz85zILV+d9qBaS4zAcDKMg62E9n7ayf5Cor2Z+gKaJ0LOhvSCKSj2Dx4tFbWXQddG6UdMDnwkF9tCh/thzOPHGAhzZxvaHF7EdVoYmYshTmxE9LVm4Rk15YlQq9iSl4KPJczFMoUPB8bV41TRuqRORDRsGb7Y/9eePSi7rHHtiHMdEkHx5LUbMjBeEv9rifTjxxVpjs2CwzkR6iq0tOyrOdDsKUXY4G/WyIPiPsRJ6xBQpSRH0ubhqEk+19lhWM9a2dajhYnLNemjOs7YzcAYCBnqjNov16+IKIl7+Lc86b4eNrO0d0Ogg7zsJz0/fzNplKt6nPIYEQRAEQbQTJH4SBNEFcEHA2HtxRz822NUX4/ttP3dooqObAlksPMauROSz2xD/sokFj43kPG4+osBXWZwq/HUItQ+Eb10qMBFD2geF2l/4W1WSZSKWtA91+5YjK4u7QSvQZ+xcjHgxBSMWrUXg2GS4crHXCYjxHIHqSlt5uXdDJ1wUcsgsLcRqtRZ1UIeasvYVhFuEegHUD23G8JdM212qkKypWfR6XLdycis/bepaXnVBI9SBIm4eAqMTIeNPP7IguA1bibCh/CTpUZZn2pYbrQr7TE0x2y+H96+FBLtI+SfZjtrMvm4NQyFqi0XFV3f6IPKLxRcWqrgFGDKjmdiaPNu7ixzileJsguAVycVjPS7lbJPKRGpzzgrXf0tc3yvSViNz3XKbMT3dfEwD65qGlliOcw2Wotawne29dYl82oETe3FBy87nsJnN1leD2Jx31Fy4LE5DKS+wsLZ1623afnWoPJqNeq8o9PXToeSYRXIkmRgf2BKb2d4dSVj33zKU8dgjNs4pQRAEQRCEMyHxkyCITo4ngu94ANMH9wT0Gvz89Xbk3FA/3W6IbBLUT0rJYFTNJStqisHQChGtwde9HXF28qRmyYZ2S7IQ6/Tc6RJUXwdcfYMQNGEBRry4GX0HRknrtR5ZDyepqJ0Ml7jVGLEwGQN4QqF2PETDL5uQz/VBmTeCZi5FAhf4X16L4TOihIRKdXnbccHMzZftTAc/IQXJJfGzNfT2EYSxmoL1uLhuFjLTxHigHsOmm7lLv39oMiZunYU/HkhHyXUFgqPn4gm1c0VcAaMVoqEQ5ZZW3ufTcIX34TZd342C5KyGmKxeCYsQPXmStNxIGmolYdND2T4SbudgOy79UgIDD7EwxNa5MorNwJWzW8SiBraj4izvc+0kmso6ikt8Ne1ZVJwXi1BcgPZ6TZIQ9hRm9Pdmt/XdeGtbMmuXk/GEmYU6QRAEQRCE8yDxkyCITownwu9KxpRILnwW48CWr3DM6NJKOA1ZwkyE+LAZnhgo1SQJkTAZE7dYICXxUfgkijOmyHwgtyZkse8IRj5WXSgV6OHpPMfK2ivikN15oohctBZsDs1aaD6bh8y/JSPtwxTBAo+LbSH3Pi5avLaB2gp7xzMJCsFSUQ99s5ZunYnp8BsXJrSFuuJ0nFjNkxY1tr0jac6TXVzGzBXauPZ8Liq0Ujtk1GtLUJS6HL9+utbCtb3Rfd6mdZs0nUh1TuzYg9VSA2N/WppbW+blLbi4X9eKsU9rvzkAMel7T7jya9uMcqRdWop/5JSweTnC/cxjnToDoxUiZGGINrMk59MCBPHwJfbEOLafPCZrdmqhcG6UCY+jL48h2oAO1ZLLvkt4giBid1fqf9kHjV4O9ch51h/cjWIzQz2tqaVy7DCxQ27W2tawAfm871+xpKllPuvQnVu9sZgYwON8luC79JXYdb29JFaCIAiCIAiRbvyoSBBEl0bWE4N/8wDuDGWj5JoCfP/5dpykDEftgjG2IQr24lyaSRIiDhv0WjOi1Gm4cMK+G5JgcSOJgmr2XAQK4oYFBQXgYSnhE4aeFq7ZLnFvInKI80z/atm2uGDiEjkJPuZp6m1ToxcFsCYDfXZMDy5CkJhu2gF0MBStxcWPpGRR7v5QmiaLMkUSkV3lTRQqMxqOJ3wCvKwdT/RkBPD94/H+jFZbNwpBWXRFD3sJWvyGwVc4Fh2Kdy2FtpQLd0YUtmN9tpjx6D2SJ9oqxIVPFyFnxWSkScJl+op5KEyzLl7qisQ23jt8rvC3xThaD0byXcTrQ30dDwoFjiNm7tahyhgPJDgYYjNhF7PUxiw5Wi0KTnLP5ttey2m0QrSHI67v9Yc/wHlByVUgaNwis9+tTU9DBa9neRT6321pGdqNMGzApRM6yILHwtfK6WoQm+3RYG2bCA8vocQxPJVOjvnpA6XQ3eugs9E+CYIgCIIgnIkjj0oEQRAdi0yN+HtnYiyP8ak9h+++3EWu7u1IbaVkdeM/DL5qKeuueyIUY1cj5sXp8BVLzKg/lisKNYHjETZ2kmgV6TML6vnLERkqb8wYb0rFXpQKIoY/Bjz4HNx4YiB5PJST12Po1DC4WPtOa8kS4+RB5o/wJ9aj7zC2j0ZtVTq2sAkWiWqKSyDo655R6HebtMx9EnwfZsc00Jbl03j0mbceQRNmwcMrTCpjyMPgMWYYBH1BXwLdJaG0CUYR2W3ozMZYlNYwHo88CAPnr4ZXsLQtKW5ldFKUIE5oD29zPAFVu5CGSin2aODU5VD68oziNrhSJlmYKeA7YpYUbsEbsuAF6Dt/M2LinOWO7Q93QYxXo8+YSXDxioWLA0mp6tMzUcrq0iVyFmJYe1WoTc6vkrWhhGUIe2qlmKSoCS2oByN7XFHAXzy412CEvRxKQ1diyEPL4BWeKByLGL+xBNVXwuAWvgRhUnZ0w6WjKLPR9toN95nwFUxXS3D6TXMr2Ybp9c24yI+VXWt+0Xzd5kjH5X3ZQoIuWfAEMYO8kdJVOHdYdPFXJjyH4az/URmvDY7SHz26yZNu9c9c6PVGwEhL6+8geA2WknPtMbeebpyScSKHV7gcAXGzhL80AiAIgiAI4mbiloiIgW0IMkUQREdQW1sjzXU9eifORvIQbpXUHNdwcusmHBDM5ACv0bPxQKy97zAufI81/8mRPrQ/oaGhyMszSaPbXQhYiiGPJlp3GzXooKtSQKHU4dy6ZGgaYrIpoJy5GUOim1pr1p5OwemKyYhJUAguw2aJQ6JXYsRMUagzxVCVi5xtZQh+MB7KvBTHEmbYI3AJBs4Zbxbz0BRt2nILl+UgqB5cjeiBTY/JUJqOQl08QoIt62E81M8swQCbVlR6VgdLWB1kS58tcF+AAc8kQ21tHy3rIXApoh9JhMqGaMHr/dhnje7bbpNTxKQ8Db9j3FeTYwhYhiHzWZ1XpOPIO0tRK3yzbciGrsbwe0V3dkvM24Pt+uZwV/8eXgq4WNZD3GqMnhYGOLzPCnhM+0QQU61WnYFtq7wQF75bhcs5mVKhCI9JOoxty7bVG49PuUh8EWCBI/Xw5JNP4t0P35VKgdf/7xLmDapD7VF/hL1imasdePqxp/Hee+811kEzCNfU+2zfzLLfmBCwGntGs98oSsHEQ45fb6qHUhEdau36EZGNWY+Eif7sd3cj7cOVDSEGzFGw30kRfqc+awPSt2xmZexaEBKsWavTKPg8thIDA9lxFWzH4fWrTX43ivVFryM62sb5lTBre8Z2L320hq3jM2KvHlqL7d9lfe79rM+NlK4XY/t3fw4RL06CryA2z0OZrccF1mYSWJuR6bNx4o1tUAh9ge32K2I8J4XIeX2BaGVrt89j2L02x+Nvdy1BQs9cbNm6CO9LpQRBEARBEO1Fc8+JBEEQN4QeTcf8RHtSvAwnPt2Ny6VilmiOQa9DxYntOPKPh5Fv1XJMB+2WJTieVigk+OEY9OW4mLocRz5ba8vTFsh6Dkc/SxeyDwvbMuhReXo7Mt9pRqRpLUXLcfrt5cjJKERljbQ9hvHYzuy1FCzYel+w9U+Xo05a2XC9HJcPbMCv/1xqwz1zHzSfi4mOdKbbuM6OKy8dWWvm2hY+OTVrce6DDcjNK0etPffPomXIWtV03brSQpzbJta7Ufi8kRiOvYijXxwU2lO9sUKswut7KbIyxCRRAmz9WnY8uVuW4siWrKaxB1uFDtVpaaiQtlFXpUctmxp2jT0JufkGIez+ZRgQZ56cqj5jEX7liaws6ry+hrWh0+z8fviGTeHI8Xpo5OV9SkEwcouuxuvNGacefQNHtqXjokbX0FYF2PXE669w72r8uqIdrim7BMErSrRMLM3e0ljHTdChMitXWC7E6xQLmyEbZbvShSzmTaw/hYRjD+Pwh9tRWGR+ngx6dh0WZbPrYyXyj0qFXRbW56ZlN7kmZHGxonV+USYqmntPevQoLvMKl4fBN9oHjuVQ0/ImxfCBm7PCJxMEQRAEQdwAyPKTILoAXdnyszvRbS0/CaI702Bdq4dm51KcO2xu3SmENpizCBGBcuDSPqS/v7zDRGRLy0/gv1i7RoMpfetR+as/Jv/FBQXSEk6D5acpkuWf9+kUpH3WAovpVlp+EkTbIctPgiAIgiA6FrL8JAiCIAii+xI9TAwroM1GiaXwyanZDe1FHlGS0cPZWa1byi1Y8KGXkChLNeIq/m+iWNosvj7gh1dVcVb87CjX9TwdEuDpjwShgCA6CFk4fLhls4MW0QRBEARBEG2FxE+CIAiCILov1yWNRRmFoMmz4KaUknpxpORXA6XkStqzB4TEOjeUNHc8/7UKtahG4hPX8H+DpHJbqH3A9776Spr42VHKzqKEV4x3Il6ImYUECjdCdAA+rpPw/KjpCOcjkMtnsVMsJgiCIAiCaFfI7Z0gugDk9t45ILf3jsWY+KMlODv5yE2FA0lgmmIvYUonQDYJ6iefwwAf6bMN6or34cRHy1HbgdZoTd3eG1n4cjmWJlQBOi+sWazAsos23N5bjQJTItfh+WgTMZidT3JDdgbGREEtwTKZWjfDGGahAT2yDszCM5d00meCIAiCIIj2gyw/CYIgCILovhh2Q/PeEmTuzUZFpd4sQRBPTKXT5AoJo35d17HCpz3WvO6FNcc8cfm4OzZclAqdig67cp7E3w5no6RKKiKI9oZdY/ryQhz4fgkJnwRBEARBdBhk+UkQXQCy/OwckOUnQRDOpDnLT2s41/KTIAiCIAiCIG4OyPKTIAiCIAiCIAiCIAiCIIhuCVl+EkQXgCw/Owdk+UkQhDPhlp8thSw/CYIgCIIgCKJlkPhJEF0AEj87B91R/ExKSsLWrVulTwRBEARBEARBEATRvSC3d4IgCIIgCIIgCIIgCIIguiUkfhIEQRAEQRAEQRAEQRAE0S0h8ZMgCIIgCIIgCIIgCIIgiG4JiZ8EQRAEQRAEQRAEQRAEQXRLSPwkCIIgCIIgCIIgCIIgCKJbQuInQRAEQRCdhvmrdmLnzncxX/pMEATRbQlYhiGvpGLI5PFSAUEQBEEQ7QGJnwRBEARBdBLGIciX/blahgKxwD6yRDwzbD2++k0q9iSx6a5lmCAtIgiiczAhMkW8Pu/Zhq/uWIlnlN7Skk7GhBfxcQp/AfMVPn5hnFTYjvj7QMn+VF9JEz87gNJzEd65IwU77xH7vK8iSTglbkICVot9yr2p2Dl+LV7tEytcSwRBELYg8ZMgCIIgiBuHIhbTnl2Bjzd/hZ07X0R8L1bWKx7P7uQCxJf4S7NK5ni8On4pZoT6Q+kmFREE0XlxkUPpG4UZE9/Dqz2lsk7EuNviofbgc3KoR4xHu8if6gVQP7QZw19KxehpYUJRn6kpGP0K+/zQAuGzTXouxUd3T0e0rwJyF6mMIG5mZOxq9Q7C2NuW4R99g6RCgiCIptwSETHwv9I8QRCdlNraGmmuCyPriYDYBNw6JBy9PdnnayeRsukArohLm+DSawDibo1DZEBveLqKZfX6CmhOZ+LntBxcqRPLOpLQ0FDk5eVJn7oHSUlJ2Lp1q/SpGyKLhceYeQgZGYaeSjlc+Cs/gx66y4Uo+XE9Lmeli+uZwgemd01AQLA33HqwzwZ2DZYX4sJ3q3A5J1NcR0L1UCqiQ9mMPhsn3nwOWrZuI+OhfmYJBnix2apMZP5jCap5cdxqacCrx8Wts5B/QsdLG3CbnILhCQo2p0fhpzNQ1KTJKaC8fzOGRMqFT9UZq5G5Y7swbwZ3p5wfL1pCaNn2V0jbN8G4/5odk3Eug5eY7LMprM5qtWUoO7YbxQc2o04vlbeVyPl4969JCBPEBmvokP6P+/DnvdJHS/xWYufYKMgN5Tj60yq8c+UgCszOgQVcaF0wF8mjQqHuJdYf61igu1KIzG8+werN6SgXSwXG/flLvDiKnYu8rZj61Dqp1EEUD2PFxgchniYdMlffhz/8R1hiBnfzT+JtiFH4n4VYuLpQ/GBkwl/w5QvxUFxNx5uz/oz9UnEDvcdh/qJkJEYGmR2TvlKDzL2b8faH+82OqTWY7qNVbOybYug0LPgd27cINRTSrumvapB3YAOWrbbcL9YWdrK2IH1qQDg/edi3YRne229xJAvexc7fitdSzuY5WPwv82up4fyx5Zlr78Uf/i2WmxL/h434y22SFeKFHVj4+HuwOAON50D62Dy52Dr1abSwtTRia1sOn1MFHl6xEQ9K/YPuyHu47087hHlTGuvGARra/zj8ZTN/QdHMdWk8J1bbhALBnjPwzK1zMawXOyvnN2BqxmZpWSeBW34uGge1hx6avW/jkX80ueLagAJuE9chdoy3beuTvBT88ula6UNT5sRtwyP92bm9momPf16Fr6sKoZWWmWHa/9ugsd83hd33hi1Gv8RY+HiL90zDdT20BenI37ECugrza8zWdgx69p0L1r5jco8pPYhfVy+D2eOcbAEG/DEZal5BRbuR9uFKfgs2RzYXIS/OQl+pb83/JBkXzwtLzGi4PzuANm05TqTukz61EuF5Yzb6xUbBS6o74/PGpUNboDlq4/db8cxh/dwxGs5HLrJeW4RKqdhqXfDtaEtw5acNKExr5thb8hzlQLuzXtcKuPR/HP53JsBPLdUDo66S7V/OQZTsXYtaG88dPq6T8MjIRZjCG0TpPrzw/XIclZYRBEGYYvPeSxAE4QxcegUj7s5k/O6x2ZieIAmfdumNW39zN+JCGoVPjovcCwFD7kDy7CkIlwbSBGETr0UYsHg5YiewgYhKemDnyORQqMMQNvMlqAOkMgH28D1yNYYvSMaA0MaHb36ndPMNQtj9yxE9cZJUyEmEh1EklIfBN9pCSOg/Gf7G5Z5KGJuyq4+PNCeHX/RMad7IdPg0/I4crMk3RTYbfQayC4ANKPmg1yNyLGxqh0aUUfAb4qDQYQ1WZ24qf/QdOxcjXtwMdX9nuKzG48UlkvCpy8WOdxZj4dvpbCjLPh56E1OnTmVTM8InY6y3P6slQJ+7BS9cal74VAx9Eu9+8nc8eXdko0jIcRHbw5jfvYhnnegvr5gdLwifuqv8iBSIui1JXNAMQaPmslpxnMjfrcCXH7+IpFFhTY6JW8LEJy9y6jG1BO/f/AUf/PVJ3D24UfjkyHupEfmbF/Hx/5uPSKmsWYTzE4lpL36MdxeYf2OMf+O1FDo8mdWyKdMwqaHNy6HsLc2aMQ7ThrK2rNdBx98M9ItHcn9xSaej4ZyyumPn/G5bl7NiFuJ5w2PtTmh5kYmw3/I6Ch0KqjbjhSOZ4DqG3De684Wo2PsmHknmfc+9ThY+GdGvY4ggfOpRlrYBR1bMQpbwcosLVZPxC5+aET75PSfCm19Mehw9sgQbbQmfrUUWC68HNyB2Rjz6+DbeM2U95FCFJiLmqXVQBzp2H5HJbX0nHJ4qaZadfy8e5sQEWUIC+hjv1QqfhvumGcMSoGbVoBVEVQX8hyaL5TcS5VyEPMOfN2Lha1J3xueNATOWYECcVNZAS585nAzfDruvB05eghEPLYBVQ+IWP0e1higoZ36CEQ9PQlCgST0wXPlzR0Iyht9v2yK6rG433krfhxL+wTcYo4VSgiCIphi7MIIgiHagJ+LunoL48N7wZA/rV7K/x/fZ16RlzVOru4Kzabvw+cdrsGYNm9Z+jM+/PYkrfMTkHowRsZ3QX47oPLgvwIDHp0PNxXaDDhdTVyL9zWRxcPnGIhzZtB35BWXmFiWBLyFqahjc2J1Rd3o7jhjXf3Mlck7rhHVVYxYhxEScFO6ileWo1DcVMj2GhMNDz5YZTS8k+ECSiwCVpXq4hA6D0vRO3H8s/JR6tszUUsaCYcOEwaH29BZcvMQ+e0bBp1nrFh2qtXKoRz1ufXBjFR3OrZMG43xasQSZ2zJRVsUWybwx4KGVbIAnrtlqbpuEWDWfKcdP/3ga76XmoDDERxCwSoodEx3kt/C6BApKU4S/Nuk/H2+8Nk0UWut1yP3P21j8+H2iwPrw03h97Q5kXigzt0BqEwrMiuUWiTpkbUuHhs3JI+KbFaH0OnbOe8ci6beOiQuKWSvwxqxIKPhJ1RXip3+9jqcf5qJN4zGln3fmMQG5/5Z+33KytPCLfBJvLIiHN9s3fXE6Pnlljrjew3/GJ4c0ovAVkYQlL1qTernlpPG378PCt7ciRzBzlCPsN4/jYZPqkbMBOK/jcnZjkLNrKdm06n6TiHCFni1r5lqaMB7RPMzChd3Yns/3So3YGVbcJvf+Gfc17JM4bZUsshuFeuPUBqtPMyzq4X/fxo4z4rHI1eOwwEY8SsXsWMF6VpeTgnTe8DyiEP9bYZEZ+/8itf+GaSvbIodbdZqWs6mlVs/2KDvreEzfboRqaJQg5tWzc3M6dTNqtcPgwfX7ijLUCmvYQ87aPP9biLNlQoF9KtJxxNiPW0zmloMKuE1+BZED5ZBJ98y01/l6yUj7cDsuVrBVeN8/53Xze5YRs+3Mwq+b9qGUOy3x79y72FzE5N8vZfdGeKNPrGkfEASvyCDIhGW2UEAVHcZ+QofLe9LAd8ttYILVF4CVnzYeqzCtS5fEYhOxWZraZvWpgHJqMvpyUbemBOe2LEPaG9Jvv74A6etTcC5PfIYwo8XPHG2HW4w2HDfbTlZWubAd19Dp6Gf5grQ1z1ENNK1j49Skroc8jih2jKYvBcR1Wdt7m+1jWiF016V1bXH9KAocG14QBHETY+32RRAE4SSuIfNUMa7lp2P7Zx8j5YccXKmXFjXLFaR/nYLvjhSgwujmYtCjIu8ADpzh6gs3gqEAf4RtPCZOhtqdzegLkbPqYeSn7UZ9jSSC6HNRe3Y1Lq5fgMvFYhEfdPncJbpqVR9di+OfrUatcf2a3aj47GEcP8o/y9F3vMVAznAWl/Mshcxk+EQqUH3iAEqFkQEbUFrcccuzc1FvYTHqwQbHHtpslIgqBPuO5aDHZOB3bDMqTnFbBzn8hjRn+VKC4qPlkAWOhV9rrdq0maxeluD0+ynQCANaf4TeOVdc1lpcXdmec/TQcpGGIVry6VCWL352FtMWTEIY3xhrDzv+NA9Pr/4GORek83slFz/9+z384fGFeL0ZK9MWoZiFWC5IX83Cvs27kd2MCGWkLjsTOXoFYqfMZa3RDookvJwUKdZfeTrensf2ffNPyDXGEZGO6c9POvGYWsC0341HEN+54m/w0vw/47PDkpP2lXR89pdH8FKqeMLVY2aZiZlN0aHwm3VY/M5Popu3PAhhicICM85m50EvD8WwpMYfS7otCgpdNg5K15LcpemGxt0Wza4oNkzP3IxP0tlvsHn10GT79d/hsHo4+Q3e+595WHdMbLeKoZOsiOkmovuPn2G30PDkiBrVeWw/OyU81IAQY9h8+vLPTo74KVm0Xa8x2mtKVpAVJQ6Kn+2I+zwEx/GrgbW1TeI90yDcu3QwFK1G/qq1KOS77R6F4HH27NPLUXd2Oc7szIbwyOcbDIXliJP1jZdLAVXU5Mb7qftMvipKf00TQ7RYG6XKZsOX38cqsti/VFx26AVgeyN5YzAu710ETdZB/sgqYihEfcFaaD5NRr6Z2NyGZw5nwbZTuWUFzrHzwLejCh4rFBtp+XNU61ANiRJfzJ7fLb0UMAb1YG2vku1j6gJWP81ZRBMEQTgGiZ8EQbQr+mPbsSk1A8VOeiPrJvnD1Otv+FCB6KzI5ja4eFemfYAKyxhl1vCaDT826OIDlcJvrFkR6lD9zQEIYwTfMKgEd3QfCEacjMrD2aiVR6HPMElgiR6LAE8dSjJWo1qw0PGBm7+wBDK5OIwx5BxAcZUc6mGzhc/ALPhFy6FlA7qyS4IDFzx6Jwh/GzAO/LRnUckGHPXHcgULGVuWL0ZqM46iAgr0S2ijYKldiwuSkCWIvcJcK8nTQDReUmPcC08illVdsDevPy3KTwsLnIPiYUwYLJ6X8kPr8J4kHrUnDdZ3eenYj0zsO83rzI4IVX8AaXlsxNwvEXNHSWU2UMweL9QXoME3y/6Mb9r/kFrAg1J965D577eRIxaakfPOdmRydYMLljPEsmY5VCK1FVf0NLE49vGQJIFDB5BdLUfkqFmCmMn3YWykHLoTu/FesXgt+agtBZtxGB/J1y5E9resArcdBa9+BMR2Xtd3Vqdbc8XjgYeS9SoWGEV33Vmk7wUyv88VRGN7VsdEx1An3Yvchs5EXx46xIvdF9hIrLZCOqc3EJdb4+HL9sVQsBcX86x0KIYUXPxF3E/VwAmOeRGUaaU4065wMbq6uyslDbgEpUfY7/kOg4/kNu1yayx8DbnQpB1FFTfpVLH6ERc1Ink+VOeloZb1rZVS39r8C8COw8WdP0g4QKueOdqDdNReFefcPU16lNY8R7UVubwF3ikEQRAth8RPgiC6BnIvBCdMx52hcuDqSez/lfxbCBv0j4aPIEqWoOQnKwmNrBEcDGFsduUsrtrKL1ZzFJV8QAYfKIXBmg/kxhi2eQdQogX6RHMhUwHlkDC4lB5FmRWLCFeVpJgiBWU5Osj6D4OK342HJMBPXg5NejPud9LAr/asZBlTygZHfJ/sWb5UbMKlAjYwGzgWPtySow3UncgSXQflwVC0JdbX+few+UdRSJWHTsPfP9uIZMFcUAutleQV1uDCgV3ujgLvNrhQmL7ZwfbQJozWd3qcPSwmmkk/dJYNZdlx2hGhPvsum63njdgZ06QS68xi7Usg7yDWWlMXbyS3hQvx+Li1UKaVBE8iW5F7kf+VwzsoVihpDsVvwyC+OyhHicnx+iiN19JWHGTXEkJjMYuN1xW/S2DnvByZqc2ETzC6vBdnYztvb7oUZF3gC2y4vncBjKK7PjcdQss7dABnubBhx+r4huGuRF9p9oZiEdbAGNLA2VTvScVFKXRIyMObEftQAngAn7oqR8VP1t5vkWadjEItXmGV+QdsuDEDhvNSjFEvf/txphku/YMg3CL15agV7p0Mn0ZB05CRjlKDAn2Gjmef4uET7Y/602motLUDrG8VPR/0uJIlJvmryzkr7JO9F4DtSypKz4qmnj7jliNs7KQmnh5NaNUzRzsgS0ZPP3H2WmmWOMNpzXNUK9Fm5YrhWQImYejDz8HNXRRdW4eizc84BEF0X0j8JAii8xI1HQsXLhSnRx7AlOFq1BZ8j8+/OACNzYdj4qbHSykOrioLobM1qLDA1c9HuCEaKspENz2r7JOsOOWQmT5c67W4ju2oOC0JmfKZ8A2VoyJrWzPxFq/hOhsEV584i2pZGHyHeUPJBnUul46iTDD1sEYQfIaKA79LJ4yWIvuE7fJ9at7ypRBl+zPZtoIQNHG6VNZKLpUIQh4fZHhaTSLjOPv//jj+8HkOynmlu3hDIYx5wjD+vZfx4Mjmkip5I7zXc7hvAPuCoQQFooZqnd5KLhkAVwuQ5aCo2ib6z0U8F6Krs5FuzC6+dx+yHBGh/vMe9l1gNTt8Op60aX04Bv5Svesui6KqCM+W3tR1913beSJaTNhvm/4+n8zcgweq2dlh6Mqajet49rK450qPZs6zIghjZv0Fq+bGstbGLrUzB7H5iLioES107Pzv+InXRRhiZ3sjeXgo5JpMbD8krWKFaXeKLu+aYylSdncdNmeKPvKd0/Wdo8DDUdKeXcjGbnFOIghz40XRPfvQVrEI+7GPi8LsCnCu67sC8S9Ybwti9n17pKHgMvvjGoV7YmZhbI+2iB1diJq1yH9nNXILxHiOHj4KwdLNc+gCBCXYEcxcwjCl/0wM4+b2pQWwlujbKl7xGP5KKkY3mVaL4ptAIjykPqW21Dy7uBnFBWJ/I2f3QKHABvIweCSsRvQEf2E97eFtomhqQj13/a/ZhlLW3ykHToCb72T08eX3tg3SGlZwnwc17xerslFmFKiL9+KyIy8A25VCVH6xWnQfl8nRZ8JzGPnSZkRMew4KH+v9W5ueOZyCAjLfWVA/OhdBvE3V5KL4Z5Nz34rnKHPCEG213aU2SfxkOPYiTvwkxh516z8Jw19IwZDHlsM3vCXp//bh5GUuQPtj7PDnMMW1uecHgiBuVpq9dxEEQXQuXNCz/x2YmXwHgh3KGk/cjLj5Sf7lLRDIxSREbExVcVb42yK04uClOiMLWi5kzhgGP3kJLpkOJNhAw1wo1KGOD9jOp6KE/e0T/YogmJYe22Q2EPL0CpfmGO4z4NuP/dXn4qqJZVLtMdES067ly/ktKGaDM48hE6wnrGgNJllZW4cOmRsWY86DC/F2So44sGZ49x+Dh1/biI1/TbLICD4ef7srFXuSNuP9OychGOXIOrQS74i+lVYZFyC1B4Zom9O+BP0mVhDO9PmZMEpQjotQhdjwYw7bzyAkzrI18JPDVTp/ZVeaESpuFMa2VV6Cn6TZlhGGJKOQ9uUavPy7eMGSVF+8H+/9cZ0kVJqiRRkXRP+zWxCYw2KXYhi7ljRHNsPsCvQxuZYwDYkDBekT2T82/qJuU6aY9KfTub4rEHRrEp79f+vxIM/kzq+bXRvM66L/dMQK/UMeMo2iO2P/j1nCddW5XN8z8U76ZmRVAj4Rc/HqjBR2TafgbzdDHkP9dlxen4y0VWuRWyT2SDIlz7j9HEYuXgsfPwshuOcyfJXE+rx7VuP5ONazlGdj46FVSJMWOwfWpoTrVocqY9zglmIqsr60GrGTw4Q4n7oTm5G9p6k3Q7WWW7sWouxYLgxe0fAfHwZVVTYumRgfcotHD8kqkSMbNgze7Dfrzx+V3Ok5jr4AbGcMu6FZPQtHtmWilN2QZT284Rs3CTFPbcbwJ1bCS20uxrXpmaMNqKcZRcgUJCyaiwEBchiqSnBm44uoNBE5W/Mc1Xp0qN0zC2lrUpDPXwywc6wMjEXE7GVIeGEzghK4ZbB9Nh5fiwMaHeR9J+H56ZtZn5KK99vLYpYgiC6J8RGVIAii85G9Xcz0zqeP/oWUnekoYA+VLj6RmDLjVrTR6IzoptRVSiERWnGHU/Y2FUjsEBAMs2Fq8TZoStngIjoKtxSko8LSWkIQCseL2X0b2IeyE+WQhUahb49ClGaYSzsyE3GxYeCXd9TciqY4TRhs2bd8SUfpr4UwyNm2Epxh16aH3ujK2FZ0hfjmdJkgTurO/ITMYlEU8B4+H8veSDKvZ1Nc2JC3R/ORR3PLG2tLHG62J0GYHitIn8g7IrplGtl/2DHXd92/9iKbregdl4Tmnd8Bn96mLuPr8HSD6+6bSJfiuDVhwbtNrfWM06r50krWsZXt/b6/WHEv9w2Cs9LFlB96D0/Pf9Mituk4BJnE/+QC845j5UBoJCLlhUjfZiGTmgaTEzLBs79XcrHP1JJUtxvZncb13UQE3vkl1iydj7sj+E7rkbvtdbz+b7PKaBTdWf9g1vL2puMsX9Wpru9WMsIbp39LGabsoK3XQlttfgzOYtyfvzRv1yaT05MYtZayFNTqeI9Ugvy9udAZWB/vGYSBj6+GTzNdmtxFjp4tubfZzPa+yEpGdQU8G98VtREdNDuW4fjWDeaWjf4+5rGij6ZBo1egb7Q/qnMOmIiaHFY/DfdAKRM8a/+XcrZJZSK1OWeF791Y13dOOWqPLsGZFTxDfgrOnWaf2Xl184tC5IINGBAXJa3XSIueOdqB+kvpOL5qHkqLzK/FtjxHidjO9n7OltmyZi0u8hcDPAt9Wi4qqvg14Y3AyUsw/MEF9uOB/rcMZdXs2aFDBFuCILoiJH4SBNE1qKvClcIM7Nr8Hc5xX+JegxF3w1yciM6MQSu6FELlDw8H73K1UoIhuCmbuTFOgkJQ3G2JfumoyBb9r8vZ4Mz4/F17pfkBfl1mljAINVw42iiYlpRZuAkaB348RNgWsaiB7agQ4o3Zt3wxpKWiiP2w74h5rc8eGxgsDV7LUCNmoXEO/XwEkVObuwF/mD8Hbx8S61IxdDoWNFjh7cMfv52MiV8twFuHc6GVeSM8/im80MyIt1An1WQvf1Hwak+M1ncoRNZWi/P+n3Sc5SN0uyLUDmz4UcMOPAoTfmdth9Ohkdz8XdkxdTpyywSRl7vGNknI04AC0Wrx2LTllmJZLrYKQtoc/PlfmULCHu9RT+KNP99tWwSXSN+bLayPC5liHE+OcX9MmDYmXPgtXe4BVpumFGL7CSkTfWdzfdfroOEZ31+ag6ffz7Q4JqPozo4gO8Vi2Q6k54r9Q+fJ+q7AIzFzkcDaQNmZDfjj1+ya3pqMP95Uobxj4cqT2FRpUHFgEY6/nQIN7/9l/giZYNKPX1uKe7dOxr3bVmJbATuzqjDMGLUYFqnw2ojRvRro4d5Mqzf2/VXapiFdjCLr6wtwZG8hW66AetoSq4KfGYYtKBUyjelw6YRRtm/cnwaMng+GQpRnWVzR59NwhcdSveFZ343wDPlroflsFo68uRq5/GWeTA713U9BJbmvO+eZo+Vodkgi5KoNKGR17OIXj5j5y5rEz27Nc5TT4FnoUxch5x+zkHmgRGhrbgOnI5hbPjdDQthTmNHfG3rNbry1LZn1KZPxRBsz0RME0b3o6O6MIAiibRjOoUiIiegCtyZpQAmCUVAgWbQEoY+jFo5GsbFvuG2XcN8EePMgaWzwdc1G7Mi6vbOEgcWZX5o659ocVJYuEywk0tavbmqwYBwYGQd+DPW0lIbYWcYpdpho02jX8sWQgktHy4UMu71b6dbrMVyMlYiKQmidZfnJCOrjLVhmanW87nT45h8HJbdeJbwtB7TsHOwqWIQvC/ig2Rvh6mbOc0YhRDkrCLHzHGwPrcRofSdY7X1paXU2H7HCybEvQuV8uA85ejkib5trRYDTIUsjDv7loQl42J4iaMnap80t9Uynp9ZJK7WBQ4UQhvUe4YidIJQ0RZGMcMEdUYeCE02vFZFypG/+A5ZtK2RDfy6ALsDLvxGX2OTQ65jDj+Px98xdwjnuSqkujS7vbDdGvWhxjnZizWS1sOzGu74bRWBpuvc+PPK/b2PHMQvhh9MgurOW99umVo/zh4r9Q+dxfZ+B4YFsn6oz8cXxzUizHfSwVez/y33m7dpksmqlfEMI500SqOExoxnatSg+IZ5bN1XT1wba67vxzuEtyOJKkHcYbmtzyBFzjC/pvEMnC3+t4TpIfGlgKBEtLa3C+ubaA8/ixGH+e3Kopy62k4BGB+0XM9h9MxkXm9xXXdl9U5wzej5AFobol83vf6NfWYAgIRRS58n63gAPc/DpPjFruzyo8V7WxmcOt142EsXdIuXEqihDrVBgg7LNKFrP9o3rsj7xiJxqEQu8Nc9RTqcc1XuX4lwRn5ejd+hYodQ6sZgYwEMLlOC79JXYdd1KP0kQxE0PiZ8EQXQtZAMQKLg6VqBEcE8kCAsq9uLyJXHW9/aXoGrGhbABo+s4G1gFT54klpkRBdWUeCFBREM22t4+YiZbB3FTcfe2cHg2Zpmwj8JHsNBsGPjZwwHLl7qfDggZdvslzG35Q0D/ZQgbJgpHFce3NT+4aiFh3vxE6VB2TvyMcUGS5aAedTYyR12sEhco3ZtxHTyyD9mi+omgu17EfPMgok6k0frOHnZFKN0n2HuSDd76JWJuoFRmwv7UdFHQlUdi0gv2LSI7lAbXcQViZz5pEbOVo8DdL0yCELrySiZ27BVLbZHz/jocFuIQst+750kTMTgcPjxbu6MovCGk4jG6vNul62R9bxTd7dBpsr4rIecd23U9nGk83rXwgZzfQCpEyzbefyikeJ8GQQ21Rgm0gndAT/g62b/b6DouC52MvoFWLhDlAvQTktDpoTm6SSyziQ61qdtwkb+1sEiy5+pj2x68KXLIuXUsqxuj54M9brzre3PUQW8MR9KaZw5GbZko6qlCxlqpDwU8RogvJw1lBfbvz9rVKEgT3Qg8hs0wF6lb8xzVztRUNddb+EApvOPRQWfz+iEI4maHxE+CILoGbJTQOygOUx68EwPYoEmf/ysybyoXOcJx0lG6PV20qnAPQ+QT69F32CTudSYiD4Nb+HMIWrgWfRqC4W/HpV9KBMtL5chFGDh5FlzdpQGgchK8HnwdkaHsBwwlyPtOykbbo5U30RZ/iQ38BosDv9I9CxriZplPyTiRw0eacgTEzRK+ZZOa9bjI1nUZOBZ9HLKe9obMaxJU09Zj+EPxgpWKoSwd5743dxhuMY+twMb3/oInfzsGkf0UCO/D67sEhcfCMOa3L2LNo2KGb2gysftHPtNa0rF6czobEjHYuU/668f4+2N3I8wYNLg3396zWPHxGrxsy1LREfonI16wvtPgmyetW51Nve8zCKfJIwpj7ZymHdu4wOmN2NusuLYfWo3NUlgA71HPYuO6v2P+5DC2toh3hD9rCTeKQmzYJbply/tPw7L/9yTujhD3TNFvDB788yo8OUoUUXJ2rbRwO7dGOlbu4kmgGP3G40l71p92SLotSmhX+mPrzM+NyfTnH8W6VQ+fBRv2VZ2IICQPF6VPTepCq8czdep9+EzqH6Jue1BYl+hoxqPPvPUImjALHl5hDTGjtVcKIFOx/jXpTYQH8/X00ByzJy62A+fXo1CwsFMgZM5qqKMTpezzrP8PXoQB85Ohdmd9/6WDDRaqzWLYgOJD4j3VVFgzJvppEe4z4SvUTQlOv2nt/sem1zeLYqtnFPyi+bodSMBSRCxciT7Rk+CiNPbCDFkQXIIXIOixSRDe2WvPokKoY04rnjkYtVmSSB08HZHTTL4jj4diwtuIFl5OsjaU4Vgbqtu/DReFcAvmInXrnqNag8V10YCi8boQXgDqcCVrt7CEIAiitbRq3EYQBOEovRNnY+HChQ1T8hApnWvPwUhuKJ+NsX3EYoE+YzHb5DvC9MjvkDw1HsHs6/rLGdj5zVlxMEwQ1ihaiuwduUKyAZmnP0JmPIeElyQXuZdWY/jsSQhU+5jdBOt/Wo6c03o2GJHDJ2EuRrwouZcvfg6RA9mDuEGHi18tR6ngv9aI9opj2VpvaRg1MOy5pBnhO8gHfsLDf0mThEiN6Ni4qlAYSLmEJ5gnlGgCW3dfOirZYEf8XWso2GDX6FK4GQnPPIfoOH8hLlht8UEc/2CpULdtQuYK7/7xmLbgZaz44EskCRarYUj65F28vGAcgrj5TnUuti5/0wGBrHl03/wZS/+dK/YZHmrEJj+Ldz+R3IKF7d2NSNYebMZBDU1q4kpsnN5dIK4SNCMWgsN0cSZSbIRFgC4FWYJVpByh8XZEqEOrsS9HD0W/IEEkMUeHb/6yDJ8JGeTZrwXEIumZd7FR2qeN/+9hxLbEKtLJ6P79Otb+LAqIiohpePb/bRT268sPXsbDo9Ts6NngfP97WLrZARGFodv8AfYLsdssrT8ZV8vgaL5kOZIQH8GvQz2yDzXm4rck/ZCYnArqKEwaLhR1XvonI1YQHzTItEzy1IAOKdniMh4qgeRPcywTJIl9EWttZmER3kXz6cDsI1P5I3DsXMQ+sxqj58cL/bQygd2bnmX96xBvobuv/Gk18i1jWnYI2Sj7PAUaHjvT3R8DZi5FguBezvr/edOhVgGGymxkfbq8abxPG9R9v12IMd1UWGMt8lLTDPDWkMnYvTcuVhQPizKbJhI0YtiCcqlv9Yu282bJ6cjhxvqKsJnPIX7xZum+yaaX1yJ+XrLorWQox7nPXzMLF9CqZ47zq5B7QozHqYoz+c5LyxAzNki4h2nTWtCGDJtx4UBTkVqgFc9RjYQh2lgPFtOQyebZ282ui4b1Uiyuiw+shEUgCIJoGdb7K4IgiM5GnR4Vl3KQvn0TPt6aDk1bhRei21OfsQhHVq3GmRMl0LEBk7HJGK7rodNk48ymN6AxC4afjcrP5iJzWzoul+pRL33BcF2HitMHcXzVw8g/kS0WMmRGiws7XK8VTZQVPsFsUKlsTF7bHFVSHDiVDzwcGfhxjh7FZb7P8jD42rN8KV2PkgJp3gHqa3gdpCPrwwU4sm4ZeELVNrPpTbydko5cjQ5605h/9XroywuR+c17+MPDT2NdjlTeRnLWPo05L72Hb05qoDMbgfL2kINv1rL9seOCbZsgJA8VY0VqjqU0jTfZgA6bM8UEP/ZFKB0++S5bFOGskoNPFs/Dwrd3IPNCuXkd6vUov8D6y5S38eYNMCLj+/7Nssfxh/e/QY7p+WV1XX4hEzvefASPvPlNM8dmSQ7e3iRZ7xqtP/sr7Yj8EuU60Xqplw+CfxuPKEFUz0b6v3mhDfbuQ5bgnqpG1F2d2/bTIdGdoduUCaHlyUOR0NHaEMHYB82na3EmoxCVJvcjTkP/umYWsvbcQOs27Vqce2c5stLM97FeW4KLBzbg13eeg1a4mBzEkIKL+3OFbO9GYU0mxDuwj6FGvMl49J4CryjR+r00e4tZvZmjQ2VWrrDc/gtAJ1O8Aqc27UZhnvmzBp+prWR1l5aCI2/OgsYio3pLnzlECqHdOr/Jd4RtlRYi94slOJHasjZU/9MG5PP43VZE6pY/R7WUxuuiotLkeBid5rogCKLbcEtExMD/SvMEQXRSamubUzyIjiI0NBR5eXnSp+5BUlIStm61bQFFEB1C/2fx8Xt3Q31mK6b+j+NJdyZEpuCP0Qpos5bj3hzHLIkIgrjRLMD7SckIv5aOv327FK1+59CF8ZixDbHDdDj3/ixopNiK9hmPv921BAk9dUj79mbLjk8QzWG8NnKxZesivC+VEgRBmEKWnwRBEARB3FgGeguWOroyRx2YRcrqxNG/3DO4Yy19CIJoPT2DIdjyGfQ3afgaBdy8ePiFMlQ7LHxyyqAVKswVSk/HPA8I4qZAFg4ffkmYWI4SBEFYQuInQRAEQRA3lhAfIa5lmaZl0T2PXtEILs3y/sl4p/8kBNNTDUF0YhQI9pyFfySI8S71l7JwQFxwk5EAN57FvNLB2M8NZOKEkO1bjuiRb+N5VRC99CFuenxcJ+H5UdMRzu//l89ip1hMEATRBHJ7J4guALm9dw7I7Z0gOhtReGLUcswMNEkmdRO70hKdhfl4d2cSTHMX20eH9H/chz9304ZrDFHRgKEEe3fPw99M4+8S9nFdgPfvTka4m/SZQWE/nIPb5BQMT2ihRW1eCn75dK30gehQAlZjz2jTXlaPrAOz8Mwlx6NJEwRxc0E2EgRBEARBdFGy8X76Unx8vBBlLTOhIgjiRlCvh7Y0G9u+WUTCZ2uoW4sXvtuAA0UWSc4I4mbFACFJ4oHvl5DwSRBEs5DlJ0F0Acjys3NAlp8EQRAEQRAEQRAE0bUgy0+CIAiCIAiCIAiCIAiCILolJH4SBEEQBEEQBEEQBEEQBNEtIbd3gugCkNt754C7vZeUlEifugeTJ09Gamqq9Kl7wM8TQbSW+QseE/6uW/uh8JdoGd0tNAhBEARBEATR9SHLT4IgCIIgCIIgCIIgCIIguiVk+UkQXQCy/OwcGC0/q6qqpJKuT3dMeBQVFSXNEUTLWfjE48LfNe9/IPwlWkZ2drY0RxAEQRAEQRCdA7L8JAiCIAiCIAiCIAiCIAiiW0LiJ0EQBEEQBEEQBEEQBEEQ3RISPwmCIAiCIAiCIAiCIAiC6JaQ+EkQBEEQBEF0QhZgwCupGP3QAukzQRAEQRAEQbQcEj8JgiAIgiCIzkdAMBTsj66sQPzsCLJEPDNsPb76TSr2JLHprmWYIC0iCMLZjMff7pKutd+k4NNhizDBRVpENM/w/pj2p1GY9pQaSqmIaE/cEPEUq29W5yOHS0UtRBYViHF/YL/xhxhER3U2GUUG3xkxmMqOb+pTgfB1l4odoZcHgu4dhHH/Gy+2SeM0WyWtcLPR9rbiMNQPdCgkfhIEQRAEQRCdA6/p8E1aj5gXU5EwP14YDChGPofR3AL0mWVsSNIc4/Hq+KWYEeoPZfMrEgThbNwU8A+djj+OW0ovHIgOwhX+U8Nx+/9GIaKvVNSO+A3vByVXT2SeCB3e2aQqJQbEeArijqxXPwyIEkvtolBh5PyhiB3sBaWcpCGie3NLRMTA/0rzBEF0Umpra6S5LoznYNz98IOYlhABP0/2ufIo3n38DRwUl9ol8fn38XS8l/ihhd91FqGhoSgpKUFVVZVU0vVJSkrC1q1bpU/dgflYuzMJgShD2j/+is8vSsVWmL74LYwLrEb2ppex7lepkNFz+HQ8cOcIhKt7wlV6Dqy7pkHOj//G59+dQbVYJDEdi98ax7ZngaEO1RXFyNj5MbYeuSYVGonD/NfmIErRdNuABxIeXYIHBvdkGy3C/n+uwPZ8cYm4v+K8LapPbsTLH2WIH0bMx+uzo9gvMqrPYOvL7ze5Zoy/WfT981ixTSpswAMRt83AnWOi0L93Y12gthplxcexP3UbDp41r40WMWMx3rrDygHV1uHa1fM4tu/f2JWmsajvVtQDI+7R1zFnsFATZtTVXkNZzgH8+8s9OCNtaOETjwt/17x/WDpPwkfr6LKx8ZV1aNxSIw3tiNedq1TItqfJP4b9/96FtEt8gzbaj1WstBePCCTOmIJxgwPgo5A2UsfOz4UM7PrXVmRcFYuMtKQe4DEOT/xpOiLY6pb1aY4HpjzzZ0wMYdu/kobFD7+KHGlJS3GJW42hU8PgZmv8VZGOI+8sRa30sQl+K7FzbBTkhnIc/WkV3rlyEAUGaZk1ZLHwGDMPISPD0FMphwvfrkEP3eVClPy4Hpez0sX1MB7qZ5ZgAL8FlR7Er6uXoU5cICJbgAF/TIaaf79oN9I+XIkmm5XNRciLs9BXzj/okP9JMi6eF5aYE7AMQ7joa+1YZZOgfvI5DPBh5ywvBUc/XYt6aRFY3Y2eFiZ9sI5mx2Scs3UaW4QCLv0fh/+dCfBTe8Oth1haV1mCKzkHUbJ3LWr1YpkZ6gVQ3zUBAcHSd1gl1ZYX4sJ3q3A5J1NcR0L1UCqiQ5vZZ2M9IRdZry1CpVRs/J4ZfDtatm8/bUBh2j6p0AoOtweOSZuwhb326gA2j6emHFp2zRbsWc/mddKCRqx+zwJt2nKcSG2sD7fJKRie0LTDq6sqR0XGNpzfvxn1tq4nWRDG9n4Kz4yJhY9Mj6wDM/DMJWlZJ8A3aSRujbqCw389jxKhRIWRf4qCP7vX7F+lgVYocwIyF6hu7YuYuN7opXSDTGhDddBeLkXBwWKcz65r7Bu4xddUNeDsfbipkM4jq71TH53EmWae+URrvmEY1Aso2XkIh49IxS2AW37efm8/1u9UIe+rk8jKtnVB3Ai45edgjIphg6yrF3BoXRFKHRg+iteGCxtbaZCxtQDFRZ3pmG4UbW8rDkP9QIdi6/GSIAjCKXgN+w0WvvoOPlq7FI+Ok4TPljLiaTxgFD4JolkKUCmMAz3QM0AosEEMfAVvnmpUN2iTHoi4dzH+9NA4RPU1EfsYrj3ViJn6BJY8kiCKifaQucLDJwSJD/0Ji2eESIX28bhjLmZw4RPXkL31nw3CZ5vx6I8Rkx3acxGPBMz5w5/xxL0JiPAzrwu4ecBnQAKSZkyUCpyMmyt6+kUg8YEX8ednkwTxrb1wdesJdewUPLFkPhKctp2eSHz0VbxqbEdG4ZPDtzcwEQ885IS665WI+f/7BJISQhqFT44rPz+JmLNkMaY72PSs1kP1fvw7rUgQ+TwGT8EDtn5rxBwkcuGTi7PffN5q4RO+SxAhCZ+609uR+fYCHEnjF7MO59ZNxi+vscmOkDTW2x9cW9TnbsELl+wIn16LMGDxcsROiIKXShK6ODI5FOowhM18CeqGPiQcnkbvP99oePlK8xKyhAT0MX5f4QPTU97AsASo2c5pK/gxKeA/NFksdxgFPKY9LgifhrJ0nNhkInx2KFFQzvwEIx6ehKDARuGT46ryR9+EZAy/3zJGqwIuI1dj+IJkDAg1+Q6rMzffIITdvxzREydJhe0A3w7bt8DJSzDioQWw6pXdovZwg+HH4+kN37jpGP7CZgwYGSstaB9c2bb6jJ2LEU8us/1iwlCIA5eW4ItcrnrLEewzXizvJLi6s7NeVdfYf/T1EF1MtXo47XV2Ly/E/U8cbh8XCG+VJHxy2POAUu2P6KSBCOsA60Si/TBkF2H/3w9hx9+PdzLhk2NA6bbj2PnXQ9i5yjHhk/Uk8AngPWIt8nacJ+GT6PbYuoURBEE4gcH43WO/w/hIP3i61OHSsf/gP8da+pg5DE/PS4QfG4IXFXYiMwKik2LN3Mgarugh3AGrUXlaKIBHwhzMvS1QEC6qCw/i8+Uv4/nnn8fLyz/HwULRHK7nkCQsuMuaSsYeiNm6fP3nn38Zb36+H/mCqOqKwDH3YIojwlrIdPx+SgQ8eFv//mOsSzO3edy+wvj7bNqULVlEmm6X7atV67xqVFe7ImT4DDimhUVhzuIHENeb10Qdrp1jdbHqTbwsbIMd26rPsetIPq6Z717rKdrfeFwvv4l3PtmONKm+XYMS8diCiWaCc+vrgdXEyY2N331tHbYf0YgWfD2jMPU+2z5i3DK24XumkxWrz7hHnkeSIGCz2ruSjV2frMCrwvrGuivCtevCYsZ2rLD4zY0npYo1rRdhMrX6DEHSgumI6sVma8uQnbpO2sarWJeajTI+wncLxLiH5rCz2RRH60GzbReOl/E5H8RMHWdF+Fdj+h3hQnld/n5sNLNibhmuw4fBi1+TpQeR89lqVFcWwq03t0IrQXWxsIpd5LcIZpUoKE0R/trEfQEGPD4dav4yzqDDxdSVSH8zWRRY31iEI5u2I7+grNFCiyPsWzkq4Y0+sfFimUAQvCKDIBOW2UIBVXQY+wkdLu9JQwUrcRvo4IsUCZe4NxE9jNVHTS5y1i9Fra0xKrc25MdhZXKK1eeQxxEVrWDHokdZ2gYcWTFL+v1kpL29EllphdA1tG+JwJcQZSJsHzHW9ZsrkXNaJ9SzaswihLDfdRbcYrTh2Nl2srLKhe24hk5HvyEW22lNezDBbFumUxutPk0xP57n2D7txkXekGRyqKcua1J3lZ+arL8uXbIm4layjeWmVp+mcIvQhu++sRTHDxQK/YPMJx5h40zbflO2lBZKc50JN/T0YX/qrov9HMe9h/iSQl9v87y2CHcV4uYPQoAna+SGKhTuPobdbx3Cjr+y6f/SsfezU8grrL1BLywIwhau8BRuRHWo6wZOhgRhD2HoRxAE0T6cxNYj51GRtw8fvbYQz/ztX8hrePJ0jGFPP4rEPuy2XLgP77dYOCVuPspRLYw2e8CTD3YcRo0p40UX8eqz2/HXt7dKbsns86U0bH37r9guuHi7IuTWB6wKSo1UQ5O2He98eRyi/umHwBhhQTPEYd4j4xDIRmPXTm7FP7c5y+STU4azp9me9I7BlDFSUTOE3JeEOKHuuAj7T7y6itXFOaP7OTu2c2nY8+k7ePWf24USp1KtQX7mfnzO6vvzk6JJrmvIWDwwWJh1Llezsf/Td/F9vtgp9fSTQgS0hb5JmDhEFD6rT2/FX/++Dnsyi8R20FB3K/DqO22suzFTENeXD93LkLbmr1j3bba0jWvI/nYd/romjS1h+MTgLnsWv83WQza2HhBDPXiEJyLJ8jyM+S1G8UbLtnbk6z1SG2kdsh6icIkarSQQJMKDG/xXljlNQDLiMXEy1DwZhL4QOaseRn7abtQbXYf1uag9uxoX1y/AZUvR9WoWLpcCqqjJonDCcZ8J32Cg9Nc08fitPVnLZsO3P/tbkcX+peIyf4/nGQUfO27JDQQsFcRDV0M5zm18EZU30C9ONSRKtJw8vxunUzejVlsulHMLXUPlblSmLsDxz9ZKZZwg+Nwlxm6tPrqWLVvd6KZdsxsVnz2M40f5Zzn6jl/cWK/OhG2ncssKnGPnjm9HFTxWKDbS6vZwo6jJZvu0EvmrVuKccKG3Y93p06Hb+yxO5YgvFlX9EoS/XQuZaIFvauXp5SrED9aWOqd3UU3ojwChDV1GxnvHkXm4ulFM0htQlVuBrE/OIs+aW3ZFLbQyF/hOCseEJVLCmSVDkTDJ0/o5lcmgjFUjbj7r343r/ykek54ehJiRbla6IGPylv7wZ59cI/pg5BNxQmIc4XtPhCBALa7ZFBeoEvsh8dmR0nasTFYStbgN4tsYhqk8ORBbZ+r/xiBhqgpcG24zxgQxwsRd3jlKDHrUWNY4WU9WU4VrrA+Wqb0Qa1kPbLzRBLPt2fttcyzrYdof4nD7bDX8bdZ3y/Gfbb5f4iSea/uwa0O69bYH4r4NFuOx9vFCzPyhUl3EY+qz4YgYZNUOX6SXJ0JnRzW2cVZ34x72h5+1c2RE7oYA08RNfxiJu9h5DQpqZjv82hsXitufb2zjU3kMWfFRziaeI9l18XRj+5n6fBRiEz2a7Yd5m4th1+2khvbA9m9icwdEOBsSPwmCaFeKPnoJT/xxDb7JaoVwGb4Qjyb6gcc+3LfmI5yRignCNpmoFBQIV/RoVvMJhIobyugqUcQ/DpyIKNbUAA0yvtpvRcSpxv6vjouCUq9AxA0UCpvnZKlkCdYDntxCzyY8zucMxAhhPvfj448kEcWJlP5yhu27B/qPnGJH4IvDXTGialx9NhXOFWFbQjXSNh+CqMf1RODwCKHU+VRDo5XM1Nw80E+cazVRdw2FMKapy8fBTw5KgqTzmTiyv3Aeq0/vx+fWTlH+5zh4lleeKwIGJoplzWK7Hqq//zcOFfHf8kHMpOni8QmE4IE7uKUyW+fkLuv70QLqKiTLusDxCBHceIPhzkfU18oarbWcgWwu/CTLv8q0D1AhuKHbge2I6KldgtIjJYDvMPhILtAut8bC15ALTdpRVHFLPJWPIKqYMWyY4BZfnZeGWt5HneaCoZzthwOu7zzOZ1IilDI9NDtfg6bIgf3tCORy6+7jlnjNhl8w+2soROE31ixydaj+5gAEXdI3DKp2i3CTjlopBq676Zux1rSHzoJhNzT7s8WXBe1adzrUVUpXoafSsfPeCVBOGiyJGUMRyq16AwdKQgWbeIw9vs7IYdI6jopFVpApMUCKpVyZXohii1jL9nFHxONxuHWkLzxFlxT22OABv5ExSJzcNHOb8q4ojJvWHwFqT7gZ1+ciFmsAIZOG4s57bSXiUaDfvQMx4f5Q+Pu6SiIA+56vP+IeDUeQhUE0Fz79Z8eKbvwKx8+68s4o3DmTb6PR9V8m94Tf8ChMWKgWEwbdUAyQD+mPOx8dhCDLepgXioAm9dA6ePu7y6IeeAgE1YD+GHnfjcvsbS6WNiceS6Jlm/GE960hmDB/EELUHlJdyCBT+GLQzMGIHiCsZE6gGrc/GcOWqRrbOA8fERSChPlsv6wFSleoELdoKOJMEzfJXODGzmvsw7EYOdxKG+bf+R927SX2gYqHxpCQyU3OWRPYdXH/MEyYxMNbNLYfmbsKQeOGYsJslVUBlF8Xk4U68GwMJcX3j5JMdShU2wRBdFIisPCp8aK7+3fv46OzUjFB2KOJD1sE5vzpLbz1xjO23c8HqSEMh8uKcNxWwPyLZ6ARxsU94euA/7jHHYHib+IaSpsRhkJm/F50k76Wja3/3I52kRtP70H2JW5FGYMpzT3Mxg5FP+HBvxrn06yJwB1I9S6cEzNTwMcvUpxxOiGIYA/jHJ7Uqm0vWNQYGii5u+cfw652q7wY9PPhj9Z1uJRnO+3b/iIxTAiPV2tfOm6uHjTYvlsU/l0DR+G3d4jredwxBTG92UxdPvZvbrs/teGXTQ2WeeqpyxH/1Ex4yVm5TuuwWyp3q7ZL/2j4CJYuJSj5yTSBTTP4NAqahox0lBoU6DOUxzSMh0+0P+pPp6HS5k4aXd71uJIlWvzW5ZwV3JDtu75HQTV7kRDnU5u2GucysqXyG4c2K1cUowMmYejDz8HN3Y5SEBwMIVzqlbO4asutsuYoKrlwzHpMZXvF1ZQlo6fwgot1taVZ4gynNe2hM3EiC1eEtucPlaOWxC0mCopA8TzXXylwyHVb7tlqKbHrEdILfkIbKsW5X1rxqiYkBIN8gaozp7Cfu8r/PR0//Cqadytj/GERYhi4XofyM+dx+JPD2P1/kmv9Wxn4OZN/Rwa3wYF8l6yghP9gb7jWlCNrU7rwvZ3rzuISvy5lvhgw2kKyGdwPsQNYmUGLvK0Z2CnEukzH3q0XpP6uDoVbWZlpkpYBgUgYrYLMUIXi3UfF77Dt7P7kFIr5l3z6I2Fq872eXY6cF49ZmLLZlcvhCY+MZY2T9UQ1SoSMVMNNX45T/LjYejv/eQolvB7kfTBgpIVIZra9ozjliLjt7o3oOKV53fHvv3UYP+w4j5IyR+9q9inZZNw3Nn10vhMmzJHBL8ofnqhC4Q6xvnesOo48oQ48EBpvDKgtIfNA9H39oZIZGq8J9p2dbx9DxpkqtlyJQfcFwtvsfu+CoPvEsBN1F8/j539K9cGvi8PlrKW6wn/yAAuB3xUhc8TvGEqL2PWULu4bm3avY+3Vhs2O6+gBGBnBngjYdWRsP+J1cV6Is+o6YBCGj7ZoQ1EhSBSui1qUHDyOvcaQGLw9HLIdMIdwPiR+EgTRKYl4/GmMZ8/Ogrv7erL5JBynSDT9hMpX8jXvG4f+XIV0DUCEJNw0UFstWOfF9JYevnSVzQhgGdAIA3Q7VqUeasTcNR+LhfidvA0fwx4prmgTeibhgTGBcOWZ3T9eB4swn05Eg60/cvdlNeJmNGMJGOwDUb4rg8YkfiPPEv7WW2+ZT6/NR5y0vL0wnkt2MmE3ckAL6RmUgKRnFyCBC3isFeQc3COUWyPwDotjN06Lp0trcALRU2oXZRcPiTPtQn/4CCepBpXNhUEuqhTFazcP6Zxax6F6OLlVyuzvgYgxPHZsCGaMEdt32a9fY49T2u0+XP7nEmSdKBcySrv4KERhMHQCwibMsuOa543wXs/hvgFsZGMoQYHRE9saXkpRyKwshM6WGGeD+ho2rKzZhtILbPg8cALcfCejj68el05skNawgvs8qLnLe1U2yvLEIhTvxWXel9hxfe8xcjEGhcqFzO7ZqbulUjt4xWP4K6kY3WRKcUrCHsOxF3HiJzF+plv/SRj+QgqGPLYcvuHWY0G6+vkIgw1DRVkzotk+VEvu2zLuOuxUFJD5zoL60bkI4qZWNbko/tkks3wb2oMR9TRr9c2mhywTP7UHZ1EljZ0VPo5YebcQ5SR4Pfg6wrmllaEcBT9tFsttUVaAEtY45MEz8A+/RATfwJGmdvdJM0FIe/io+JlNP2fz1lgvindCmTELfCuQXOh5PIryVrUhAyp/PYH9X1RAy79vYJ+/KRTqEXIlfCxeWGq/O42DX2hQUliPOmOY85o6lO44izNCW1AJoTisUqPB4fdPI+8c/3G2KU0p63NFuUwlvQAz4juoj2DBVnXkLLJ4lnr+FfZfVXYRMo5wZcgVfmGm35Eh4LYAeLLjubQvCxmHa8XvMOoKK5DxUZ5g4e0Z5ddU0O1oWD1krDuNM1L2fUNZBXKkevCWhP424S0XXfxrruLiKanuODX1qMxk52DT5RsmUpqJpc2Kx/ay57cAA/v9T44jM1Osb1ytQtYvl4VF8JOSj0nI4gMRyk9B0Vn8aLwmGAZdNYq/yEIm3ydFXwQPEssFQvogIpBVuO4C0tZrUCrcTxj8uth9Gmkna9kP+yLYVNiOCkAkd8moKcGhDy6w68kg7hujTsPGBlbfY7BnoNG89VYjb2tj+xGvCw1+3laEWi72DvUy8QBxQcht/uxqMaD8p5M4vL8KVcZ+greH0nZ78CescANvSQRBEDYIfxRP3Ebu7kTb6HGLaMXgwR6kRAtMExfggSpRWKkWxU7XW0Sn1upKwQm+FQRinFEQe/1FzJscBW6cV3clA1vXbIdGWsucHgi/OxFqtl7Zse3Oy+xui5++x9mrrD4GjLBtAXuL9Le6SnTx7yzIpOQUbcRj8JwG4fLVZx9AYhCrCEM18r/9GOvbkKxHRAqlwLjOfrP9qUSpiYbTElpeDzzswyEI3u88duxDktWnLhu7vnRiwzVkonLrLKT/YyWyckT3Y1kPKdP0i5vRd6BltN3x+NtdqdiTtBnv3zkJwShH1qGVeKeZ6nfzkyzSjKOcFlCt5cPEQna95sLgFQ3/8WFQVWXjkokhIbde9JAsDDmyYcMEC5X680dNLKn3oeI0P75mXN/dYzFwchAbNpXg/I4bldndGjrU7pmFtDUpyC/QwcCOTRkYi4jZy5DwwmYEJZhn+TbGcq2q6Fj3jUZBMgUJi+ZiQIAchqoSnOExU00Eqra0h06HMW5uG1EmLGkUcBc/h8iBCsgMOhR99Ro09uKe1qzCPw5lo8zgjWFjl+Kje9n1edcyTJAW3xB6i+JKXY0xE5cMniouglSj6opY0haUflLH/9//in9bSmUhMlKrzZugoRZXWxE3xSDsgozfMq1Ssv88SiwiO2gvtTzUg2sPC8s2ASX8uQCFUlxIs9Jj6bS4wq0mrQi6HQ2vB8vwBK2pB5todKIQ7hmIhMf7ISCInRNxyU0JF9DPWD5el1RbFYB7h3gLf0uOc4tNS+pRXsS/5QLv4EZ50TPcFzyyRVXOFZRb6cvL8wXLBTNhWxkiuqfXnrqEUkf7/z4qCHkYKy+h4JxYZMaZSvYUwujTE+JRMGQ90UcI61mOgkOtsAwnnMrNfB0SBNEpicCjC8cj0JXc3YnWkV1m6kLigYncZOVKBjK423dANCby4p4eovhpgYeXtUBCrYMnLlr5943NWHNex9k0MVGNz4g5mJ9gS5F0FtnYdVLDKiEEMVK8M5t4eEqCsUjGR2Lme2H6vrUCcRuovibGZnU21UXYv+GveCe1eQHPZrb3FaaJi66hSsqd0UPW3ueS4wP1CGm2rThSDxe3Y9cJLol7IGI4t/qsQ/6PG5tku3cKNbtRXcZNmnTQ/JSJMm5kJPNGyIOvI1AwCbEBG4/LezQfSa2uUlIUWvIE7O9jZpmCo2nQ6BXoG+2P6pwDJqImR87fa0hImeChx6WcbVKZSG3OWeF7Nl3fazJx7jC3sPRH2EPLHHPp59jM9p5sX7hqCZq1uLg+GWk8k3paLiq4N6KnNwInL8HwBxfwU2GGsne4NHdjqL+UjuOr5qHUImZqq9qDBTazvX9qmvip/amtbKcHJm0usv75MApPOBJ2QQe9XgttJxrju/mIIkltpVGQc4WnYA6vwzXJ+KwtVF2VOv5bjG8PW0grRFPPWLWQSKchcYowDcOgZuOLM1og8pcXiYKR5/BwREe5ijEQ2X/K2H6IieF1Wo9L50x6vz4eUjzPPogz268W7F9H0d4vOwxaZH52VnSD9g1E3MPxmLpkKBLvV0sC8c2FKMo7git6+Yr14z/ZWhsahXEjm97jlb5c+mRtdYQxhq/FZOWZV+kjfqf8os2H9Kb4e4hhXFQhGGdtOw0xVE1Qu4nPD622DCecyc139REE0amJ+N1jGB/kSu7uRKupNojWHaKQmYgBfkBZYRr25JVx9RPRdwmLBaorREkt44pk5+jmaZLQxZIEqIWEEnVssCMUmFCE/YIg9irWpZ4RBM2eg5Pw+0ftxPQrXIePvy9iv9gTUUm/x3QHYom2Bc3ONJxhz3nqwVOsZ6wvkVyl2V6rHEnq1K54oL+PWHt1ulIb1rMto/rkRkG0fHn550i7xEbnHoEY95Cz6r0UNZILoqq3s530TSlCpaDf9EBzOp9HkI/Y9qwIx62th+yUg0L7EbhyBF9/24JBQwtx8+Ii5zVcPbAEp1cYs1orEDT+cZOH133447eTMfGrBXjrcC60Mm+Exz+FF5q56AxanTjuVfnDo7VPwYYtKM0TxdlLJ4wCuNF12wT3GfDl2aMMhSjPsrAqOp+GK1zUbcb1vTr1NeSw7ch84jFkdlNBsVPAM6mnLkLOP2Yh80CJYKnjNnA6guOChMW1lyRnYjdlM4OOSVAIYRf00It6S5tpECRXbUAhOy8ufvGImd9URHZKe7iRyKKhFO5LvO4KhaK2ok1bLtbdmytxpoC1c2UYoh97E6rm3yuIyObiiTHxCHYrx9EDS3H/VnZ9frsUe6XFHUZfdYM4cddYMROU/1SjQDEMEYKCocZIaR1HMnfbwqCTLEpVnlC1exviSYjiMGFafyGRTkPilHbAcKgQp3ifJlMiNClOzNL9h3iMmxYoHGfdudPIOimuK9CDhAUzikrx88rD+GH/BVwqrYOhhwe8I/pj5LwRuOshb+dkvu92sEppxY1O1pD4qxW0RAi3YVHtEK21DCecCl12BEF0KkYP6S+4IbgG3Y1ln32Gz0yn3/DAaQzVMDwtlb3xO7GIIBqovt7oKnNHOAJcq6HJPgPNgbMoY60rIGoi4ONp/gxjjI/YOxA2DTAHR0vJgC6hKE0oscI1ZH/7Pj7+USPsQ8/BMzB3jLjEFvnb/omt2WzrroEY98h829t3BtX78f3pa0CvcNxhbb+OayR3dx9EjLYqj3YcfacgXHKNu3TedmKf1lB9KQ2fv7MV2VyP4vX+YFIzorejHMeFMrHlefSPQztE35PIbog92y/MVtRVD4wLFm13qzWs7QtzTWlxPbD2UyQJfPx32y9SQxDkveRcVcB1binBs1r/Igk7Ch/hHmGGoRC7ChbhSy7U8PifalF4s0pBAUTb8CD0SWhmvWbRQfvFDHBryovnpaIGXNFDiltpdHmHLAzRLxvdsI3TAgQJhifNZX3PRuWm1eAee66hyYiaPEkq74yUo3rvUpwTlHY5eoeOFUpRUia6NvYNt53l2TcB3lyMYufxmkV9uvXimf+tcIsUpaOiDJLdnXXKNqNo/XZcZk2Di8iRU03j9DKc0h5uHLKEYWL8RC6w5whFzqNmN0o/Edsf3MMQOXOR/YFj72EIZxeoPncLXriU3rnCp7QXBddEV1d2JvrFt/PQOqQPonkSIvaEUXr4ZGPiFGFyMBmPg7iODsIgHwMq80tQrjNazRpYt1yB/N1H8e2mysZnLc5FoxuzBofNYkdaTk6MJdnZMdSj8mAR0t7PwM7/y8DB/RpUGWRwCwlH7K2d8nXWDaYW16ROo2SntbbTOO3f3djza0vFlmca19fqxNqsEcN1UfX0FBJIWiBzgbuV4gZX/avnsd/a7zdMJjGEr/OrhtHTQ3DNt8TV0znhSgjHIPGTIAiC6F6UVfFnDcGKc2JkP7jWXsBZHsfwYgbOs4cq7vo+RSHGkKzWSy6Pv2bjgqB+BmLUHGvWmiGYPilSSBxTl59tN8FL/lfbkSMMQjwQcZs9Ya0aaRu3IVswF41C0u+ns621H9nfHmNDEw/0HzmlqYhUvQfH8sXhTM/oKe1uiWoTjwgkzUoQ660uH8faw8KwOg0bf8oXB29+cfitHZHaEQ5mF4u/x/b/LntWv62GtZd8Uc70GDgRSVbOkUfCHIwK4Wf3Gs4esuOY3g710HbC4SrE1WoUtjz8pUAMBr1NQ42LVWLbVbo342JdsReXpURRvre/5JA1m6uPaRAIe8ghFwzNjC7v9mk267thNy6mpEPLDlqZsAgD4m7wSwkHqamSRrDFaRDGpbIwBFsVb6OgmhIvuBKaZs2vLRMtZVUhY63UoQIeI6LZ/6x6ygqaFz852tUoSBPlKY9hM+BjmlSpFe2h0+C1CCG3i22sLudAQ905Fd7+9mYLMWdlwRPE5F3N0YO1f/ZHX3eDZc+LmgZxIkN4S1OB46skYUJKgIT8Uw1ihfWs4A5ytRIXLvPKl8FvbDD8m4nM0VaMsQ1RWYzju7WNiVM4MhlkrfS8b4obe0bgsnopzm7Kx8G3D0t1lY6db5/CcZ7MSFzRBB0uC2EEekM9WCjoEMRkQq5wdXqyNCejr0P5wfNIE5JFyeDrjMRK3RBjuAXfMMc7Y22BVniGUQ5QmSQaap6rGlEIVQVZeiW4wP/BSIRYUyov6lDO37H28oGfo1m7LutwlX9H5oXeA8SiBgLVuPX2huigRAdA4idBEJ2Kfy15EA8+aGP6j2QSUnkU70plL/1LLCKIJnhEYewAD9SVnMV+oeAM0vK5+hmCuChRaqiuNIZWOIhdmeJgzSMqCYsfnYgYP3EdYzbscYFcTCrD8e92Sa7hzZGNz39ugaBUnYZ1H+8XEsq4Bo7DI+0mnDEu7mKDwTpWDTEIb/KUWI09Xx8UE9twS8CnXsfiB8Y11AXPZB/i0Ra/n+bx8AtBzB0PYPEfnkCiUN91KPrJWdnEm1Kd+i2OC6fdEZHaPtXffo20i6IA13PwA/jTsw9g3BC1dC49oB6QgOmPvohXn7GwPmshxvAFcFUjccFiJI0OFDO6s/MTc9d8LE6KkoT6A/jc1C3RBs6uh9agmrkZYZMXQaGOYmP4cHhyAZELW8pEKCasReQwcaBYcTJVvK5aTTpKt6eL4ge3ZntiPfoOmwSZ0fhCHga38OcQtHAt+kjZ0Y1Je1qE+0wp43IJTr8puWBbTq9vxkU+KPKMgl80X9cGRUuRvTOXHbcc6qmvQH3DBs3j0WfeegRNmAUPrzCpjKOATDUJqqQ3xazg0OFKljE7/XZc+qVEEEqUIxdh4ORZcHWX9l/KJB4Zyq18S5D3XWPW/NosMSaqLHg6IqeZfEcez9rD24gW2oMemoxNYrkd6vZvw0UuFMmCEDTR9PpreXu4sfC6ZtfE2NWIeWo61FzwqcnFmVQ7WdjbwolNyBMEYgWCxjlg/dmpcINCeBlRi1qjVaSXuyiQ6J2lFtch/z+FUhtSY+TjAxEd6wHXhjYkg2eYL2LmhyO0jYl+qiqkm6HSF8GDJMtB9vuqWH/c+j9DJHd+Z+AKT+HG5YV+t3rArZeLA+JiPYqP8XzuLgiaEYO4RE94mnRVrmpPBEwKxbgkp+0kQ4dSvkl2RkMnB8JXihd5w4kJwbjZagSEuZnVm8xXieABYkG5xiIUCiFQe/gSLrFL03VQFCbc7wtvdWOyKJnCDd4j2TX2+xCY5BUETl1CIa9OX9a+HvWHf5CLGKOW4+4CVVSfJtdf7Yky0eo/cABGJroJ68t8lIh4NAYjB7Bry2r3oEUB99SCCtHzpOvceH7ZD7gGKRF67yAkjDN9uNbi4jn++khqo/xdKo+dO5K1kYf7s19yVj9EOMItEREDKQABQXRyamu7boTkxP/9CE+PsPb6zJQqHF39KN74Ufpoi9+9Ibq+c/Hz8TfgXEdY+4SGhqKkpARVVfytbfcgKSkJW7dulT51D6KiXsTit8bBmLqo6PuXsWKbNGAYOAd/WhjXkMyHJ7JZ0ZCHJATTn/09xgU1sYeU4Nmw11okhZkubYvH/FzBhvmmhOCBPzyDBB7L7tJBvLl8q+R+HIf5r81BlKIa2ZtexjqT7NoeCfOx5AEuXNWxffsn27fGbU1f/BbG2cnHxGM5vvyRZOk3Yj5enx0FD2v7NngeXmUPeIJgxjCvB74fc7A4idWTrarg6LKx8ZV1rU94M2Mx3rqjmQPi2cf3bcDanWfMxOYW1wMj7tHXMWewR5NyjscdT+BPM3gCn2qcSXkZ/x36uFC+5v3D0nkSPlrHWh14JGDe/z6AmOYSOxTtt0iW1IhxX5tbh+ORMA9L7mPn0MZYr64sA1tXmCfcakk9vP+TtMACY/1b+w1OdrYjSVGaonooFdE2Yl8aqT2dgmOf2c58PiEyBX+MVkCbtRz35uyTSq3jErcaQ6eGNZNISIdz68QkQW6TUzA8QSHEkTzX9JAbMB7D5Z3JOCdfjYSJ/uw87kbahyttDG8U7DspwnfqszYgfctmIGAZhsyPh5InLnpnqYlVo4LtxzrEJnhDVpOLrPcW8fwJjbDjGT3NVJBsir39t894qJ9ZggFiCEWbVP60Ell7jOInJwqqB5cjcqDcunBm0OHiVy8j3yyhThCUSW8jeojCptimTVuJE6mm22k8B9aO1WXMeoxg50RmKMTpfyxAmcmjVUvag4gDddHkHLYce9eFoSIbOZ+8jMoKcyHFkeuJx/Y8kdp4nRjbuWW5QOhyxD4Uy/oHHfI/sRbuQSJgNfaMDnPoGuwYVIj7QxQCai7g4Moi0T19RCimTe4juMiaus62Fdfh/TFusrqZNqTFqY9MXL7Z+kIiFu5Cu0ojiqcNuCHiKZ4gyOI77ux4FrHjsSZEGmqh1faAUuUiuAw3WrMaf0t0JW5i5Wrcj3PZZm7B3lNjkDjcxvO7oR615WXI3ZePvFOmPTKPSRqLkYJrvg0sttNWZDH9cdcMdVNPFoYz6sF/9ih2PNIHW1ieQ+Nv2aKMrb+Grd9m3UuFkdaS7Fhgu60bv2/RzpyEse6sbp/H5X20P5RW2j+/liaw+rPdinhoBRPXck6gGrdzMdHR64/hy55zb42y3IoBtWdO4fDVICSOVDZtKzLWjhYOxSAfmxtqery+vkh8PFwMg2OKoRKnPrmIXvMGwd9qP0A4G9tnjSAIgiC6PEU4Y+oyfTpNcH0XqUalWSaYfGx/+6/YuD8bmmsmtmWGapQVHseuf9rPCm5OPj7/JlsU7hx0J65OW4dtJ7j/uysC73ik/TLAn9yFY5KrpzWq0zbir39fh12ZRSjTmdvZ1enKoGH1uH3z587P9G2oQ901Dc6kbce611/GOxbCZ3tQ/f2/cUgwdRWtHttMdRrWv/ZqQzuqMxnc1NVeg+bkfnz+6R6ppPVUp63H8jVbkXauDNUmp0iov5/Y+furufBpD8t66Gjrz8otUtbwSnO3doNez67TTJz5ZAmONCN8tpT6jEU4smo1zpwoga6GD3dEDNf10GmycWbTGw1Cl0ze3FuARgxSxiuP3lPgFSUOR0uztzRj16FDZVausNwlPME8o3wTdKhN/QDceF2wUJzXggzwTmMfNJ+uxZmMQuE81ZscWH2NDhWn05G1ZpaF8MnJRuVnc5G5LR2XSxu/Z7jOv3MQx1c9bCF8cgqh3Tq/yXd4ZdWWFiL3iyVNhE971P+0QYxf2cT6s2Xt4UbTcE1sWoq0d55rIny2C3mrcE5I8tXFrD+5Kzjf2brGWODK3uJ9VXvFecInp+7IeXz73jFknqyAtsakp7peC62mCJmfnUZuW8WlmkpkrMtGnqZacvdmsN+vPJeHn9ccxeHTzrtjlqcXo1SIIWRAXVUtaqvqGvsymQvcfPsgemYsRg43jV1Zj5JNGdi74zxKSmsb95GLpZUVKD6cjf1bnSd8cgzHz2P/ljzz7d1oMgulREe1Js8ArB5ZHeTvP4ZvnSJ8dl+Ea4m181PnKlErxebk9WeoqUL5mfM4vL7AXPjkFGnwg/H6M7HqNujZ9VF0wer1V7o1EwcPl6JK2oZBX4nC3cfw3RcW8WxNMdTizJoMdn6LUF5pck2w59fa0lLk7T+On/dZ9C2s/OC6Uyjkia/4Z3Y9VBWex8/vsXtLUeO+Eu0PWX4SRBegK1t+difI8rNrEBXVNWLiEZ2ThU8YLT8/EP4SLaO1lp+myMasF6wmNV9NxrljUqEDtMTykyCIdqDTWX4SraLBwrQOJamZOPyrxWsndzeEPBiDmEAX4PJZfPtBaZssnAmCIDqCLvPijiAIgiAIguj+uHrxgAw6VF0RPztKWZ2YwEzuGWzHipIgiPZggkq0eNb/V7SCJrooUT6ia72uGKcthU9OTS1KSyS506UHKG85QRBdARI/CYIgCIIgiE6Dmw8PtFqG2iZ+bc1z9IoYL0vePxnv9J+EYHrKJYiOQRaEsX7L8USkmIiq4HJHR2UnnIrg7s5QBGDwJKVZ4iK4u8I7sT8SpHig2rwKdB9/KIIgujPk9k4QXQBye+8ckNt714Dc3jsSY8KnltA00VNngtze24Yz3N5bTxSeGLUcMwNNsrNfS8ffvl2KvdJHAg2JbVpEXgp++XSt9IFoEcYkVtJHx8hF1muLxGzEnZrx+NtdS5BgzJ7HKd2HP36/HGnSR6IL4kBSF07dxbM4uL6U4lcSBNEloHfiBEEQBEEQRDcgG++nL8XHxwtRRgHoCKJjqdWhJG87Xv2RhM8uj1lSF9OkPQwhgVMJTu04im8/IuGTIIiuA1l+EkQXgCw/Owdk+dk1IMtPoi2Q5WfbuLGWnwRBEARBEATRFBI/CaILQOJn58AofnYnJk+ejNTUVOlT94CfJ4JoLfMXPCb8Xbf2Q+Ev0TLy8vKkOYIgCIIgCILoHJDbO0EQBEEQBEEQBEEQBEEQ3RKy/CSILgBZfnYOuEVhd7Nq6o5u7wRBEARBEARBEARhhCw/CYIgCIIgCIIgCIIgCILolpD4SRAEQRAEQRAEQRAEQRBEt4TET4IgCIIgCIIgCIIgCIIguiUkfhIEQRAEQRAEQRAEQRAE0S0h8ZMgCIIgCIIgCIIgCIIgiG4JiZ8EQRAEQRAEQRBdgiCseH42vpoZJH0mCIIgCMIet0REDPyvNE8QRCeltrZGmiNuJKGhocjLy5M+dQ+SkpKwdetW6RNBdDQqLF0wDSNUbFafi43vHsKXwsD+NoTyxRcP4alNubjA528KXHDflCmYE80qpDIHGz/JwJe10qKbgEdmzsY9IdKHBgrx9Vs/4mPp081ITFAYHhofhVBfFVxNzBbyvtmExcelD8TNg/8QbJwzFDi6A3O+q5QK7SBTYuHkMbg9zBsKuQvrX45hxdoT+EFaTBBNMbkX15bjwtEMrPlJg+MGYSHRpaFnL+LmhCw/CYIgCIK4Qeih00uzNTpopNkG9Pqb7OE7ALdy4ZOjisStA8VZ4uZlUMxteOX+URjUx1z4vHlwxyN3j8P6p6dgqb9UdBOiUHnjqal3Y+NTD+CrOUOh4GXDpuErbgG6YAhuF1ezgQovPTIDU6J6i8InQbQUN2/0G3UnXpkRgH5SEdGVoWcv4uaELD8JogvQLSw/ZT0REJuAW4eEo7cn+3ztJFI2HcAVcakFvTF2djIG95Q+WuPC91jznxzpQ8dAlp9dEFksPMbMQ8jIMPRUyuHCxQMDe+i7XIiSH9fjcla6uJ4p6gVQ3zUBAcHecOvBPhu40UMhLny3CpdzMsV1JFQPpSKavybXZ+PEm89Ba2YRMR7qZ5ZggBebrcpE5j+WoJoXx63G6GlhbEaPi1tnIf+Ejpc24DY5BcMT+NBWj8JPZ6DI2OQavmcbzY7JOJchfQhYhiHz46Hk81q2/RXS9k0w7n/D90y/Y5dcZL22CA7aHdmkwdqvwRLJxCIh/0fcu6VQWM+IVetAQz3qdOXIS/8Jfz+iRYVU3PW4uS0/zZCs2xQ3teWnGsufvhOD5IAu9yA+3pWPPTddezBaI1Xi1407sKxEKr6JGBSTiNcnhtgWv+1ZcQ4chS+nh8HVUI7j//kRa85qccGW9Z7MHVPio/Gb6P7o5+Uumsnwe2bpReRkZOLdE9b6VxfcPiQK98cPbPzO9RpUFGXhP9/k4Euzm4Sxf2/mfMbchq/uDrI4LhOrNFPYdnTs/vzDrgysuVwvFVpBrsQjY4fjjkg1vDzYBcXh+3j5PH7el4lPL9aj4U7c0PfYRndkB+bsbcvdz+Q+Zwqr6zpdJQqzMrExTYNfjQJVAzbqwYymddum+6ZcjonDx2Dh2AC4sqf2H9Z+gxVtvfETN5yWPnsRRHfgpnyHTBBEx+HSKxhxdybjd4/NxvQESfgkiI7AaxEGLF6O2AlR8FJJwidHJodCHYawmS9BHSCVCSjgMnI1hi9IxoBQSfjksO+5+QYh7P7liJ44SSrkJMKDC5sceRh8oy2GSv0nw9+43FPJBg0irj4+0pwcftEzpXkj0+HT8DtyyI3fbyvKKPgNaW4o1wnQVcPy1YKu/Ko0ZweZC1x79sagCTOwdmYQBknFXY96fLlrB+59axPuXXsTC5+EiH8f9OM6TXUOvvjqZhQ+CfhEYLEkfHIBfNUHn2PVEa48cYGL9RNCX9G8+/pofx/h/lOXlY6lp5sRPhUBWD4/CQvHRqKfjyRicvg9s08IRkyagVdipDIjMncsvPceLJ401Pw7PdzhFRKHOY9NwUt9pbL2gG1H0ScCUx7+LVbESKKmBV5BQ7B+0QzcMzyoUfjk8H3sG4kps8fgfqnohsPqmt/LQkfdiaWLpmBpUDta6jp639TrsefQj/j+Iv/QG/2ahCYhujRtefYiiC6G8RZFEATRDvRE3N1TEB/eG57Q40r29/g++5q0zBGu4eTWNVizxsrUwVafRBfDfQEGPD4dai62G3S4mLoS6W8m45fXJuOXNxbhyKbtyC8o40adjQS+hKipYXDjg8zT23HEuP6bK5FzWiesqxqzCCEm4qRwF60sR6W+qZDpMSQcHnq2zMJCQtaDD750qCzVwyV0GJSmd+L+Y+Gn1LNl5tagZlSk4wjfLytTg9WnGTpUa+VQj3ocdodRxUtxwuI3s6SnYm3acrPyX5xg9ckpuyZZtje4WZm4YzXjm8LjHQoDfzbNWbUDX58uF8pdQ0bh0ShhliC6NioF72WAOj3E1k3cbIxm9xE1v0eUZWAFF8Cv1SPIh5tmXcUFB61g5T3Enr+w2LqvjZE5E8dgEPe4qdXg1+3bsPhdqY9d+TmWfPYjfs1v2uNPHD8RU8Lc2X22Enl7d+CpleJ3ntp0EHmV9eyG543RyaNwn9NGnNwSvLHvf2rTjzglmCzKETpuOOZYbsd/CN6eORRevLza/LjmrNqCVdszkFfRxLxSwnxbplPbrD5NMRGx2TTv/a1YtTsHGu6mwepuxMw7sdj4vlSgEItN9mOFIIQzuKVeQ7ltC+nW3zfrcazEWcdMdAZa++xFEF0ZcnsniC5AV3Z7lw+djpkBRdh/MAPF14DeibORPIQ9XTvk9s7Fz004cFkqvsGQ23vXwWNaCmLjFOxZrhA57z+LiopmxESBIPjMW4uBwWx8dHQtMrelSOVGFPCY8Qlih7HfLD2IX1cvQ53RrR3pyC2JRVhoronrezICX1iA3jnbURI6HQO82H68vgAVbJno1s7GKgcK0G9sGC6ZuL57zNiG2PBsnM4Kx8AEBS7vTEbuYWnfjW7vXPx8ZynsGoE1uLDnIveAD8LGypH/STIunpeWM5q4vVvBuA4XP0+k7pNKncftE6Zh8XA2mDdxszK6Y1lzLTQua5rsxR0vPZKE0WygqLNIBNLc7zW4OFq6jkqul8J39hvEZCERvaHgFsHXtbhw/BDW7LdI/mD8LeFYNLhn7Cj8dngAvHicPYMeFefS8dHOfPxgMda26pLYrLu30T1NXOensEg8ffsQ9PPhUlk96srOY8+OwzbcQOWYMioW9w4PhVphQw6350bbAniswkfGxuNWY6IVYf+KcSz9iA0XWokWuL336xuER0ZFIbIf24abdEz6Smhyj2PjHlv1LbqGrrgeglemxmKQr1J8maErxq97fsGKszWNbrAmDAoMw6N3Dm5cvwnNuPO2FKvuv80gc8d9Y+Lxm2GszRnrgScqycrEp/uL8YvZ2x6GWXsthFcfVhfT4hHK25GhHrqLJ/HF9hP42lgRJuvPOeiO5ffEoR/rEnW5P+G1rwoRlHgnFiao4Yoa5O3Zwa5Pk4qXu+Oe4dG4K7o/1F7uogs3d7utYPX9YzreNa1v43E7gPOSPrng9uFxmBMfAnVPQXKW2lA2vvo+F7ssG0Nr+odW0NA/NiQgUeKlx2ZgtMsJrPrgGPZI6zWH8Tear6sArHhuHELZebnw3SY8dVQqbg63EKx6MhH9ZFoc37INS/OlciOy3lj2+N2IYW2k4tBWzDvAn2Xb6vZupT/wicT6R+LgBS1+3bQNywQLRY4LFj74AKYEstnKE1iz4Rh22dI5TWlB39N67NSDgh3vI+x43YC6s/sx7+tiq/2RtfunNVpz37TEsXbUehQqNZ6+Ow4jAr3hKnje2L9XNPmO1KccO3QEK7K0FnXW6NZt9RiM7c6yLk2vdfb8EBM+BAsnDmZ9X+N9/f1t+U37VwFrISG00Jw5ia8OsH7FSnU3PSY964vzsHNPBjbaen8hV7J9MkloxtFdwakj6fg0vdxqP9TSZy+C6A5YfWwjCIJwFvpj27EpVRQ+CaJDkM1tcPGuTPvAAeGT4TUbfsHsr6EQhd9YCp8cHaq/OYBSPusbBpXgju4DwYiTUXk4G7XyKPTh4igneiwCPHUoyViN6jJe4AM3KVmHTC46wBtyDqC4Sg71sNnCZ2AW/KLl0GalouySOBLy6J0g/G0rtRlH2cBBgX4Jc6WSzsMPeyU3b5PBxsdbJMuUFj1810Aj9TNyTw9xxgko/KOwfL6ULEQYkDF6KNFv+J146S5WJhWZ4d0fy+fMwCOjgkThkyOTwyssEYtnhjnRLb8XYqbeidfvjZOET44LXH3CMOWh2/BUk52Ts8HNDCwcG2Fb+HQig6JG4YPHpmCiWaIVvn9BGDFpOH4rlbQJ/yFYPvs2jAhj2zAKfhy5CuooVt/z421YnanQL57t3+8SMaiPiZCpCMCIe+7GS03EaDH50OsP8uRDtoTPtsIFntliEhs+GQVA1VAsNi3nk2WSG8lleQ5vc6b1wBOVDB+Hl+aPwhyrjZXRqxfuGXYb1j6cKAqfHJkLFIFD8ciDVpLpyPrgpXvixcE/O5+KsCG4f9QoLBytFkVNmbtghXefsLLIIzOS8IjkTt0Qu5K73bK2MPqee7BilLtUeAOQqbB4zm+xeAK7LozCJ0doQ+y4HrkTi224breqf2gBeVe14kzf4Vg8zJ39ngLe3KNBq0N7+b+4upnUQTPEjByEfvxcFmVijaXwyTFcwZpfi4VZr7AgWHrMO40yHYTbLOvflNxy1YhPBG7lwif0OHXAQeGzs6ArxMajklVmcBCmCnPtQfvcN1uKou8QrH7sTowOMQqfHOO9YhyetpLsTLy/WHxH6lNGTJmBD6YHODUEDn+RN+XOKVh2z1Cp72NI9/XnrSWCMvYrTUJCKIV+5aGRKqmgEav1wMNOBEbivt9NwVJr/RAXyh+3ktBM0RuDxk7BI4OlzxY479mLILoO7fLoRhAEQRA3jP7REMfvJSj5yUpCI2sEB0N4DL1yFldtGVrXHEWlYHrgA6UQK9SHDRb4X0beAZSwMWqfaC5kKqAcEgaX0qMoE8d9ZriqjAPLFJTl6CDrPwwqfjcekgA/eTk06c63rkTFJlwqYEOJgWPBn8G7JbLeCO0tzpaVOTFeVd8wwRVUd/pHLOPukiu3YuMJcVCqiB5kPVacKgiD/OWoK8nAmlV8MPE5VhwoRh1f1ncgfivtpxHjgEOYNh6zauFjHRVCo9RwrdXgly2fYw77/rxPDuECNwuWBWDkCPPUVYqo4ZgawtofT3yyfZvoorryc7yxPUewShZEgu2szBlWnzxW4eQwKFjbrivJwdebxP0zutAeL3H8KO2hvZKPX3fvwtL3Pxfr0PSYPCIw8VbrjV49kO0ftDi1eyvmse/NWfsdjgvXuBIxw80CAgv1+ei4ICF2YsWJ7/CGcF434amPjd9hx3n6O3aMTrL6bBFyLPyN5LJ8LR+7PtsiHI9YD8eg4e2hZxjunaC2LsaphuKRO9mxCW7BYl3M++KEWH9ekfjNQHG1BthAPMajGHvWfo4vz3JFyRsjxoQBhQex9N0fkce/J++DSFPB4nqlYA358SdbGlyj572/C3uK+PddoE6IbRRLj//YeD28xX5PKDR3DzZOzrBAmzj+dtzOrleju7e4f59j8WcHkceFITc1br87AiPE1c1pTf/QAi78moFfyrgFtxyhdyZh42PxYhzYqmqHszHLb3FkuKfB8XOiOqgeMw2rRqlEYbMZRvYROzJNocbmvlwovCL2ZyofRAolzkcR0gdqYa4SGpNrr1+YP4T3lNV5+ClbKOpS/JpTKFo7Wl5LzqQV902FytkPES546A4xNIFp39oYbuGqeO80RRGCpyeK9xchFq7U989ZtQ0bj2iE9RUDx+BRy76rLQxIxMJh3qyZ5WKXdD9b+l2hsC1X/gLIQsu87zd3i/2KQcseEb8R+wf2nXnvb8PHB3JRbinGs3Px0j1iPQjHJNUD7yd35bIHTB4G4Z443GNxXU5JHC5aCBcdaqgHof/65BvsyWbXnzUHEIK4SbFzWyMIgriR9MTgpIVYuFCc5s/9HZInj0Wkr8mbTYKwxEsJ9hzIHlALoXMwYoSrn49wQzRUlMH2c+I+yYpTzg2bGtFrcR3bUXFaEjLlM+EbKkdF1ramD+wNXMP1KjYmO3EW1bIw+LIHamV0GFwuHUWZYF7aDF7xGP5KKkY3mVIsEjiZUoiy/ZlsW0EImjhdKus+9PNRY+mscYJ7JWrz8cth54YKqTiyA49vLxQz7xpq8OW3J0SBhw1G+tkYlNbl/4iXN+ZglxCfoB4/HMrAMcGYwht+zkwAUluIrz9mA8Z8MVtxxeVcfJElWm14+bGBmglTw0XxTnfsYGPiE0M9fjmdgU+PcQszOUIHWCizrWTObbFCrMK6woOsHjLwsTGbMtveqaJCLOVlwpptpOQEFm44iGUnynHcOMozOyZA3ccsaF4jhnL8+tk2LDlRI4gMukoN3kiTrGDYd8wsHlndscuaXbon8OluDX6R4k5cKNNg6c4TwrG5BgVioljcSszj+d37jbQv3P3XtJxPpgJ10BDcHsQH2cXYs/Eg1hTpRdFEqIcTWLw9R9y/8Cg8JHSOFvDOrzofX2/4DstOi3VRUXgM3wubl0Ptby6i8/V1mRlYVVmPQmPcOBmryz35OK6/inLJWNGUj7/agae+ycXXl/UNCXcqdOVY9UW6KJzJfRDmnKbXMtxCcO9QrlpocXw7P35jQqB65BXlY/HGQ9Dwz72jcK8NT/zW9A+OU4k3NnyNL7PZNc1/00slCtghcVg1Vo0RvE3axAWhgWG4N4qdP8MVXCiSiq1Sj4+3fSMKrewG12/sNKx6mk13h+EeL2vPXEqofcU5XXkz/W3JVWj4X7mcfcPJyFwweuAQrJgeKdRJXe4JfGFisBbaU9rilVKHwgM0JQj3WFpcS9OKdjNjNeHKVcmiVQVvG11YW2jpffOHfFFUVA8fjacC5aKw7BQU8OvJ/9ag8Gxj32q8Vyzb8iPesHihNCUxVnwJcPEQXuOxcKW+X1erxZd7v8OnJ8T72aC4kKYWma2F95Nlx7Dqw0NYI93Pjh/NlO7rvdHPdEM+/KUR38FK4R6z+NCVhsz9FTotvj50CE8dMGmsjH7Dh4jnwnhMUj3wfnLNV6nYw+tAEYox4WK5EX+V2M7LzhU21IPQf12+glU7v8HSLKmIIAgSPwmC6Dq4uHuid8hg3DHzYTZYEZ6UCKIJbn7SaFMaYDuCmIQIqKo4K/xtEVpRMK3OyIKWC5kzhsFPXoJLP2eKywUU8DQb2OtQxxWG86koYX/7RL8iCKalxzYJv2XE08viKbctnN+C4lKeiGmCeZKlLkro3Y0D0VWP3IkR3MKiWoMfUg7iY+PgyRlwsWtvpSjcGTFYF3gaYYOQrYU4JX0SqcSFdshac+HAj/jYbOfYIPVyyy1fFT0afA2dgBpDg/k1pUXOz/kW9dBx6P8rdQJSwhdLuAjcGB9QRHe53PxcO4K8Bxtm3zhGDxAtOuvyTjdpCxxd/lnkcAtGbuVlxZ2fW/3t2cCuG4vv5paJg3PXHpYdRjF+Pmg+cK87m4l3RaWmZRgMEDUBFxN31w4krJ9o4Vh2Gl9Zc93W5SJDEA2V8Au2YvHWqv6hhRhqsHHnDsx5bwe+PivVew8V+kkZwZeFWbY+HtuQ940PYMWDo9DvlnKc2v0D1tg7P4ZKvPHxFqzYnYMLXETh24gZhUceewBfzo3Hwj6m15FMCl9QifLWnPdWYyJIPvcAXpo+FGpu9VaSjjXbis0sUMOExFAM1sZafE13Npz0zr9N983cDHx0qBg61wBMfHAm1vPfmelYbN7mqUROCe8F3BEzZQqWD/cWXzTZRInYIC746XHqSK7V+8vXx86L57yPP24VSpxA9Rl8vOEE9pg9W5rc103OUUxUsCgOFx3Hxxb3GFvcFSS+vb6QZe2Y9Dh2kV/7cvTrZ25ieuyiGAhUPWay8EJktLUXXARBCJD4SRBEJ+QKDmyyyO7+0b+QsjMdBUJsIp65eirinffamehG1FVKAaxacYdT9m6B2BgQLFrgGCneBk0pewCNjsItBemosDSiEAb24+FhZsGxD2UnyiELjULfHoUozWiMvcSRWRMDbGZ7T4bGipt9I+ko/bUQBjnbVoIzBiydjCvHsObD77DCwYGGw/zXKM60DH0LxPe2oDdVy+3ws5TtWTE0EcsGKkXRR+aCiUPi8dtoLuzokVdgK6NCC+jdB2ph8FqOPPMm3S549QnC0plT8OXTDzQM7PkkJHNojpak/MwvES0Aew7BQ5MaB5g82dLyiZGCRW1dUYkVCzOjEGVtmoalTnBnDeol9kT6a5YJPoywAbpkte5qdWCsh87KF40x4ZrGf6uHzkIosb1tCZk7poyKx5rHk/DVc6Z1wJPY3DhivKVe/JoOv4pzTci+Ih6/0loszFb2D61BV1uJ7HJ+wWuRl96YETzm3slYZlXUluBxEOWOKsv1+OFEBp56/3Mhk/qvuVdQx9q9a+8ITHnoHqyIaSq0eveRZm8I9ag4sgvPbTxjIUqhMZu1TGZ+r3YYnvDIwuJamtoj4Y9taqCzvASdRYvum/Uo11YL7cHZfPmfb/ADF0DdvDFowhSsWPQANj6ciKVDrIVfkOLesnrR2nqheLHc+RbHddUot3LsxrA1pm3CGBJCd6ncwfAUjZbU/e407R8bJ1v3s18P7seXp7WsnbN7+qg78dJTD+DLR8Zh2ajedizDCeLmg8RPgiC6BnVVuFKYgV1bfhYHoDIv+DvTdZToNhi0OtHoU+UPDwfvcrVSgiG4KZu5MU7i8eMZeugFn1JL0lGRLT6Jl+dsazA8rb3SvM1JXWYW+LjGcOFoo2BaUsaGt87HkJaKIvbDviPmCWJNV4Zna+UDjnls4CbEXOw9FAsfGoKJ9GRjkwu/HsYvvK64YDJ9BlZxEeq5B/DUpAghzlhd/iF85IzYeD3QYe2LJyFa+/BtGMETRJgme3A2tfn44oioQHgN4QNMcUC6avZtGMRfxNUWYuce6xmZ2xulSycf4cpUWPpIkphoq6d7pxp9KFzasc20A6LQXYm8Qxn4/+3dC3SU5b3v8Z/ETDATYkgCwUBACMSAAQQMUkEqlwpYqWzRKlgLbGXTI+rede3W7rNMeyqu7mK7oK3AKWKLuAteQQUq2KNYFRSh3JF7QiEYCQESEgaSCYnnvQ2ZTO6QhJnx+1lrmHeemWFmnvcyef/zf57/jD+u1hbruyhGfYem+g3vLdasRcbxce5rmrfuiDxG//cYdZseb+LQ6WNf5WrW23/TffPXaKMZmLIKWd2iaVYAvSrjzd22nj68rr09H+d5X1Giy+ULSL6mWda8vhGKGzBOz450pgPwk3/ejA4b4q5tvuy/1uTrO+OvgcJmGjVwWd+b8en60ahUxVXk6X3fHM7+VdEvR2Wx5ix9U1mvf65dXxWqXBFyd+imQWPu0rwf3abHqo2cuUJZ4k3R5Pfny6S+FF4tXbVSU1+2f6zwXDCLPiWr77A76sgMB765OEUAEFq8+Tp5zlkGanP0qBVMNIfHdWhshqMv2Hhdz7qHhCcMVnvzh/fKXJX8024KVL5ukpWFeXBjzROCq9vW8V5OzdIe4zmbXppfc6R+vcHYS1C5XCfMCrIJNynxeqctxBUV5Svr1Q06ZqZfxfXTtNHV57lsUKOKgYSHGzJv1pA4o89yjyjfvwqC56T2r1up6caJbLMMUffN86dr7H2mxbTXD4ba85iWH9+ppYudE3LnMscJVjYLd6oeNDNvinKVU2AcLXw764Wzyt+7QXNeqDn9gM0JRPm9r6pL8xRHyi62P6fLXVe15lh1sQJfLZhBVo8uAwZqkBkgNgt/rFujJ53CH/bFV9DoytjoG5/ubltnNfLeifZGfLbkSoS2/UXY1egry+3MWzNgtMX5rjHWfY0M2soKvb9tg952ilJ1T73EQK+3UL9+c5uTSZekdCfL1DctQlK35DozKweldrbvO1EQkBXdVjF1HBt8hbRVeKaewmsV2nJgq/77Q7vgTNyA2/WzgK/Yjcb3ujXvdrvr9e0QHOwwru/1dt8V5+kfzbzfXsr3pm8od/7nn2iebw7nZrYrN1tZy9bovrmvadaKz+2CY9ekaPSYXn7751lnWom6t6FLCbpf3O6agW/fqPuYHKjqxwRfgLquS12V2IsK7B8rHvz9Mitre5f1g0V79R3nV0wO+IYj+AkgtHTspa7WGJZzKm7Ggs4II0XrVHDCXkwY/jM5c8HXL2+TTpl/TLdJVdexY+y2anordlymzL+zKw5sUrEZ+EiMl6/Ye2NExZpD6nsquq4/1mvjjm/2DLryT9frVKVbXQZPCZ8/AjxHtHibfebgvrG/ZgQM7T1bZp7hGScikQEZEO4UzfmXjDpP3MNLrL5/kzmnWK4+e3ODZlysCmtc/vg3PbXtrF0kp1kU6Jg1ej5Rg76V2HL9m9hZKdZ/flY71+3WG6ern5C7a8xVeemG39LbKuB0bMsnevLllZrgVCyf8PuVmvHuEX1sb2JXxMfHCqwgT+T1aZpRS2e703rLmibb+6X2tcI0BIF8c9npyx3KMvbTHP++crVpYL7UCifQ7JKrJeayM6czMK8Tb9CE2kaTxPfSwM7mQqEOZzdhjokW4ZY1Sv/sGWXbDRruK2pm9FFdm2C+U/kvpl1z7IlenXVmlvn4oJPp3K2/nqyt74zj64NmdWzjOfu/yHX2zWKdsP52c6nL9bUF3Fya1seOVHoaUX18//bN2mJFt8zs14DiNof+qRxregbjvjtCa1RAXEo/3X+j/cdL/p5D9QSBL0MD35uB2jvTPnhKW2M/qNCWw9l6cpVdTE4dO+pmq93kmyPUpR43ddMNdmM1992cZn3vVJ+KxCuPs5MEZiu7r8vQ/BHNFyG/eEzu2VuPNXK3+4czd2dKj7p/TGgsM2s76xWnmFxU4pUpJgcEIYKfAEJCRHSiug4Yp8l33yjrHO7YZm2ud35DfHNt1qlVm+1MzrapSv/RS7rupjFq4zvDdqUqquePlTJjkTpcrI6+Sic2HrfOsWNunqm0sZMU2db58zNmjOIeeFbp5gz8lceV88ESu/3qS/wSvdLfvKUv6at9XkWkDVOHlggmXCFbPt2q/eaJbptkDf929ZPqfb7CLWkZetIp2tHlulTNm3KbejQ2MSPkXaMYq15Lkvpmtlff2La6ocXWf6le320foN0Zo/TChFTdHR/hnNCZFahTNOvBgZpm3b4Mp0vs/VwxSu1nfC5r3/L9//doRt9mm+1NSW672E1SeqpGG33Xt53v8wSBAwe0z4wQuFI07sGhmuGrxOzM5zr/u6nWjyhFO/ZqqS9jtRXlljjZlR27a5qz/7mjYnT3Lbdo6cyhDVRjPu3MV2r0+eiBuu/idtRMinOcgkaxGjRxlLJ8c+Ea29Gg7uma90CmFfQuz96hvzTPuO0mmTb+Ls0b2U13d3AZ7+taO5O68Ix2uo3+G3ab/tUXINt3SButpUvUyfisP8zUk2nGscE/Bc7Yhm4w9qfZk2+2M+k8x/QP3/yQubv1mbVcs+96dO6mOQ8ax1fzGHNyh173m07jr9nOseHGEZp3S1VxG3dUrPF5R2m0GUitPKkt2xuT7liq5zdk2xmenftrhn/8qjJff15vZ4aa2Y2PPXyLHuvue4/m67mM/SND84z2yz4WNQuj32Lba9odo7To3gxrKhIV7dQbn9Vfhf1y1Pe92XqSNfvh25Q1IFFD/I6r5jHivn5O5vDpE/qH1Wp7Y3uOFRSNTBmqn0/optHONmttQ3eO04NmpfXKQm0xCzRZ95hKlXvajn4m3WQcS6wfoo39PG2g5j/Qz+7v5uI7Jhv9OnrKKM3K8N/O7WPfvGHVfwnftT3bmtYrsuft9nemsc9bx3FDnLm/D6htW43Vzx64Q7OHJRnfS34V+F3Gtp3Z3d5nvaeV3QxTeQPh4KpevdKaMt07gCugrKzl/vBpaYlDJ2tiRkOV2Uv0xYplWl/g3FS6xs/4tvHnUO28eZ/prb/uVFErn8T16NFDOTlXcoBe87vnnnu0YsUK51Z4iRg4X/3uTFVUnX/QenT4Rf8iQb0V+8BspRt/NNf6lEqPvnr7aR3Z7ZzFGf//kLtSdXbTbO1e+6HdVouoscs1YLBbnn/M1a53u6r7zycqySxa9IcsBdQMqZI8SxmPZCqm2Hjc75zHOa9Xn/zVY3V4q3PD938oW3uemelMBeBIyFKfmUOtTFZTtecFiP3BWvXpoQY/Z2uZdu9k3d3NHhoWWHTihszbNXu4ceSozNOaBX/XQl8HRyVrzvTb7RPxasxiGXt11jip6FK8U3MW7a7KsOl7m96+wziTDmy3mEVs7tKg2GJtWeo3dLlThpY+2M84WTPnpftEi51mn9rfe4rmNKLoi2fbar/hbr7Xr70fLr73I59Um5Pt7ju+p2l1BQQrK1RelKctn2zW84dK/U4YL5VLD44fq/vS6gpABvbRpfRDhKZN+BfdXcecZuXFZ42uilFkQD/41kP1/8vhW4cB693dbaBeuCdd7rqOJ2WFOrZ9qxZ+mq9dzfXdVO82WJ2VuVTPCXx59id6+u2AaQ0a2F5rqOXxw0feZRXiqOrLWvYN43kvTarjvVUWy3M+Vm53wL7kp0ufoZo7rlutWfC1bv9NZWaA1/dDyOmdmhdY5flSjg+XwLet1qfWdeun5jqqxcV1W4/KQm18dY1+7V8cp6G+K8nWG0s/19JqB5RYPfngHRpuVhqvlddYryuN9eqfy+o7PtS2rbr02OR77aDplxv02KtHqhWZGT18nB7LrC+wF/B/NqIv6u3LRqk6htel/PhW/fmNfVrj3w2NOk7W3O4u6XszgG87apZ9rpoGPpMZxDS2u1kBRZnqXa+Vpcp5f3XANmSo61hkPn5nrpJu6iV3wPdFU47D/tzX9dKciZlKquNHxtq2IXMO62eN16p7xE/g9t/QdlTbvgR8c9X1JxwABJdyr4qOfaGP3lqsxataP/CJ0FOxdaa2zZuvg7uPyxz159tkKi945cnfq4PLfh1QHX2vil+doh0rN6vglFcVzhMqL3hUdGCDds37YVXg09DGlxnagAtl9hhBd3xXqW1M4+bBP3dWF8zr2Hi1SHLeqZd0/KizHEb2b96qLea5RGAWS1meNb9ZjpP1YSnK1cZ33tHMdYXG6cE3w/tb9yrf2rAqVH6+1Lj4fXKzInR8iobcfZdm1ajofCnsIgxZ72xVTkFxVYVgM8h62uz7zXrdabp0FVq8crXe2GUWeXCafP//qhWaviqn2datJ/eAtpxwhnt6zb4zLv7fQ1HtrUq7P78npdZhmC3N89VuzfzTB9p4pFDlvr4w17PRF1veW6np9QTHWtzx3fqPNzfrmP/+5y225kqdt2C13m8gK+nYng16xtiOjp32O5A3J0+unnxxpdbsNbYjr9+QXnMu3PVrlBUY+GxFr69arXe2HVF+ScCWbGyDRV/t0/uvr9DU5li3x/dqzorPteuI0Qdlfn1g7k8lJ5Wz7RPNmR8Q+DQ5fffOtlwV+T/P6Luczz9Q1ouBgU9Tsea8sloL1x+s/rkqje/mgoNa8/JbTQzWeDVv3U77B5vA7E/D+x+vsYvBmPuG//o1+/DITr2z7NNmOBY1kzJjv8g239Nrmro0MPDZMur83mw1uVrsK3RUbf2Yx4jPtfBPNQOfJnO9mt8v1Y4LxjZkrdO/vFP7NmQci/575U4duzjndYW9zZmP/8IpkNVMPF8d1IwXjOPKrrzq+4Zz7Fu4vmbwfP+uTzTdt61ePI4bLm4XgdtqsZ5/2yl05P8aF5xtu8n7EhDeyPwEQkAoZ36GEzI/AYSsi9mvXuV8sFpZ26tnd5rDBWdMvEPDr3NJJzcra8lBNWtyT0iryjAtP7JBz6w4Uj270xxePvg2zRiarEid1MeL/qY5l5MUBtSiS+btmjc8WTlrlunJPU5jIzQq8xNoQMtlfgJA6yDzEwAAINylpdrD/j0H9P8CAp8mT1mxduY7GSJXR9U//PUbJ1l9raH1Z7Xv84DAp8msqn3ktJNlGmFOtwY0u/RYc2xrsQqbOPdooa/gW7sY9mtcstR4Z2y1X4IhAIQSgp8AAADhzjePgztNE0YmaYhfURO7AMNQTetnz8/pOXz08oqnhB3jbN/qvhilD8/QfX6FKMyszyHdUzVnfIYdWCrO1acUl0ALSGlv7p9ndOKEfbuxdh09af3YEdnzVs2+JfZiwR+gUcziObfcrjutuWfzlJNttQJAyGHYOxACGPYeHBj2DiBktYlV1rS7NOhi1K525cc3a+ErB6/YHIfBavTIcXpsQAPz4ZXl6+PlH2hOLfPTAVeOS9Pu/Z7u7uaXktzE4i2onW8oeJMEFtQJWjULEZUf+EBTV+U3Q0E8AGh9/PYHAAAQ7iqLNWvxCqfISECxngul8hQcsQvjLCXwWZv3161R1uufa79ZvMm/KId/QZgXCHwiGHm1eMVqLf08V0X+2y7QWGWFOvb53/Q0gU8AIYzMTyAEkPkZHMj8BAAAAAAgtJD5CQAAAAAAACAsEfwEAAAAAAAAEJYY9g6EAIa9B4dwHPb+6KOPOkuNt2DBAmcJAAAAAIDgRvATCAEEP4NDuAY/n//T886thj3+8OMEPwEAAAAAIYNh7wAAAAAAAADCEsFPAAAAAAAAAGGJ4CcAAAAAAACAsETwEwAAAAAAAEBYIvgJAAAAAAAAICwR/AQAWGb85xl9+uwFjXRuAwAAAAAQ6gh+AgCk6yo0su95de13UvOerlBXpxkAAAAAgFBG8BNA62jTTskDRmniQzM0Y4ZxmTxMic5d9bKe921NuH+apj3iPNe8fDfdeQCaxVcRuv9X8TrorVDs4NNa8vDXzh0AAAAAAIQugp8AWlTEtV01cNREPfTwZI0f3FOJ0c4djRCRnKmJD5nPS1dSnEuuCOcOtIz9Lk35Y3sVy6ted5/Ry4OddgAAAAAAQhTBTwAtqJ0G3jFOmT0TFS2vTu79SB/tLXHua0CHb+n+7w5UYlvJe/qQNr+7XP+zeKEWLnQuf93nPBDN6ej70fr9pmuMJY9GPlzG/J8AAAAAgJBG8BNACyrRjv15KjmyWateXazlH+/TyQrnrnpFq9+wfmpnHKFKdr+txW98oK25J3XO69yNFrVwbjvtNvv6urP69zvtNgAAAAAAQhHBTwAtyrtzlZat3aq8RiZ8WjoMVEZH47poq97dkG+3ofV4IrVkkzk/QakGjSin+BEAAAAAIGQR/AQQdNpd31ntjOuSIwdVZDehlb3y97YqMBduKNXjVgsAAAAAAKGH4CeAoJOUEGddl3ijNXD4BN0/7ZGqKu//+pAmDO+pOI5eLWuTS0dLzYVydR1ttQAAAAAAEHIIHwAIOlc7Vd2TM8crs3eS4vzLvEdGK6n3KN3//WFK4gjWgiKUa804cF4du1kNAAAAAACEHEIHAIJXaZEObVqj5f/zol3hfdFivf3RYZVUGvdde6NuH2QOjkdLOW/2syEpqVFVqgAAAAAACDoEPwEErbxNr+mDbUd18pwTfKv0Kn/f3/TuDnsm0LiOna1rAAAAAACA2hD8BBB0is96revomNozO4tKztkL0e2swkhoWfn5ftMOAAAAAAAQQgh+Agg6eSdOWtdxKb0UbS1Vl9zRLohUUXRSJdYSml+FuiaY19foxBGrAQAAAACAkEPwE0Dw2b9Xh8uN6w6ZmvCddCW57GZFtlPXwRM0Jt0MiZZo3/bDdjua303lSos1rr0u7X7fbgIAAAAAINRc1atX2tfOMoAgVVZW6iyFnsShkzUxo6HB6SX6YsUyrS9wbhqie4/X/cOT5Yt7VufVya3vavlmqxx5q+nRo4dycnKcW+Hh0Ucf1fN/et65VWXSTwv1m2HnpP0ddetPInXUaX/84ce1YMEC5xYAAAAAAMGNzE8AQenc3lV6+c31OnTqnCqcquOqrNC5U4e0/s2XWz3w+Y3irtADA8x5Vdtqy4dVgU8AAAAAAEINmZ9ACAjlzM9w8k3J/Jz0n0X6zXCPdLiD7v93lzY47SYyPwEAAAAAoYTMTwDARV1Hn1OWGfhUjNYsqB74BAAAAAAg1BD8BADYbvBqyY8KFSuXDr4Tq+n7nXYAAAAAAEIUwU8AgKFCr/3v0+rlilDxpnhN+dNVTjsAAAAAAKGL4CcAwBChdQejVLClg77/bARFjgAAAAAAYYHgJwDAsvDZ9hrwywjtdm4DAAAAABDqCH4CAAAAAAAACEtX9eqV9rWzDCBIlZWVOku4knr06KGcnBznVnh49NFHnaXGW7BggbMEAAAAAEBwI/gJhACCnwAAAAAAAE3HsHcAAAAAAAAAYYngJwAAAAAAAICwRPATAAAAAAAAQFgi+AkAAAAAAAAgLBH8BAAAAAAAABCWCH4CAAAAAAAACEtX9eqV9rWzDCBIlZWVOkuAY+B8DbkrVSrarG1/yFKZ01yDa4RiR05Wl34pimnr94tXQ88LJ8lPKW3yCMW39er03+fqwPoPnTuCT8oYj956SFo4w61FHqfRX7pX7z59TrkL4jTjU6cNAAAAAFAnMj8BIFy1GaOkf3tKfQanKNY/8BmiIgfOVq+ZK9Vn7AinpXGi+g1WfLSx0Mal+IEjFWU3Bx0z8Pnuk6fUoUOpRg5zGgPcPfKcenYo1tj/KtZz6U4jAAAAAKBOZH4CISAsMj/btFNy/8H6VkZPJZqBqJIvtHzZep207/WTqGGTJ+rGds7N+hz7SAv/us+58Q3TiMzPiBEvKfO2TlLpcR1ePV/5ezY794Sm2B+sVZ8e0tlNs7V7bROyN0Mh8zO9TB/8Jl89XVE6tKKjRi28yrmjpum/PKWnh3ikwgQ9+3AdGaIAAAAAAAuZnwBaVMS1XTVw1EQ99PBkjR/sBD7RKtydO1nXp9ZnhXzg87LkzdaB347Vxme/F6RD3r/WwqdOqqcrQsUbEzS1nsCnadEv4vVaTpTU/pR+8iuvUpx2AAAAAEBNBD8BtKB2GnjHOGX2TFS0vDq59yN9tLfEua8uJ7V+2UItXFjX5TVtPW0+rkJ5OTnWM1Cb/oqMsZculObaCwhKt84o0djkCulMnP7wi6vV8Nq6Sj+dHadDXikq/Yz+cI/TDAAAAACogWHvQAgI5WHvrn7jdW/yl/r7hq3KK5ESh07WxIx29Qx7b0CPOzTtO93lutTnNxfXCMXdNUUpaZ3kdhm3K431VJito6vm6dTRvfZjLhqhpCeeUve4bO15ZqY8aVm6/juZSkhwWb9AlZ/KVvabT6sov9B+eKCkmUqZMFIdO7gVaT7BfK0LUpT5unUOe/e9ppS/eqwOb3Waa1PvEHrf/+PR4RcnKj/PaU6epYxHMhWTs1wb/7Je7pFPqps5t6jVF14VH3pP2Svmq8xrP7yGNv11za1T1e3mVMUaT7I+lrdQp7av07F1i5znTVf3n09UkrnYEOt9LHJuGHzvz7np06gh8zX62ytPQbby1rxQc91ebj/ogt5akaeB7ih9sSRJdy5zmhvh/p8V6rkRxk6V21GTHmkr6h8BAAAAQE3maR0AtBjvzlVattYOfF6+OGVmdpfLzPrctunKBT5jpqv7E08pPcMJfJqMo2lUQqp6TZ2t7gN7O42BOinhnpd00wND1cEJfJoijeelT5+r+MBIndyKGv2KBs8Yr85JTiDOZL6W73X9RI1driE/X+tc7MCnKekuX1vVpftA+77LFn+TUh6Zrb7DnICfqY1LsWnj1f+hHyvCaaomZoq6PTFb/Uf2VpwT+DS1cbVXh8ETlZzhNLQ6o79HvKRBNfrbJXdSb2vdpo0Y4zQGuJR+ME0+p4Fu47qgnZY0IfBpeu15t74wg6op5/RvQ+w2AAAAAEB1vlM7AAh+PQervxnQO3dQW/bWmUrXwnor/v6JSoqWyvM2a/e8Sdr4zFhtfG6Wdm86rnK5lHTnU7UEMk1uJWV0UmTpcWX/Zbr9vIXv6ZSZ2Numk5KHDLUf5tPnWWXc2l5tKr0qWL9IW56b6LzWj7VjYx1Zoq0tLlWdk11GX2zQDuv9TdK2dblGPxgfqfNgJXa0H1YlUwk/mKTrYo1Fox+OrJyrTc8an+mZidr0u7nas/W4vBfsR0qLdNj8vM5ljzPLgZm96Wu7ePHP+jTlZWm33/2+59ar88/U6zZj/cir05uWVPX3nLnad8CjSmPdxg+dpIQE5/H+mtwPtqdvOWddF+xtq9espSbwuLQlx4y0ntWgMRV2GwAAAACgGoKfAEJEooYN7m5l0OXv+Ey+0det7vqpSulsXJ/doT1/ztLZ004QsnSDzq6dqX27vVYgs2Nmf7s9UGm29iyYqoIcZ2bH/Lk6utMu1x3TqY91beuvhOG9FWksFW2Ypex1y1Ve6pT1Lt2r8yetiU+rKVvrBOusy2wdLrLbzWHvVe32pd5h8E1UnrNc21+cpfPW+ytU2fplOma9dntFdzGv/WRMVg8zEOjN1T6jH77a/p4qK807PKosfk/Fq6fqy53m7daWovjv2MPkz29fogNrX6nq77PvqejVp3XoS2PZWLddvjXebg/QpH6wVOjGJDOI31a5ey/t63jN4bbWdWzyBQofAQAAAEAtCH4CCAmu3t9Sejtj4dw+bdp5pbI+pcieXXWNce3Zt07nraCdP488/7SDmnGdB1vXgQrW/VTFZ50bjrITx50lP22GKc7KFjyuE58Fc6X2XGUvW6TqeYcf6nzN2KwlJj3VCmCf371SRQH9cGWN1bVWgLJQeRuWWy3V7dXpHfa6vaZLn1qGsTetH2wX1LG9ee1S7ntWQ5N9ujdSxeZC+wvGJwAAAAAABCL4CSAEJGrwgOQrn/VpuCbRilbJffOPa8yjaV3MwkH1qKx0sgkb0qmTFWRVca48QV3vyutkbjbGULk72RNiFuetsq6DRly8oqxvxNMqO2W11JR3XFa81hWjq60Gf03pB4dbirIW2siXZNpkvikCrq1QL2cRAAAAAFCF4CeAoOfqN0w3BkHWp6Vm1KtlNTWgFtRcwfut43K1+qpVh6+dBQAAAABASyH4CSDIJetb/ZOspSud9WkqO2mn6NVadMf/EliAp6kuOEHe2HgnO7C6iGizRHhrcKlNs31TVA0Dj7q2jjlRr5QTx2WvWbcinSr5NSR3suYElee0Vcjosv3zKpVZC5Vqe7mr80yEDjqLAAAAAIAqBD8BBLXo/oOVHm0sBEPWp6Hs6FFrXseY1GFWMaIWc+KQSsyP2yZF7XrYTRd1nqXet3dybjSDUq89V6XLFfCl0FuxD8xUilmZvZl4vrTnN40bMFnXNPUbyBniHemKtxea1SYVnzCvO+m6W8dYLdVlKuFmu6RQ8eH1zZSQG6ETZ8xrr1Jqe8lGSLmhXNbqKbxaa60WAAAAAIA/gp8AglebZGX2C56sT8u+9cozJ35MGKp+j8xWbNfeVZmRbXvrmj5PKWXGInVIdtou2UqdyjGjny51vnO2YuLbW4HQqMHz1XeaXZW82UbE5x1XiXkd3VtdbhthNantGCX8cLbS0wIDopen4rPNOmW+8Zj+6vvYfCX0HFrVfzFjFHvXS+rcz7kdwJNvB06j+t2rzn38ntcsdqhwe67VpzE3z1Ta2EmK9KVjxk9Uhx9mKdUsQFWarWOfNlcBqqv1xVfmHKil6tm/eqmkxppygz0hbMHhSNnlmAAAAAAA/q7q1SuNSceAIFdWFtQVb+qVOHSyJmaYE3bWp0RfrFim9QXOTUd0/wl6aEiSlfW5aulHyguW+S87z1KGGYCsM/jm0eEXJyr/YrR2hJKeeErd46T81WN1eKvT7DNwvl0oKWd59eHyCU8p/X+NUFzg61QW6vDi9Yp+eLySijZr2x+ynOHT/hp4zWpSFPvAfPVJs4sR+as8tVm5nkx16xrwmZKNPnjEDMJma88zM+2K435if7BWfXrU/toRGXPVZ0Jvuevovzrfb9vp6v7ERCW1dW77C+i7qLHLNWBwQ2PJA9+7melaT8DX6vdHlP+lX3Wiy+gHU8qUYq2fXGRsMvH67T0xet5pbxS3V+++elw3umL04S/iNXWj0w4AAAAAuKiOU08AuMLadNewgU7W587NwRP4NH2Zpd3z5uvg7uPy+I3Er/R6VfzlDh1c9mu/wOdlODVb+15Ypa9Oee0sT+Of80c3a9c8MwDXnFMA5Kr4deO1DhSq3OnnyguFKli/RFv+b5Y8vorizaRi94+Nz7BE2Qeq919Fqf2aR7c7DYFKF+nwC8bzcgpV1szvybZXxa9O0Y61e1VU7PS5ofKCR0W739MOq98vtSx77XKXRGur+V+6z2rcFLutsUZMP6cbzXh1brReIPAJAAAAALUi8xMIAaGc+QmgfiP+o0gvjSuWziTo2WluLWpMfPVi1me0Pn0uUZM+cNoBAAAAANWQ+QkAwBX04e9i9WF+hHTtKT3xXxdkl1Wqz9d67reFVtZn2Y44/ZTAJwAAAADUieAnAABXVBtN/VWiDnml2MxTemlG/QMypv/ytO7vUSYVJug3v7yaQkcAAAAAUA+CnwAAXGn7ojR1XoKKVaae95zUWw847QFufaRYPxnikbxxeu3/NHKIPAAAAAB8gxH8BAAgCOS+59YTL8aroMCtd1c5jQE+XR+l3DNxeufpWP10n9MIAAAAAKgTBY+AEEDBIwAAAAAAgKYj8xMAAAAAAABAWCL4CQAAAAAAACAsEfwEAAAAAAAAEJYIfgIAAAAAAAAISwQ/AQAAAAAAAIQlgp8AAAAAAAAAwhLBTwAAAAAAAABhieAnAAAAAAAAgLBE8BMAAAAAAABAWCL4CQAAAAAAACAsEfwEAAAEZtErAAAA/ElEQVQAAAAAEJYIfgIAAAAAAAAISwQ/AQAAAAAAAIQlgp8AAAAAAAAAwhLBTwAAAAAAAABhieAnAAAAAAAAgLBE8BMAAAAAAABAWCL4CQAAAAAAACAsEfwEAAAAAAAAEJYIfgIAAAAAAAAISwQ/AQAAAAAAAIQlgp8AAAAAAAAAwhLBTwAAAAAAAABhieAnAAAAAAAAgLBE8BMAAAAAAABAWCL4CQAAAAAAACAsEfwEAAAAAAAAEJYIfgIAAAAAAAAISwQ/AQAAAAAAAIQlgp8AAAAAAAAAwhLBTwAAAAAAAABhieAnAAAAAAAAgLBE8BMAAAAAAABAGJL+P6AxJziNU+BHAAAAAElFTkSuQmCC;" parent="1" vertex="1">
          <mxGeometry x="-260" y="1070" width="1343" height="630" as="geometry" />
        </mxCell>
        <mxCell id="MFZtFx-qUxBc-n4n6ePM-9" value="&lt;div style=&quot;color: rgb(212, 212, 212); background-color: rgb(30, 30, 30); font-family: Consolas, &amp;quot;Courier New&amp;quot;, monospace; font-weight: normal; font-size: 24px; line-height: 32px;&quot;&gt;&lt;div&gt;&lt;span style=&quot;color: #569cd6;&quot;&gt;cmake_minimum_required&lt;/span&gt;&lt;span style=&quot;color: #d4d4d4;&quot;&gt;(VERSION 3.21)&amp;nbsp;&lt;/span&gt;&lt;/div&gt;&lt;div&gt;&lt;span style=&quot;color: #569cd6;&quot;&gt;project&lt;/span&gt;&lt;span style=&quot;color: #d4d4d4;&quot;&gt;(CustomTargets)&lt;/span&gt;&lt;/div&gt;&lt;br&gt;&lt;div&gt;&lt;span style=&quot;color: #569cd6;&quot;&gt;list&lt;/span&gt;&lt;span style=&quot;color: #d4d4d4;&quot;&gt;(APPEND CMAKE_MODULE_PATH &lt;/span&gt;&lt;span style=&quot;color: #ce9178;&quot;&gt;&quot;${CMAKE_SOURCE_DIR}/cmake&quot;&lt;/span&gt;&lt;span style=&quot;color: #d4d4d4;&quot;&gt;)&lt;/span&gt;&lt;/div&gt;&lt;br&gt;&lt;div&gt;&lt;span style=&quot;color: #569cd6;&quot;&gt;set&lt;/span&gt;&lt;span style=&quot;color: #d4d4d4;&quot;&gt;(CMAKE_CXX_STANDARD 23)&lt;/span&gt;&lt;/div&gt;&lt;div&gt;&lt;span style=&quot;color: #569cd6;&quot;&gt;set&lt;/span&gt;&lt;span style=&quot;color: #d4d4d4;&quot;&gt;(CMAKE_CXX_STANDARD_REQUIRED &lt;/span&gt;&lt;span style=&quot;color: #569cd6;&quot;&gt;ON&lt;/span&gt;&lt;span style=&quot;color: #d4d4d4;&quot;&gt;)&lt;/span&gt;&lt;/div&gt;&lt;br&gt;&lt;div&gt;&lt;span style=&quot;color: #569cd6;&quot;&gt;add_executable&lt;/span&gt;&lt;span style=&quot;color: #d4d4d4;&quot;&gt;(rooster main.cpp person.cpp)&lt;/span&gt;&lt;/div&gt;&lt;div&gt;&lt;span style=&quot;color: #569cd6;&quot;&gt;target_include_directories&lt;/span&gt;&lt;span style=&quot;color: #d4d4d4;&quot;&gt;(rooster PRIVATE &lt;/span&gt;&lt;span style=&quot;color: #569cd6;&quot;&gt;${CMAKE_CURRENT_SOURCE_DIR}&lt;/span&gt;&lt;span style=&quot;color: #d4d4d4;&quot;&gt;)&lt;/span&gt;&lt;/div&gt;&lt;br&gt;&lt;div&gt;&lt;span style=&quot;color: #569cd6;&quot;&gt;include&lt;/span&gt;&lt;span style=&quot;color: #d4d4d4;&quot;&gt;(ClangFormat)&lt;/span&gt;&lt;/div&gt;&lt;div&gt;&lt;span style=&quot;color: #d4d4d4;&quot;&gt;add_clang_format_target(format-code &lt;/span&gt;&lt;span style=&quot;color: #569cd6;&quot;&gt;${PROJECT_SOURCE_DIR}&lt;/span&gt;&lt;span style=&quot;color: #d4d4d4;&quot;&gt;)&lt;/span&gt;&lt;/div&gt;&lt;div&gt;&lt;span style=&quot;color: #569cd6;&quot;&gt;add_dependencies&lt;/span&gt;&lt;span style=&quot;color: #d4d4d4;&quot;&gt;(rooster format-code)&lt;/span&gt;&lt;/div&gt;&lt;/div&gt;" style="text;whiteSpace=wrap;html=1;" parent="1" vertex="1">
          <mxGeometry x="1610" y="1130" width="870" height="490" as="geometry" />
        </mxCell>
        <mxCell id="MFZtFx-qUxBc-n4n6ePM-10" value="&lt;font style=&quot;font-size: 33px;&quot;&gt;Format all sources automatically&lt;/font&gt;" style="rounded=0;whiteSpace=wrap;html=1;" parent="1" vertex="1">
          <mxGeometry x="1640" y="130" width="510" height="60" as="geometry" />
        </mxCell>
        <mxCell id="MFZtFx-qUxBc-n4n6ePM-11" value="&lt;font style=&quot;font-size: 33px;&quot;&gt;CMakeLists.txt&lt;/font&gt;" style="rounded=0;whiteSpace=wrap;html=1;" parent="1" vertex="1">
          <mxGeometry x="1790" y="1070" width="510" height="60" as="geometry" />
        </mxCell>
      </root>
    </mxGraphModel>
  </diagram>
</mxfile>
